<svg width="129" height="117" viewBox="0 0 129 117" fill="none"
  xmlns="http://www.w3.org/2000/svg">
  <g clip-path="url(#clip0_137_256)">
    <path d="M2.25785 33.3687C-0.974795 39.8936 -0.0941134 48.2246 4.40336 53.9353C1.1472 60.0165 -0.896396 67.0478 0.391958 73.8233C1.68031 80.5988 6.92519 86.894 13.7563 87.878C13.0586 99.6229 20.7835 111.391 31.8508 115.434C42.9181 119.477 56.4157 115.468 63.4716 106.038C73.5851 110.838 86.1002 114.881 96.1927 110.045C106.285 105.208 112.656 90.3105 108.582 79.8967C113.728 75.7729 121.351 72.1242 124.921 66.5858C130.129 58.4949 130.147 48.363 126.136 40.6714C122.302 33.3008 112.651 26.5592 104.401 27.6032C104.051 23.8477 102.794 20.2329 100.739 17.0687C98.6832 13.9044 95.8903 11.285 92.5993 9.43476C89.3083 7.58454 85.6173 6.55871 81.8424 6.44514C78.0675 6.33157 74.3213 7.13366 70.9248 8.78269C66.7435 3.61233 60.2103 0.558657 53.5777 0.0732014C46.9452 -0.412254 40.2499 1.54784 34.5686 5.03216C31.0021 7.23201 27.8235 10.0045 25.1608 13.2379C23.1642 15.6469 21.6694 20.4101 19.2443 22.1379C16.8191 23.8657 12.6405 23.7039 9.8364 25.3586C6.58982 27.2431 3.95797 30.0248 2.25785 33.3687V33.3687Z" fill="#7EBB15"/>
    <path d="M126.128 40.6713C124.469 37.4793 121.719 34.4074 118.466 32.0349C118.633 32.3194 118.792 32.6065 118.941 32.8962C122.942 40.5878 122.935 50.7249 117.726 58.8106C114.159 64.3516 106.534 68.0004 101.388 72.1215C105.465 82.5353 99.0935 97.4383 89.0009 102.269C78.9084 107.1 66.3907 103.052 56.2799 98.263C49.224 107.69 35.7211 111.699 24.659 107.659C22.3148 106.794 20.1068 105.597 18.1023 104.107C21.3349 109.228 26.1512 113.351 31.8482 115.434C42.9181 119.477 56.4132 115.468 63.4691 106.038C73.5825 110.838 86.0976 114.881 96.1901 110.044C106.283 105.208 112.654 90.3104 108.58 79.8966C113.725 75.7729 121.348 72.1241 124.918 66.5858C130.132 58.5001 130.139 48.3629 126.128 40.6713Z" fill="#78A015"/>
    <path d="M12.0865 66.5804C11.1483 64.5379 10.7122 62.301 10.8145 60.0561C10.9167 57.8112 11.5544 55.6231 12.6745 53.6741C12.9959 53.1286 13.3644 52.5649 13.3592 51.9333C13.3592 51.4113 13.0978 50.9206 12.8574 50.4456C10.8791 46.2983 12.0473 40.8852 15.5622 37.9177C18.0735 35.7958 21.4159 34.9762 24.6512 34.3759C27.6905 33.8122 30.9231 33.405 33.7977 34.5456C29.6896 35.031 25.6965 37.4348 23.9273 41.1723C22.1581 44.9098 23.0414 49.8975 26.3786 52.3456C22.5841 54.1961 19.1816 57.2184 17.773 61.1934C16.4664 64.8474 19.4664 69.4175 17.6423 72.3459C15.1885 71.5028 13.1841 68.9164 12.0865 66.5804Z" fill="#94D31A"/>
    <path d="M45.73 13.979C50.1596 12.0659 56.2485 13.718 57.9602 18.215C61.496 15.6938 66.0196 14.9265 70.3629 15.0335C74.1391 15.1248 78.1584 15.9548 80.7926 18.6561C84.7125 22.6807 84.1742 29.2422 82.4181 34.577C81.702 28.9551 76.1174 24.8365 70.4649 24.3772C64.8123 23.9178 59.2852 26.4182 54.6936 29.7459C54.9811 25.7004 52.1091 21.655 48.1944 20.5849C44.2248 19.4991 40.6733 23.7168 37.9712 22.8608C38.9668 19.1259 42.1629 15.5294 45.73 13.979Z" fill="#94D31A"/>
    <path d="M43.0906 54.1413C45.1812 49.8531 50.1204 47.1309 54.8739 47.6347C56.3426 44.2182 59.6928 41.8301 63.3044 40.9218C66.916 40.0135 70.7575 40.4468 74.3325 41.4882C75.9005 41.9449 77.4685 42.5321 78.6941 43.6205C79.7969 44.6019 80.5365 45.9147 81.1976 47.2353C82.5565 49.9497 83.6803 52.9094 83.4921 55.9422C83.3039 58.975 81.5217 62.073 78.6288 63.0074C78.2368 59.2569 75.2759 55.9161 71.5964 55.0705C67.9169 54.2248 63.7905 55.9448 61.7992 59.1473C58.8984 55.9657 53.826 54.8408 50.0028 56.8322C47.4783 58.1502 45.5471 65.5208 44.8049 65.6879C40.817 66.5883 42.2909 55.7778 43.0906 54.1413Z" fill="#94D31A"/>
  </g>
  <defs>
    <clipPath id="clip0_137_256">
      <rect width="129" height="117" fill="white"/>
    </clipPath>
  </defs>
</svg>
  