<svg width="90" height="84" viewBox="0 0 90 84" fill="none" xmlns="http://www.w3.org/2000/svg">
<g filter="url(#filter0_d_62_639)">
<path fill-rule="evenodd" clip-rule="evenodd" d="M12.7879 0C18.3303 0 23.2246 3.61482 24.8546 8.91217L25.0258 9.46875H75.7556C81.451 9.46875 85.8576 14.4605 85.1512 20.112L83.4884 33.4146C82.9528 37.699 79.5867 41.0785 75.3045 41.631L33.1866 47.0656C32.6872 47.8172 32.0679 48.5002 31.3381 49.084C29.443 50.6001 30.515 53.6562 32.9419 53.6562H76.5938C78.3369 53.6562 79.75 55.0694 79.75 56.8125C79.75 58.5556 78.3369 59.9688 76.5938 59.9688H32.9419C24.5479 59.9688 20.8401 49.3985 27.3947 44.1548C28.2176 43.4965 28.5546 42.4021 28.2447 41.3949L18.8212 10.7686C18.0063 8.11991 15.5591 6.3125 12.7879 6.3125H7.15625C5.4131 6.3125 4 4.8994 4 3.15625C4 1.4131 5.4131 0 7.15625 0H12.7879ZM34.5217 40.5285L74.4966 35.3704C75.9241 35.1863 77.0461 34.0598 77.2246 32.6316L78.8874 19.329C79.1229 17.4452 77.654 15.7812 75.7556 15.7812H26.9681L34.2781 39.5385C34.3789 39.8663 34.46 40.1968 34.5217 40.5285Z" fill="white"/>
<path d="M22.9375 69.4375C22.9375 65.9512 25.7637 63.125 29.25 63.125C32.7363 63.125 35.5625 65.9512 35.5625 69.4375C35.5625 72.9238 32.7363 75.75 29.25 75.75C25.7637 75.75 22.9375 72.9238 22.9375 69.4375Z" fill="white"/>
<path d="M67.125 63.125C63.6387 63.125 60.8125 65.9512 60.8125 69.4375C60.8125 72.9238 63.6387 75.75 67.125 75.75C70.6113 75.75 73.4375 72.9238 73.4375 69.4375C73.4375 65.9512 70.6113 63.125 67.125 63.125Z" fill="white"/>
</g>
<defs>
<filter id="filter0_d_62_639" x="0" y="0" width="89.2257" height="83.75" filterUnits="userSpaceOnUse" color-interpolation-filters="sRGB">
<feFlood flood-opacity="0" result="BackgroundImageFix"/>
<feColorMatrix in="SourceAlpha" type="matrix" values="0 0 0 0 0 0 0 0 0 0 0 0 0 0 0 0 0 0 127 0" result="hardAlpha"/>
<feOffset dy="4"/>
<feGaussianBlur stdDeviation="2"/>
<feComposite in2="hardAlpha" operator="out"/>
<feColorMatrix type="matrix" values="0 0 0 0 0 0 0 0 0 0 0 0 0 0 0 0 0 0 0.25 0"/>
<feBlend mode="normal" in2="BackgroundImageFix" result="effect1_dropShadow_62_639"/>
<feBlend mode="normal" in="SourceGraphic" in2="effect1_dropShadow_62_639" result="shape"/>
</filter>
</defs>
</svg>
