<svg width="83" height="83" viewBox="0 0 83 83" fill="none" xmlns="http://www.w3.org/2000/svg">
<path fill-rule="evenodd" clip-rule="evenodd" d="M73.0625 0.46875C67.8331 0.46875 63.5938 4.70805 63.5938 9.9375C63.5938 11.3269 63.893 12.6465 64.4306 13.8351L47.6773 28.011C46.0191 26.5824 43.8604 25.7188 41.5 25.7188C38.3484 25.7188 35.5564 27.2585 33.8353 29.6267L19.351 23.5916C19.3875 23.2536 19.4062 22.9102 19.4062 22.5625C19.4062 17.3331 15.1669 13.0938 9.9375 13.0938C4.70805 13.0938 0.46875 17.3331 0.46875 22.5625C0.46875 27.7919 4.70805 32.0312 9.9375 32.0312C12.538 32.0312 14.8936 30.983 16.6048 29.2859L32.046 35.7197C32.322 40.7016 36.4492 44.6562 41.5 44.6562C46.7294 44.6562 50.9688 40.4169 50.9688 35.1875C50.9688 34.6487 50.9238 34.1205 50.8373 33.6062L68.809 18.3994C70.0879 19.0435 71.5329 19.4062 73.0625 19.4062C78.2919 19.4062 82.5312 15.1669 82.5312 9.9375C82.5312 4.70805 78.2919 0.46875 73.0625 0.46875ZM69.9062 9.9375C69.9062 8.19435 71.3194 6.78125 73.0625 6.78125C74.8056 6.78125 76.2188 8.19435 76.2188 9.9375C76.2188 11.6806 74.8056 13.0938 73.0625 13.0938C71.3194 13.0938 69.9062 11.6806 69.9062 9.9375ZM6.78125 22.5625C6.78125 20.8194 8.19435 19.4062 9.9375 19.4062C11.6806 19.4062 13.0938 20.8194 13.0938 22.5625C13.0938 24.3056 11.6806 25.7188 9.9375 25.7188C8.19435 25.7188 6.78125 24.3056 6.78125 22.5625ZM41.5 32.0312C39.7569 32.0312 38.3438 33.4444 38.3438 35.1875C38.3438 36.9306 39.7569 38.3438 41.5 38.3438C43.2431 38.3438 44.6562 36.9306 44.6562 35.1875C44.6562 33.4444 43.2431 32.0312 41.5 32.0312Z" fill="white"/>
<path fill-rule="evenodd" clip-rule="evenodd" d="M0.46875 47.8125C0.46875 42.5831 4.70805 38.3438 9.9375 38.3438C15.1669 38.3438 19.4062 42.5831 19.4062 47.8125V79.375C19.4062 81.1181 17.9931 82.5312 16.25 82.5312H3.625C1.88185 82.5312 0.46875 81.1181 0.46875 79.375V47.8125ZM9.9375 44.6562C8.19435 44.6562 6.78125 46.0694 6.78125 47.8125V76.2188H13.0938V47.8125C13.0938 46.0694 11.6806 44.6562 9.9375 44.6562Z" fill="white"/>
<path fill-rule="evenodd" clip-rule="evenodd" d="M41.5 50.9688C36.2706 50.9688 32.0312 55.2081 32.0312 60.4375V79.375C32.0312 81.1181 33.4444 82.5312 35.1875 82.5312H47.8125C49.5556 82.5312 50.9688 81.1181 50.9688 79.375V60.4375C50.9688 55.2081 46.7294 50.9688 41.5 50.9688ZM38.3438 60.4375C38.3438 58.6944 39.7569 57.2812 41.5 57.2812C43.2431 57.2812 44.6562 58.6944 44.6562 60.4375V76.2188H38.3438V60.4375Z" fill="white"/>
<path fill-rule="evenodd" clip-rule="evenodd" d="M63.5938 35.1875C63.5938 29.9581 67.8331 25.7188 73.0625 25.7188C78.2919 25.7188 82.5312 29.9581 82.5312 35.1875V79.375C82.5312 81.1182 81.1181 82.5312 79.375 82.5312H66.75C65.0069 82.5312 63.5938 81.1182 63.5938 79.375V35.1875ZM73.0625 32.0312C71.3194 32.0312 69.9062 33.4444 69.9062 35.1875V76.2188H76.2188V35.1875C76.2188 33.4444 74.8056 32.0312 73.0625 32.0312Z" fill="white"/>
</svg>
