<svg width="55" height="52" viewBox="0 0 55 52" fill="none" xmlns="http://www.w3.org/2000/svg">
<path d="M40.6007 3.44413C36.1996 3.19242 32.2449 4.2451 29.7115 7.67548L29.2319 11.1225L32.5263 15.3489L28.573 19.223L32.1969 23.8015L27.6818 28.7322L29.8908 34.3672L26.2669 40.0023L27.6818 48.2349C27.6818 48.2349 35.7321 42.4186 40.4972 38.1565C44.2693 34.7732 52.3804 28.8339 52.9195 18.0605C53.3541 9.37691 47.7876 3.85516 40.6007 3.44413Z" fill="#F34752"/>
<path fill-rule="evenodd" clip-rule="evenodd" d="M28.4081 7.46819C28.4419 7.22497 28.5347 6.99545 28.6772 6.80246C31.5896 2.85907 36.0661 1.77396 40.6711 2.03733C44.5599 2.25974 48.0792 3.87128 50.5738 6.68006C53.0787 9.50051 54.4705 13.4395 54.2354 18.1357C53.7144 28.5488 46.5434 34.7372 42.5062 38.2213C42.0801 38.5889 41.689 38.9264 41.3442 39.2357L41.3429 39.2369C38.9191 41.4048 35.6807 43.9505 33.0673 45.9413C31.7567 46.9396 30.596 47.804 29.7627 48.4189C29.346 48.7264 29.011 48.9717 28.7798 49.1403C28.6642 49.2246 28.5745 49.2898 28.5136 49.3341L28.4202 49.4017C28.4201 49.4018 28.4197 49.4021 27.6818 48.2349C27.6818 48.2349 28.1279 47.9126 28.872 47.3643C31.2895 45.5829 36.8537 41.4154 40.4973 38.1564C40.8576 37.8332 41.2576 37.4866 41.6868 37.1147C45.7501 33.5941 52.432 27.8046 52.9196 18.0605C53.3541 9.37687 47.7876 3.85513 40.6007 3.44409C36.1996 3.19238 32.2449 4.24506 29.7115 7.67544L29.2319 11.1225L32.5263 15.3488L28.5731 19.2229L32.1969 23.8014L27.6818 28.7321L29.8908 34.3672L26.267 40.0023L27.6818 48.2349L28.4202 49.4017C28.0517 49.668 27.582 49.7179 27.1719 49.5339C26.7618 49.3499 26.4662 48.9571 26.3858 48.4895L24.9709 40.2569C24.9079 39.8901 24.9835 39.5115 25.1811 39.2042L28.3975 34.2026L26.4665 29.2766C26.2617 28.7542 26.3695 28.1514 26.7402 27.7466L30.416 23.7324L27.5671 20.1329C27.1101 19.5556 27.1611 18.6955 27.6826 18.1845L30.7093 15.2184L28.2196 12.0244C27.9792 11.7159 27.8733 11.3124 27.9285 10.9153L28.4081 7.46819Z" fill="#AE1E2F"/>
<path fill-rule="evenodd" clip-rule="evenodd" d="M29.0605 42.4371C31.7637 40.3903 35.2909 37.6385 37.8617 35.3389C38.2221 35.0157 38.6221 34.6691 39.0513 34.2972C43.1145 30.7766 49.7964 24.9871 50.284 15.243C50.4666 11.5948 49.59 8.50475 47.979 6.11725C51.204 8.61642 53.1855 12.7464 52.9195 18.0605C52.4319 27.8046 45.7501 33.5942 41.6868 37.1148C41.2576 37.4866 40.8576 37.8332 40.4972 38.1565C35.7321 42.4186 27.6818 48.2349 27.6818 48.2349L29.0605 42.4371Z" fill="#DD2D37"/>
<path d="M16.6712 2.2263C9.48427 1.81527 3.3985 6.67059 2.96396 15.3542C2.4573 25.479 9.59934 32.6038 13.1505 36.5625C17.5257 41.417 25.0463 48.2349 25.0463 48.2349L20.9959 38.9458L22.9726 34.0151L20.9959 29.0844L25.0463 24.8581L21.6548 19.9274L25.6081 15.7011L23.9609 11.827L27.076 7.6755C24.8993 3.97574 21.0723 2.47801 16.6712 2.2263Z" fill="#F34752"/>
<path fill-rule="evenodd" clip-rule="evenodd" d="M28.1914 6.92543C28.4904 7.43367 28.4553 8.08865 28.1039 8.55698L25.4959 12.0327L26.8077 15.1181C27.035 15.6527 26.9283 16.2819 26.5399 16.6972L23.3871 20.0678L26.1079 24.0235C26.4972 24.5894 26.437 25.3755 25.9667 25.8662L22.5632 29.4176L24.1838 33.4601C24.3258 33.8145 24.3258 34.2156 24.1838 34.57L22.4393 38.9216L26.2407 47.6397C26.5023 48.2396 26.3379 48.9533 25.8457 49.3548C25.3535 49.7564 24.6662 49.7375 24.194 49.3094L25.0463 48.2349L20.9959 38.9457L22.9726 34.015L20.9959 29.0844L25.0463 24.858L21.6548 19.9273L25.6081 15.701L23.9609 11.8269L27.076 7.67547C24.8993 3.97571 21.0723 2.47797 16.6712 2.22626C9.48427 1.81523 3.3985 6.67056 2.96396 15.3542C2.48992 24.8271 8.71132 31.6738 12.4229 35.7584C12.6783 36.0395 12.9219 36.3075 13.1505 36.5624C15.9478 39.6661 20.0307 43.5724 22.612 45.9863C24.0681 47.3481 25.0463 48.2349 25.0463 48.2349C24.194 49.3094 24.1941 49.3094 24.194 49.3094L24.1924 49.3079L24.1064 49.2297C24.0495 49.1779 23.9658 49.1016 23.8579 49.0029C23.6422 48.8056 23.3295 48.5186 22.9409 48.1593C22.1638 47.4409 21.082 46.4323 19.8626 45.2711C17.4309 42.9553 14.4258 40.0078 12.2016 37.5399L12.1994 37.5375C11.9684 37.28 11.7183 37.0055 11.4528 36.7142C7.77231 32.6751 1.14168 25.3986 1.64808 15.2789C1.88309 10.5826 3.65995 6.8249 6.43206 4.30625C9.1927 1.79803 12.8528 0.597098 16.7416 0.819503C21.3466 1.08288 25.6893 2.67238 28.1914 6.92543Z" fill="#AE1E2F"/>
<path fill-rule="evenodd" clip-rule="evenodd" d="M22.2475 45.6449L19.0193 38.2414L20.9959 33.3107L19.0193 28.38L23.0697 24.1537L19.6782 19.223L23.6314 14.9967L21.9842 11.1225L25.0993 6.97108C23.9483 5.01456 22.3357 3.67384 20.4207 2.80756C23.2046 3.56485 25.5473 5.0771 27.076 7.67547L23.9609 11.8269L25.6081 15.701L21.6548 19.9273L25.0463 24.858L20.9959 29.0844L22.9726 34.015L20.9959 38.9457L25.0463 48.2349C25.0463 48.2349 23.9025 47.1979 22.2475 45.6449Z" fill="#DD2D37"/>
<path d="M38.8207 34.3497C38.7927 35.4972 37.8999 36.4031 36.8266 36.3732C35.7532 36.3432 34.9058 35.3888 34.9338 34.2413C34.9618 33.0938 35.8547 32.1879 36.928 32.2179C38.0013 32.2478 38.8487 33.2023 38.8207 34.3497Z" fill="#C82A2A"/>
<path d="M43.7174 32.9271C43.6963 33.7877 43.0267 34.4672 42.2217 34.4447C41.4167 34.4222 40.7812 33.7064 40.8022 32.8458C40.8232 31.9852 41.4928 31.3057 42.2978 31.3282C43.1028 31.3507 43.7384 32.0665 43.7174 32.9271Z" fill="#C82A2A"/>
<path d="M48.7281 26.8297C48.7071 27.6903 48.0375 28.3698 47.2325 28.3473C46.4275 28.3248 45.792 27.609 45.813 26.7484C45.834 25.8878 46.5036 25.2083 47.3086 25.2308C48.1136 25.2533 48.7491 25.9691 48.7281 26.8297Z" fill="#C82A2A"/>
<path d="M50.7984 21.6898C50.7773 22.5504 50.1077 23.2298 49.3027 23.2073C48.4977 23.1849 47.8622 22.469 47.8832 21.6084C47.9042 20.7478 48.5738 20.0684 49.3788 20.0908C50.1838 20.1133 50.8194 20.8292 50.7984 21.6898Z" fill="#C82A2A"/>
<path d="M34.8206 39.5287C34.7996 40.3893 34.13 41.0688 33.325 41.0463C32.52 41.0239 31.8845 40.308 31.9055 39.4474C31.9265 38.5868 32.5961 37.9074 33.4011 37.9298C34.2061 37.9523 34.8416 38.6681 34.8206 39.5287Z" fill="#C82A2A"/>
<path d="M43.8442 27.733C43.8232 28.5936 43.1536 29.273 42.3486 29.2505C41.5436 29.2281 40.908 28.5122 40.929 27.6516C40.95 26.791 41.6197 26.1116 42.4247 26.1341C43.2297 26.1565 43.8652 26.8724 43.8442 27.733Z" fill="#C82A2A"/>
<path d="M49.9408 16.9878C49.9268 17.5616 49.4804 18.0145 48.9437 17.9996C48.407 17.9846 47.9833 17.5073 47.9973 16.9336C48.0114 16.3599 48.4578 15.9069 48.9944 15.9219C49.5311 15.9369 49.9548 16.4141 49.9408 16.9878Z" fill="#C82A2A"/>
<path d="M45.9271 22.0736C45.9131 22.6473 45.4667 23.1003 44.93 23.0853C44.3934 23.0703 43.9697 22.5931 43.9837 22.0194C43.9977 21.4456 44.4441 20.9927 44.9808 21.0076C45.5174 21.0226 45.9411 21.4999 45.9271 22.0736Z" fill="#C82A2A"/>
<path d="M19.1408 19.0572C16.3727 23.3306 11.4453 24.8083 8.13506 22.3577C4.82488 19.9071 4.38543 14.4563 7.15353 10.1829C9.92163 5.90947 14.8491 4.43178 18.1592 6.88236C21.4694 9.33294 21.9089 14.7838 19.1408 19.0572Z" fill="#FF6F77"/>
<path fill-rule="evenodd" clip-rule="evenodd" d="M12.1871 8.94213C12.6372 9.55355 12.5384 10.4393 11.9665 10.9204C11.0415 11.6987 10.3388 12.6084 9.84034 13.653C9.50967 14.3461 8.71604 14.6214 8.06772 14.2679C7.41941 13.9144 7.16191 13.0659 7.49258 12.3728C8.17252 10.9477 9.12653 9.72434 10.3366 8.70627C10.9086 8.22511 11.737 8.33071 12.1871 8.94213Z" fill="white"/>
</svg>
