<svg width="55" height="52" viewBox="0 0 55 52" fill="none" xmlns="http://www.w3.org/2000/svg">
<path d="M17.8062 2.16995C10.3171 1.76931 3.97554 6.50189 3.52273 14.966C2.99477 24.8349 10.4371 31.7795 14.1375 35.6381C18.6967 40.3699 26.5334 47.0155 26.5334 47.0155C26.5334 47.0155 34.9221 41.3462 39.8876 37.1918C43.8182 33.894 52.2703 28.105 52.8321 17.6039C53.2849 9.13982 47.4844 3.75766 39.9954 3.35702C35.4092 3.11167 31.2883 4.13774 28.6484 7.4814C26.3802 3.87517 22.3923 2.4153 17.8062 2.16995Z" fill="#F34752"/>
<path fill-rule="evenodd" clip-rule="evenodd" d="M26.5334 47.0155C26.5334 47.0155 18.6967 40.3699 14.1375 35.6381C13.8992 35.3897 13.6455 35.1284 13.3793 34.8544C9.51169 30.8731 3.02875 24.1994 3.52272 14.966C3.97552 6.50192 10.3171 1.76934 17.8062 2.16998C21.8719 2.38749 25.4675 3.55952 27.8115 6.33535C28.1115 6.69064 28.391 7.07222 28.6484 7.48143C28.9479 7.10201 29.2666 6.75244 29.6028 6.43118C32.2295 3.92128 35.9296 3.13954 39.9954 3.35705C47.4844 3.75769 53.2849 9.13985 52.8321 17.6039C52.324 27.1017 45.3612 32.7449 41.1271 36.1765C40.6799 36.539 40.2631 36.8768 39.8876 37.1918C34.9221 41.3463 26.5334 47.0155 26.5334 47.0155ZM28.7632 5.33444C31.7564 2.54624 35.8611 1.76075 40.0687 1.98585C44.1209 2.20264 47.7883 3.77344 50.3877 6.51122C52.9979 9.26036 54.4482 13.0997 54.2033 17.6773C53.6603 27.8271 46.1879 33.859 41.9809 37.255C41.537 37.6134 41.1294 37.9424 40.7701 38.2438L40.7687 38.245C38.2431 40.3581 34.8685 42.8395 32.1453 44.7799C30.7796 45.753 29.5701 46.5955 28.7018 47.1949C28.2675 47.4946 27.9184 47.7337 27.6775 47.8981C27.557 47.9803 27.4636 48.0438 27.4001 48.0869L27.3028 48.1529C27.3027 48.1529 27.3023 48.1532 26.5334 47.0155C25.6453 48.0628 25.6452 48.0628 25.6451 48.0627L25.554 47.9851C25.4947 47.9347 25.4075 47.8603 25.2951 47.7641C25.0702 47.5717 24.7444 47.2921 24.3395 46.9419C23.5297 46.2416 22.4024 45.2585 21.1318 44.1266C18.5979 41.8694 15.4664 38.9964 13.1487 36.5909L13.1464 36.5886C12.9057 36.3376 12.6451 36.07 12.3685 35.786C8.53321 31.8491 1.62383 24.7565 2.15152 14.8926C2.39641 10.3151 4.24797 6.65236 7.13661 4.19739C10.0133 1.75257 13.8273 0.582003 17.8795 0.798786C22.0872 1.02388 26.0846 2.24282 28.7632 5.33444ZM25.6451 48.0627L26.5334 47.0155L27.3028 48.1529C26.7927 48.4976 26.1147 48.4609 25.6451 48.0627Z" fill="#AE1E2F"/>
<path fill-rule="evenodd" clip-rule="evenodd" d="M4.21982 21.0991C6.34968 25.1483 9.4416 28.3312 11.6674 30.6224C11.9335 30.8964 12.1873 31.1576 12.4256 31.4061C16.9847 36.1379 24.8215 42.7835 24.8215 42.7835C24.8215 42.7835 33.2101 37.1143 38.1756 32.9598C38.5511 32.6448 38.9679 32.3069 39.4152 31.9445C43.6492 28.5129 50.612 22.8697 51.1201 13.3719C51.1981 11.9155 51.0908 10.5503 50.8217 9.28601C52.2492 11.5261 53.007 14.3352 52.8321 17.6039C52.324 27.1017 45.3612 32.7449 41.1271 36.1765C40.6799 36.539 40.2631 36.8768 39.8876 37.1918C34.9221 41.3463 26.5334 47.0155 26.5334 47.0155C26.5334 47.0155 18.6967 40.3699 14.1375 35.6381C13.8993 35.3897 13.6455 35.1284 13.3793 34.8544C10.4285 31.8168 5.95535 27.2121 4.21982 21.0991Z" fill="#DD2D37"/>
<path d="M35.0755 34.0917C34.9816 35.2066 34.0017 36.0343 32.8868 35.9404C31.7719 35.8466 30.9442 34.8667 31.0381 33.7518C31.1319 32.6369 32.1118 31.8092 33.2267 31.903C34.3416 31.9969 35.1693 32.9768 35.0755 34.0917Z" fill="#C82A2A"/>
<path d="M40.2497 33.0026C40.1793 33.8388 39.4443 34.4595 38.6082 34.3891C37.772 34.3187 37.1512 33.5838 37.2216 32.7477C37.292 31.9115 38.0269 31.2907 38.8631 31.3611C39.6993 31.4315 40.3201 32.1664 40.2497 33.0026Z" fill="#C82A2A"/>
<path d="M45.8062 27.3715C45.7358 28.2077 45.0009 28.8284 44.1647 28.758C43.3286 28.6876 42.7078 27.9527 42.7782 27.1166C42.8486 26.2804 43.5835 25.6596 44.4197 25.73C45.2558 25.8004 45.8766 26.5353 45.8062 27.3715Z" fill="#C82A2A"/>
<path d="M48.2498 22.4947C48.1794 23.3308 47.4445 23.9516 46.6083 23.8812C45.7721 23.8108 45.1514 23.0759 45.2217 22.2397C45.2921 21.4036 46.0271 20.7828 46.8632 20.8532C47.6994 20.9236 48.3202 21.6585 48.2498 22.4947Z" fill="#C82A2A"/>
<path d="M30.6557 38.2939C30.5853 39.1301 29.8504 39.7509 29.0142 39.6805C28.1781 39.6101 27.5573 38.8751 27.6277 38.039C27.6981 37.2028 28.433 36.582 29.2692 36.6524C30.1053 36.7228 30.7261 37.4577 30.6557 38.2939Z" fill="#C82A2A"/>
<path d="M40.6746 27.9559C40.6042 28.7921 39.8692 29.4128 39.0331 29.3424C38.1969 29.272 37.5761 28.5371 37.6465 27.701C37.7169 26.8648 38.4518 26.244 39.288 26.3144C40.1242 26.3848 40.745 27.1197 40.6746 27.9559Z" fill="#C82A2A"/>
<path d="M26.4909 39.4679C26.4439 40.0254 25.954 40.4392 25.3966 40.3923C24.8391 40.3454 24.4253 39.8554 24.4722 39.298C24.5191 38.7405 25.0091 38.3267 25.5665 38.3736C26.1239 38.4205 26.5378 38.9105 26.4909 39.4679Z" fill="#C82A2A"/>
<path d="M47.6229 17.8676C47.576 18.425 47.086 18.8389 46.5286 18.792C45.9711 18.745 45.5573 18.2551 45.6042 17.6976C45.6511 17.1402 46.1411 16.7263 46.6985 16.7733C47.256 16.8202 47.6698 17.3101 47.6229 17.8676Z" fill="#C82A2A"/>
<path d="M43.1606 22.5744C43.1136 23.1319 42.6237 23.5457 42.0663 23.4988C41.5088 23.4519 41.095 22.9619 41.1419 22.4045C41.1888 21.847 41.6788 21.4332 42.2362 21.4801C42.7937 21.527 43.2075 22.017 43.1606 22.5744Z" fill="#C82A2A"/>
<path d="M21.7527 18.5755C18.8683 22.7408 13.7337 24.1812 10.2844 21.7926C6.83501 19.4039 6.37709 14.0909 9.26155 9.92549C12.146 5.76012 17.2806 4.31979 20.7299 6.70842C24.1793 9.09705 24.6372 14.4101 21.7527 18.5755Z" fill="#FF6F77"/>
<path fill-rule="evenodd" clip-rule="evenodd" d="M14.5068 8.71607C14.9758 9.31203 14.8728 10.1754 14.2769 10.6443C13.313 11.4029 12.5807 12.2896 12.0613 13.3079C11.7168 13.9834 10.8898 14.2518 10.2142 13.9072C9.53863 13.5626 9.2703 12.7356 9.61487 12.0601C10.3234 10.6709 11.3175 9.4785 12.5785 8.48617C13.1745 8.01718 14.0378 8.12011 14.5068 8.71607Z" fill="white"/>
</svg>
