<svg width="202" height="347" viewBox="0 0 202 347" fill="none" xmlns="http://www.w3.org/2000/svg">
<g clip-path="url(#clip0_79_220)">
<path d="M101.748 218.379C101.748 218.379 121.512 252.77 122.492 259.181C124.072 268.317 125.156 277.545 125.739 286.819C125.739 286.819 116.031 290.15 110.17 289.876C109.264 289.876 99.7773 272.013 99.8195 269.344C99.8616 266.675 70.0844 245.036 70.0844 245.036L53.8203 243.827C53.8203 243.827 47.0321 267.895 42.331 277.397C40.2229 281.686 36.3967 290.241 33.4137 292.648C25.1604 292.522 16.3696 286.819 16.3696 286.819C16.3696 286.819 19.8269 250.409 19.3736 242.436C18.9204 234.463 23.4528 212.961 47.9281 208.604C75.808 202.741 101.748 218.379 101.748 218.379Z" fill="#436060"/>
<g style="mix-blend-mode:multiply" opacity="0.3">
<path d="M125.117 286.123C119.984 284.173 115.04 281.56 111.119 277.42C108.651 274.556 106.526 271.368 104.795 267.93C102.677 264.438 100.984 260.665 99.7562 256.705C99.7326 256.605 99.7337 256.5 99.7595 256.4C99.7852 256.3 99.8347 256.209 99.9029 256.137C99.9711 256.064 100.056 256.012 100.148 255.986C100.241 255.959 100.338 255.96 100.431 255.987C107.43 259.01 114.408 257.926 120.996 254.709C116.178 243.383 101.769 218.322 101.769 218.322C101.769 218.322 75.8291 202.741 47.9492 208.592C23.4528 212.95 18.9204 234.44 19.3631 242.424C19.8058 250.409 16.3696 286.819 16.3696 286.819C16.3696 286.819 21.5555 291.701 27.7007 292.522C23.8112 286.442 20.1958 278.709 23.9061 271.409C28.9339 261.53 43.5116 263.344 49.72 255.645C53.0508 246.246 53.2511 244.033 53.2511 244.033L70.1161 245.025C70.1161 245.025 99.9038 266.698 99.8511 269.333C99.7984 271.967 108.642 288.439 110.202 289.864C110.898 290.492 125.212 286.944 125.212 286.944C125.212 286.944 125.159 286.614 125.117 286.123Z" fill="#436060"/>
</g>
<path d="M108.252 288.336C109.095 285.473 125.813 284.674 125.813 284.674L131.188 334.578L121.449 333.723C121.449 333.723 100.199 315.7 108.252 288.336Z" fill="#BDD5DB"/>
<g style="mix-blend-mode:multiply" opacity="0.3">
<path d="M113.638 310.248C111.595 308.589 109.913 306.464 108.713 304.024C107.512 301.584 106.822 298.888 106.692 296.127C104.183 319.065 121.449 333.768 121.449 333.768L131.188 334.624L129.28 316.887C123.641 315.917 118.118 314.092 113.638 310.248Z" fill="#BDD5DB"/>
</g>
<path d="M16.0955 286.819L34.1199 292.408C34.1199 292.408 22.5253 331.305 17.3077 339.62C9.71844 339.745 6.12409 336.198 6.12409 336.198C6.11355 317.411 5.1649 295.625 16.0955 286.819Z" fill="#BDD5DB"/>
<g style="mix-blend-mode:multiply" opacity="0.3">
<path d="M14.0928 320.719C9.68679 316.875 7.7684 311.343 7.31516 305.548C5.82893 314.948 6.11353 326.023 6.11353 336.232C6.11353 336.232 9.70787 339.745 17.2971 339.654C18.9731 336.951 21.3236 331.042 23.7374 324.29C20.2401 324.326 16.8366 323.066 14.0928 320.719Z" fill="#BDD5DB"/>
</g>
<path d="M20.7966 347L0 346.51C0 346.51 2.04487 334.601 10.5406 334.487C19.0363 334.373 20.7966 347 20.7966 347Z" fill="#A9BEC4"/>
<g style="mix-blend-mode:multiply" opacity="0.3">
<path d="M10.6987 334.487H10.5511C2.04486 334.601 0.0105286 346.51 0.0105286 346.51L9.43383 346.726C8.7074 344.729 8.4429 342.57 8.66335 340.437C8.88379 338.304 9.5825 336.261 10.6987 334.487Z" fill="#BDD5DB"/>
</g>
<path d="M120.848 333.358C120.848 333.358 142.519 330.346 144.796 344.616C136.692 345.3 128.558 345.456 120.437 345.084C117.728 343.544 117.201 336.666 120.848 333.358Z" fill="#A9BEC4"/>
<g style="mix-blend-mode:multiply" opacity="0.3">
<path d="M125.264 333.095C123.789 333.094 122.314 333.181 120.848 333.358C117.201 336.666 117.686 343.544 120.437 345.084C126.618 345.395 132.811 345.353 138.988 344.958C135.584 339.574 131.157 335.206 125.264 333.095Z" fill="#BDD5DB"/>
</g>
<path d="M110.371 129.123C110.371 129.123 119.53 132.545 119.857 136.24C120.279 141.419 120.911 179.346 119.984 181.696C119.056 184.045 108.716 201.349 104.858 199.855C101 198.361 97.9854 170.608 97.9854 170.608L110.371 129.123Z" fill="#436060"/>
<g style="mix-blend-mode:multiply" opacity="0.3">
<path d="M111.73 174.019C111.53 168.396 113.217 161.221 114.271 159.453C115.325 157.685 118.487 156.784 120.363 156.932C120.247 147.556 120.015 138.579 119.826 136.24C119.53 132.545 110.339 129.123 110.339 129.123L97.9221 170.608C97.9221 170.608 100.937 198.361 104.795 199.855C107.124 200.756 111.825 194.802 115.335 189.418C113.224 184.586 112 179.356 111.73 174.019Z" fill="#436060"/>
</g>
<path d="M119.952 180.589L148.665 189.144L148.77 200.437C148.77 200.437 106.323 210.395 104.194 198.988C102.065 187.581 119.952 180.589 119.952 180.589Z" fill="#A9BEC4"/>
<path opacity="0.1" d="M129.28 193.148C132.59 193.969 135.805 192.92 138.851 191.562C140.984 190.71 142.982 189.506 144.775 187.992L123.314 181.593C122.84 186.441 124.484 191.95 129.28 193.148Z" fill="white"/>
<g style="mix-blend-mode:multiply" opacity="0.3">
<path d="M146.535 195.053C144.021 196.086 141.429 196.883 138.788 197.437C133.91 198.439 128.9 198.411 124.031 197.357C119.92 196.524 115.409 194.083 113.491 189.806C112.792 188.164 112.432 186.377 112.437 184.57C107.809 187.73 102.95 192.646 104.099 198.954C106.207 210.36 148.675 200.437 148.675 200.437L148.612 193.832C147.952 194.301 147.258 194.709 146.535 195.053Z" fill="#BDD5DB"/>
</g>
<path d="M154.283 201.771C154.283 201.771 159.859 201.942 160.249 197.722C160.467 195.181 159.9 192.633 158.636 190.479L154.167 189.566L149.676 193.456L147.568 200.448C149.455 201.498 151.121 201.703 154.283 201.771Z" fill="#FFB89E"/>
<path d="M150.741 242.253C149.888 242.585 148.972 242.677 148.077 242.519C147.183 242.362 146.34 241.96 145.629 241.352L157.297 164.255L162.41 165.156L150.741 242.253Z" fill="#436060"/>
<path d="M158.647 194.574C158.334 194.8 158.042 195.055 157.772 195.338C157.181 195.942 155.368 197.539 155.811 198.908C155.9 199.194 156.064 199.445 156.283 199.632C156.502 199.818 156.767 199.931 157.044 199.958C158.098 199.958 159.152 198.817 159.838 198.178C160.523 197.539 161.44 196.946 161.756 195.977C161.998 195.247 161.05 192.874 158.647 194.574Z" fill="#FCA68B"/>
<path d="M158.025 191.003C157.696 191.246 157.389 191.521 157.108 191.825C156.496 192.475 154.599 194.174 154.999 195.578C155.078 195.87 155.24 196.128 155.461 196.316C155.682 196.504 155.952 196.613 156.233 196.627C157.361 196.627 158.415 195.361 159.131 194.699C159.969 194.134 160.661 193.349 161.145 192.418C161.429 191.562 160.523 189.133 158.025 191.003Z" fill="#FCA68B"/>
<path d="M157.371 187.49C157.051 187.736 156.751 188.01 156.475 188.311C155.885 188.973 154.03 190.684 154.472 192.076C154.557 192.366 154.724 192.621 154.949 192.805C155.173 192.989 155.445 193.093 155.727 193.102C156.855 193.102 157.835 191.802 158.583 191.14C159.406 190.553 160.077 189.748 160.533 188.802C160.776 188.038 159.827 185.631 157.371 187.49Z" fill="#FCA68B"/>
<path d="M147.579 200.756C147.263 197.129 147.084 190.159 149.086 187.821C150.509 186.167 155.126 185.54 157.919 186.578C158.296 186.646 158.638 186.855 158.888 187.167C159.138 187.479 159.28 187.876 159.29 188.289C159.275 188.68 159.132 189.053 158.887 189.341C158.642 189.63 158.31 189.815 157.951 189.863C156.29 189.888 154.639 190.145 153.039 190.627C153.84 191.665 155.042 195.19 154.641 196.467C153.861 198.977 151.732 199.889 149.951 198.418" fill="#FFB89E"/>
<path d="M149.993 162.875C153.808 166.114 165.024 167.985 170.705 166.548C170.705 166.548 177.957 36.7863 183.954 0.0114136C174.742 48.421 149.993 162.875 149.993 162.875Z" fill="#EFD225"/>
<g style="mix-blend-mode:multiply" opacity="0.3">
<path d="M166.773 84.1693C158.109 125.336 149.993 162.875 149.993 162.875C153.808 166.114 165.024 167.985 170.705 166.548C170.705 166.548 171.928 144.818 173.772 116.621C167.353 107.484 166.299 95.7127 166.773 84.1693Z" fill="#EFD225"/>
</g>
<path d="M108.558 128.404C108.558 128.404 118.266 125.723 124.369 138.784C128.479 147.499 127.531 157.685 127.531 157.685C127.531 157.685 110.718 153.784 107.019 145.24C103.319 136.697 108.558 128.404 108.558 128.404Z" fill="#BDD5DB"/>
<g style="mix-blend-mode:multiply" opacity="0.3">
<path d="M118.729 141.716C115.82 137.233 112.763 131.803 107.999 129.431C106.755 131.906 104.131 138.556 107.061 145.24C110.223 152.472 122.703 156.373 126.487 157.411C124.535 151.84 121.928 146.565 118.729 141.716Z" fill="#BDD5DB"/>
</g>
<path d="M95.6032 210.132C95.6032 210.132 113.965 222.839 120.426 235.227C107.419 243.976 97.5005 245.071 93.8113 245.071C91.7032 236.801 80.1085 211.25 80.1085 211.25C80.1085 211.25 83.5448 238.101 82.8385 247.352C71.6655 249.36 55.8546 250.774 41.3613 249.211C45.761 236.901 49.5228 224.334 52.6292 211.57C52.6292 211.57 40.0437 236.037 31.548 247.021C12.6698 243.2 3.75244 236.653 3.75244 236.653C3.75244 236.653 15.4103 219.543 26.9418 208.136C50.4578 210.862 95.6032 210.132 95.6032 210.132Z" fill="#A9BEC4"/>
<g style="mix-blend-mode:multiply" opacity="0.3">
<path d="M70.0844 245.014C69.589 239.459 69.452 232.763 71.1385 227.425C72.7301 222.337 76.6512 219.862 80.9307 218.003C80.488 213.988 80.1296 211.262 80.1296 211.262C80.1296 211.262 81.1837 213.668 82.7858 217.227L83.6291 216.896C87.6451 215.322 93.3054 214.216 96.5729 210.817L95.6137 210.132C95.6137 210.132 50.4684 210.862 26.8891 208.159C15.3998 219.657 3.69974 236.675 3.69974 236.675C3.69974 236.675 12.6171 243.223 31.4953 247.044C40.0226 236.059 52.5765 211.592 52.5765 211.592C49.4701 224.356 45.7083 236.923 41.3086 249.234C51.0386 250.164 60.8274 250.11 70.5482 249.074C70.3901 247.706 70.2004 246.36 70.0844 245.014Z" fill="#BDD5DB"/>
</g>
<path d="M76.6618 121.332C67.8709 122.279 52.7978 124.628 44.5129 128.176C44.5129 128.176 20.7966 180.589 26.8785 208.159C48.1494 215.003 95.6032 210.132 95.6032 210.132C95.6032 210.132 121.227 160.274 110.36 129.145C98.8878 127.946 87.5809 125.325 76.6618 121.332Z" fill="#A9BEC4"/>
<g style="mix-blend-mode:multiply" opacity="0.3">
<path d="M110.708 130.126C112.057 139.879 110.339 149.21 107.314 158.643C94.6651 198.167 52.6397 211.661 52.6397 211.661C52.6397 211.661 79.2653 212.596 95.6032 210.155C100.956 199.126 105.333 187.572 108.674 175.65C112.69 160.97 115.188 144.236 110.708 130.126Z" fill="#BDD5DB"/>
</g>
<g style="mix-blend-mode:multiply" opacity="0.3">
<path d="M111.066 140.438C111.066 140.438 110.434 165.384 85.3683 160.388C60.6928 155.495 59.6598 125.028 59.6598 125.028L60.6506 124.663L65.2358 122.963L84.0823 126.99L109.559 132.431L111.066 140.438Z" fill="#BDD5DB"/>
</g>
<path d="M111.161 136.583C111.161 136.583 111.941 161.483 86.865 156.498C62.1895 151.605 61.4095 123.59 61.4095 123.59L62.4003 123.225L66.9749 121.526L85.8321 125.552L111.309 130.982L111.161 136.583Z" fill="#436060"/>
<g style="mix-blend-mode:multiply" opacity="0.3">
<path d="M107.704 132.955C107.704 132.955 107.767 134.278 104.405 142.651C96.6362 148.251 85.8215 146.803 80.1612 144.989C70.8961 142.023 65.6995 134.929 63.8444 129.659C63.1457 127.58 62.6717 125.422 62.432 123.225L67.0066 121.526L85.8637 125.552L84.8096 126.613L107.704 132.955Z" fill="#436060"/>
</g>
<path d="M78.5064 96.3287C81.2785 86.9068 80.3193 78.0781 75.6182 71.8273C72.3978 67.8433 68.3169 64.7829 63.739 62.9188C60.6927 61.6184 47.6646 58.6185 37.8197 74.3254C34.4256 79.7549 31.685 85.9601 26.8363 89.5988C20.9231 94.0246 9.9714 95.5188 4.76434 89.3707C6.58787 95.9751 17.0758 100.561 22.6834 100.697C31.1158 100.903 41.6564 100.424 49.7621 90.7166C51.1934 88.8867 52.77 87.1958 54.4738 85.6635C56.2723 84.3441 58.3192 83.4735 60.4665 83.1145C62.6138 82.7555 64.808 82.917 66.8906 83.5875C71.4442 85.173 78.675 90.1007 78.5064 96.3287Z" fill="#E03838"/>
<g style="mix-blend-mode:multiply" opacity="0.3">
<path d="M76.198 81.1693C73.6452 77.0561 69.9557 73.922 65.6574 72.2152C61.9716 70.6553 57.8827 70.6268 54.1787 72.1353C50.6265 73.7208 47.9703 77.0401 45.8621 80.4051C43.754 83.77 41.9621 87.2491 39.1161 89.884C36.3302 92.3679 32.996 94.0266 29.4399 94.6976C22.3144 96.2945 12.3009 96.5112 5.80786 91.8003C9.10707 97.1044 17.7504 100.629 22.6728 100.754C31.1053 100.96 41.6459 100.481 49.7516 90.7737C51.1828 88.9437 52.7594 87.2529 54.4633 85.7206C56.2618 84.4012 58.3086 83.5306 60.4559 83.1716C62.6033 82.8125 64.7975 82.9741 66.8801 83.6446C71.4231 85.1731 78.6539 90.1007 78.4747 96.3287C78.5485 96.0778 78.6118 95.8268 78.675 95.5645C78.6434 90.6254 78.8858 85.481 76.198 81.1693Z" fill="#E0554B"/>
</g>
<path d="M79.0966 130.617C84.2088 140.529 95.2132 144.407 103.677 139.297C112.141 134.187 113.47 124.161 110.002 111.488C107.029 100.606 93.6111 98.302 85.147 103.412C76.6829 108.522 73.9845 120.705 79.0966 130.617Z" fill="#FFB89E"/>
<path d="M97.7113 124.993C100.174 124.993 102.17 122.833 102.17 120.168C102.17 117.504 100.174 115.344 97.7113 115.344C95.2489 115.344 93.2527 117.504 93.2527 120.168C93.2527 122.833 95.2489 124.993 97.7113 124.993Z" fill="white"/>
<path d="M111.066 116.861C111.066 117.815 110.805 118.748 110.315 119.541C109.825 120.335 109.129 120.953 108.314 121.318C107.499 121.683 106.603 121.779 105.738 121.593C104.873 121.407 104.078 120.947 103.455 120.272C102.831 119.598 102.407 118.738 102.235 117.802C102.063 116.866 102.151 115.896 102.488 115.014C102.826 114.132 103.397 113.379 104.13 112.849C104.864 112.319 105.726 112.036 106.608 112.036C107.79 112.036 108.924 112.544 109.76 113.449C110.597 114.354 111.066 115.581 111.066 116.861Z" fill="white"/>
<path d="M111.066 116.427C111.06 116.827 110.945 117.216 110.735 117.546C110.525 117.875 110.23 118.13 109.886 118.278C109.543 118.427 109.167 118.462 108.805 118.38C108.443 118.298 108.112 118.102 107.853 117.817C107.593 117.531 107.418 117.169 107.348 116.777C107.278 116.384 107.317 115.977 107.46 115.608C107.603 115.239 107.843 114.924 108.151 114.702C108.459 114.481 108.82 114.363 109.19 114.362C109.691 114.369 110.17 114.589 110.522 114.976C110.873 115.363 111.069 115.885 111.066 116.427Z" fill="#436060"/>
<path d="M101.917 119.142C101.911 119.542 101.795 119.932 101.585 120.262C101.374 120.591 101.079 120.846 100.735 120.994C100.391 121.142 100.014 121.177 99.6519 121.094C99.2898 121.011 98.9585 120.814 98.6997 120.527C98.4408 120.241 98.2661 119.878 98.1974 119.484C98.1288 119.091 98.1692 118.684 98.3137 118.315C98.4582 117.946 98.7003 117.632 99.0095 117.412C99.3187 117.191 99.6812 117.075 100.051 117.077C100.299 117.08 100.544 117.136 100.772 117.241C101 117.347 101.206 117.5 101.379 117.691C101.553 117.883 101.689 118.11 101.782 118.359C101.874 118.608 101.92 118.874 101.917 119.142Z" fill="#436060"/>
<path d="M108.895 130.856C108.895 130.856 108.948 132.18 105.585 140.552C97.8273 146.153 87.0126 144.704 81.3418 142.89C72.0661 139.925 66.8801 132.83 65.0144 127.56C63.1487 122.29 62.5901 113.496 64.6244 106.001C66.6588 98.5074 71.2017 90.5228 85.6318 89.1654C90.5513 88.9214 95.4127 90.3981 99.4962 93.377C103.58 96.3558 106.668 100.678 108.305 105.705L96.1408 111.99L97.5427 113.256L85.948 124.514L108.895 130.856Z" fill="#A9BEC4"/>
<path opacity="0.1" d="M67.112 114.42C71.693 114.459 76.2168 113.318 80.3088 111.089C87.5713 107.017 91.3448 96.1462 85.9059 89.1768H85.6107C71.1807 90.5341 66.6377 98.5188 64.6033 106.013C63.9137 108.615 63.5 111.294 63.3701 113.997C64.6064 114.235 65.8569 114.376 67.112 114.42Z" fill="white"/>
<g style="mix-blend-mode:multiply" opacity="0.3">
<path d="M108.895 130.845C108.895 130.845 108.948 132.18 105.585 140.552C104.632 141.239 103.623 141.83 102.571 142.32C95.1921 145.742 86.3064 144.476 81.3207 142.89C72.045 139.925 66.859 132.83 64.9933 127.56C64.8141 127.035 64.6455 126.419 64.4874 125.883C72.1904 124.506 79.4829 121.176 85.7688 116.165C92.947 110.176 98.6494 99.8533 93.8535 90.3973C104.889 94.2299 108.494 105.534 108.494 105.534L108.136 105.728L96.1619 111.99L97.5638 113.256L85.9691 124.514L87.4764 124.925L88.0456 125.085L108.895 130.845Z" fill="#BDD5DB"/>
</g>
<g style="mix-blend-mode:multiply" opacity="0.3">
<path d="M108.895 130.845C108.895 130.845 108.948 132.18 105.585 140.552C104.632 141.239 103.623 141.83 102.571 142.32C94.6967 139.195 81.7002 129.191 81.7002 129.191L82.0375 120.796L104.942 102.751C106.215 103.432 107.304 104.458 108.104 105.728L96.1302 111.99L97.5321 113.256L85.9375 124.514L87.4448 124.925L88.014 125.085L108.895 130.845Z" fill="#BDD5DB"/>
</g>
<path d="M113.754 117.83C113.754 117.83 113.533 136.354 106.291 141.373C99.0605 139.856 82.9967 127.48 82.9967 127.48L83.334 119.085L106.228 101.04C112.057 104.017 112.668 115.035 112.668 115.035L86.2221 124.07L113.754 117.83Z" fill="#BDD5DB"/>
<path opacity="0.1" d="M96.0248 112.674C100.452 109.731 104.953 106.971 109.285 103.846C108.494 102.653 107.444 101.69 106.228 101.04L83.334 119.142L83.2391 121.423C87.3078 118.207 91.7664 115.515 96.0248 112.674Z" fill="white"/>
<g style="mix-blend-mode:multiply" opacity="0.3">
<path d="M108.811 126.282C108.142 127.357 107.278 128.272 106.269 128.971C105.261 129.669 104.132 130.136 102.95 130.343C99.59 130.75 96.1887 130.425 92.947 129.385C91.1551 128.883 89.3316 128.438 87.5818 127.754C86.0534 127.161 84.6094 126.454 83.0494 126.009V127.48C83.0494 127.48 99.1132 139.856 106.344 141.373C113.585 136.354 113.807 117.83 113.807 117.83H113.649C112.391 120.868 110.764 123.711 108.811 126.282Z" fill="#BDD5DB"/>
</g>
<path d="M29.5453 146.609C29.5453 146.609 54.3473 156.875 52.6397 160.103C48.2232 168.475 32.8761 191.323 30.6415 192.156C28.4069 192.988 6.89354 196.513 8.05301 192.258C14.9676 167.05 29.5453 146.609 29.5453 146.609Z" fill="#436060"/>
<g style="mix-blend-mode:multiply" opacity="0.3">
<path d="M29.5453 146.609C29.5453 146.609 27.648 149.278 24.9074 153.852C29.5453 158.301 34.5521 161.232 36.1964 166.559C38.1254 172.81 32.1278 180.361 27.4372 184.159C21.8718 188.665 15.0731 191.197 8.46411 193.387C11.426 195.76 28.6704 192.908 30.6521 192.156C32.8867 191.323 48.2338 168.475 52.6503 160.103C54.3473 156.875 29.5453 146.609 29.5453 146.609Z" fill="#436060"/>
</g>
<path d="M31.4004 191.414L44.8608 220.159L37.2188 227.835C37.2188 227.835 1.8446 200.562 8.25328 191.152C14.662 181.741 31.4004 191.414 31.4004 191.414Z" fill="#A9BEC4"/>
<g style="mix-blend-mode:multiply" opacity="0.3">
<path d="M39.3902 222.429C36.9953 221.125 34.7099 219.599 32.5599 217.866C28.607 214.639 25.2647 210.619 22.715 206.026C20.5225 202.182 19.1523 196.901 20.8177 192.555C21.4695 190.891 22.4477 189.4 23.6847 188.186C18.4144 186.6 11.7738 186.007 8.25328 191.186C1.8446 200.596 37.2188 227.87 37.2188 227.87L41.6881 223.387C40.8992 223.136 40.1307 222.815 39.3902 222.429Z" fill="#BDD5DB"/>
</g>
<path d="M39.9805 233.117C39.9805 233.117 43.617 237.679 46.7581 235.158C48.6461 233.634 50.0081 231.47 50.6265 229.01L48.2443 224.801L42.5524 223.832L36.3756 226.889C36.9553 229.101 37.9356 230.573 39.9805 233.117Z" fill="#FFB89E"/>
<path d="M47.8227 231.805C47.4596 231.706 47.0893 231.641 46.7159 231.611C45.9043 231.611 43.5537 231.177 42.9529 232.455C42.815 232.717 42.7524 233.018 42.7731 233.318C42.7937 233.619 42.8967 233.906 43.0689 234.143C43.7962 235.033 45.2824 235.044 46.1678 235.193C47.0786 235.462 48.0397 235.462 48.9505 235.193C49.6568 234.942 50.6476 232.592 47.8227 231.805Z" fill="#FCA68B"/>
<path d="M49.9308 228.885C49.5473 228.781 49.1555 228.716 48.7608 228.691C47.907 228.691 45.4616 228.269 44.7765 229.546C44.6328 229.806 44.5669 230.108 44.5876 230.41C44.6084 230.712 44.7148 231 44.8924 231.234C45.6619 232.124 47.2324 232.136 48.16 232.272C49.1282 232.54 50.1431 232.54 51.1114 232.272C51.7965 232.067 52.8505 229.649 49.9308 228.885Z" fill="#FCA68B"/>
<path d="M51.8597 226.022C51.4752 225.929 51.0835 225.876 50.6897 225.862C49.8465 225.862 47.4221 225.497 46.7686 226.786C46.6299 227.052 46.5697 227.357 46.5961 227.661C46.6224 227.965 46.7342 228.252 46.9162 228.486C47.6857 229.352 49.2457 229.33 50.1732 229.444C51.1272 229.712 52.1285 229.712 53.0824 229.444C53.7781 229.113 54.7795 226.74 51.8597 226.022Z" fill="#FCA68B"/>
<path d="M36.228 227.105C38.4943 224.413 43.1427 219.588 46.094 219.611C48.2022 219.611 51.7333 222.885 52.8716 225.839C53.0867 226.189 53.1804 226.61 53.136 227.028C53.0916 227.445 52.9121 227.833 52.6292 228.121C52.3518 228.373 52.0009 228.512 51.6384 228.512C51.2759 228.512 50.925 228.373 50.6476 228.121C49.5188 226.8 48.232 225.65 46.8213 224.699C46.6527 226.033 45.0821 229.352 43.9121 229.9C41.667 230.961 39.5799 229.9 39.4218 227.459" fill="#FFB89E"/>
<path d="M27.9115 148.639C27.9115 148.639 37.6615 123.853 52.7768 129.408C62.7798 133.092 61.8838 152.894 50.2681 164.609C25.9193 152.894 27.9115 148.639 27.9115 148.639Z" fill="#436060"/>
<path d="M62.0736 129.271C62.0736 129.271 59.8284 124.708 56.3711 123.67C49.0876 121.503 32.5705 123.67 29.5453 143.061C36.7972 148.982 50.6265 153.236 57.2881 147.807C67.1225 139.674 62.0736 129.271 62.0736 129.271Z" fill="#BDD5DB"/>
<path opacity="0.1" d="M32.3913 136.411C35.688 137.171 39.0852 137.271 42.4154 136.708C45.6175 136.125 48.6454 134.725 51.2484 132.624C52.8429 131.487 53.9744 129.732 54.4106 127.72C54.5789 126.172 54.3868 124.604 53.8519 123.157C47.0216 122.279 36.1542 124.72 31.411 136.206L32.3913 136.411Z" fill="white"/>
<g style="mix-blend-mode:multiply" opacity="0.3">
<path d="M62.0736 129.271C62.0736 129.271 59.9655 124.879 56.5609 123.739C57.4252 127.218 57.6149 130.959 55.9706 134.233C53.0087 140.256 45.8094 142.149 40.0543 142.776C36.574 143.153 33.0677 143.153 29.5875 142.776C29.5875 142.856 29.5875 142.936 29.5875 143.016C36.8394 148.936 50.6687 153.191 57.3303 147.761C67.1225 139.674 62.0736 129.271 62.0736 129.271Z" fill="#BDD5DB"/>
</g>
<path d="M88.931 184.867C75.418 225.737 47.9175 262.797 16.5382 267.622C-3.82625 239.961 -3.13057 192.977 10.9306 155.164C41.9094 154.103 66.0368 163.377 88.931 184.867Z" fill="#BDD5DB"/>
<path d="M18.8044 261.519C10.9833 249.622 6.56679 233.618 5.98706 215.014C5.59328 196.481 8.48802 178.038 14.5144 160.685H15.6317C41.8567 160.685 62.7376 168.669 82.8596 186.612C70.8855 220.33 47.1165 255.12 18.8044 261.519Z" fill="#8F5C49"/>
<path d="M52.1338 179.403L43.4483 176.54L35.8907 203.402L41.0135 205.524L52.1338 179.403Z" fill="#E03838"/>
<path d="M23.6742 235.067L30.4518 237.862L39.0635 211.068L33.9302 208.957L23.6742 235.067Z" fill="#E03838"/>
<path d="M11.7633 192.304L9.10707 199.832L33.9302 208.957L35.8907 203.402L11.7633 192.304Z" fill="#E03838"/>
<path d="M63.1909 222.166L65.7733 214.832L41.0135 205.524L39.0635 211.068L63.1909 222.166Z" fill="#E03838"/>
<path d="M35.8949 203.405L33.9367 208.957L39.0673 211.076L41.0255 205.524L35.8949 203.405Z" fill="#E03838"/>
<g style="mix-blend-mode:multiply" opacity="0.2">
<path d="M47.4854 159.669C96.7416 200.631 42.8581 255.839 16.5804 267.622C47.9597 262.797 75.4601 225.737 88.9732 184.867C75.8817 172.605 62.4003 164.323 47.4854 159.669Z" fill="#BDD5DB"/>
</g>
</g>
<defs>
<clipPath id="clip0_79_220">
<rect width="202" height="347" fill="white"/>
</clipPath>
</defs>
</svg>
