<svg width="54" height="84" viewBox="0 0 92 84" fill="none"
  xmlns="http://www.w3.org/2000/svg">
  <g clip-path="url(#clip0_224_2)">
    <path d="M17.1355 42.7741C13.4605 42.436 9.51198 46.0436 6.65741 51.8175L15.5577 50.2612L17.1355 42.7741Z" fill="#83BE07"/>
    <path d="M10.347 74.9323L4.578 77.8557C5.65898 80.9602 7.11864 83.1717 8.46987 83.8075L10.347 74.9323Z" fill="#83BE07"/>
    <path d="M12.6481 64.0172L2.89665 66.3759C2.78417 69.7267 3.18583 73.075 4.08767 76.3042L10.771 72.9069L12.6481 64.0172Z" fill="#83BE07"/>
    <path d="M15.1871 51.9987L5.82727 53.6391C4.78057 56.1417 3.9885 58.7433 3.46303 61.4045C3.24645 62.4835 3.09193 63.5741 3.00021 64.6708L13.0252 62.2441L15.1871 51.9987Z" fill="#83BE07"/>
    <path d="M13.672 63.7752L13.6652 63.7519L13.6482 63.7836L13.672 63.7752Z" fill="#83BE07"/>
    <path d="M24.3933 55.8441C24.0907 49.4183 21.9659 44.476 18.579 43.1268L16.9073 51.0539L24.3933 55.8441Z" fill="#83BE07"/>
    <path d="M15.7633 80.0332L11.7759 75.3416L9.97806 83.8641C11.4474 83.4759 13.5851 82.1703 15.7633 80.0332Z" fill="#83BE07"/>
    <path d="M22.0744 70.5886L14.0285 64.6821L12.1918 73.3712L16.8847 78.8716C19.078 76.4294 20.8337 73.6273 22.0744 70.5886Z" fill="#83BE07"/>
    <path d="M23.623 65.4408C24.1334 62.9377 24.4044 60.3917 24.4321 57.8373L16.5384 52.7801L14.3958 62.9219L22.6683 68.9935C23.0624 67.831 23.3813 66.6443 23.623 65.4408Z" fill="#83BE07"/>
    <path d="M13.672 63.7752L13.6652 63.7519L13.6482 63.7836L13.672 63.7752Z" fill="#A1E463"/>
    <path d="M13.672 63.7752L13.6652 63.7519L13.6482 63.7836L13.672 63.7752Z" fill="#A1E463"/>
    <path d="M13.672 63.7752L13.6652 63.7519L13.6482 63.7836L13.672 63.7752Z" fill="#A1E463"/>
    <path d="M22.6424 68.9902C22.4563 69.5386 22.2605 70.0693 22.0452 70.5902C20.8035 73.6307 19.0474 76.4349 16.8539 78.8797C16.4785 79.2874 16.1079 79.6789 15.7325 80.0364C13.5592 82.1687 11.4199 83.4758 9.94891 83.8689C9.76609 83.9257 9.57879 83.9668 9.38901 83.9919L17.642 42.855C17.9512 42.9167 18.2536 43.0083 18.545 43.1284C21.932 44.4792 24.0567 49.4199 24.3609 55.8458C24.3965 56.4929 24.41 57.1562 24.4014 57.8356C24.3728 60.39 24.1019 62.936 23.5923 65.4392C23.3536 66.6424 23.0363 67.8286 22.6424 68.9902Z" fill="#70A935"/>
    <path d="M16.54 52.7768L24.4337 57.834C24.4435 57.1562 24.4337 56.4945 24.3933 55.8442L16.9073 51.0458L18.579 43.1187C18.2867 42.9979 17.9831 42.9063 17.6728 42.8453C17.4964 42.8097 17.3135 42.7838 17.1355 42.766L15.5561 50.2531L6.6558 51.8094C6.36775 52.3951 6.08942 53.0001 5.82564 53.631L15.1855 51.9906L13.0236 62.2311L2.99859 64.6578C2.94357 65.2321 2.90797 65.8065 2.89502 66.3727L12.6465 64.0139L10.7694 72.9117L4.08605 76.3091C4.23493 76.8483 4.39675 77.365 4.57152 77.8589L10.3405 74.9356L8.46338 83.8107C8.75442 83.9608 9.0824 84.0242 9.40842 83.9935C9.5976 83.9696 9.78439 83.9296 9.96672 83.8738L11.7646 75.3514L15.7519 80.0429C16.1274 79.687 16.4979 79.2939 16.8733 78.8846L12.1805 73.3841L14.0172 64.695L22.063 70.6015C22.2766 70.0822 22.4757 69.5516 22.6618 69.0032L14.3894 62.9317L16.54 52.7768ZM13.6709 63.7778H13.6482L13.666 63.747L13.6709 63.7778Z" fill="#9CBA39"/>
    <path d="M46.8593 26.6465C49.3497 29.3708 54.698 29.3595 60.6984 27.0105L53.0685 22.1717L46.8593 26.6465Z" fill="#83BE07"/>
    <path d="M73.5343 7.4337L79.7694 9.1534C81.064 6.12977 81.4701 3.51382 80.9021 2.13385L73.5343 7.4337Z" fill="#83BE07"/>
    <path d="M64.4835 13.955L73.2818 18.7727C75.6216 16.3712 77.5793 13.6252 79.0865 10.6304L71.8611 8.63895L64.4835 13.955Z" fill="#83BE07"/>
    <path d="M54.5119 21.1363L62.5384 26.2226C64.9947 25.0763 67.3301 23.6873 69.5097 22.0762C70.3962 21.4237 71.2449 20.7215 72.052 19.9731L63.006 15.0179L54.5119 21.1363Z" fill="#83BE07"/>
    <path d="M63.5613 13.4486L63.5498 13.4699L63.5845 13.4584L63.5613 13.4486Z" fill="#83BE07"/>
    <path d="M50.2916 12.0961C46.1893 17.053 44.4336 22.1377 46.0291 25.4153L52.5975 20.6833L50.2916 12.0961Z" fill="#83BE07"/>
    <path d="M72.9679 0.0161855L72.7592 6.16375L79.826 1.07259C78.4715 0.375328 76.0118 -0.0970592 72.9679 0.0161855Z" fill="#83BE07"/>
    <path d="M61.938 2.7567L63.9123 12.5378L71.1199 7.34796L71.3594 0.11972C68.0904 0.449429 64.903 1.34155 61.938 2.7567Z" fill="#83BE07"/>
    <path d="M57.3228 5.51825C55.2593 7.02712 53.3434 8.72798 51.6007 10.5981L54.0281 19.6576L62.4429 13.5974L60.4266 3.53647C59.3508 4.13029 58.3141 4.79223 57.3228 5.51825Z" fill="#83BE07"/>
    <path d="M63.5613 13.4486L63.5498 13.4699L63.5845 13.4584L63.5613 13.4486Z" fill="#A1E463"/>
    <path d="M63.5613 13.4486L63.5498 13.4699L63.5845 13.4584L63.5613 13.4486Z" fill="#A1E463"/>
    <path d="M63.5613 13.4486L63.5498 13.4699L63.5845 13.4584L63.5613 13.4486Z" fill="#A1E463"/>
    <path d="M60.4395 3.55265C60.946 3.27277 61.4477 3.01393 61.9574 2.77288C64.9231 1.35961 68.1102 0.467583 71.3788 0.135897C71.9306 0.0857453 72.4695 0.0469178 72.9873 0.0339756C76.0296 -0.0792691 78.4893 0.393119 79.8454 1.092C80.0181 1.17355 80.1838 1.26934 80.3406 1.37835L46.534 26.2436C46.3473 25.9898 46.1847 25.7189 46.0485 25.4348C44.4546 22.1571 46.2104 17.0741 50.3126 12.1172C50.7236 11.6124 51.16 11.1131 51.6217 10.6191C53.3648 8.74941 55.2807 7.04858 57.3438 5.53929C58.3313 4.81033 59.3654 4.14669 60.4395 3.55265Z" fill="#70A935"/>
    <path d="M54.0345 19.6512L51.6072 10.5916C51.1454 11.0867 50.7091 11.586 50.298 12.0897L52.604 20.6769L46.0243 25.4153C46.1596 25.7 46.3222 25.9709 46.5097 26.2242C46.6175 26.3701 46.7325 26.5105 46.8544 26.6448L53.0636 22.1701L60.6936 27.0088C61.3004 26.7694 61.9121 26.509 62.5335 26.221L54.5071 21.1347L63.0012 15.0162L72.0471 19.9715C72.4727 19.5832 72.8854 19.182 73.277 18.7711L64.4786 13.9534L71.8562 8.63733L79.0865 10.6304C79.3368 10.1322 79.5638 9.63982 79.7677 9.1534L73.5343 7.4337L80.8989 2.13385C80.7836 1.82737 80.5839 1.55982 80.3228 1.36218C80.1664 1.25247 80.0007 1.15665 79.8276 1.07582L72.7608 6.16698L72.9695 0.0194092C72.4517 0.0323514 71.9128 0.0727983 71.361 0.12295L71.1215 7.35119L63.9139 12.541L61.9396 2.75993C61.4315 2.99936 60.9282 3.25821 60.4201 3.5397L62.4494 13.5942L54.0345 19.6512ZM63.5611 13.4486L63.5838 13.4567L63.5498 13.4696L63.5611 13.4486Z" fill="#9CBA39"/>
    <path d="M50.2835 33.2098C50.2204 36.8999 54.1171 40.5658 60.0916 42.9795L57.8714 34.2241L50.2835 33.2098Z" fill="#83BE07"/>
    <path d="M82.8683 37.5681L86.218 43.1009C89.2328 41.7889 91.33 40.1695 91.8624 38.7749L82.8683 37.5681Z" fill="#83BE07"/>
    <path d="M71.8109 36.0927L74.8936 45.6376C78.2451 45.4995 81.5556 44.8486 84.7098 43.7076L80.8261 37.2979L71.8109 36.0927Z" fill="#83BE07"/>
    <path d="M59.6304 34.4619L61.9688 43.6687C64.5405 44.5262 67.1922 45.1224 69.8835 45.4483C70.9762 45.5837 72.0757 45.6561 73.1767 45.6651L70.0065 35.8516L59.6304 34.4619Z" fill="#83BE07"/>
    <path d="M71.4899 35.0913L71.4678 35.098L71.5001 35.1113L71.4899 35.0913Z" fill="#83BE07"/>
    <path d="M62.7763 24.9947C56.3891 25.7793 51.6201 28.2691 50.5262 31.7441L58.5511 32.8183L62.7763 24.9947Z" fill="#83BE07"/>
    <path d="M87.5563 31.791L83.1774 36.117L91.8123 37.2704C91.309 35.8322 89.8445 33.7971 87.5563 31.791Z" fill="#83BE07"/>
    <path d="M77.6592 26.208L72.3692 34.6706L81.174 35.8484L86.3183 30.7605C83.7153 28.7565 80.7859 27.2165 77.6592 26.208Z" fill="#83BE07"/>
    <path d="M72.4015 25.0448C69.8645 24.7233 67.3026 24.6437 64.7505 24.807L60.2987 33.0577L70.5762 34.4312L76.0118 25.7324C74.8244 25.4262 73.6184 25.1965 72.4015 25.0448Z" fill="#83BE07"/>
    <path d="M71.4899 35.0913L71.4678 35.098L71.5001 35.1113L71.4899 35.0913Z" fill="#A1E463"/>
    <path d="M71.4899 35.0913L71.4678 35.098L71.5001 35.1113L71.4899 35.0913Z" fill="#A1E463"/>
    <path d="M71.4899 35.0913L71.4678 35.098L71.5001 35.1113L71.4899 35.0913Z" fill="#A1E463"/>
    <path d="M76.0215 25.7567C76.583 25.9007 77.1268 26.0576 77.6608 26.2323C80.787 27.2417 83.7157 28.7823 86.3184 30.7864C86.7553 31.1293 87.1744 31.4707 87.5579 31.8169C89.8461 33.8229 91.3106 35.8613 91.8139 37.2963C91.8837 37.4735 91.9379 37.6565 91.9757 37.8431L50.3223 32.6921C50.3588 32.3791 50.4271 32.0707 50.5262 31.7716C51.6201 28.2934 56.3891 25.8052 62.7746 25.019C63.4219 24.9349 64.0838 24.8734 64.757 24.8313C67.3086 24.6696 69.8698 24.7492 72.4064 25.0691C73.625 25.2199 74.8326 25.4495 76.0215 25.7567Z" fill="#70A935"/>
    <path d="M60.3052 33.0561L64.757 24.8054C64.0816 24.8464 63.4214 24.909 62.7763 24.9931L58.551 32.8167L50.5262 31.7425C50.4277 32.0428 50.3594 32.3523 50.3223 32.6662C50.2997 32.8474 50.2883 33.0302 50.2835 33.2082L57.8714 34.2225L60.0916 42.9779C60.6968 43.2222 61.3198 43.4536 61.9688 43.6671L59.6304 34.4603L70.0065 35.8468L73.1767 45.6602C73.7528 45.6732 74.3288 45.6602 74.8936 45.6343L71.8109 36.0894L80.8261 37.2931L84.7098 43.7027C85.2341 43.5129 85.7369 43.3112 86.218 43.0977L82.8683 37.5649L91.8624 38.7717C91.9899 38.4696 92.0286 38.1374 91.9741 37.814C91.9359 37.6274 91.8817 37.4445 91.8123 37.2672L83.1773 36.1137L87.5563 31.7878C87.1728 31.4416 86.7472 31.1002 86.3167 30.7572L81.174 35.8452L72.3692 34.6674L77.6592 26.2048C77.1235 26.0285 76.5798 25.8699 76.0183 25.7276L70.5826 34.4264L60.3052 33.0561ZM71.4905 35.0913L71.5002 35.1107L71.4694 35.0977L71.4905 35.0913Z" fill="#9CBA39"/>
    <path d="M22.2249 2.5739C19.2356 2.36437 16.2486 3.01323 13.6158 4.44405C12.2889 7.9692 10.2548 9.62095 7.3646 10.8812C6.51544 12.579 6.01422 14.4293 5.89039 16.3234C5.34666 24.4786 11.7792 31.5516 20.2571 32.1146C28.735 32.6776 36.043 26.5235 36.5851 18.3634C37.1272 10.2033 30.7028 3.1385 22.2249 2.5739Z" fill="#1872B0"/>
    <path d="M16.3183 30.0438C14.9546 29.9522 13.6041 29.7185 12.2889 29.3465C14.6439 30.9768 17.3985 31.9354 20.2571 32.1194C28.7334 32.684 36.043 26.5284 36.5851 18.3683C36.6855 16.8915 36.5555 15.4081 36.2 13.9712C35.1627 23.5727 26.421 30.7119 16.3183 30.0438Z" fill="#014E73"/>
    <path d="M13.6159 4.44405C11.8973 7.37871 12.1077 8.76352 7.36461 10.8812C6.51544 12.579 6.01423 14.4293 5.89039 16.3234C5.65926 19.8324 6.7207 23.3047 8.87443 26.0851C8.0319 23.9149 7.65237 21.5926 7.76022 19.2671C7.86806 16.9417 8.46091 14.6645 9.50069 12.5815C11.1103 9.39138 13.6568 6.76937 16.7989 5.06689C19.1533 3.78543 21.7611 3.03811 24.437 2.87804C23.7077 2.72505 22.9685 2.62342 22.2249 2.5739C19.2356 2.36437 16.2486 3.01323 13.6159 4.44405Z" fill="#599BCD"/>
    <path d="M16.5724 5.9696L13.7825 5.02805L13.6207 4.44403C11.6222 7.92388 11.0979 8.88483 7.36945 10.8812C7.51185 10.9993 7.74973 11.0235 8.05558 10.9346L10.8762 10.1257L13.1886 11.9052C13.7372 12.3291 14.1903 12.122 14.2065 11.4458L14.2599 8.60334L16.7212 7.05027C17.3006 6.67495 17.2375 6.19285 16.5724 5.9696Z" fill="#014E73"/>
    <path d="M19.8849 25.9767C19.6914 25.9711 19.5005 26.0225 19.336 26.1246C19.1715 26.2266 19.0406 26.3748 18.9597 26.5506C18.8787 26.7264 18.8513 26.9222 18.8808 27.1135C18.9103 27.3048 18.9954 27.4832 19.1255 27.6265C19.2557 27.7698 19.4251 27.8716 19.6127 27.9194C19.8003 27.9672 19.9978 27.9588 20.1807 27.8952C20.3636 27.8316 20.5237 27.7157 20.6411 27.5618C20.7586 27.408 20.8282 27.223 20.8413 27.0299C20.848 26.8979 20.8286 26.7658 20.7841 26.6413C20.7397 26.5168 20.671 26.4024 20.5821 26.3045C20.4933 26.2066 20.3859 26.1273 20.2663 26.071C20.1466 26.0148 20.017 25.9827 19.8849 25.9767Z" fill="#014E73"/>
    <path d="M25.4727 23.2087C25.1652 23.1998 24.8619 23.2816 24.6005 23.4438C24.3392 23.606 24.1313 23.8415 24.0028 24.1209C23.8743 24.4003 23.8309 24.7113 23.8779 25.0153C23.9249 25.3192 24.0603 25.6026 24.2673 25.8301C24.4742 26.0577 24.7435 26.2194 25.0416 26.2951C25.3398 26.3708 25.6536 26.3571 25.944 26.2558C26.2345 26.1545 26.4887 25.9701 26.6751 25.7254C26.8615 25.4808 26.9717 25.1867 26.9922 24.8799C27.0115 24.457 26.8625 24.0437 26.5777 23.7305C26.2929 23.4173 25.8955 23.2296 25.4727 23.2087Z" fill="#014E73"/>
    <path d="M20.8672 22.9013C20.7205 22.8968 20.5757 22.9356 20.451 23.0129C20.3262 23.0901 20.2269 23.2023 20.1655 23.3356C20.1041 23.4688 20.0832 23.6172 20.1056 23.7622C20.1279 23.9072 20.1925 24.0424 20.2911 24.151C20.3898 24.2595 20.5183 24.3367 20.6605 24.3728C20.8028 24.4089 20.9525 24.4023 21.091 24.354C21.2296 24.3056 21.3508 24.2175 21.4396 24.1007C21.5284 23.984 21.5809 23.8436 21.5905 23.6972C21.5998 23.4959 21.5288 23.2991 21.3933 23.1499C21.2577 23.0007 21.0685 22.9113 20.8672 22.9013Z" fill="#014E73"/>
    <path d="M19.9707 9.28769C19.7771 9.2824 19.5863 9.33412 19.4219 9.43643C19.2576 9.53873 19.1269 9.68709 19.0463 9.86305C18.9656 10.039 18.9385 10.2348 18.9683 10.426C18.9981 10.6173 19.0835 10.7956 19.2139 10.9387C19.3442 11.0818 19.5138 11.1834 19.7015 11.2309C19.8892 11.2783 20.0867 11.2696 20.2695 11.2057C20.4523 11.1418 20.6122 11.0256 20.7294 10.8716C20.8466 10.7175 20.9159 10.5324 20.9287 10.3392C20.941 10.0728 20.847 9.81244 20.6673 9.61527C20.4877 9.41809 20.2371 9.30027 19.9707 9.28769Z" fill="#599BCD"/>
    <path d="M22.7217 6.68791C22.5281 6.68233 22.3373 6.73375 22.1727 6.8358C22.0082 6.93784 21.8774 7.086 21.7964 7.26183C21.7155 7.43765 21.6881 7.63338 21.7176 7.82467C21.7471 8.01596 21.8322 8.19436 21.9623 8.33766C22.0924 8.48097 22.2618 8.58285 22.4495 8.63064C22.6371 8.67842 22.8346 8.67 23.0175 8.60642C23.2003 8.54284 23.3604 8.42691 23.4779 8.27305C23.5953 8.11919 23.665 7.93419 23.6781 7.74109C23.6904 7.47478 23.5966 7.21444 23.4174 7.01706C23.2382 6.81967 22.988 6.70132 22.7217 6.68791Z" fill="#599BCD"/>
    <path d="M42.7538 14.463C33.9069 13.4842 25.8934 20.2999 24.8545 29.6879C23.8156 39.0759 30.1429 47.4835 38.9898 48.4541C47.8367 49.4248 55.8502 42.6172 56.8891 33.2292C57.928 23.8412 51.5991 15.4417 42.7538 14.463Z" fill="#1872B0"/>
    <path d="M42.7538 14.463C37.7373 13.9081 33.0023 15.8543 29.6461 19.3519C33.0026 17.0349 37.0804 16.0014 41.1356 16.4399C49.9194 17.4106 56.4425 25.0465 56.7742 34.1206C56.8212 33.8262 56.8632 33.5285 56.8956 33.2276C57.928 23.8445 51.5991 15.4417 42.7538 14.463Z" fill="#599BCD"/>
    <path d="M42.0273 46.3834C32.5363 45.3335 25.5212 36.9889 25.3335 27.1447C25.1183 27.9815 24.9626 28.8324 24.8675 29.6911C23.8286 39.0743 30.1575 47.4867 39.0028 48.4574C42.8917 48.8766 46.7955 47.8117 49.9323 45.4758C47.3988 46.3672 44.697 46.6774 42.0273 46.3834Z" fill="#014E73"/>
    <path d="M42.7231 32.5449L39.6597 29.7801L40.1064 25.5043C40.2132 24.4867 39.6209 24.1001 38.8118 24.6404L35.3423 26.9053L31.6446 25.1905C30.7659 24.7795 30.2303 25.2536 30.4487 26.2436L31.3695 30.4127L28.6412 33.624C27.9939 34.3908 28.2431 35.067 29.2043 35.1414L33.2499 35.452L35.2549 39.1535C35.7323 40.0352 36.4233 39.9834 36.7987 39.0354L38.3732 35.0573L42.3428 34.1352C43.2733 33.9168 43.4529 33.2033 42.7231 32.5449Z" fill="#014E73"/>
    <path d="M37.6726 41.2502C37.5132 41.2242 37.3497 41.2465 37.2031 41.3142C37.0565 41.3819 36.9335 41.4919 36.85 41.6301C36.7664 41.7682 36.7261 41.9282 36.7343 42.0894C36.7425 42.2507 36.7987 42.4058 36.8958 42.5348C36.9929 42.6638 37.1263 42.7608 37.279 42.8134C37.4317 42.8659 37.5966 42.8716 37.7526 42.8296C37.9085 42.7877 38.0484 42.7 38.1541 42.578C38.2598 42.456 38.3265 42.3051 38.3458 42.1448C38.3748 41.937 38.3203 41.7261 38.1941 41.5584C38.0679 41.3907 37.8804 41.2798 37.6726 41.2502Z" fill="#014E73"/>
    <path d="M43.639 41.4556C43.3882 41.4124 43.1302 41.4456 42.8984 41.5507C42.6667 41.6559 42.4718 41.8282 42.3392 42.0453C42.2066 42.2625 42.1423 42.5145 42.1546 42.7686C42.1669 43.0227 42.2553 43.2673 42.4083 43.4706C42.5613 43.674 42.7718 43.8266 43.0127 43.9089C43.2535 43.9912 43.5135 43.9992 43.759 43.932C44.0044 43.8648 44.2241 43.7254 44.3893 43.5319C44.5546 43.3384 44.658 43.0998 44.686 42.8469C44.7313 42.5237 44.6465 42.1957 44.4502 41.9349C44.2539 41.6741 43.9622 41.5017 43.639 41.4556Z" fill="#014E73"/>
    <path d="M41.2068 37.9062C41.0305 37.876 40.8492 37.8995 40.6864 37.9737C40.5237 38.0478 40.387 38.1692 40.2941 38.322C40.2013 38.4749 40.1565 38.6521 40.1657 38.8307C40.1749 39.0093 40.2377 39.1809 40.3457 39.3234C40.4538 39.4659 40.6023 39.5726 40.7718 39.6296C40.9413 39.6867 41.1241 39.6914 41.2963 39.6433C41.4686 39.5951 41.6224 39.4963 41.7377 39.3596C41.853 39.2229 41.9246 39.0547 41.9431 38.8769C41.9735 38.6507 41.9132 38.4216 41.7752 38.2397C41.6372 38.0578 41.4329 37.9379 41.2068 37.9062Z" fill="#014E73"/>
    <path d="M52.1736 25.1905C51.9739 25.1561 51.7685 25.1824 51.584 25.2661C51.3994 25.3498 51.2443 25.4869 51.1387 25.6598C51.0331 25.8326 50.9818 26.0332 50.9915 26.2355C51.0013 26.4379 51.0716 26.6326 51.1933 26.7945C51.3151 26.9564 51.4827 27.078 51.6744 27.1436C51.8661 27.2091 52.0731 27.2156 52.2686 27.1622C52.464 27.1088 52.6389 26.9979 52.7706 26.8439C52.9022 26.6899 52.9846 26.5 53.007 26.2987C53.043 26.0413 52.9755 25.7801 52.8193 25.5724C52.6631 25.3647 52.4309 25.2274 52.1736 25.1905Z" fill="#599BCD"/>
    <path d="M48.8691 24.621C48.6299 24.5804 48.3839 24.6125 48.1631 24.7132C47.9423 24.8139 47.7568 24.9786 47.6306 25.1859C47.5045 25.3931 47.4435 25.6335 47.4556 25.8759C47.4677 26.1182 47.5522 26.3513 47.6984 26.5451C47.8445 26.7388 48.0454 26.8842 48.2751 26.9625C48.5049 27.0408 48.7528 27.0483 48.9868 26.9841C49.2209 26.9199 49.4303 26.787 49.5879 26.6024C49.7455 26.4179 49.8441 26.1904 49.8708 25.9492C49.8923 25.7962 49.8834 25.6405 49.8447 25.491C49.806 25.3415 49.7382 25.201 49.6452 25.0777C49.5521 24.9543 49.4357 24.8505 49.3026 24.7722C49.1694 24.6938 49.0221 24.6424 48.8691 24.621Z" fill="#599BCD"/>
    <path d="M22.1068 27.9892C12.6611 25.3765 3.01157 30.4272 0.571274 39.2716C-1.86903 48.116 3.79319 57.4037 13.2388 60.018C22.6845 62.6324 32.3243 57.58 34.7743 48.7373C37.2243 39.8945 31.5524 30.6036 22.1068 27.9892Z" fill="#1872B0"/>
    <path d="M22.1197 27.9407C21.7815 27.8468 21.4433 27.7676 21.105 27.6931C29.8063 31.8605 34.6416 41.3068 32.1366 50.3518C31.3614 53.1547 29.9246 55.7306 27.9469 57.8631C31.2848 55.757 33.7218 52.4871 34.7856 48.6871C37.2356 39.8492 31.5637 30.5599 22.1197 27.9407Z" fill="#014E73"/>
    <path d="M2.56815 38.1586C3.44575 34.9945 5.20789 32.1463 7.64779 29.9483C4.27377 32.0385 1.68459 35.2627 0.571244 39.2651C-1.87553 48.1144 3.7883 57.4037 13.2388 60.018C13.755 60.1604 14.2712 60.2768 14.7875 60.3739C5.44375 56.9232 0.0291392 47.3249 2.56815 38.1586Z" fill="#599BCD"/>
    <path d="M20.8251 49.0964L17.0481 47.5967L16.0335 44.489C15.7924 43.748 15.1208 43.5636 14.5334 44.0732L12.0639 46.2216L8.05557 45.5745C7.10081 45.4127 6.76097 45.8349 7.29822 46.5079L9.54758 49.331L8.09116 52.0343C7.74162 52.6814 8.20444 53.1214 9.12198 53.0276L12.9831 52.628L16.0885 54.956C16.8264 55.5076 17.451 55.3653 17.4834 54.6324L17.6177 51.5586L21.0015 50.2936C21.7992 49.9846 21.7232 49.4572 20.8251 49.0964Z" fill="#014E73"/>
    <path d="M20.5435 29.7316C19.6098 29.4727 18.6583 29.971 18.4188 30.8446C18.1793 31.7182 18.7424 32.6355 19.6664 32.8927C20.5904 33.1499 21.5517 32.6516 21.7944 31.778C22.0372 30.9044 21.4756 29.9888 20.5435 29.7316Z" fill="#014E73"/>
    <path d="M26.5699 34.8033C26.3261 34.7528 26.073 34.7746 25.8415 34.866C25.61 34.9575 25.4103 35.1146 25.267 35.318C25.1236 35.5214 25.0428 35.7622 25.0346 36.0109C25.0264 36.2596 25.091 36.5052 25.2206 36.7177C25.3502 36.9301 25.539 37.1001 25.7639 37.2066C25.9888 37.3132 26.24 37.3517 26.4865 37.3174C26.733 37.2832 26.9642 37.1776 27.1515 37.0138C27.3388 36.8499 27.4741 36.6349 27.5408 36.3952C27.6227 36.0554 27.5665 35.697 27.3845 35.3986C27.2025 35.1002 26.9095 34.8861 26.5699 34.8033Z" fill="#014E73"/>
    <path d="M21.7814 35.1172C21.596 35.0789 21.4034 35.0956 21.2274 35.1653C21.0514 35.235 20.8996 35.3546 20.7907 35.5095C20.6818 35.6643 20.6205 35.8476 20.6145 36.0368C20.6085 36.226 20.6579 36.4128 20.7567 36.5743C20.8555 36.7358 20.9994 36.8648 21.1706 36.9456C21.3419 37.0264 21.533 37.0553 21.7205 37.0289C21.908 37.0025 22.0836 36.9218 22.2259 36.7969C22.3681 36.6719 22.4707 36.5081 22.521 36.3257C22.5824 36.0674 22.5391 35.7953 22.4006 35.5689C22.262 35.3425 22.0394 35.1801 21.7814 35.1172Z" fill="#014E73"/>
    <path d="M15.8231 56.6353C15.5932 56.5876 15.3545 56.6082 15.1361 56.6945C14.9178 56.7807 14.7295 56.9289 14.5943 57.1208C14.4592 57.3127 14.383 57.5399 14.3754 57.7745C14.3677 58.0091 14.4288 58.2408 14.5511 58.4411C14.6735 58.6414 14.8517 58.8015 15.0639 58.9019C15.2761 59.0022 15.5131 59.0384 15.7456 59.0058C15.9781 58.9733 16.196 58.8735 16.3725 58.7188C16.549 58.5641 16.6764 58.3611 16.739 58.1349C16.8161 57.8147 16.7629 57.4769 16.5912 57.1958C16.4195 56.9147 16.1433 56.7131 15.8231 56.6353Z" fill="#599BCD"/>
    <path d="M11.7824 54.8056C11.6362 54.7753 11.4844 54.7884 11.3456 54.8433C11.2068 54.8982 11.0871 54.9924 11.0012 55.1145C10.9153 55.2365 10.8669 55.381 10.8621 55.5301C10.8573 55.6793 10.8962 55.8266 10.974 55.9539C11.0519 56.0812 11.1653 56.183 11.3002 56.2468C11.4352 56.3105 11.5859 56.3334 11.7337 56.3126C11.8815 56.2918 12.02 56.2283 12.1322 56.1298C12.2443 56.0314 12.3253 55.9023 12.365 55.7584C12.4137 55.5548 12.3798 55.3403 12.2706 55.1617C12.1614 54.9831 11.9858 54.855 11.7824 54.8056Z" fill="#599BCD"/>
  </g>
  <defs>
    <clipPath id="clip0_224_2">
      <rect width="92" height="84" fill="white"/>
    </clipPath>
  </defs>
</svg>
  