<svg width="110" height="136" viewBox="0 0 110 136" fill="none" xmlns="http://www.w3.org/2000/svg">
<g clip-path="url(#clip0_224_590)">
<path d="M6.02332 73.1079C5.75735 69.682 5.30365 66.2715 4.75608 62.8765C4.47447 61.1713 4.14594 59.4816 3.80175 57.7919C3.62966 56.9392 3.42628 56.1021 3.2229 55.2495C3.01951 54.3969 2.86305 53.6993 2.72225 52.8157C2.27345 49.4965 2.18426 46.1393 2.45626 42.8013C2.59706 41.1426 2.76915 39.4684 3.03512 37.8096C3.17592 36.988 3.3324 36.1664 3.5045 35.3603C3.66621 34.5907 3.88583 33.8341 4.16156 33.097C5.4288 29.9966 6.88382 26.8962 8.44832 23.8732C9.96164 20.8747 11.7584 18.0251 13.8145 15.3626C14.3458 14.7296 14.9152 14.129 15.5198 13.5643C16.1456 12.9598 16.7714 12.3552 17.3816 11.7351C18.6019 10.4949 19.7909 9.23926 20.9487 7.95258C23.2485 5.37923 25.4857 2.75938 27.5821 0C25.0789 2.38732 22.5914 4.77465 20.0569 7.09997C18.8053 8.27813 17.538 9.42528 16.2395 10.5569L14.2839 12.1847C13.5905 12.7605 12.9372 13.382 12.3282 14.0449C10.0115 16.7 8.00659 19.6072 6.3519 22.7106C4.67526 25.7591 3.1659 28.8951 1.83047 32.1049C1.50539 32.9766 1.25419 33.8737 1.07949 34.7867C0.891752 35.6549 0.735321 36.523 0.610161 37.3911C0.340044 39.122 0.162492 40.8658 0.0782367 42.6153C-0.112145 46.1296 0.129505 49.6538 0.797893 53.1102C0.985633 53.9783 1.2203 54.8775 1.47062 55.6836L2.20593 58.1329C2.69093 59.6831 3.12901 61.4194 3.55143 63.0781C4.42755 66.442 5.20978 69.775 6.02332 73.1079Z" fill="#261705"/>
<path d="M47.686 34.3682C46.9933 34.7905 46.4474 35.4125 46.1215 36.1509C45.7617 36.9415 45.0576 37.2671 45.2454 37.9492C45.4331 38.6313 44.8855 39.3443 44.0563 39.8404C43.2272 40.3365 42.7109 40.8015 43.3367 41.2821C43.9625 41.7627 43.8529 41.6697 43.7591 41.8402C43.6652 42.0107 43.2584 42.1967 43.5713 42.6618C43.5713 42.6618 43.1333 42.9253 43.321 43.3129C43.5088 43.7004 43.6183 43.8555 43.321 44.1035C43.0238 44.3515 42.3667 45.2041 43.1177 45.8552C43.8686 46.5063 45.8086 46.6768 45.9494 47.0179C46.0902 47.3589 45.527 48.0565 46.1058 49.3897C46.6847 50.7229 46.5126 51.1725 46.5126 51.1725C46.5126 51.1725 51.9102 53.2497 54.8514 51.1725C54.8514 51.1725 53.3808 47.731 53.7875 47.2194C53.7875 47.2194 52.6924 47.2194 52.9427 46.6923C52.9427 46.6923 52.6142 45.9172 52.8645 45.5917C52.8645 45.5917 52.8645 44.5996 53.3495 44.2895C53.3463 44.1658 53.3715 44.043 53.4229 43.9303C53.4744 43.8175 53.5509 43.7178 53.6467 43.6384C54.0096 43.4136 54.2937 43.0834 54.4603 42.6928C54.6637 42.1967 52.8176 39.5924 52.7863 39.4219C52.755 39.2513 52.4421 38.6157 52.6924 38.3832C52.9427 38.1507 52.9271 37.9492 52.7863 37.7631C52.6455 37.5771 47.686 34.3682 47.686 34.3682Z" fill="#FDB171"/>
<path d="M53.7093 47.6537C53.8188 45.6384 55.2738 44.6773 56.588 43.2201C57.4499 42.1889 58.0841 40.9901 58.4497 39.7011C58.5742 38.767 58.418 37.8174 58.0006 36.9709C57.5832 36.1244 56.9231 35.4186 56.103 34.9419C52.8488 33.0972 48.7185 32.8336 48.9375 31.0664C48.9375 31.0664 46.7629 33.0507 47.373 34.6474C48.4515 35.4801 49.2665 36.6017 49.7213 37.8793C50.176 39.157 50.2515 40.537 49.9388 41.8559L50.7367 42.2744C50.7367 42.2744 51.2999 40.1972 52.4107 40.7242C53.5215 41.2513 52.4107 42.1659 52.4107 42.7395C52.4107 43.3131 52.7549 44.4912 51.5815 44.1192C51.5815 44.1192 51.0027 44.9098 52.489 46.5995C52.8541 46.9956 53.2635 47.3493 53.7093 47.6537Z" fill="#261705"/>
<path d="M44.2754 46.4135C45.4478 46.6437 46.6543 46.6437 47.8268 46.4135C48.8908 46.1566 49.8445 45.5701 50.549 44.7393C50.0211 45.5295 49.3296 46.1994 48.5204 46.7046C47.7112 47.2097 46.8028 47.5385 45.8555 47.6692C45.8555 47.4056 45.965 47.2041 45.8555 47.0801C45.746 46.9561 45.042 46.646 44.2754 46.4135Z" fill="#F09F5B"/>
<path d="M54.8514 49.7465C56.7914 50.4596 58.7626 50.3976 60.1237 53.5135C61.1091 53.3161 62.129 53.3737 63.0854 53.6805C64.0418 53.9873 64.9022 54.5331 65.5838 55.2652C67.7428 57.7766 68.4782 56.6759 71.6072 57.8386C73.3586 58.4181 74.8987 59.4965 76.0347 60.939C74.7973 59.2886 73.9572 57.3797 73.5784 55.3582C73.0592 53.1288 72.3258 50.9537 71.3881 48.8629C70.286 49.246 69.0946 49.2999 67.9619 49.0179C65.6151 48.6303 65.709 46.6771 67.6646 45.3904C68.4623 44.7012 69.485 44.3216 70.5433 44.3216C71.6017 44.3216 72.6242 44.7012 73.422 45.3904C75.5028 46.9406 74.9865 48.1343 76.4102 50.5061C77.9861 53.0918 79.8093 55.5213 81.8546 57.7611C83.1688 59.0632 83.9198 66.1322 80.9159 67.2949C77.9121 68.4575 69.8549 66.8143 68.5408 66.8143C67.2266 66.8143 61.9073 67.3414 58.9034 63.7139C58.9034 63.7139 58.1837 68.6745 49.1566 74.0848C48.9269 76.1107 49.3023 78.159 50.2361 79.9756C50.2361 79.9756 39.3941 83.076 34.7006 79.9756C34.5466 77.001 34.2385 74.0362 33.7776 71.0929C33.2456 69.0311 31.024 64.6285 32.2131 59.5748C33.4021 54.5211 32.8545 52.9554 33.6524 51.9168C33.6524 51.9168 25.2823 51.5447 22.7009 44.4293C22.7009 44.4293 15.2539 43.1426 12.25 39.6391C9.24619 36.1356 9.12101 36.1976 7.14974 35.1435C5.17847 34.0893 2.1903 32.1671 4.28673 32.4771C6.38316 32.7872 6.14849 32.9887 6.14849 32.9887C6.14849 32.9887 4.4275 31.8725 3.56702 31.4385C2.70655 31.0044 2.00254 31.1439 2.36237 30.4153C4.92815 25.7647 7.05587 30.2448 8.27618 31.1439C9.18954 32.1491 10.3993 32.8434 11.7337 33.1282C14.0805 33.7638 20.2133 34.4149 22.5757 36.4767C24.9381 38.5384 27.2692 40.1662 29.3657 40.3212C31.4621 40.4762 37.1881 40.7552 39.1594 42.9565C40.8307 44.7982 42.7841 46.3676 44.9481 47.6072C45.699 47.8707 45.5113 48.5063 46.5126 48.0567L54.8514 49.7465Z" fill="#FDB171"/>
<path d="M7.02461 33.5619L6.1485 32.9883C6.4763 33.1195 6.77421 33.3146 7.02461 33.5619Z" fill="#FDB171"/>
<path d="M53.0679 51.1103C51.701 51.5334 50.2973 51.8293 48.875 51.9939C50.2139 51.5585 51.5121 51.0087 52.7549 50.3507C53.193 50.1026 53.6311 49.8391 54.0535 49.5601L54.9296 49.7461L55.7431 49.9941L55.1173 50.3352C54.4526 50.639 53.7679 50.898 53.0679 51.1103Z" fill="#F09F5B"/>
<path d="M46.9507 51.0949C46.2741 50.483 45.6704 49.7965 45.1515 49.0486C44.6779 48.3719 44.2544 47.6621 43.8842 46.9248C44.2186 47.1639 44.5748 47.3715 44.9481 47.5449C45.4018 47.6999 45.5113 47.9944 45.746 48.103C45.9807 48.2115 45.8399 48.4905 45.9025 48.6765C46.1631 49.5177 46.5145 50.3285 46.9507 51.0949Z" fill="#F09F5B"/>
<path d="M44.9012 54.9858C43.8989 55.8907 42.9679 56.8702 42.1164 57.9157C41.3416 59.029 40.6464 60.1945 40.0356 61.4037C39.4198 62.6311 38.9373 63.9199 38.5962 65.2482C38.4323 65.9154 38.3224 66.5945 38.2677 67.279C38.2677 67.9766 38.2677 68.6432 38.2677 69.3253C38.2677 72.0071 38.5024 74.689 38.784 77.3554C38.9404 78.6886 39.1125 80.0217 39.2846 81.3549C39.4567 82.6881 39.9417 83.9593 40.3798 85.2459C40.2703 83.8973 40.192 82.5641 40.1295 81.2309C40.0669 79.8977 39.7696 78.5955 39.6131 77.2624C39.3315 74.627 39.1281 71.9606 39.1125 69.3098C39.0583 68.0078 39.1794 66.7045 39.4723 65.4343C39.8005 64.1703 40.2619 62.944 40.8491 61.7758C41.4425 60.5996 42.1168 59.4652 42.8673 58.3808C43.4866 57.2156 44.1654 56.0825 44.9012 54.9858Z" fill="#F09F5B"/>
<path d="M39.2377 65.2949C40.1274 65.3799 41.0232 65.3799 41.913 65.2949C42.3093 65.2939 42.7021 65.3676 43.0707 65.5119C43.2377 65.5826 43.3872 65.6883 43.5088 65.822C43.6578 65.9749 43.7988 66.1353 43.9312 66.3025C44.4631 66.9691 44.9481 67.6822 45.4957 68.3488C46.0023 69.0632 46.6587 69.6608 47.42 70.1005C46.7127 69.6052 46.1206 68.9656 45.6834 68.2248C45.1984 67.5117 44.776 66.7676 44.291 66.039L43.8999 65.4964C43.7367 65.304 43.5408 65.1414 43.321 65.0158C42.8947 64.8112 42.4325 64.6902 41.9599 64.6593C41.1172 64.663 40.2754 64.606 39.4411 64.4888L39.2377 65.2949Z" fill="#F09F5B"/>
<path d="M39.4411 65.0316C38.9086 64.6166 38.3042 64.3014 37.6575 64.1015C36.996 63.8607 36.2696 63.8607 35.608 64.1015C34.4658 64.6476 33.3535 65.253 32.2756 65.9152C33.4249 65.4017 34.5998 64.9464 35.7958 64.551C36.3648 64.445 36.9518 64.4864 37.5 64.671C38.0481 64.8557 38.5389 65.1775 38.9248 65.6052L39.4411 65.0316Z" fill="#F09F5B"/>
<path d="M38.4867 72.1158C39.3159 72.3173 40.1294 72.4878 40.9742 72.6274C41.193 72.6434 41.4126 72.6434 41.6314 72.6274C41.8223 72.5885 42.0192 72.5885 42.2102 72.6274C42.5954 72.7807 42.9585 72.984 43.2897 73.2319C42.9949 72.9233 42.6579 72.6572 42.2884 72.4413C42.0966 72.331 41.8833 72.2623 41.6626 72.2398C41.4609 72.2027 41.2622 72.1509 41.0681 72.0848C40.2859 71.8213 39.5036 71.5112 38.737 71.2012L38.4867 72.1158Z" fill="#F09F5B"/>
<path d="M39.222 77.0299C39.8948 77.2159 40.5519 77.3709 41.2402 77.4949C41.4172 77.511 41.5952 77.511 41.7722 77.4949H42.0068H42.2259C42.5261 77.6373 42.8051 77.8198 43.0551 78.0375C42.8501 77.7623 42.6018 77.5215 42.3197 77.3244C42.2543 77.3024 42.1854 77.2919 42.1163 77.2934C42.0228 77.2833 41.9283 77.2833 41.8348 77.2934L41.381 77.1539C40.7709 76.9059 40.1607 76.6113 39.5662 76.3013L39.222 77.0299Z" fill="#F09F5B"/>
<path d="M38.4711 71.3564C37.9548 71.6665 37.4072 71.9765 36.9066 72.2401L36.5155 72.3951C36.3309 72.4234 36.1606 72.5105 36.0304 72.6431C35.8027 72.8607 35.603 73.1055 35.4359 73.3717C35.6537 73.1548 35.8951 72.9624 36.1556 72.7981C36.2647 72.735 36.3892 72.7028 36.5155 72.7051C36.687 72.7241 36.8602 72.7241 37.0317 72.7051C37.6732 72.5501 38.2677 72.3641 38.8778 72.1626L38.4711 71.3564Z" fill="#F09F5B"/>
<path d="M38.7057 76.2549C38.1425 76.5494 37.5793 76.844 37.0317 77.154L36.2025 77.6346C35.9261 77.7922 35.6643 77.9737 35.4203 78.1771C35.7013 78.0332 35.9944 77.9138 36.2964 77.8206L37.1882 77.5416L39.0186 77.03L38.7057 76.2549Z" fill="#F09F5B"/>
<path d="M58.9347 63.7135C58.9347 63.7135 58.481 66.8139 53.8814 70.7515C57.0104 67.6511 46.9037 62.2873 51.3 62.6749C55.6962 63.0624 56.9791 57.2957 58.2151 54.9238C58.2151 54.9238 58.9973 60.1325 61.5787 61.7913C62.9398 62.6594 64.5043 61.7913 66.7416 63.5275C68.0284 64.4956 69.1713 65.6385 70.1365 66.9225C69.4012 66.8294 68.838 66.7519 68.572 66.7519C67.2579 66.8139 61.9386 67.341 58.9347 63.7135Z" fill="#F09F5B"/>
<path d="M53.5059 71.0928L52.8801 71.6043C53.07 71.4125 53.2797 71.2411 53.5059 71.0928Z" fill="#F09F5B"/>
<path d="M35.7332 49.5603C34.4449 50.6668 33.5415 52.1477 33.1517 53.7923C33.1469 53.125 33.3312 52.4698 33.6837 51.9011C33.6837 51.9011 25.3136 51.529 22.7321 44.4136C22.7009 44.4291 30.5547 50.7074 35.7332 49.5603Z" fill="#F09F5B"/>
<path d="M93.1191 84.2073C93.9952 89.3075 94.2612 92.1134 99.1424 93.3536C104.024 94.5937 106.636 104.066 103.179 106.561C102.733 106.899 102.222 107.143 101.678 107.279C101.133 107.414 100.566 107.437 100.012 107.347C99.4584 107.257 98.9289 107.055 98.4564 106.755C97.9839 106.455 97.5785 106.062 97.265 105.6C97.265 105.6 96.3107 109.212 101.176 109.755C109.171 110.669 110.97 101.229 109.578 92.594C108.185 83.9593 103.664 79.5257 98.9234 79.0451C94.9652 78.6576 92.5089 80.1148 89.067 82.4711C88.582 82.7966 88.8793 84.7034 90.3655 83.4012C91.007 82.8586 92.8688 82.7036 93.1191 84.2073Z" fill="#59350B"/>
<path d="M43.6808 96.9035C46.2428 102.306 48.5042 107.843 50.4551 113.491C50.8149 115.041 51.6911 128.311 51.1592 129.551C50.6272 130.791 49.5947 132.651 49.5947 132.651L53.6936 135.566C53.6936 135.566 56.6818 129.659 56.2751 127.179C55.2777 121.166 54.6508 115.099 54.3977 109.011C54.5854 106.887 57.6206 95.1673 57.4328 95.1983C57.2451 95.2293 43.6808 96.9035 43.6808 96.9035Z" fill="#59350B"/>
<path d="M65.0988 97.7719C70.8093 105.523 77.2237 111.724 77.7557 114.359C78.2876 116.995 72.5615 128.311 72.5615 128.311L77.959 125.521C78.7726 122.45 79.7757 119.432 80.9629 116.483C82.3866 113.305 84.3422 111.724 80.9629 109.243C77.5835 106.763 78.9916 99.9422 80.9629 95.2916C82.9341 90.641 65.0988 97.7719 65.0988 97.7719Z" fill="#59350B"/>
<path d="M53.7093 135.628C53.7093 135.628 51.3938 132.806 49.6103 132.713C47.8268 132.62 46.669 135.194 46.5908 135.628C46.5126 136.062 52.0978 136.201 53.7093 135.628Z" fill="#261705"/>
<path d="M77.959 125.521C77.959 125.521 73.6723 126.079 72.7649 127.644C71.8575 129.21 74.3294 131.706 74.7205 132.031C75.1116 132.357 77.8339 127.288 77.959 125.521Z" fill="#261705"/>
<path d="M35.5923 116.685C35.5923 116.685 32.5416 120.173 32.964 122.079C33.3864 123.986 37.1099 124.281 37.6575 124.219C38.2051 124.157 36.7814 118.188 35.5923 116.685Z" fill="#261705"/>
<path d="M93.2442 108.298C90.8662 106.887 94.9026 93.9428 92.2899 85.2307C89.6772 76.5185 75.9096 78.8903 70.3869 79.3554C69.2605 79.4484 68.2122 79.5724 67.2579 79.6189C64.0539 80.7433 60.582 80.8832 57.2965 80.0203C54.0109 79.1573 51.0648 77.3316 48.8437 74.7822C49.6259 80.5335 41.7565 80.332 37.3603 79.2623C36.2806 78.9608 35.3025 78.3772 34.5285 77.5726C32.3539 79.9754 32.0254 85.8042 33.3865 88.8271C34.951 92.3461 37.8453 98.5005 36.9535 98.64C34.0362 99.2429 31.1739 100.083 28.3957 101.151C26.0803 102.205 29.1154 107.352 29.4596 108.747C29.8038 110.143 32.8545 121.459 32.8545 121.459L36.7814 119.304C35.7593 117.166 35.2659 114.817 35.3421 112.452C35.17 109.274 31.7906 104.701 32.8545 104.515C33.9184 104.329 45.4957 103.554 50.2049 101.833C50.9871 101.539 51.0966 99.2291 51.9727 99.5081C53.4369 100.497 55.012 101.313 56.6662 101.942C62.2002 102.9 67.8553 102.952 73.4064 102.097C74.9079 101.697 76.5064 101.874 77.8816 102.593C79.2568 103.312 80.3071 104.519 80.8221 105.972C81.8859 108.437 92.3368 114.685 93.0565 115.615C93.7762 116.545 93.0565 126.265 92.7592 129.086C92.2325 130.592 91.4494 131.997 90.4438 133.241L93.8387 135.706C94.9228 133.81 95.7838 131.797 96.4045 129.706C96.7957 128.063 95.9039 120.405 97.0929 114.685C98.282 108.964 95.6223 109.662 93.2442 108.298Z" fill="#884E2D"/>
<path d="M94.402 135.628C94.402 135.628 92.0864 132.806 90.3029 132.713C88.5194 132.62 87.3617 135.194 87.2834 135.628C87.2052 136.062 92.8062 136.201 94.402 135.628Z" fill="#261705"/>
<path d="M57.1512 42.0107C56.7558 42.9104 56.5782 43.8891 56.6325 44.8689C56.6868 45.8486 56.9716 46.8022 57.4641 47.6535C59.5918 52.0871 60.6713 61.0628 55.1955 64.9539C55.669 64.0151 55.885 62.9695 55.8219 61.922C55.7587 60.8744 55.4186 59.8618 54.8357 58.9856C51.6129 54.986 48.8593 49.4673 51.5815 44.0415C51.5815 44.0415 51.7849 44.6926 52.1291 44.4136C53.4789 43.0704 55.2502 42.2229 57.1512 42.0107Z" fill="#261705"/>
<path d="M26.2696 1.48927L25.4203 2.2915L67.2618 45.7825L68.1111 44.9803L26.2696 1.48927Z" fill="#884E2D"/>
<path d="M66.4271 47.8394L5.48267 70.5137L5.89512 71.6021L66.8395 48.9279L66.4271 47.8394Z" fill="#884E2D"/>
<path d="M3.44412 30.5622L3.26297 31.2363L73.6385 49.8038L73.8196 49.1297L3.44412 30.5622Z" fill="#59350B"/>
<path d="M74.5954 50.0716C74.7815 50.1434 74.9881 50.1434 75.1742 50.0716L79.6643 47.9788C79.899 47.8703 79.8677 47.6378 79.5861 47.4673C79.4565 47.3751 79.3068 47.3145 79.1492 47.2902C78.9916 47.266 78.8304 47.2788 78.6787 47.3277L74.1886 49.3895C73.9695 49.4825 74.0008 49.7151 74.2668 49.9011C74.3652 49.9768 74.4765 50.0346 74.5954 50.0716Z" fill="#59350B"/>
<path d="M72.7492 49.5913C72.9409 49.6626 73.1521 49.6626 73.3437 49.5913L77.8339 47.514C78.0685 47.4055 78.0372 47.1729 77.8339 46.9869C77.6987 46.9003 77.5458 46.8443 77.3863 46.8228C77.2267 46.8014 77.0644 46.8151 76.9108 46.8629L72.4207 48.9402C72.186 49.0487 72.2173 49.2812 72.4989 49.4673C72.5769 49.5187 72.6609 49.5604 72.7492 49.5913Z" fill="#59350B"/>
<path d="M70.9188 49.1105C71.1077 49.1661 71.3088 49.1661 71.4977 49.1105L76.0034 47.0332C76.2225 46.9247 76.2068 46.6922 75.9252 46.5061C75.7928 46.4198 75.6426 46.3639 75.4856 46.3424C75.3286 46.3209 75.1688 46.3345 75.0178 46.3821L70.512 48.4594C70.293 48.5679 70.3087 48.8005 70.5903 48.971C70.6911 49.0355 70.8021 49.0827 70.9188 49.1105Z" fill="#59350B"/>
<path d="M69.0883 48.6146C69.2761 48.6772 69.4794 48.6772 69.6672 48.6146L74.1573 46.5218C74.392 46.4133 74.3607 46.1808 74.1573 46.0103C74.0243 45.919 73.872 45.859 73.7121 45.8348C73.5521 45.8106 73.3887 45.8229 73.2343 45.8708L68.7129 47.9635C68.4782 48.0566 68.5095 48.3046 68.7129 48.4751C68.8278 48.5451 68.9553 48.5925 69.0883 48.6146Z" fill="#59350B"/>
<path d="M77.4584 54.0402C77.5778 54.0562 77.6988 54.0562 77.8182 54.0402C78.1311 54.0402 78.2876 53.8387 78.1311 53.6217L75.2837 49.6996C75.1749 49.583 75.0411 49.4919 74.8923 49.4329C74.7435 49.374 74.5832 49.3486 74.4232 49.3586C74.0947 49.3586 73.9539 49.5756 74.0947 49.7771L76.9577 53.7922C77.0934 53.9259 77.269 54.0129 77.4584 54.0402Z" fill="#59350B"/>
<path d="M75.6123 53.6062H75.9721C76.3007 53.6062 76.4415 53.3892 76.3006 53.1876L73.4063 49.2191C73.3012 49.0978 73.1681 49.0034 73.0183 48.944C72.8685 48.8846 72.7064 48.862 72.5459 48.8781C72.2173 48.8781 72.0765 49.0796 72.2329 49.2966L75.0803 53.3117C75.2145 53.472 75.4042 53.577 75.6123 53.6062Z" fill="#59350B"/>
<path d="M73.7818 53.1255C73.8954 53.1485 74.0124 53.1485 74.126 53.1255C74.4545 53.1255 74.611 52.924 74.4546 52.7225L71.6072 48.6919C71.4958 48.5787 71.3616 48.4898 71.2134 48.431C71.0652 48.3723 70.9062 48.345 70.7467 48.3509C70.4181 48.3509 70.2773 48.5679 70.4181 48.7694L73.2812 52.8C73.4043 52.9634 73.5815 53.0787 73.7818 53.1255Z" fill="#59350B"/>
<path d="M71.9357 52.645C72.0546 52.6672 72.1766 52.6672 72.2955 52.645C72.6241 52.645 72.7649 52.4434 72.6241 52.2264L69.7611 48.2113C69.6536 48.0929 69.5201 48.0006 69.3709 47.9415C69.2217 47.8823 69.0608 47.858 68.9006 47.8703C68.5877 47.8703 68.4312 48.0873 68.5877 48.2889L71.435 52.3039C71.56 52.4686 71.7358 52.5883 71.9357 52.645Z" fill="#59350B"/>
<path d="M0 30.0277L7.00896 31.8569L9.79377 29.4541L0 30.0277Z" fill="#884E2D"/>
<path d="M0 30.0273L7.00896 31.8566L8.21363 35.3601L0 30.0273Z" fill="#884E2D"/>
<path d="M75.581 60.2413C74.5994 58.7501 73.9291 57.0792 73.6097 55.3272C73.0905 53.0977 72.3571 50.9227 71.4194 48.8318C70.3173 49.215 69.1259 49.2689 67.9932 48.9868C65.6464 48.5993 65.7403 46.646 67.6959 45.3593C68.4937 44.6702 69.5162 44.2905 70.5746 44.2905C71.633 44.2905 72.6555 44.6702 73.4533 45.3593C75.5341 46.9095 75.0178 48.1032 76.4415 50.475C78.0174 53.0607 79.8406 55.4902 81.886 57.73C82.9811 58.8151 83.6694 63.9308 82.1362 66.2252C79.9146 64.3029 77.6931 62.3496 75.581 60.2413Z" fill="#FDB171"/>
<path d="M2.3624 30.3377C4.92818 25.6871 7.0559 30.1672 8.27621 31.0663C9.18957 32.0714 10.3994 32.7657 11.7337 33.0506C14.0805 33.6862 20.2134 34.3373 22.5758 36.399C23.2812 37.0398 24.0229 37.6402 24.7973 38.1973C24.0894 40.3035 23.2748 42.3731 22.3567 44.3981C20.7922 44.0881 14.8628 42.7239 12.2501 39.67C9.24621 36.182 9.12104 36.2285 7.14977 35.1744C5.1785 34.1202 2.19032 32.198 4.28675 32.508C4.81471 32.5763 5.3374 32.6799 5.85125 32.818C5.30368 32.477 4.28674 31.7639 3.58271 31.3919C2.87868 31.0198 1.97128 31.0663 2.3624 30.3377Z" fill="#FDB171"/>
</g>
<defs>
<clipPath id="clip0_224_590">
<rect width="110" height="136" fill="white"/>
</clipPath>
</defs>
</svg>
