<svg width="80" height="133" viewBox="0 0 80 133" fill="none" xmlns="http://www.w3.org/2000/svg">
<g clip-path="url(#clip0_224_467)">
<path d="M28.3979 15.4623L26.4687 7.76369C26.4687 7.76369 58.8813 -6.86382 73.9891 16.5402C90.1529 41.5735 68.6011 91.3182 68.6011 91.3182L57.0794 89.6867C57.0794 89.6867 83.8048 14.8164 28.3979 15.4623Z" fill="#436060"/>
<path d="M0.0938445 68.0899C0.263863 69.1828 0.563737 70.2512 0.987001 71.2719C2.08558 74.0017 3.98801 76.5559 6.01101 77.1229C9.21967 78.0434 16.7557 73.9026 17.7136 70.6778C18.082 69.4491 16.8651 67.6713 16.8651 65.6257C16.8651 63.5801 24.3118 56.0683 27.2927 53.6987C28.9428 52.3867 33.4108 50.8047 37.4747 46.2724C37.4747 46.2724 38.8948 45.4555 40.1854 45.5658C41.3554 45.6671 42.4183 46.5357 42.2196 49.468C42.1414 50.5932 41.2304 52.6005 39.8125 55.1344C36.1863 61.6155 29.2174 71.578 24.3073 79.3598C20.7124 85.0601 18.2182 89.5878 18.9484 90.7265C20.0867 92.5378 21.6655 94.0259 23.5347 95.0495L23.6084 95.0878L23.7692 95.162V104.303C18.5599 109.371 14.3821 109.171 12.4239 111.889L12.31 112.053C12.0577 112.431 12.31 113.878 12.31 113.878L12.1559 113.921C9.53005 114.682 8.66815 116.028 8.66815 116.028V126.339C8.68332 126.379 8.70201 126.417 8.72397 126.454H7.27036C6.83669 126.442 6.40514 126.518 6.00117 126.678C5.59719 126.837 5.22897 127.076 4.91822 127.381C4.60747 127.686 4.3605 128.051 4.19186 128.454C4.02322 128.857 3.93634 129.29 3.93634 129.727C3.93634 130.164 4.02322 130.597 4.19186 131C4.3605 131.402 4.60747 131.767 4.91822 132.072C5.22897 132.377 5.59719 132.617 6.00117 132.776C6.40514 132.935 6.83669 133.011 7.27036 133H71.5642C71.9979 133.011 72.4294 132.935 72.8334 132.776C73.2374 132.617 73.6056 132.377 73.9164 132.072C74.2271 131.767 74.4741 131.402 74.6427 131C74.8114 130.597 74.8982 130.164 74.8982 129.727C74.8982 129.29 74.8114 128.857 74.6427 128.454C74.4741 128.051 74.2271 127.686 73.9164 127.381C73.6056 127.076 73.2374 126.837 72.8334 126.678C72.4294 126.518 71.9979 126.442 71.5642 126.454H70.3138C70.3369 126.417 70.3563 126.379 70.3719 126.339V116.028C70.1457 115.724 69.8755 115.456 69.5703 115.233C68.7666 114.622 67.8528 114.174 66.8796 113.914L66.7255 113.872C66.7255 113.872 66.9779 112.425 66.7255 112.047L66.6117 111.882C64.6512 109.164 60.4824 109.364 55.2663 104.314V95.18C55.2663 95.18 55.34 95.1463 55.4896 95.0675C57.5327 93.9243 73.5917 83.4083 68.6079 37.5949C67.1051 23.8136 58.6804 14.5015 44.8432 13.3493C44.6199 13.329 44.3966 13.311 44.1577 13.2998C44.3698 13.1197 44.5753 12.9375 44.7718 12.7529C45.3528 12.2417 45.8668 11.6579 46.3013 11.0156C47.7862 8.63923 46.078 0 46.078 0C46.078 0 44.2917 2.22788 42.4295 4.64479C40.7995 6.75791 39.1091 9.01729 38.4884 10.0637C37.9391 10.9796 38.0418 12.2286 38.3366 13.383C36.643 13.5421 34.9603 13.8013 33.2969 14.1594C31.6444 14.5017 30.0118 14.9359 28.4069 15.4601C28.4069 15.4601 23.7826 18.4734 22.3982 20.411C20.9915 22.3823 17.6176 27.9295 17.6176 29.7613C17.6176 31.5932 4.57302 57.1733 4.57302 57.1733C4.57302 57.1733 0.495765 63.5576 0.0938445 65.8575C-0.0215133 66.5971 -0.0215133 67.3503 0.0938445 68.0899Z" fill="#9CB5BC"/>
<path d="M0.0937834 68.0897C14.1208 38.5062 45.0173 30.0942 45.0173 16.6077C45.019 15.5188 44.9571 14.4307 44.832 13.3491C44.8119 13.1488 44.7873 12.9485 44.7605 12.7528C44.389 9.94937 43.6009 7.21832 42.4227 4.65137C40.7927 6.76448 39.1024 9.02387 38.4816 10.0703C37.9323 10.9862 38.0351 12.2352 38.3298 13.3896C36.6387 13.5467 34.9581 13.8037 33.2969 14.1592C31.6443 14.5015 30.0118 14.9358 28.4068 15.46C28.4068 15.46 23.7825 18.4732 22.3981 20.4108C20.9914 22.3822 17.6175 27.9293 17.6175 29.7612C17.6175 31.593 4.57296 57.1731 4.57296 57.1731C4.57296 57.1731 0.495704 63.5574 0.0937834 65.8573C-0.0215744 66.5969 -0.0215744 67.3501 0.0937834 68.0897Z" fill="#BDD5DB"/>
<path d="M25.3656 27.3848C25.2607 29.7319 23.5012 34.856 22.7263 35.4614L22.0565 36.4786C21.9761 33.9109 19.8549 27.567 25.3656 27.3848Z" fill="#436060"/>
<path d="M66.8795 113.914L66.7255 113.872C66.7255 113.872 66.9778 112.425 66.7255 112.047L66.6116 111.882H12.4238L12.3099 112.047C12.0576 112.425 12.3099 113.872 12.3099 113.872L12.1559 113.914H66.8795Z" fill="#436060"/>
<path d="M70.3763 124.307H8.66585V126.339H70.3763V124.307Z" fill="#436060"/>
<path d="M23.5369 95.0674C23.6887 95.1461 23.7714 95.1799 23.7714 95.1799V98.0042H55.2551V95.1799C55.2551 95.1799 55.3288 95.1461 55.4784 95.0674H23.5369Z" fill="#436060"/>
<path d="M6.70984 129.613C6.70984 129.972 6.85099 130.315 7.10224 130.568C7.35349 130.821 7.69425 130.964 8.04957 130.964H50.7313C51.0866 130.964 51.4274 130.821 51.6786 130.568C51.9299 130.315 52.071 129.972 52.071 129.613C52.071 129.255 51.9299 128.912 51.6786 128.659C51.4274 128.405 51.0866 128.263 50.7313 128.263H8.0652C7.70988 128.263 7.36912 128.405 7.11787 128.659C6.86662 128.912 6.72547 129.255 6.72547 129.613H6.70984Z" fill="#BDD5DB"/>
<path d="M11.3007 117.252C11.3012 117.656 11.461 118.044 11.7449 118.329C12.0287 118.615 12.4134 118.776 12.8146 118.776H42.0498C42.4507 118.776 42.8352 118.615 43.1187 118.329C43.4022 118.044 43.5614 117.656 43.5614 117.252C43.5614 116.848 43.4022 116.46 43.1187 116.175C42.8352 115.889 42.4507 115.729 42.0498 115.729H12.8146C12.4134 115.729 12.0287 115.889 11.7449 116.175C11.461 116.46 11.3012 116.848 11.3007 117.252Z" fill="#BDD5DB"/>
<path d="M18.9505 90.7355C20.0889 92.5468 21.6676 94.0349 23.5369 95.0585L23.6106 95.0968C32.3724 95.2813 42.4517 89.1603 47.1854 83.2215C52.4573 76.6144 53.8037 66.5169 52.9642 58.4065C52.5801 54.7451 51.8812 51.2413 50.0301 47.9827C48.9137 46.0181 46.2499 42.5818 44.5707 40.2031L40.1809 45.5838C41.3509 45.6851 42.4138 46.5537 42.215 49.486C42.1369 50.6112 41.2258 52.6185 39.808 55.1524C36.1817 61.6335 29.2129 71.596 24.3028 79.3778C20.7078 85.0781 18.2137 89.6103 18.9505 90.7355Z" fill="#BDD5DB"/>
<path d="M0.982479 71.2721C2.08106 74.0018 3.98348 76.556 6.00648 77.1231C9.21515 78.0435 16.7512 73.9028 17.7091 70.678C18.0775 69.4493 16.8606 67.6715 16.8606 65.6259C16.8606 63.5803 24.3073 56.0685 27.2882 53.6989C28.9383 52.3869 33.4063 50.8049 37.4701 46.2726C37.4701 46.2726 42.6415 43.3043 42.215 49.4681C42.1369 50.5933 41.2259 52.6007 39.808 55.1346L39.866 55.0873C40.9646 52.8212 44.8164 48.0256 45.2361 43.9097C45.8055 38.2837 40.8128 38.7698 37.1665 41.4545C30.9747 46.0205 23.816 52.4184 16.0054 47.2627C13.442 50.1882 7.77716 62.1625 7.60523 65.2478C7.48465 67.4577 7.08497 69.7486 4.64888 70.2932C4.5484 68.7584 4.61539 67.1562 4.51268 65.6191C2.82015 66.5418 1.64118 68.7944 0.982479 71.2721Z" fill="#436060"/>
</g>
<defs>
<clipPath id="clip0_224_467">
<rect width="80" height="133" fill="white"/>
</clipPath>
</defs>
</svg>
