<svg width="103" height="126" viewBox="0 0 103 126" fill="none" xmlns="http://www.w3.org/2000/svg">
<g style="mix-blend-mode:multiply">
<path d="M49.2382 47.2131C50.6957 51.2701 56.5767 53.3186 59.5891 49.2722L49.2382 47.2131Z" fill="#F7BC94"/>
</g>
<path d="M80.9141 28.4C80.3453 28.0934 79.6015 28.2382 78.8499 28.7143C81.9289 3.19393 46.7507 -3.8706 39.7292 20.8447C39.2015 19.9697 38.5196 19.4526 37.8129 19.5178C34.6359 19.7507 35.4702 29.1579 38.6872 28.7336C42.6669 52.5414 63.0675 56.8424 76.6247 36.5938C79.4172 37.8993 83.694 29.8605 80.9141 28.4Z" fill="#F7BC94"/>
<path d="M36.6088 22.2381C36.6088 22.2381 36.7484 20.5761 37.5379 20.4821C38.5377 20.3634 39.3506 21.3394 38.2887 23.5511C37.4158 25.3682 37.319 26.284 38.7558 27.6414C38.7558 27.6414 36.2422 26.4674 37.7874 23.6009C39.0402 21.2784 37.9564 20.9729 37.6798 20.9529C37.2066 20.9131 36.6088 22.2381 36.6088 22.2381Z" fill="#EFA878"/>
<path d="M80.8874 31.363C80.8874 31.363 81.4136 29.7806 80.7244 29.3819C79.8532 28.8777 78.7219 29.453 78.8268 31.9051C78.9132 33.92 78.6416 34.7997 76.7868 35.4788C76.7868 35.4788 79.5587 35.394 79.267 32.1489C79.0311 29.5197 80.1466 29.6674 80.4093 29.7586C80.8599 29.9091 80.8874 31.363 80.8874 31.363Z" fill="#EFA878"/>
<path d="M48.0233 24.7153C47.6301 26.8118 50.7419 27.4524 51.2053 25.3711C51.5993 23.2747 48.4876 22.6335 48.0233 24.7153Z" fill="#EFA878"/>
<path d="M48.2091 24.3625C47.797 26.5616 51.0609 27.2335 51.5489 25.0508C51.9602 22.8515 48.6956 22.1795 48.2091 24.3625Z" fill="#6D6A67"/>
<path d="M48.8741 24.4997C48.6056 25.8371 50.64 26.2564 50.92 24.9213C51.1884 23.5846 49.1539 23.1653 48.8741 24.4997Z" fill="black"/>
<path d="M48.8815 23.8428C48.7473 24.4499 49.7058 24.6474 49.8215 24.0365C49.9557 23.4294 48.9974 23.2311 48.8815 23.8428Z" fill="white"/>
<path d="M65.8806 28.3955C65.4874 30.492 68.5992 31.1325 69.0626 29.0512C69.4558 26.9547 66.3442 26.3135 65.8806 28.3955Z" fill="#EFA878"/>
<path d="M66.0663 28.0427C65.6536 30.2416 68.9182 30.9137 69.4061 28.7309C69.8175 26.5317 66.5529 25.8596 66.0663 28.0427Z" fill="#6D6A67"/>
<path d="M66.7307 28.1794C66.4629 29.517 68.4966 29.9361 68.7772 28.6011C69.0449 27.2643 67.0112 26.8452 66.7307 28.1794Z" fill="black"/>
<path d="M66.7381 27.523C66.6039 28.1301 67.5624 28.3276 67.6788 27.7168C67.8125 27.1088 66.8539 26.912 66.7381 27.523Z" fill="white"/>
<path d="M78.8497 23.6983C78.0495 23.9883 42.0338 16.4864 41.7616 16.0553C40.9275 17.5798 40.2466 19.1832 39.729 20.8421C40.7645 27.2767 49.1859 29.899 57.9745 31.3137C68.1453 33.8061 80.6832 35.9055 78.8497 23.6983ZM49.3066 27.236C41.6216 25.5902 42.6403 20.6299 50.349 22.1564C58.0338 23.8029 57.016 28.7626 49.3066 27.236ZM67.2136 30.9262C59.5286 29.2804 60.5473 24.3202 68.256 25.8466C75.9415 27.4933 74.923 32.4528 67.2143 30.9264L67.2136 30.9262Z" fill="#231F20"/>
<g style="mix-blend-mode:screen">
<g style="mix-blend-mode:screen">
<path d="M78.9485 25.1839C78.9296 24.6844 78.8967 24.189 78.8499 23.6976C78.0497 23.9876 42.034 16.4857 41.7618 16.0546C41.525 16.4865 41.2995 16.9287 41.0852 17.3811C41.1548 17.4029 44.3613 18.0799 59.4963 21.1989C74.6313 24.3179 78.8547 25.172 78.9485 25.1839Z" fill="#231F20"/>
</g>
</g>
<path d="M61.9708 33.1013C63.005 27.5857 54.8187 25.8995 53.5979 31.3758C52.5639 36.8906 60.7501 38.5768 61.9708 33.1013Z" fill="#FF8B77"/>
<g style="mix-blend-mode:multiply">
<path d="M61.9709 33.101C60.8236 38.565 52.5 36.8446 53.5979 31.3755C53.1825 35.7456 60.4151 37.185 61.9709 33.101Z" fill="#FF8B77"/>
</g>
<g style="mix-blend-mode:screen">
<path d="M59.8586 30.0873C59.607 31.3388 56.4633 30.6909 56.7256 29.4417C56.9765 28.1901 60.1195 28.8378 59.8586 30.0873Z" fill="#FF8B77"/>
</g>
<path d="M44.7699 11.7867L77.7053 18.5739C74.8394 3.43952 53.4327 -0.679747 44.7699 11.7867Z" fill="#231F20"/>
<g style="mix-blend-mode:screen">
<path d="M75.425 13.0838C71.0497 4.34774 56.7152 1.39593 49.1557 7.67028C55.434 2.68739 71.745 5.91486 75.425 13.0838Z" fill="#231F20"/>
</g>
<path d="M47.1517 53.4572L47.7262 53.3876C47.3709 53.4254 47.1517 53.4572 47.1517 53.4572Z" fill="white"/>
<path d="M58.9522 55.8891L58.4524 55.5981C58.7654 55.7736 58.9522 55.8891 58.9522 55.8891Z" fill="white"/>
<g clip-path="url(#clip0_224_539)">
<path d="M1.79731 58.7902C-0.775904 63.9888 -0.074873 70.6263 3.50516 75.1761C0.913225 80.0212 -0.713498 85.6232 0.312044 91.0214C1.33759 96.4196 5.51256 101.435 10.9502 102.219C10.3948 111.577 16.5439 120.953 25.3536 124.174C34.1633 127.395 44.9075 124.201 50.5241 116.688C58.5745 120.512 68.5366 123.733 76.5704 119.88C84.6041 116.026 89.6757 104.157 86.4326 95.8602C90.5286 92.5747 96.5965 89.6676 99.4381 85.2551C103.584 78.8089 103.599 70.7365 100.405 64.6084C97.3537 58.7361 89.6715 53.365 83.1043 54.1967C82.8254 51.2046 81.8251 48.3247 80.1889 45.8036C78.5528 43.2826 76.3297 41.1956 73.71 39.7215C71.0903 38.2474 68.1522 37.4301 65.1474 37.3396C62.1425 37.2491 59.1605 37.8881 56.4568 39.202C53.1285 35.0826 47.928 32.6497 42.6484 32.2629C37.3689 31.8761 32.0394 33.4378 27.517 36.2138C24.678 37.9665 22.1478 40.1754 20.0282 42.7516C18.439 44.6709 17.2491 48.4658 15.3187 49.8424C13.3882 51.219 10.062 51.0901 7.82991 52.4084C5.2456 53.9098 3.15062 56.126 1.79731 58.7902Z" fill="#7EBB15"/>
<path d="M100.399 64.6084C99.0782 62.0652 96.8898 59.6177 94.3 57.7275C94.4331 57.9542 94.56 58.1829 94.6786 58.4138C97.8633 64.5418 97.8571 72.6183 93.7113 79.0604C90.8718 83.475 84.8017 86.3821 80.7058 89.6655C83.9509 97.9624 78.8794 109.836 70.8456 113.685C62.8119 117.534 52.8477 114.309 44.7994 110.493C39.1828 118.004 28.4344 121.198 19.6288 117.979C17.7628 117.29 16.0052 116.337 14.4096 115.149C16.9828 119.229 20.8166 122.514 25.3515 124.174C34.1633 127.395 44.9054 124.201 50.522 116.688C58.5724 120.512 68.5345 123.733 76.5683 119.88C84.602 116.026 89.6736 104.157 86.4305 95.8601C90.5265 92.5746 96.5944 89.6676 99.436 85.255C103.586 78.813 103.592 70.7365 100.399 64.6084Z" fill="#78A015"/>
<path d="M9.62096 85.2511C8.87416 83.6237 8.52701 81.8415 8.60843 80.053C8.68984 78.2644 9.19745 76.5211 10.089 74.9683C10.3449 74.5337 10.6382 74.0845 10.634 73.5813C10.634 73.1654 10.426 72.7745 10.2346 72.396C8.6599 69.0918 9.58976 64.7791 12.3876 62.4148C14.3867 60.7242 17.0473 60.0712 19.6226 59.593C22.0419 59.1438 24.6151 58.8194 26.9033 59.7281C23.6332 60.1149 20.4547 62.0301 19.0464 65.0078C17.6381 67.9855 18.3412 71.9593 20.9976 73.9098C17.9771 75.3842 15.2687 77.7921 14.1475 80.9591C13.1074 83.8703 15.4955 87.5114 14.0435 89.8445C12.0902 89.1729 10.4946 87.1121 9.62096 85.2511Z" fill="#94D31A"/>
<path d="M36.4015 43.3418C39.9275 41.8176 44.7744 43.1338 46.1369 46.7167C48.9514 44.708 52.5523 44.0966 56.0096 44.1819C59.0155 44.2547 62.2148 44.9159 64.3117 47.0681C67.432 50.2746 67.0035 55.5023 65.6056 59.7526C65.0356 55.2736 60.5902 51.9922 56.0907 51.6262C51.5912 51.2603 47.1916 53.2523 43.5367 55.9036C43.7655 52.6805 41.4793 49.4574 38.3632 48.6048C35.2033 47.7398 32.3763 51.1001 30.2254 50.4181C31.018 47.4424 33.5621 44.577 36.4015 43.3418Z" fill="#94D31A"/>
<path d="M34.3005 75.3404C35.9647 71.9239 39.8963 69.755 43.6802 70.1564C44.8493 67.4344 47.5161 65.5317 50.3909 64.8081C53.2658 64.0844 56.3237 64.4296 59.1694 65.2593C60.4175 65.6232 61.6657 66.0911 62.6413 66.9582C63.5191 67.7401 64.1078 68.786 64.6341 69.8382C65.7158 72.0008 66.6103 74.3589 66.4605 76.7752C66.3108 79.1915 64.8921 81.6598 62.5893 82.4042C62.2772 79.4161 59.9204 76.7544 56.9914 76.0807C54.0625 75.4069 50.7779 76.7773 49.1927 79.3287C46.8837 76.7939 42.846 75.8977 39.8027 77.4843C37.7932 78.5344 36.2559 84.4067 35.6651 84.5398C32.4908 85.2572 33.664 76.6442 34.3005 75.3404Z" fill="#94D31A"/>
</g>
<defs>
<clipPath id="clip0_224_539">
<rect width="102.685" height="93.2167" fill="white" transform="translate(0 32.2046)"/>
</clipPath>
</defs>
</svg>
