<svg width="96" height="144" viewBox="0 0 96 144" fill="none" xmlns="http://www.w3.org/2000/svg">
<g clip-path="url(#clip0_224_389)">
<path d="M72.0233 39.991C70.1938 35.3774 53.6615 37.9405 49.2175 38.7194C46.5563 37.7075 42.0125 37.4412 34.4881 37.9471C34.3779 37.8868 34.2545 37.8547 34.1289 37.8539C34.1289 37.8539 26.1455 36.5224 24.815 38.5197C23.4844 40.5169 20.158 45.8428 21.4886 46.5086C22.8191 47.1743 25.4802 41.8484 26.8108 42.5141C28.1414 43.1799 27.4761 44.5113 26.8108 45.8428C26.1455 47.1743 28.8066 47.84 30.1372 45.8428C31.4678 43.8456 35.9318 45.1771 35.9318 45.1771V45.1438C38.7393 45.7496 43.7688 46.695 47.5676 46.5951C73.1543 52.4536 74.1123 45.2503 72.0233 39.991Z" fill="#C7BFD8"/>
<path opacity="0.17" d="M72.0233 39.9913C70.8191 36.9555 63.2682 37.0287 56.968 37.6479C51.1549 40.9364 45.0171 43.6137 38.6528 45.6368C41.588 46.2281 44.5735 46.5335 47.5676 46.5489C73.1543 52.454 74.1123 45.2507 72.0233 39.9913Z" fill="#1E0336"/>
<path d="M79.847 40.557L82.1555 36.6824C81.7696 34.5587 68.983 30.3379 68.983 30.3379L65.5634 37.6611C63.8204 37.3415 60.3875 36.8688 59.4096 37.8475C58.079 39.1789 48.0998 53.1595 47.4345 60.4827L39.4511 71.8003L52.6171 82.7251C52.6171 82.7251 63.1085 77.3992 74.0457 79.1301L71.3846 65.8153C71.3846 65.8153 83.3597 53.1662 84.6902 47.8402C85.6017 44.1787 82.1156 41.4624 79.847 40.557Z" fill="#C7BFD8"/>
<path d="M64.3991 122.07C64.3991 122.07 79.7006 121.405 82.3617 125.399C85.0228 129.394 82.3617 131.391 87.684 132.057L84.3576 132.722L86.3534 135.385C86.3534 135.385 81.0312 135.385 80.3659 132.722C79.7006 130.059 78.37 126.731 77.0395 126.731C75.7089 126.731 71.7172 124.733 65.7297 126.065C65.7297 126.065 62.4033 124.068 64.3991 122.07Z" fill="#C7BFD8"/>
<path d="M17.0179 99.3222C17.0179 99.3222 24.5688 112.637 29.3655 112.797C34.1622 112.957 34.4416 109.615 37.8279 113.775L36.6304 110.6L39.9568 110.879C39.9568 110.879 37.1293 106.366 34.5214 107.218C31.9135 108.07 28.3875 108.702 27.6823 107.571C26.9771 106.439 23.1651 104.115 21.116 98.3302C21.1027 98.3302 17.6499 96.5727 17.0179 99.3222Z" fill="#C7BFD8"/>
<path d="M57.5401 76.5736C57.5401 76.5736 21.1825 109.594 18.9538 110.3C16.7252 111.006 4.71684 106.119 0.0066522 97.1716C0.0066522 97.1716 -0.745114 93.4768 13.3123 99.089L40.4823 70.3223C40.4823 70.3223 55.4777 64.051 57.5401 76.5736Z" fill="#C7BFD8"/>
<path opacity="0.17" d="M50.8474 78.7642C50.3484 79.1103 49.8428 79.4299 49.3572 79.8027C42.7509 84.4296 36.9364 90.0884 30.5896 95.0615C24.9214 99.502 18.6877 105.014 10.9705 104.076C7.8455 103.674 4.87154 102.493 2.32184 100.64C7.82371 107.358 16.9979 110.906 18.9539 110.3C20.6237 109.774 41.1476 91.3866 51.5526 81.9863C51.2865 80.9278 51.0936 79.856 50.8474 78.7642Z" fill="#1E0336"/>
<path d="M71.3846 65.8154C70.0873 66.9272 69.3888 70.9616 69.1825 75.8548C60.3276 73.0387 52.7567 80.4618 52.7567 80.4618L59.822 131.058C46.1971 137.975 49.4636 140.319 49.4636 140.319C59.2965 143.647 70.9987 137.849 71.9767 135.459C72.642 133.881 73.3073 109.628 73.7131 93.2773C76.3077 77.5325 71.3846 65.8154 71.3846 65.8154Z" fill="#C7BFD8"/>
<path d="M95.3347 15.5519C95.3347 7.27678 88.336 0.572754 79.7006 0.572754C71.2516 0.572754 64.3992 6.99717 64.0798 15.026C63.83 15.2893 63.6071 15.577 63.4146 15.8848C63.4146 15.8848 53.595 31.0305 70.4798 37.102C70.4798 37.102 89.0012 45.0909 94.1705 22.8219C94.1705 22.8219 93.9642 22.682 93.5917 22.449C94.7392 20.3318 95.3384 17.9606 95.3347 15.5519Z" fill="#1E0336"/>
<path opacity="0.17" d="M82.1888 52.687C79.0487 55.8227 74.9239 57.7933 71.7173 60.8623C67.1002 65.2829 70.2004 71.0948 70.9056 76.6537C71.99 85.2418 71.7705 93.8698 71.5709 102.505C71.3846 110.873 71.9634 119.468 69.9011 127.67C68.4907 133.268 64.9115 137.116 59.363 138.728C56.489 139.56 52.4308 140.725 49.2042 139.966C49.2581 140.095 49.3426 140.209 49.4503 140.299C59.2832 143.627 70.9854 137.829 71.9634 135.439C72.6287 133.861 73.294 109.608 73.6998 93.2573C76.2944 77.5392 71.3713 65.8154 71.3713 65.8154C71.3713 65.8154 78.2836 58.5256 82.1888 52.687Z" fill="#1E0336"/>
<path opacity="0.17" d="M68.983 30.3379L65.6566 37.5146C65.763 37.7099 65.8628 37.9096 65.9559 38.1137C67.8686 38.3063 69.7968 38.2818 71.704 38.0405C71.8722 38.0274 72.0413 38.0274 72.2096 38.0405C72.8017 36.0899 73.4337 34.1459 74.2054 32.2353C71.3979 31.1368 68.983 30.3379 68.983 30.3379Z" fill="#1E0336"/>
<path d="M66.4059 23.0783C67.2841 25.3019 70.0716 26.2806 72.633 25.2753C75.1943 24.27 75.6933 19.4168 75.6933 19.4168C75.6933 19.4168 72.0276 16.2079 69.4662 17.2198C66.9049 18.2317 65.5344 20.8548 66.4059 23.0783Z" fill="#DFB53D"/>
<path opacity="0.18" d="M80.3593 20.4181L77.5252 20.0786C76.1007 20.0341 74.6902 20.372 73.4403 21.0572C73.0798 21.1835 72.7286 21.3347 72.3892 21.5099C72.6279 20.751 73.0367 20.0566 73.5844 19.4797C74.132 18.9028 74.8041 18.4587 75.5493 18.1812C78.1106 17.1693 81.7763 20.3782 81.7763 20.3782C81.7763 20.3782 81.7763 20.5646 81.7098 20.8708C81.2705 20.6892 80.8193 20.5379 80.3593 20.4181Z" fill="#1E0336"/>
<path d="M66.7918 20.1824C66.2396 21.7403 66.3527 23.1983 67.0446 23.4512C67.7365 23.7042 68.7477 22.6324 69.2999 21.0745C69.8521 19.5167 69.7456 18.0521 69.0538 17.8057C68.3619 17.5594 67.3506 18.6512 66.7918 20.1824Z" fill="#1E0336"/>
<path d="M65.7098 16.5501C65.2175 18.128 64.2462 19.2131 63.5476 19.0134C62.8491 18.8137 62.6761 17.3357 63.1684 15.7579C63.6607 14.1801 64.6387 13.0949 65.3372 13.2947C66.0358 13.4944 66.2087 14.9524 65.7098 16.5501Z" fill="#1E0336"/>
<path d="M91.9751 27.2621C92.5206 27.2288 93.0728 27.2022 93.6183 27.1556C94.079 25.8701 94.4633 24.5585 94.7692 23.2277C94.7692 23.2277 94.5563 23.0812 94.1638 22.8416C95.3719 20.6261 96.0033 18.1421 96 15.6183C96 6.96361 88.6819 -0.0200304 79.674 -0.0200304C76.4639 -0.0549514 73.3148 0.857961 70.6205 2.60453C67.9261 4.3511 65.8061 6.8538 64.5256 9.79966C71.052 18.5808 81.304 24.1065 91.9751 27.2621Z" fill="#C7BFD8"/>
<path d="M78.4433 25.9106C73.7863 26.4498 69.1825 26.1303 64.4724 26.1902C63.195 26.1902 61.8778 26.2368 60.5672 26.1902C60.8665 30.2246 63.1884 34.5053 70.4399 37.115C70.4399 37.115 88.9613 45.1039 94.1306 22.8348L93.7248 22.5752C88.748 24.1688 83.6312 25.2856 78.4433 25.9106Z" fill="#C7BFD8"/>
<g opacity="0.17">
<path opacity="0.17" d="M96 15.6182C95.9657 12.5238 95.015 9.50903 93.2683 6.95529C91.5216 4.40155 89.0573 2.42355 86.1871 1.27148C86.6132 1.52948 87.0242 1.81178 87.4179 2.11698C94.6295 7.75581 95.2882 19.1799 90.5247 26.7894L91.9751 27.2421C92.5206 27.2088 93.0728 27.1822 93.6183 27.1356C94.079 25.8501 94.4633 24.5385 94.7692 23.2077C94.7692 23.2077 94.5563 23.0612 94.1638 22.8216C95.3686 20.612 96 18.1353 96 15.6182Z" fill="#1E0336"/>
</g>
<path opacity="0.17" d="M93.7513 22.562L92.3609 22.9814C91.0848 26.8294 88.4934 30.1038 85.0428 32.2286C78.9821 35.8036 69.2757 36.0832 62.889 32.1554C64.4125 34.066 66.8075 35.797 70.4466 37.1018C70.4466 37.1018 88.968 45.0907 94.1372 22.8217L93.7513 22.562Z" fill="#1E0336"/>
<path d="M85.6948 30.8306C85.6948 30.8306 89.6865 42.8472 89.0212 52.1676C89.0212 52.1676 90.3518 51.5019 91.017 48.8389L91.6823 52.1676C91.6823 52.1676 92.3476 48.1732 92.3476 47.5074C92.3476 46.8417 93.0129 50.1704 93.0129 50.1704C93.0129 50.1704 91.9085 33.6933 88.1364 29.6123L85.6948 30.8306Z" fill="#C7BFD8"/>
<g opacity="0.56">
<path opacity="0.56" d="M92.8 27.0157C90.6977 27.3086 84.7767 24.7921 84.7168 24.7655C84.6967 24.7567 84.6751 24.7519 84.6532 24.7515C84.6313 24.7511 84.6095 24.755 84.5891 24.763C84.5687 24.7711 84.55 24.7831 84.5343 24.7984C84.5185 24.8136 84.506 24.8319 84.4973 24.852C84.4828 24.8929 84.4835 24.9377 84.4994 24.9781C84.5153 25.0185 84.5453 25.0517 84.5838 25.0717C84.7035 25.1183 86.0673 25.7375 87.7039 26.2701C78.7759 32.1219 61.3788 29.1327 61.2058 29.1061C61.1843 29.1013 61.1621 29.101 61.1405 29.1052C61.1189 29.1094 61.0984 29.118 61.0803 29.1305C61.0622 29.143 61.0468 29.1591 61.0352 29.1778C61.0236 29.1966 61.016 29.2175 61.0129 29.2393C61.0051 29.2825 61.0147 29.3271 61.0397 29.3632C61.0646 29.3994 61.1028 29.4242 61.1459 29.4323C64.5313 29.9582 67.9521 30.2231 71.378 30.2246C76.9397 30.2246 83.5726 29.4656 88.0499 26.4498C88.0499 26.4498 88.0499 26.4099 88.0831 26.3965C88.7484 26.6229 89.4935 26.8493 90.1854 27.0223C90.147 27.0279 90.1117 27.0467 90.0856 27.0756C82.7676 35.8567 63.3148 32.2751 63.1218 32.2351C63.0778 32.2272 63.0324 32.2366 62.9952 32.2614C62.958 32.2863 62.9318 32.3245 62.9222 32.3683C62.9145 32.4115 62.9241 32.4561 62.949 32.4922C62.9739 32.5284 63.0121 32.5532 63.0553 32.5613C66.0891 33.0702 69.1601 33.324 72.2362 33.3203C74.7109 33.3347 77.1821 33.1297 79.6208 32.7078C79.6076 32.7466 79.6076 32.7888 79.6208 32.8276C79.6208 32.8609 81.3904 36.1563 80.4857 38.0737C80.4674 38.1134 80.4656 38.1588 80.4805 38.1999C80.4955 38.241 80.526 38.2746 80.5655 38.2934C80.5895 38.2996 80.6147 38.2996 80.6387 38.2934C80.6701 38.2926 80.7008 38.2836 80.7276 38.2672C80.7545 38.2509 80.7766 38.2277 80.7917 38.2002C81.763 36.1031 79.9933 32.7943 79.9135 32.6545C81.8519 32.3086 83.7386 31.718 85.5285 30.897L86.4066 35.9167C86.4144 35.9548 86.4353 35.989 86.4657 36.0134C86.4961 36.0377 86.5341 36.0506 86.573 36.0498C86.5948 36.0467 86.6156 36.0391 86.6343 36.0275C86.653 36.0158 86.6692 36.0005 86.6817 35.9824C86.6941 35.9642 86.7028 35.9437 86.7069 35.9221C86.7111 35.9005 86.7108 35.8782 86.706 35.8567L85.8811 30.837C85.8762 30.8055 85.8595 30.777 85.8345 30.7572C87.5758 29.9302 89.1239 28.7462 90.3784 27.282C90.3933 27.2671 90.4051 27.2495 90.4131 27.2301C90.4212 27.2107 90.4253 27.1898 90.4253 27.1688C90.4253 27.1478 90.4212 27.127 90.4131 27.1075C90.4051 27.0881 90.3933 27.0705 90.3784 27.0556C91.0634 27.2362 91.7661 27.3412 92.474 27.3685C92.6157 27.3793 92.7581 27.3793 92.8998 27.3685C92.9236 27.3685 92.9472 27.3634 92.9688 27.3535C92.9905 27.3436 93.0098 27.3292 93.0254 27.3111C93.041 27.2931 93.0526 27.272 93.0593 27.2491C93.0661 27.2262 93.0678 27.2022 93.0644 27.1786C93.0611 27.1549 93.0527 27.1323 93.0398 27.1123C93.0269 27.0922 93.0099 27.0751 92.9899 27.0622C92.9699 27.0493 92.9473 27.0408 92.9237 27.0374C92.9001 27.034 92.8761 27.0356 92.8532 27.0423L92.8 27.0157Z" fill="#1E0336"/>
<path opacity="0.56" d="M95.7206 17.1027C90.1389 19.3596 79.042 14.0004 78.3301 13.6475C78.3701 13.1682 78.4033 12.6889 78.4233 12.2229C80.8805 12.9012 83.3843 13.3974 85.9143 13.7075C85.9423 13.7431 85.9827 13.7669 86.0274 13.774C86.0642 13.7721 86.0993 13.7581 86.1272 13.7341C87.2756 13.8685 88.4305 13.9396 89.5867 13.9471C91.8553 13.9471 94.0042 13.6209 95.5077 12.7022C95.5456 12.6792 95.5729 12.6421 95.5835 12.5991C95.5941 12.556 95.5872 12.5105 95.5642 12.4725C95.5413 12.4345 95.5042 12.4073 95.4612 12.3966C95.4182 12.386 95.3727 12.393 95.3347 12.4159C93.8014 13.2143 92.0932 13.617 90.3651 13.5876C90.3651 13.5077 89.9127 8.55462 93.3788 7.50275C93.4216 7.48894 93.4574 7.45897 93.4785 7.4192C93.4997 7.37942 93.5045 7.33297 93.4919 7.28972C93.4782 7.24857 93.4489 7.2144 93.4104 7.1945C93.3719 7.17461 93.3271 7.17055 93.2857 7.1832C89.6333 8.28833 90.0125 13.3147 90.0324 13.5943C88.7588 13.6103 87.4854 13.5435 86.2204 13.3946C86.3601 12.2295 87.2316 6.79041 91.4828 5.05948C91.5242 5.0427 91.5573 5.01014 91.5748 4.96894C91.5923 4.92773 91.5926 4.88127 91.5759 4.83978C91.5591 4.79829 91.5266 4.76516 91.4854 4.74768C91.4442 4.73021 91.3978 4.7298 91.3564 4.74658C86.9455 6.55074 86.0341 12.143 85.8877 13.3546C85.0162 13.2548 84.1713 13.1216 83.3796 12.9818C83.3971 12.9635 83.4087 12.9403 83.4129 12.9152C83.5344 11.3849 83.8611 9.87793 84.3842 8.43479C85.5019 5.41898 87.2981 3.70136 89.7064 3.32854C89.7299 3.32753 89.7529 3.32155 89.7739 3.31099C89.7949 3.30043 89.8135 3.28553 89.8283 3.26729C89.8431 3.24904 89.8539 3.22786 89.86 3.20514C89.866 3.18241 89.8672 3.15866 89.8634 3.13545C89.8596 3.11224 89.851 3.0901 89.838 3.07048C89.825 3.05086 89.8081 3.03422 89.7882 3.02164C89.7683 3.00906 89.7461 3.00083 89.7228 2.9975C89.6995 2.99418 89.6758 2.99583 89.6532 3.00234C87.1518 3.38847 85.2158 5.23257 84.0715 8.32827C83.5357 9.80089 83.2023 11.3395 83.0803 12.9019C83.0803 12.9019 83.0803 12.9019 83.0803 12.9352C80.4591 12.4625 78.5098 11.91 78.4233 11.8833C78.5881 7.97125 78.1025 4.05894 76.9863 0.30608C76.9722 0.263705 76.9418 0.228678 76.9019 0.208702C76.862 0.188726 76.8157 0.185434 76.7734 0.199559C76.731 0.213684 76.696 0.244064 76.6761 0.284016C76.6561 0.323969 76.6528 0.370226 76.6669 0.412602C78.0653 5.06487 78.4844 9.95676 77.8977 14.7793C76.8532 14.0736 75.8354 13.3679 74.8707 12.6822C74.8982 12.6579 74.9169 12.6251 74.9239 12.589C75.9019 6.9635 73.2408 0.898593 73.2008 0.838676C73.182 0.797496 73.1477 0.765362 73.1054 0.74918C73.0631 0.732999 73.0162 0.734057 72.9746 0.752126C72.9352 0.770896 72.9046 0.804468 72.8897 0.845584C72.8748 0.886699 72.8766 0.932052 72.8948 0.971822C72.8948 1.03174 75.5559 6.9635 74.5846 12.4892C70.074 9.26697 66.7476 6.57737 66.6678 6.49748C66.6521 6.47851 66.6325 6.46325 66.6102 6.4528C66.5879 6.44234 66.5636 6.43696 66.539 6.43703C66.5145 6.4371 66.4902 6.44263 66.468 6.45322C66.4458 6.46381 66.4262 6.47919 66.4107 6.49825C66.3951 6.51732 66.384 6.5396 66.3781 6.56349C66.3722 6.58738 66.3717 6.61228 66.3765 6.6364C66.3814 6.66052 66.3915 6.68326 66.4062 6.70299C66.4209 6.72271 66.4398 6.73892 66.4615 6.75046C66.6545 6.91023 85.7547 22.3621 94.9755 23.6869C95.0196 23.6869 95.0619 23.6694 95.0931 23.6382C95.1243 23.607 95.1418 23.5646 95.1418 23.5205C95.1418 23.4764 95.1243 23.434 95.0931 23.4028C95.0619 23.3716 95.0196 23.3541 94.9755 23.3541C90.5647 22.7283 83.8719 18.827 78.0907 14.9324C78.1279 14.9077 78.1541 14.8695 78.1638 14.8259C78.1638 14.5396 78.2171 14.26 78.2503 13.9804C80.3397 14.9795 82.4933 15.8379 84.6969 16.5502C87.1589 17.4066 89.7359 17.8869 92.341 17.9749C93.5182 18.0032 94.6901 17.8067 95.7938 17.3957C95.8145 17.3876 95.8334 17.3755 95.8494 17.36C95.8653 17.3445 95.878 17.326 95.8867 17.3055C95.8954 17.285 95.8999 17.263 95.8999 17.2408C95.9 17.2185 95.8955 17.1965 95.8869 17.176C95.8693 17.1489 95.8441 17.1276 95.8146 17.1146C95.7851 17.1016 95.7524 17.0975 95.7206 17.1027Z" fill="#1E0336"/>
<path opacity="0.56" d="M75.8487 33.3205C75.8327 33.3354 75.8201 33.3535 75.8114 33.3735C75.8027 33.3935 75.7982 33.4151 75.7982 33.437C75.7982 33.4588 75.8027 33.4804 75.8114 33.5005C75.8201 33.5205 75.8327 33.5385 75.8487 33.5535C75.8487 33.5535 78.1372 36.2164 77.2125 38.4267C77.1969 38.4683 77.1978 38.5143 77.2152 38.5552C77.2325 38.5961 77.2649 38.6287 77.3056 38.6464H77.3655C77.3987 38.646 77.431 38.6356 77.4583 38.6166C77.4856 38.5976 77.5066 38.5709 77.5185 38.5399C78.5231 36.1099 76.1879 33.4336 76.1015 33.3205C76.0858 33.3022 76.0665 33.2875 76.0446 33.2775C76.0228 33.2674 75.9991 33.2622 75.975 33.2622C75.951 33.2622 75.9273 33.2674 75.9055 33.2775C75.8836 33.2875 75.8643 33.3022 75.8487 33.3205Z" fill="#1E0336"/>
<path opacity="0.56" d="M88.4956 29.4588C88.4757 29.4204 88.4416 29.3914 88.4007 29.3777C88.3597 29.364 88.315 29.3668 88.2761 29.3855C88.2559 29.3941 88.2377 29.4067 88.2226 29.4227C88.2076 29.4386 88.1959 29.4574 88.1884 29.478C88.1809 29.4986 88.1778 29.5206 88.1791 29.5424C88.1805 29.5643 88.1863 29.5857 88.1963 29.6052L89.7197 32.6477C89.7326 32.6757 89.7532 32.6994 89.7792 32.7159C89.8051 32.7324 89.8353 32.7411 89.8661 32.7409C89.89 32.7477 89.9154 32.7477 89.9393 32.7409C89.9595 32.7323 89.9776 32.7197 89.9927 32.7038C90.0078 32.6879 90.0195 32.669 90.027 32.6484C90.0344 32.6278 90.0376 32.6059 90.0363 32.584C90.0349 32.5621 90.0291 32.5407 90.0191 32.5212L88.4956 29.4588Z" fill="#1E0336"/>
</g>
<g opacity="0.56">
<path opacity="0.56" d="M70.227 46.3286C70.1139 46.3286 70.054 46.3952 70.054 46.4884C70.0531 46.5103 70.0566 46.5321 70.0641 46.5526C70.0717 46.5732 70.0832 46.592 70.098 46.6081C70.1128 46.6242 70.1307 46.6372 70.1506 46.6463C70.1704 46.6555 70.1919 46.6607 70.2137 46.6615C70.2736 46.6615 70.5596 46.6615 71.012 46.6615C73.3006 46.6615 79.8004 46.4019 83.1335 43.6257C83.1639 43.5946 83.181 43.5528 83.181 43.5092C83.181 43.4657 83.1639 43.4238 83.1335 43.3927C83.1185 43.3768 83.1005 43.3641 83.0805 43.3554C83.0605 43.3468 83.0389 43.3423 83.017 43.3423C82.9952 43.3423 82.9736 43.3468 82.9536 43.3554C82.9336 43.3641 82.9155 43.3768 82.9006 43.3927C79.022 46.6349 70.3068 46.3286 70.227 46.3286Z" fill="#1E0336"/>
<path opacity="0.56" d="M85.1293 48.0465C85.0982 48.016 85.0564 47.9989 85.0129 47.9989C84.9694 47.9989 84.9275 48.016 84.8965 48.0465C81.6632 51.9278 70.8657 50.6762 70.7592 50.6628C70.7344 50.6607 70.7095 50.6644 70.6864 50.6737C70.6633 50.6829 70.6427 50.6975 70.6262 50.7161C69.748 45.7497 68.8698 40.1042 68.6836 38.8659C71.4445 39.9111 75.496 41.2359 78.1372 41.2359C78.6893 41.2531 79.2398 41.1674 79.7605 40.983C79.781 40.9756 79.7998 40.9642 79.8157 40.9493C79.8316 40.9345 79.8443 40.9165 79.853 40.8966C79.8617 40.8766 79.8663 40.8551 79.8664 40.8333C79.8665 40.8115 79.8622 40.79 79.8536 40.7699C79.8373 40.7296 79.8059 40.6974 79.7661 40.6799C79.7264 40.6625 79.6814 40.6614 79.6407 40.6767C76.4141 41.9683 65.9027 37.3946 65.7962 37.348C65.7762 37.3392 65.7545 37.3344 65.7326 37.334C65.7107 37.3336 65.6889 37.3375 65.6685 37.3456C65.6481 37.3536 65.6295 37.3656 65.6137 37.3809C65.598 37.3962 65.5854 37.4144 65.5767 37.4346C65.5669 37.4545 65.5614 37.4763 65.5605 37.4985C65.5596 37.5207 65.5634 37.5428 65.5715 37.5635C65.5796 37.5842 65.592 37.6029 65.6078 37.6186C65.6236 37.6342 65.6424 37.6463 65.6632 37.6542C65.7962 37.7142 66.8407 38.1669 68.3243 38.7327C68.5106 39.971 70.9854 55.869 71.9102 58.5519C67.5326 52.0076 63.4678 37.7275 63.4212 37.5544C63.4151 37.5334 63.4049 37.5138 63.3912 37.4968C63.3776 37.4797 63.3607 37.4656 63.3415 37.4551C63.3028 37.4338 63.2573 37.4288 63.215 37.4412C63.1726 37.4536 63.1369 37.4823 63.1157 37.521C63.0945 37.5597 63.0895 37.6052 63.1019 37.6476C63.3414 38.4864 68.9763 58.2856 74.2919 61.6143C74.3199 61.6239 74.3503 61.6239 74.3784 61.6143C74.4139 61.6135 74.4483 61.6013 74.4765 61.5795C74.5046 61.5577 74.5251 61.5274 74.5347 61.4932C74.5444 61.4589 74.5428 61.4224 74.5303 61.3891C74.5177 61.3558 74.4948 61.3274 74.4649 61.3081C73.5195 60.6291 72.7132 59.7748 72.0898 58.7916H72.1297H72.1962C72.2164 58.7829 72.2346 58.7703 72.2499 58.7545C72.2651 58.7388 72.2771 58.7201 72.2852 58.6997C72.2932 58.6793 72.2971 58.6575 72.2967 58.6355C72.2963 58.6136 72.2915 58.592 72.2827 58.5719C71.9301 57.753 71.3048 54.5774 70.6661 50.9425C70.6661 50.9425 70.6994 50.9425 70.7193 50.9425C72.0844 51.0947 73.4572 51.1681 74.8308 51.1622C78.3301 51.1622 83.1002 50.6695 85.1493 48.2129C85.1609 48.1859 85.1653 48.1562 85.1617 48.127C85.1582 48.0978 85.147 48.07 85.1293 48.0465Z" fill="#1E0336"/>
<path opacity="0.56" d="M57.274 65.9614C58.8041 67.1331 60.2545 68.1583 61.6382 69.0504C61.784 69.242 61.9442 69.4223 62.1172 69.5897C62.1493 69.6155 62.1892 69.6296 62.2304 69.6296C62.2524 69.6306 62.2745 69.6269 62.2951 69.6189C62.3157 69.6109 62.3345 69.5986 62.3501 69.583C62.3555 69.5611 62.3555 69.5383 62.3501 69.5164C66.4283 72.0462 69.8345 73.3311 72.5156 73.3311C72.7957 73.3326 73.0756 73.317 73.3538 73.2845C73.3968 73.2795 73.4361 73.2579 73.4634 73.2243C73.4908 73.1908 73.504 73.1479 73.5002 73.1048C73.4977 73.0829 73.4909 73.0616 73.4802 73.0424C73.4695 73.0231 73.455 73.0062 73.4377 72.9925C73.4203 72.9789 73.4005 72.9689 73.3792 72.963C73.358 72.9571 73.3358 72.9555 73.3139 72.9583C73.0531 72.9852 72.7911 72.9986 72.5289 72.9983C70.2802 72.9983 67.6457 72.0462 64.9513 70.6149C64.0732 69.4232 63.0154 65.9014 62.2902 63.1186C63.2881 63.7844 69.0229 67.4726 71.6042 67.5725C71.6467 67.5709 71.6871 67.5538 71.7178 67.5243C71.7485 67.4949 71.7672 67.4551 71.7705 67.4127C71.7714 67.3908 71.7679 67.369 71.7604 67.3485C71.7528 67.3279 71.7413 67.3091 71.7265 67.293C71.7117 67.2769 71.6938 67.2639 71.674 67.2548C71.6541 67.2456 71.6326 67.2404 71.6108 67.2396C68.9164 67.1397 62.37 62.7858 62.2969 62.7392C62.2749 62.7294 62.2511 62.7244 62.227 62.7244C62.203 62.7244 62.1792 62.7294 62.1572 62.7392C61.7646 61.2412 61.4919 60.0163 61.3655 59.5636C64.1722 62.0112 67.4444 63.8658 70.9854 65.016H71.0387C71.0835 65.0241 71.1298 65.0149 71.1681 64.9902C71.2063 64.9654 71.2338 64.9271 71.2449 64.8829C71.252 64.8615 71.2548 64.8388 71.2529 64.8163C71.251 64.7939 71.2446 64.772 71.234 64.7521C71.2234 64.7321 71.2089 64.7146 71.1914 64.7004C71.1738 64.6863 71.1535 64.6759 71.1318 64.6698C64.4391 62.5594 59.669 57.9192 56.6819 54.0712L64.5389 52.7397C64.5721 52.7397 64.5921 52.7064 64.6187 52.6865C67.1534 58.505 69.7414 62.3996 72.316 64.2704C72.3443 64.2929 72.3796 64.3047 72.4158 64.3037C72.4418 64.3048 72.4677 64.2993 72.4909 64.2876C72.5142 64.276 72.5342 64.2586 72.5488 64.2371C72.5616 64.2192 72.5707 64.199 72.5756 64.1775C72.5805 64.1561 72.5811 64.1339 72.5774 64.1123C72.5737 64.0906 72.5657 64.0699 72.554 64.0513C72.5422 64.0327 72.5269 64.0167 72.5089 64.0041C69.0495 61.4809 66.0158 55.4293 63.7937 49.8105C63.7977 49.7952 63.7977 49.7791 63.7937 49.7639C63.791 49.7415 63.7829 49.7202 63.7702 49.7016C63.7575 49.6831 63.7404 49.6679 63.7206 49.6573C62.2549 45.8906 60.9912 42.0483 59.9351 38.1467C59.9199 38.1097 59.892 38.0794 59.8563 38.0614C59.8207 38.0433 59.7797 38.0387 59.7409 38.0484C59.7022 38.0581 59.6682 38.0815 59.6452 38.1142C59.6222 38.1469 59.6118 38.1868 59.6158 38.2266C60.6199 41.9537 61.8145 45.6267 63.195 49.2313L63.368 49.6706L54.5796 50.8557C54.5376 50.8607 54.4993 50.8823 54.4732 50.9156C53.8721 49.9736 53.3256 48.9978 52.8366 47.993C52.8279 47.9728 52.8153 47.9546 52.7996 47.9393C52.7838 47.924 52.7652 47.912 52.7448 47.904C52.7244 47.896 52.7026 47.892 52.6807 47.8924C52.6588 47.8929 52.6371 47.8976 52.617 47.9064C52.5771 47.9265 52.5464 47.9613 52.5315 48.0035C52.5167 48.0457 52.5187 48.092 52.5372 48.1328C53.5288 50.1481 54.7189 52.0594 56.0898 53.8382C56.059 53.8524 56.0338 53.8765 56.0181 53.9066C56.0025 53.9367 55.9972 53.9712 56.0033 54.0046C56.0095 54.0429 56.0288 54.0778 56.058 54.1033C56.0871 54.1288 56.1243 54.1434 56.163 54.1444H56.2827C56.7684 54.7769 57.3073 55.4293 57.8927 56.0951C57.8927 56.2815 58.1788 58.3453 58.6977 60.8351C55.8703 59.4171 50.5946 51.8809 50.5414 51.801C50.5287 51.7831 50.5126 51.7679 50.4941 51.7562C50.4755 51.7444 50.4548 51.7365 50.4332 51.7328C50.4116 51.7291 50.3894 51.7297 50.368 51.7345C50.3466 51.7394 50.3264 51.7484 50.3085 51.7611C50.2906 51.7738 50.2754 51.7898 50.2637 51.8084C50.252 51.827 50.244 51.8477 50.2403 51.8693C50.2366 51.891 50.2372 51.9131 50.2421 51.9345C50.2469 51.9559 50.2559 51.9762 50.2686 51.9941C50.5014 52.327 55.9235 60.0695 58.7842 61.2412C59.3164 63.7112 60.1147 66.5139 61.1526 68.3181C56.5551 65.1501 52.2431 61.5859 48.2661 57.6662C48.2332 57.6367 48.1905 57.6204 48.1464 57.6204C48.1022 57.6204 48.0595 57.6367 48.0266 57.6662C48.0105 57.6817 47.9977 57.7003 47.989 57.7209C47.9802 57.7415 47.9757 57.7637 47.9757 57.786C47.9757 57.8084 47.9802 57.8306 47.989 57.8512C47.9977 57.8717 48.0105 57.8904 48.0266 57.9059C50.9439 60.7753 54.032 63.4653 57.274 65.9614ZM63.4744 49.9835C63.8071 50.829 64.1397 51.6412 64.479 52.4202L56.4424 53.7517C55.7372 52.8263 55.1118 51.9542 54.6395 51.1752L63.4744 49.9835ZM58.2852 56.5078C59.1652 57.4731 60.098 58.3888 61.0794 59.2507C61.0582 59.2695 61.0422 59.2935 61.0329 59.3203C61.0236 59.3471 61.0213 59.3759 61.0262 59.4038C61.106 59.7566 62.8823 67.5525 64.3992 70.2887C63.5476 69.816 62.6894 69.3034 61.8378 68.7575C59.7089 65.8748 58.5447 58.4385 58.2719 56.5145L58.2852 56.5078Z" fill="#1E0336"/>
<path opacity="0.56" d="M44.7268 63.9309C44.6942 63.956 44.6716 63.9919 44.6631 64.0321C44.6546 64.0724 44.6606 64.1144 44.6803 64.1506C44.7401 64.2637 50.5813 75.3017 51.1401 82.312C51.1416 82.3492 51.1566 82.3847 51.1823 82.4116C51.2081 82.4386 51.2427 82.4552 51.2798 82.4584C51.3198 82.4519 51.3558 82.4303 51.3805 82.3982C51.4052 82.3661 51.4168 82.3257 51.4129 82.2854C50.8474 75.1952 44.973 64.0973 44.9131 63.9841C44.9048 63.968 44.8932 63.9537 44.8792 63.9422C44.8651 63.9307 44.8489 63.9222 44.8314 63.9172C44.814 63.9122 44.7957 63.9109 44.7777 63.9132C44.7597 63.9156 44.7424 63.9216 44.7268 63.9309Z" fill="#1E0336"/>
<path opacity="0.56" d="M54.2536 81.4732C54.257 81.515 54.276 81.554 54.3068 81.5824C54.3377 81.6107 54.3781 81.6264 54.42 81.6263C54.4647 81.6229 54.5063 81.6022 54.5361 81.5687C54.5659 81.5352 54.5815 81.4914 54.5796 81.4466C54.5264 80.6943 54.4333 79.9353 54.3202 79.183C54.3422 79.1869 54.3647 79.1869 54.3867 79.183H54.4399C54.5929 79.1298 69.7414 73.9769 73.9393 77.0726C73.9572 77.0854 73.9774 77.0945 73.9988 77.0994C74.0202 77.1043 74.0424 77.1049 74.064 77.1012C74.0857 77.0975 74.1064 77.0895 74.1249 77.0778C74.1435 77.066 74.1595 77.0507 74.1721 77.0327C74.1849 77.0148 74.194 76.9946 74.1989 76.9731C74.2038 76.9517 74.2044 76.9295 74.2007 76.9079C74.197 76.8862 74.189 76.8655 74.1773 76.8469C74.1655 76.8283 74.1502 76.8123 74.1322 76.7997C73.3612 76.2938 72.481 75.9789 71.5642 75.8809C72.2331 75.8776 72.9006 75.8197 73.5601 75.7079C73.5821 75.7046 73.6032 75.697 73.6221 75.6855C73.6411 75.674 73.6576 75.6588 73.6706 75.6408C73.6836 75.6228 73.6929 75.6024 73.6979 75.5807C73.703 75.5591 73.7036 75.5367 73.6998 75.5148C73.6917 75.4716 73.6669 75.4334 73.6307 75.4084C73.5946 75.3835 73.5501 75.3739 73.5069 75.3816C61.5784 77.4188 48.0466 60.8751 47.9069 60.702C47.8786 60.6676 47.8379 60.6458 47.7936 60.6414C47.7493 60.6371 47.7051 60.6505 47.6707 60.6787C47.6363 60.707 47.6145 60.7478 47.6101 60.7921C47.6058 60.8364 47.6192 60.8806 47.6474 60.9151C47.7738 61.0615 58.5713 74.2699 69.4819 75.7478C63.4412 75.7478 54.8457 78.7037 54.3534 78.8701C54.3302 78.8781 54.3111 78.8948 54.3002 78.9167C52.7967 69.9359 46.9821 61.7872 46.889 61.7006C46.8764 61.6826 46.8603 61.6673 46.8418 61.6556C46.8232 61.6438 46.8025 61.6358 46.7809 61.6321C46.7592 61.6284 46.7371 61.629 46.7156 61.6339C46.6942 61.6388 46.674 61.6479 46.6561 61.6607C46.6382 61.6733 46.6228 61.6894 46.6111 61.7079C46.5993 61.7265 46.5914 61.7472 46.5877 61.7689C46.5839 61.7905 46.5846 61.8127 46.5895 61.8342C46.5944 61.8556 46.6035 61.8758 46.6162 61.8937C46.6761 62.0002 53.6017 71.6468 54.2536 81.4732Z" fill="#1E0336"/>
<path opacity="0.56" d="M53.1027 82.3656C53.0632 82.3844 53.0327 82.4179 53.0177 82.459C53.0028 82.5002 53.0046 82.5455 53.0228 82.5853C53.0351 82.6156 53.0563 82.6414 53.0837 82.6593C53.111 82.6771 53.1432 82.6862 53.1759 82.6851H53.2424C53.3821 82.6186 67.1401 76.3672 74.3052 79.6294C74.3458 79.6479 74.3921 79.6496 74.4339 79.634C74.4756 79.6184 74.5095 79.5868 74.5281 79.5462C74.5466 79.5056 74.5482 79.4592 74.5326 79.4174C74.517 79.3756 74.4855 79.3417 74.4449 79.3231C67.1468 75.9878 53.6748 82.106 53.1027 82.3656Z" fill="#1E0336"/>
</g>
<g opacity="0.56">
<path opacity="0.56" d="M62.5031 97.0383C60.0412 97.2116 57.5953 97.5654 55.1851 98.0969C55.1608 98.0981 55.1371 98.1046 55.1157 98.116C55.0942 98.1274 55.0755 98.1433 55.0609 98.1627C55.0462 98.1821 55.036 98.2045 55.0309 98.2282C55.0258 98.252 55.026 98.2766 55.0315 98.3003C55.0369 98.3239 55.0474 98.3461 55.0623 98.3653C55.0773 98.3845 55.0962 98.4002 55.1178 98.4112C55.1394 98.4223 55.1632 98.4285 55.1874 98.4294C55.2117 98.4303 55.2359 98.4259 55.2582 98.4164C55.3913 98.4164 68.6104 95.3407 73.3805 99.4017C73.4107 99.4262 73.4481 99.4402 73.4869 99.4417C73.5111 99.4414 73.5349 99.436 73.5567 99.4256C73.5786 99.4153 73.5979 99.4003 73.6133 99.3817C73.6292 99.3668 73.6419 99.3487 73.6506 99.3287C73.6593 99.3087 73.6637 99.2871 73.6637 99.2652C73.6637 99.2434 73.6593 99.2218 73.6506 99.2017C73.6419 99.1817 73.6292 99.1637 73.6133 99.1487C71.531 97.3912 67.7988 96.6788 62.5031 97.0383Z" fill="#1E0336"/>
<path opacity="0.56" d="M68.2179 89.2026C68.8357 88.3092 69.3999 87.38 69.9077 86.4198C69.9192 86.4524 69.941 86.4805 69.9698 86.4997C69.9986 86.5189 70.0328 86.5283 70.0674 86.5263C70.9788 86.4464 73.4803 86.4264 74.1123 87.2653C74.127 87.2868 74.1469 87.3042 74.1702 87.3158C74.1935 87.3275 74.2193 87.333 74.2453 87.3318C74.281 87.3299 74.3154 87.3184 74.3451 87.2986C74.3756 87.2674 74.3927 87.2256 74.3927 87.182C74.3927 87.1385 74.3756 87.0967 74.3451 87.0655C73.4736 85.9138 70.1472 86.1801 70.0075 86.1934C71.1121 84.0972 71.9097 81.8528 72.3759 79.5293C72.3837 79.4861 72.374 79.4415 72.3491 79.4054C72.3242 79.3692 72.286 79.3444 72.2428 79.3363C72.2214 79.3315 72.1991 79.3311 72.1775 79.3353C72.1559 79.3395 72.1354 79.3481 72.1173 79.3606C72.0992 79.3731 72.0838 79.3893 72.0722 79.408C72.0606 79.4267 72.053 79.4476 72.0499 79.4694C70.9403 84.7323 68.2801 89.5417 64.4125 93.2769C64.3966 93.2918 64.3839 93.3099 64.3752 93.3299C64.3665 93.35 64.3621 93.3716 64.3621 93.3934C64.3621 93.4153 64.3665 93.4369 64.3752 93.4569C64.3839 93.4769 64.3966 93.495 64.4125 93.5099C63.4678 93.5099 62.5564 93.6098 61.7514 93.703C60.5871 93.8295 59.4894 94.0026 58.5247 94.1823C59.4362 93.237 61.778 90.7737 64.0599 87.9243C64.0974 87.929 64.1354 87.9203 64.1671 87.8995C64.1988 87.8788 64.2221 87.8475 64.2328 87.8112C64.2393 87.7804 64.2393 87.7487 64.2328 87.718C66.568 84.782 68.8033 81.4733 69.3489 79.0167C69.3538 78.9953 69.3544 78.9731 69.3507 78.9514C69.347 78.9298 69.339 78.9091 69.3273 78.8905C69.3155 78.8719 69.3002 78.8559 69.2822 78.8433C69.2642 78.8306 69.2439 78.8217 69.2225 78.817C69.1794 78.8088 69.1348 78.8174 69.0977 78.8408C69.0607 78.8643 69.0339 78.901 69.0229 78.9435C68.6171 80.7809 67.2 83.151 65.5102 85.4744C63.6807 84.1429 54.074 86.6794 53.6682 86.8059C53.6261 86.8169 53.59 86.844 53.5676 86.8813C53.5452 86.9186 53.5383 86.9633 53.5484 87.0056C53.5562 87.042 53.5764 87.0745 53.6055 87.0976C53.6347 87.1207 53.671 87.1329 53.7081 87.1321H53.7547C57.1543 86.2267 63.9534 84.782 65.3173 85.7607C64.8649 86.3798 64.3925 86.9856 63.9202 87.5782C61.3988 87.1055 54.2403 88.7099 53.941 88.7765C53.9191 88.7791 53.898 88.786 53.8788 88.7968C53.8597 88.8076 53.8428 88.8221 53.8292 88.8394C53.8156 88.8567 53.8056 88.8765 53.7996 88.8977C53.7937 88.9189 53.792 88.9411 53.7946 88.9629C53.7972 88.9848 53.8041 89.0059 53.8149 89.0251C53.8257 89.0443 53.8401 89.0611 53.8574 89.0747C53.8747 89.0883 53.8945 89.0984 53.9157 89.1043C53.9369 89.1103 53.959 89.112 53.9809 89.1094H54.0141C54.0873 89.1094 61.0994 87.5249 63.694 87.8844C61.0328 91.1598 58.3717 93.8761 57.9726 94.3221C56.0166 94.7083 54.7127 95.0877 54.6927 95.0944C54.6718 95.1005 54.6522 95.1107 54.6352 95.1244C54.6181 95.1381 54.604 95.155 54.5935 95.1741C54.583 95.1933 54.5763 95.2143 54.574 95.2361C54.5716 95.2578 54.5735 95.2798 54.5796 95.3008C54.5849 95.3223 54.5946 95.3424 54.6081 95.3599C54.6215 95.3775 54.6385 95.3921 54.6579 95.4027C54.6773 95.4133 54.6987 95.4198 54.7207 95.4218C54.7427 95.4237 54.7649 95.421 54.7859 95.4139C54.8258 95.4139 56.1164 95.0345 58.0258 94.655H58.0657C62.2037 93.8494 69.2757 93.0239 73.4137 95.6669C73.4422 95.673 73.4717 95.673 73.5002 95.6669C73.5277 95.6672 73.5549 95.6607 73.5793 95.6479C73.6037 95.6352 73.6245 95.6165 73.6399 95.5937C73.6633 95.5562 73.6716 95.5113 73.6629 95.4679C73.6542 95.4246 73.6294 95.3862 73.5934 95.3607C71.1518 93.8028 67.7389 93.4367 64.6653 93.5166C65.9 92.2963 67.0264 90.9709 68.0316 89.5554H68.0782C68.1247 89.5554 72.6753 89.5554 74.1721 90.5407C74.1989 90.5614 74.2315 90.573 74.2653 90.574C74.2918 90.5738 74.3178 90.567 74.3411 90.5542C74.3643 90.5414 74.384 90.5231 74.3983 90.5008C74.4111 90.4829 74.4202 90.4626 74.4251 90.4412C74.43 90.4198 74.4306 90.3976 74.4269 90.3759C74.4232 90.3543 74.4152 90.3336 74.4035 90.315C74.3917 90.2964 74.3764 90.2804 74.3584 90.2678C72.9015 89.2691 69.0561 89.2092 68.2179 89.2026Z" fill="#1E0336"/>
<path opacity="0.56" d="M58.1455 98.1701C58.12 98.1341 58.0816 98.1092 58.0383 98.1005C57.9951 98.0919 57.9501 98.1001 57.9127 98.1235C57.8944 98.135 57.8786 98.1501 57.8663 98.1678C57.854 98.1855 57.8454 98.2056 57.841 98.2267C57.8367 98.2479 57.8366 98.2697 57.841 98.2909C57.8453 98.312 57.8538 98.3321 57.8661 98.3499C57.9526 98.4897 66.8674 112.33 72.8881 115.925C72.9167 115.931 72.9461 115.931 72.9746 115.925C73.0123 115.927 73.0495 115.916 73.08 115.894C73.1106 115.872 73.1327 115.84 73.1428 115.804C73.1528 115.767 73.1502 115.728 73.1354 115.694C73.1205 115.659 73.0944 115.63 73.0611 115.613C67.1002 112.064 58.232 98.3033 58.1455 98.1701Z" fill="#1E0336"/>
<path opacity="0.56" d="M72.6553 120.246H72.7219C72.7598 120.245 72.7961 120.231 72.8249 120.206C72.8537 120.182 72.8732 120.148 72.8802 120.11C72.8872 120.073 72.8812 120.035 72.8633 120.001C72.8454 119.968 72.8166 119.941 72.7817 119.927C67.8387 117.889 63.5742 113.269 60.8666 109.734C59.1002 107.444 57.5143 105.02 56.1231 102.484C56.1019 102.445 56.0666 102.416 56.0246 102.402C55.9825 102.389 55.9368 102.392 55.8969 102.411C55.8776 102.421 55.8607 102.436 55.8469 102.453C55.8331 102.47 55.8228 102.489 55.8166 102.51C55.8105 102.531 55.8085 102.553 55.8108 102.575C55.8132 102.597 55.8198 102.618 55.8304 102.637C57.2299 105.191 58.8247 107.633 60.6004 109.94C63.3347 113.482 67.6458 118.176 72.6553 120.246Z" fill="#1E0336"/>
<path opacity="0.56" d="M72.6819 121.198C67.1667 122.463 58.4316 117.464 58.3385 117.41C58.3009 117.393 58.2585 117.391 58.2192 117.403C58.18 117.416 58.1469 117.443 58.1262 117.478C58.1055 117.514 58.0987 117.556 58.1072 117.596C58.1157 117.637 58.1388 117.672 58.1721 117.697C58.4981 117.883 65.2374 121.738 70.6994 121.738C71.3904 121.742 72.0798 121.671 72.7551 121.525C72.7766 121.52 72.7969 121.511 72.8149 121.498C72.8328 121.486 72.8482 121.47 72.8599 121.451C72.8717 121.432 72.8796 121.412 72.8833 121.39C72.887 121.368 72.8864 121.346 72.8815 121.325C72.8768 121.303 72.8679 121.283 72.8553 121.265C72.8427 121.247 72.8266 121.232 72.8081 121.22C72.7895 121.208 72.7688 121.2 72.7472 121.197C72.7255 121.193 72.7033 121.193 72.6819 121.198Z" fill="#1E0336"/>
<path opacity="0.56" d="M71.6641 125.905C67.7788 127.203 58.6778 122.783 58.5846 122.736C58.5457 122.717 58.501 122.715 58.4601 122.728C58.4191 122.742 58.385 122.771 58.3651 122.809C58.3461 122.849 58.343 122.895 58.3567 122.937C58.3703 122.979 58.3995 123.014 58.4383 123.036C58.7643 123.195 65.5302 126.478 69.9343 126.478C70.5559 126.492 71.1758 126.406 71.7705 126.225C71.7915 126.218 71.8109 126.207 71.8276 126.192C71.8442 126.178 71.8579 126.16 71.8678 126.14C71.8777 126.12 71.8836 126.099 71.8852 126.077C71.8867 126.055 71.8839 126.033 71.8769 126.012C71.87 125.991 71.8589 125.971 71.8444 125.954C71.8299 125.938 71.8123 125.924 71.7926 125.914C71.7728 125.904 71.7513 125.898 71.7292 125.897C71.7072 125.895 71.685 125.898 71.6641 125.905Z" fill="#1E0336"/>
<path opacity="0.56" d="M64.6786 131.457C62.944 131.1 61.1802 130.904 59.4096 130.872C59.3655 130.872 59.3232 130.889 59.292 130.92C59.2608 130.952 59.2433 130.994 59.2433 131.038C59.2433 131.082 59.2608 131.124 59.292 131.156C59.3232 131.187 59.3655 131.204 59.4096 131.204C59.5094 131.204 69.3023 131.258 71.2316 135.765C71.2446 135.795 71.266 135.82 71.2932 135.838C71.3204 135.855 71.3522 135.865 71.3846 135.865H71.4512C71.4907 135.846 71.5216 135.813 71.5377 135.772C71.5537 135.731 71.5537 135.686 71.5377 135.645C70.6861 133.668 68.3776 132.263 64.6786 131.457Z" fill="#1E0336"/>
<path opacity="0.56" d="M63.7339 133.774C63.7339 133.774 63.7339 133.734 63.7339 133.714C63.7094 133.677 63.6715 133.651 63.6281 133.641C63.5848 133.631 63.5392 133.638 63.501 133.661C62.8646 133.413 62.2136 133.204 61.5518 133.035C59.9835 132.654 58.381 132.431 56.7684 132.369C56.7254 132.369 56.6841 132.386 56.6531 132.416C56.6221 132.445 56.6038 132.486 56.6021 132.529C56.602 132.574 56.6194 132.617 56.6504 132.649C56.6814 132.681 56.7237 132.7 56.7684 132.702C57.6421 132.736 58.513 132.823 59.3763 132.962C58.5048 133.508 52.2911 137.495 52.2911 140.711C52.2911 140.755 52.3086 140.797 52.3398 140.829C52.371 140.86 52.4133 140.877 52.4574 140.877C52.5015 140.877 52.5438 140.86 52.575 140.829C52.6062 140.797 52.6237 140.755 52.6237 140.711C52.6237 137.515 59.5759 133.228 59.6491 133.181C59.6758 133.164 59.6961 133.138 59.707 133.108C59.7178 133.078 59.7185 133.045 59.7089 133.015C60.8894 133.201 62.0499 133.497 63.1751 133.9C61.8445 134.799 57.5135 138.055 57.8528 141.184C57.8562 141.225 57.8754 141.263 57.9064 141.29C57.9375 141.318 57.9779 141.332 58.0191 141.33C58.0621 141.325 58.1014 141.303 58.1287 141.27C58.1561 141.236 58.1692 141.193 58.1655 141.15C57.8062 138.055 62.6162 134.653 63.4877 134.047C65.2441 134.753 66.8141 135.824 67.5393 137.449C67.5523 137.479 67.5737 137.504 67.6009 137.522C67.6281 137.539 67.6599 137.549 67.6923 137.549H67.7588C67.7984 137.53 67.8293 137.497 67.8453 137.456C67.8614 137.415 67.8614 137.37 67.8453 137.329C67.2532 135.838 65.8295 134.633 63.7339 133.774Z" fill="#1E0336"/>
</g>
<g opacity="0.56">
<path opacity="0.56" d="M13.5983 98.9692L13.4054 99.2355C13.4719 99.2821 19.7987 103.982 18.2553 110.42L18.5813 110.5C18.883 109.063 18.8703 107.577 18.5442 106.145C18.218 104.713 17.5861 103.369 16.6919 102.205C15.8294 100.977 14.7864 99.8857 13.5983 98.9692Z" fill="#1E0336"/>
<path opacity="0.56" d="M11.3098 100.667L11.2699 100.62C11.0997 99.657 10.846 98.7103 10.5114 97.791L10.1988 97.9109C10.4615 98.6425 10.6705 99.3923 10.8241 100.154C8.16299 97.791 0.645324 96.4862 0.299378 96.4263L0.246155 96.7525C0.332641 96.7525 8.82828 98.2371 10.9372 100.747C11.1172 101.739 11.1775 102.749 11.1168 103.756C9.34054 101.812 2.14886 99.9148 1.80291 99.8349L1.71643 100.154C1.79626 100.154 9.73306 102.265 11.0304 104.189L11.0769 104.156C10.9834 105.199 10.6436 106.205 10.0857 107.091L10.3584 107.271C11.689 105.274 11.6158 102.671 11.2765 100.687L11.3098 100.667Z" fill="#1E0336"/>
<path opacity="0.56" d="M14.696 97.8242L14.5563 98.1305C14.9289 98.3035 22.7593 101.925 27.6158 101.925C28.2684 101.938 28.9191 101.851 29.5451 101.666L29.4387 101.353C25.2674 102.717 14.8158 97.8775 14.696 97.8242Z" fill="#1E0336"/>
<path opacity="0.56" d="M29.9376 98.4164C30.1106 97.4045 31.6141 88.1906 30.1705 81.6797L29.8445 81.7529C31.3014 88.3171 29.7247 97.6841 29.5983 98.3965C24.0765 98.2234 16.0399 96.073 15.9401 96.0464L15.8536 96.366C16.2861 96.4858 24.7684 98.7493 30.2769 98.7493C31.3095 98.7802 32.341 98.6568 33.3372 98.3832L33.2308 98.0636C32.1579 98.3512 31.047 98.4703 29.9376 98.4164Z" fill="#1E0336"/>
<path opacity="0.56" d="M26.6711 98.1704C26.6711 98.0905 28.6004 90.1415 27.3031 84.4761L26.9838 84.5493C28.2545 90.1349 26.3651 98.0106 26.3518 98.0905L26.6711 98.1704Z" fill="#1E0336"/>
<path opacity="0.56" d="M32.499 78.8037L32.2994 79.0767C32.3726 79.1299 39.4711 84.5291 39.5443 92.5579H39.8769C39.8038 84.356 32.5722 78.8636 32.499 78.8037Z" fill="#1E0336"/>
<path opacity="0.56" d="M45.6449 75.1953L45.3588 75.3684C45.3921 75.4217 48.459 80.6278 48.3593 84.9884H48.6919C48.7917 80.5412 45.6782 75.2552 45.6449 75.1953Z" fill="#1E0336"/>
<path opacity="0.56" d="M43.689 77.752C45.4253 74.7894 47.3147 71.9866 48.3459 71.6604L48.2461 71.3409C46.1239 72.0066 41.1343 81.7065 40.622 82.7051C39.9752 81.6205 39.2098 80.6113 38.3401 79.6959L38.4931 79.7758C40.2029 76.4471 44.933 67.7592 46.2303 67.1267L46.0773 66.8271C44.4541 67.6394 38.6927 78.684 38.2204 79.5828C37.1607 78.4601 35.9598 77.4799 34.6478 76.6668L34.4815 76.9531C34.5613 76.9997 42.3717 81.5068 42.3318 90.0482H42.6644C42.6661 87.5081 41.9761 85.0155 40.6686 82.8382L40.8615 82.9381C41.5268 81.6066 42.5114 79.7825 43.5226 78.0116C44.0016 78.6774 47.1085 83.251 46.696 86.4998L47.0287 86.5398C47.4877 82.9048 43.8753 77.9317 43.7023 77.7187L43.689 77.752Z" fill="#1E0336"/>
</g>
<path d="M32.4657 40.8498C32.4657 40.8498 34.4615 44.8442 29.8046 49.5044C25.1476 54.1646 19.1601 63.485 20.4907 70.1424L21.8212 66.1479L23.1518 70.1424C23.1518 70.1424 23.1518 65.4822 25.8129 62.8192C28.474 60.1563 37.7879 50.1701 36.4574 42.847C36.4574 42.847 33.7963 38.8525 32.4657 40.8498Z" fill="#C7BFD8"/>
<path d="M83.546 43.9058C80.5256 39.9712 65.3173 46.9549 61.2591 48.9188C58.4383 48.6658 53.9809 49.6578 46.8823 52.2009C46.76 52.171 46.6322 52.171 46.5098 52.2009C46.5098 52.2009 38.4665 53.1063 37.7281 55.3898C36.9896 57.6733 35.2466 63.7049 36.7102 63.9846C38.1738 64.2642 39.2782 58.4123 40.7418 58.6586C42.2054 58.9049 41.926 60.4029 41.6466 61.8609C41.3672 63.3188 44.1148 63.2389 44.8466 60.9554C45.5784 58.6719 50.2354 58.7052 50.2354 58.7052V58.6719C53.1094 58.4855 58.2187 58.0062 61.8245 56.8878C88.0366 55.5629 86.9855 48.3929 83.546 43.9058Z" fill="#C7BFD8"/>
<path opacity="0.41" d="M61.2657 48.9053C58.4449 48.6523 53.9875 49.6442 46.889 52.1874C46.7666 52.1575 46.6388 52.1575 46.5164 52.1874C46.5164 52.1874 38.4732 53.0928 37.7347 55.3763C37.1546 57.1534 36.688 58.9657 36.3376 60.8021C37.4203 58.8843 38.8876 57.2113 40.6472 55.888C42.4069 54.5648 44.421 53.6199 46.563 53.1128C47.6908 52.7025 48.8415 52.358 50.0091 52.0809C55.837 50.6628 61.8445 50.0836 67.6391 48.5191C71.684 47.4207 74.6911 45.9294 77.0328 43.0601C71.358 44.1918 63.9268 47.6337 61.2657 48.9053Z" fill="white"/>
<path opacity="0.17" d="M83.6324 44.0254C78.3102 53.1927 68.4973 54.7106 58.6245 56.4681C57.3738 56.6945 55.9634 56.8809 54.4865 57.1339C54.2244 57.464 53.8946 57.7341 53.5193 57.9259C53.144 58.1177 52.732 58.2267 52.311 58.2456C51.007 58.3292 49.7156 58.5524 48.459 58.9114C49.0469 58.8191 49.6404 58.768 50.2354 58.7583V58.725C53.1094 58.5386 58.2187 58.0592 61.8245 56.9408C87.8037 55.596 87.0054 48.5192 83.6324 44.0254Z" fill="#1E0336"/>
<g opacity="0.56">
<path opacity="0.56" d="M55.2782 58.3057C64.1131 57.4802 77.9443 55.8558 81.111 53.6122L80.9181 53.3393C77.8445 55.5162 64.0066 57.1406 55.1983 57.9995L47.1817 52.061L46.9821 52.3273L54.6994 58.046C50.7077 58.4189 47.8337 58.6252 47.7405 58.6319V58.9648C48.1065 58.9648 51.0669 58.7251 55.0586 58.3523L55.1584 58.4255L55.2782 58.3057Z" fill="#1E0336"/>
<path opacity="0.56" d="M60.7002 57.1075L59.9617 56.7147C63.3888 54.0747 65.8792 50.4042 67.0669 46.2426L73.2341 44.4052C74.055 45.35 74.7279 46.414 75.2299 47.5608C76.3609 50.1638 76.2478 52.5805 74.9039 54.7375L75.1834 54.9106C76.5738 52.687 76.6935 50.0973 75.5293 47.421C75.034 46.2928 74.3798 45.2413 73.5867 44.2987L75.2832 43.7927L75.19 43.4731L73.3405 44.0257L51.047 50.6831L51.1401 51.0027L62.9355 47.4876C61.6382 50.6432 56.7883 54.8107 56.7351 54.8707L56.948 55.117L50.375 51.6152L50.222 51.9081L60.5472 57.4071L60.7002 57.1075ZM63.3014 47.4809L63.1351 47.421L66.6811 46.3625C65.4818 50.4244 63.0096 53.9929 59.6291 56.5417L56.968 55.1103C57.1676 54.9306 62.0441 50.7231 63.3014 47.4809Z" fill="#1E0336"/>
<path opacity="0.56" d="M71.0919 55.8358C74.3584 50.703 69.6083 45.5967 69.5617 45.5435L69.3222 45.7698C69.3688 45.8231 73.9327 50.7429 70.8125 55.6561L71.0919 55.8358Z" fill="#1E0336"/>
</g>
<path d="M52.4241 48.173C53.3089 46.7616 54.3002 45.4235 55.2848 44.0787C56.2694 42.7339 57.2807 41.4157 58.4116 40.1841C57.5202 41.6021 56.5289 42.9336 55.5509 44.2784C54.573 45.6232 53.5285 46.9081 52.4241 48.173Z" fill="#1E0336"/>
<g opacity="0.35">
<path opacity="0.35" d="M34.4615 37.355C34.4174 37.355 34.3751 37.3725 34.3439 37.4037C34.3127 37.435 34.2952 37.4773 34.2952 37.5214C34.2952 37.5813 34.2952 43.4399 32.3725 44.7048C32.354 44.7169 32.3381 44.7326 32.3257 44.7509C32.3133 44.7692 32.3047 44.7898 32.3004 44.8115C32.296 44.8332 32.2961 44.8556 32.3005 44.8772C32.3049 44.8989 32.3135 44.9195 32.326 44.9378C32.3418 44.9602 32.3627 44.9786 32.387 44.9913C32.4113 45.004 32.4383 45.0108 32.4657 45.011C32.4961 45.0199 32.5284 45.0199 32.5588 45.011C34.6012 43.6463 34.6278 37.7944 34.6278 37.5481C34.6317 37.5241 34.6303 37.4996 34.6237 37.4762C34.6171 37.4528 34.6055 37.4311 34.5897 37.4127C34.5738 37.3943 34.5541 37.3796 34.532 37.3697C34.5098 37.3597 34.4858 37.3547 34.4615 37.355Z" fill="#1E0336"/>
<path opacity="0.35" d="M37.9809 42.8007C38.3601 42.7008 47.1884 40.3308 49.1842 38.9993C49.2212 38.9746 49.247 38.9362 49.2557 38.8925C49.2644 38.8488 49.2555 38.8034 49.2308 38.7663C49.2061 38.7292 49.1677 38.7035 49.124 38.6947C49.0803 38.686 49.035 38.695 48.9979 38.7197C47.1085 39.9846 38.553 42.3014 37.9343 42.4678C38.0529 40.9641 37.8488 39.4523 37.3356 38.034C37.3179 37.9934 37.2849 37.9614 37.2437 37.9452C37.2025 37.929 37.1566 37.9298 37.116 37.9474C37.0754 37.9651 37.0435 37.9982 37.0273 38.0394C37.0111 38.0806 37.0119 38.1265 37.0295 38.1671C37.9042 40.5811 37.8161 43.2395 36.7834 45.5902C36.7733 45.6102 36.7674 45.632 36.766 45.6544C36.7645 45.6768 36.7677 45.6992 36.7751 45.7204C36.7826 45.7415 36.7942 45.7609 36.8093 45.7774C36.8245 45.794 36.8428 45.8072 36.8632 45.8165H36.9297C36.9616 45.8181 36.9933 45.81 37.0205 45.7934C37.0478 45.7768 37.0695 45.7524 37.0827 45.7233C37.5165 44.7946 37.793 43.8002 37.901 42.7807L37.9809 42.8007Z" fill="#1E0336"/>
<path opacity="0.35" d="M48.8582 42.7409C48.8392 42.7294 48.8181 42.722 48.7961 42.7191C48.7741 42.7162 48.7517 42.718 48.7304 42.7243C48.7092 42.7305 48.6894 42.7412 48.6725 42.7555C48.6555 42.7698 48.6417 42.7875 48.632 42.8075C48.6216 42.8262 48.6151 42.8468 48.6128 42.8681C48.6105 42.8894 48.6126 42.9109 48.6188 42.9314C48.625 42.9519 48.6352 42.9709 48.6489 42.9874C48.6626 43.0038 48.6795 43.0174 48.6985 43.0271L54.247 46.0563C54.2732 46.063 54.3006 46.063 54.3268 46.0563C54.3565 46.0551 54.3853 46.0465 54.4109 46.0314C54.4364 46.0163 54.4578 45.9951 54.4732 45.9697C54.4927 45.9306 54.4968 45.8855 54.4844 45.8435C54.4721 45.8015 54.4443 45.7657 54.4066 45.7434L48.8582 42.7409Z" fill="#1E0336"/>
<path opacity="0.35" d="M55.664 43.7461L50.7276 41.0298C51.7714 40.2236 52.6886 39.2654 53.4486 38.1871C53.4622 38.1701 53.472 38.1504 53.4774 38.1294C53.4827 38.1083 53.4836 38.0863 53.4798 38.0649C53.476 38.0435 53.4677 38.0231 53.4555 38.0052C53.4432 37.9872 53.4273 37.9721 53.4087 37.9607C53.3917 37.9472 53.3721 37.9374 53.351 37.932C53.33 37.9266 53.308 37.9258 53.2866 37.9296C53.2652 37.9334 53.2448 37.9417 53.2269 37.9539C53.209 37.9662 53.1938 37.9821 53.1825 38.0007C48.1996 45.0642 37.8079 44.4917 37.7081 44.485C37.6859 44.4811 37.6631 44.4821 37.6413 44.488C37.6196 44.494 37.5994 44.5046 37.5822 44.5193C37.5651 44.5339 37.5513 44.5521 37.542 44.5727C37.5328 44.5932 37.5281 44.6156 37.5285 44.6381C37.5265 44.6819 37.5412 44.7248 37.5696 44.7582C37.598 44.7915 37.638 44.8129 37.6815 44.8179C37.6815 44.8179 37.9343 44.8179 38.3467 44.8179C40.2628 44.8179 46.0041 44.5117 50.4549 41.2229L55.4977 43.999C55.524 44.005 55.5513 44.005 55.5775 43.999C55.6073 43.9984 55.6364 43.9902 55.6621 43.975C55.6877 43.9598 55.709 43.9383 55.7239 43.9125C55.7306 43.8819 55.7285 43.8501 55.7179 43.8207C55.7073 43.7912 55.6886 43.7654 55.664 43.7461Z" fill="#1E0336"/>
</g>
</g>
<defs>
<clipPath id="clip0_224_389">
<rect width="96" height="144" fill="white"/>
</clipPath>
</defs>
</svg>
