<svg width="97" height="166" viewBox="0 0 97 166" fill="none" xmlns="http://www.w3.org/2000/svg">
<path d="M48.8594 104.47C48.8594 104.47 58.3498 120.922 58.8205 123.989C59.5792 128.359 60.0998 132.774 60.3795 137.21C60.3795 137.21 55.7178 138.804 52.9036 138.673C52.4683 138.673 47.9129 130.127 47.9331 128.85C47.9533 127.574 33.6544 117.222 33.6544 117.222L25.8444 116.644C25.8444 116.644 22.5847 128.157 20.3273 132.703C19.315 134.755 17.4776 138.847 16.0452 139.999C12.082 139.939 7.86062 137.21 7.86062 137.21C7.86062 137.21 9.52082 119.792 9.30317 115.978C9.08552 112.164 11.262 101.878 23.015 99.7933C36.4028 96.9885 48.8594 104.47 48.8594 104.47Z" fill="#436060"/>
<g style="mix-blend-mode:multiply" opacity="0.3">
<path d="M60.0809 136.877C57.6159 135.944 55.242 134.694 53.3591 132.714C52.1739 131.344 51.1536 129.818 50.3222 128.174C49.3054 126.503 48.4922 124.698 47.9027 122.804C47.8914 122.756 47.8919 122.706 47.9043 122.658C47.9167 122.61 47.9404 122.567 47.9732 122.532C48.0059 122.497 48.0466 122.472 48.0911 122.46C48.1355 122.447 48.1823 122.447 48.2267 122.46C51.5876 123.906 54.9383 123.388 58.1018 121.849C55.7887 116.431 48.8695 104.442 48.8695 104.442C48.8695 104.442 36.413 96.9882 23.0251 99.7875C11.262 101.872 9.08552 112.153 9.29811 115.972C9.5107 119.792 7.86062 137.21 7.86062 137.21C7.86062 137.21 10.3509 139.545 13.3018 139.938C11.4341 137.03 9.69797 133.33 11.4796 129.838C13.894 125.112 20.8942 125.98 23.8754 122.297C25.4749 117.8 25.5711 116.742 25.5711 116.742L33.6696 117.216C33.6696 117.216 47.9736 127.584 47.9483 128.845C47.923 130.105 52.1696 137.985 52.9187 138.667C53.2528 138.967 60.1264 137.27 60.1264 137.27C60.1264 137.27 60.1011 137.112 60.0809 136.877Z" fill="#436060"/>
</g>
<path d="M51.9824 137.936C52.3873 136.566 60.4149 136.184 60.4149 136.184L62.9963 160.057L58.3195 159.648C58.3195 159.648 48.1153 151.026 51.9824 137.936Z" fill="#BDD5DB"/>
<g style="mix-blend-mode:multiply" opacity="0.3">
<path d="M54.5688 148.418C53.5875 147.625 52.78 146.608 52.2035 145.441C51.6271 144.273 51.2959 142.983 51.2333 141.663C50.0286 152.636 58.3195 159.67 58.3195 159.67L62.9964 160.079L62.0802 151.594C59.3723 151.13 56.72 150.257 54.5688 148.418Z" fill="#BDD5DB"/>
</g>
<path d="M7.72902 137.21L16.3843 139.884C16.3843 139.884 10.8166 158.491 8.31111 162.469C4.66677 162.529 2.94077 160.832 2.94077 160.832C2.93571 151.845 2.48017 141.423 7.72902 137.21Z" fill="#BDD5DB"/>
<g style="mix-blend-mode:multiply" opacity="0.3">
<path d="M6.76732 153.427C4.65159 151.588 3.73038 148.942 3.51273 146.17C2.79905 150.666 2.93571 155.965 2.93571 160.849C2.93571 160.849 4.66171 162.529 8.30604 162.486C9.11083 161.192 10.2396 158.366 11.3987 155.135C9.71928 155.153 8.08493 154.55 6.76732 153.427Z" fill="#BDD5DB"/>
</g>
<path d="M9.98648 166L0 165.765C0 165.765 0.981943 160.069 5.06157 160.014C9.1412 159.959 9.98648 166 9.98648 166Z" fill="#A9BEC4"/>
<g style="mix-blend-mode:multiply" opacity="0.3">
<path d="M5.1375 160.014H5.06663C0.981944 160.068 0.0050602 165.765 0.0050602 165.765L4.53011 165.869C4.18128 164.913 4.05427 163.88 4.16013 162.86C4.26598 161.84 4.6015 160.862 5.1375 160.014Z" fill="#BDD5DB"/>
</g>
<path d="M58.0309 159.474C58.0309 159.474 68.4375 158.033 69.5308 164.859C65.6394 165.186 61.7333 165.261 57.8335 165.083C56.5327 164.346 56.2796 161.056 58.0309 159.474Z" fill="#A9BEC4"/>
<g style="mix-blend-mode:multiply" opacity="0.3">
<path d="M60.1517 159.348C59.4432 159.347 58.7352 159.389 58.0309 159.474C56.2796 161.056 56.5125 164.347 57.8335 165.083C60.8019 165.232 63.7755 165.212 66.7419 165.023C65.107 162.448 62.9812 160.358 60.1517 159.348Z" fill="#BDD5DB"/>
</g>
<path d="M52.9997 61.7705C52.9997 61.7705 57.3982 63.4075 57.5552 65.1755C57.7576 67.6529 58.0613 85.7966 57.6159 86.9207C57.1705 88.0448 52.2051 96.3227 50.3525 95.6079C48.5 94.893 47.0524 81.6167 47.0524 81.6167L52.9997 61.7705Z" fill="#436060"/>
<g style="mix-blend-mode:multiply" opacity="0.3">
<path d="M53.6527 83.2483C53.5565 80.5581 54.3664 77.1258 54.8725 76.28C55.3787 75.4342 56.8972 75.0031 57.7981 75.0741C57.7424 70.5886 57.6311 66.2942 57.54 65.1755C57.3982 63.4075 52.9846 61.7705 52.9846 61.7705L47.022 81.6167C47.022 81.6167 48.4696 94.893 50.3222 95.6079C51.4408 96.039 53.6982 93.1905 55.3837 90.6149C54.3699 88.3033 53.782 85.8015 53.6527 83.2483Z" fill="#436060"/>
</g>
<path d="M57.6007 86.3911L71.3884 90.4837L71.4391 95.8859C71.4391 95.8859 51.0561 100.65 50.0337 95.1929C49.0112 89.7361 57.6007 86.3911 57.6007 86.3911Z" fill="#A9BEC4"/>
<path opacity="0.1" d="M62.0802 92.3993C63.6695 92.7922 65.2133 92.2901 66.6761 91.6408C67.7003 91.233 68.6599 90.6568 69.5207 89.9328L59.2154 86.8716C58.9876 89.1907 59.7772 91.8263 62.0802 92.3993Z" fill="white"/>
<g style="mix-blend-mode:multiply" opacity="0.3">
<path d="M70.366 93.3107C69.1584 93.8047 67.9138 94.1863 66.6458 94.4511C64.3034 94.9304 61.8973 94.9174 59.5595 94.4129C57.5855 94.0146 55.4192 92.8468 54.498 90.8006C54.1625 90.0152 53.9898 89.1605 53.9918 88.2959C51.7698 89.8074 49.4364 92.1593 49.9881 95.1769C51.0004 100.634 71.3935 95.8862 71.3935 95.8862L71.3631 92.7268C71.0465 92.9511 70.7129 93.1464 70.366 93.3107Z" fill="#BDD5DB"/>
</g>
<path d="M74.0863 96.5243C74.0863 96.5243 76.7638 96.6061 76.9511 94.5871C77.0561 93.3715 76.7837 92.1528 76.1767 91.1221L74.0306 90.6855L71.8744 92.5463L70.862 95.8913C71.7681 96.3933 72.5678 96.4915 74.0863 96.5243Z" fill="#FFB89E"/>
<path d="M72.3856 115.89C71.9761 116.049 71.5359 116.093 71.1063 116.018C70.6768 115.942 70.2722 115.75 69.9307 115.459L75.5339 78.5771L77.9887 79.0082L72.3856 115.89Z" fill="#436060"/>
<path d="M76.1817 93.0813C76.0318 93.1893 75.8912 93.3116 75.7616 93.4468C75.4782 93.7361 74.6076 94.5 74.8202 95.1548C74.863 95.2915 74.9418 95.4118 75.0469 95.5009C75.1521 95.5901 75.2791 95.6443 75.4124 95.6569C75.9185 95.6569 76.4247 95.1112 76.7537 94.8056C77.0827 94.5 77.5231 94.2163 77.6749 93.7524C77.7913 93.4032 77.3358 92.2682 76.1817 93.0813Z" fill="#FCA68B"/>
<path d="M75.8831 91.3733C75.7253 91.4892 75.5779 91.6207 75.4428 91.7662C75.1492 92.0772 74.2381 92.8903 74.4304 93.5615C74.4683 93.7013 74.5457 93.8248 74.6519 93.9148C74.7581 94.0048 74.8877 94.0568 75.0227 94.0635C75.5642 94.0635 76.0704 93.4578 76.4146 93.1413C76.8168 92.8709 77.1493 92.4956 77.3813 92.05C77.518 91.6407 77.0827 90.4784 75.8831 91.3733Z" fill="#FCA68B"/>
<path d="M75.5693 89.6926C75.4157 89.81 75.2717 89.9414 75.1391 90.0855C74.8556 90.402 73.9648 91.2205 74.1774 91.8862C74.2182 92.0252 74.2981 92.1472 74.406 92.2352C74.5139 92.3231 74.6445 92.3728 74.7797 92.3773C75.3213 92.3773 75.792 91.7552 76.1514 91.4387C76.5465 91.1576 76.8688 90.7726 77.0878 90.3201C77.2042 89.9545 76.7486 88.8031 75.5693 89.6926Z" fill="#FCA68B"/>
<path d="M70.8671 96.0387C70.7153 94.3035 70.6292 90.9694 71.5909 89.8508C72.2742 89.0595 74.4912 88.7594 75.8325 89.256C76.0133 89.2889 76.1778 89.3885 76.2978 89.5379C76.4179 89.6872 76.486 89.8769 76.4905 90.0745C76.4834 90.2618 76.415 90.4402 76.2972 90.5782C76.1795 90.7161 76.0202 90.8044 75.8477 90.8275C75.0501 90.8395 74.2574 90.9624 73.489 91.1932C73.8737 91.6897 74.4507 93.3758 74.2584 93.987C73.8838 95.1875 72.8614 95.624 72.006 94.9201" fill="#FFB89E"/>
<path d="M72.0262 77.917C73.8585 79.4667 79.244 80.3616 81.9722 79.674C81.9722 79.674 85.4545 17.598 88.3346 0.00537109C83.9108 23.1638 72.0262 77.917 72.0262 77.917Z" fill="#EFD225"/>
<g style="mix-blend-mode:multiply" opacity="0.3">
<path d="M80.0842 40.2651C75.9236 59.9586 72.0262 77.9168 72.0262 77.9168C73.8585 79.4665 79.244 80.3614 81.9722 79.6738C81.9722 79.6738 82.5593 69.2787 83.4451 55.7896C80.3626 51.4188 79.8565 45.7874 80.0842 40.2651Z" fill="#EFD225"/>
</g>
<path d="M52.1291 61.4265C52.1291 61.4265 56.7909 60.1441 59.7215 66.3921C61.6955 70.5611 61.24 75.434 61.24 75.434C61.24 75.434 53.1668 73.5678 51.3902 69.4807C49.6135 65.3935 52.1291 61.4265 52.1291 61.4265Z" fill="#BDD5DB"/>
<g style="mix-blend-mode:multiply" opacity="0.3">
<path d="M57.0136 67.7949C55.6166 65.6504 54.1487 63.053 51.8609 61.918C51.2636 63.1021 50.0033 66.2834 51.4104 69.4811C52.9289 72.9406 58.9218 74.8068 60.7389 75.3034C59.8017 72.6383 58.5496 70.1147 57.0136 67.7949Z" fill="#BDD5DB"/>
</g>
<path d="M45.9085 100.524C45.9085 100.524 54.7257 106.603 57.8285 112.529C51.5825 116.714 46.8196 117.238 45.048 117.238C44.0357 113.282 38.468 101.059 38.468 101.059C38.468 101.059 40.118 113.904 39.7789 118.33C34.4136 119.29 26.8213 119.967 19.8616 119.219C21.9743 113.33 23.7807 107.318 25.2724 101.212C25.2724 101.212 19.2289 112.917 15.1493 118.171C6.08401 116.343 1.80192 113.211 1.80192 113.211C1.80192 113.211 7.40002 105.026 12.9374 99.5693C24.2298 100.873 45.9085 100.524 45.9085 100.524Z" fill="#A9BEC4"/>
<g style="mix-blend-mode:multiply" opacity="0.3">
<path d="M33.6544 117.211C33.4165 114.553 33.3507 111.35 34.1606 108.797C34.9249 106.363 36.8078 105.179 38.8628 104.289C38.6502 102.368 38.4781 101.064 38.4781 101.064C38.4781 101.064 38.9842 102.216 39.7536 103.918L40.1585 103.76C42.087 103.007 44.805 102.478 46.3741 100.851L45.9135 100.524C45.9135 100.524 24.2348 100.873 12.9121 99.5801C7.39496 105.08 1.77661 113.222 1.77661 113.222C1.77661 113.222 6.0587 116.354 15.124 118.182C19.2188 112.927 25.2471 101.223 25.2471 101.223C23.7554 107.329 21.949 113.341 19.8363 119.23C24.5086 119.675 29.2092 119.649 33.8771 119.153C33.8012 118.499 33.7101 117.855 33.6544 117.211Z" fill="#BDD5DB"/>
</g>
<path d="M36.8128 58.0435C32.5915 58.4964 25.3534 59.6205 21.375 61.3175C21.375 61.3175 9.98648 86.3913 12.907 99.5803C23.1213 102.854 45.9085 100.524 45.9085 100.524C45.9085 100.524 58.2131 76.6728 52.9947 61.7813C47.4857 61.2077 42.0562 59.9535 36.8128 58.0435Z" fill="#A9BEC4"/>
<g style="mix-blend-mode:multiply" opacity="0.3">
<path d="M53.1617 62.2505C53.8096 66.916 52.9846 71.3796 51.5319 75.8924C45.458 94.8 25.2775 101.255 25.2775 101.255C25.2775 101.255 38.063 101.703 45.9085 100.535C48.4791 95.2587 50.5806 89.7318 52.1848 84.0284C54.1133 77.0056 55.3129 69.0005 53.1617 62.2505Z" fill="#BDD5DB"/>
</g>
<g style="mix-blend-mode:multiply" opacity="0.3">
<path d="M53.3338 67.1835C53.3338 67.1835 53.0301 79.1174 40.9937 76.7274C29.1445 74.3864 28.6485 59.8114 28.6485 59.8114L29.1243 59.6368L31.3261 58.8237L40.3762 60.75L52.61 63.3528L53.3338 67.1835Z" fill="#BDD5DB"/>
</g>
<path d="M53.3794 65.3392C53.3794 65.3392 53.7539 77.2513 41.7124 74.8667C29.8633 72.5257 29.4887 59.1239 29.4887 59.1239L29.9645 58.9493L32.1612 58.1362L41.2164 60.0625L53.4502 62.6599L53.3794 65.3392Z" fill="#436060"/>
<g style="mix-blend-mode:multiply" opacity="0.3">
<path d="M51.7192 63.6039C51.7192 63.6039 51.7495 64.2369 50.1349 68.2422C46.4045 70.9214 41.2113 70.2284 38.4933 69.3608C34.0441 67.942 31.5488 64.5479 30.658 62.0269C30.3224 61.0327 30.0948 59.9999 29.9797 58.9493L32.1764 58.1362L41.2316 60.0625L40.7254 60.5699L51.7192 63.6039Z" fill="#436060"/>
</g>
<path d="M37.6986 46.0822C39.0298 41.5749 38.5692 37.3514 36.3117 34.3611C34.7653 32.4552 32.8057 30.9911 30.6073 30.0993C29.1445 29.4773 22.8884 28.0421 18.1609 35.5561C16.5311 38.1535 15.2151 41.122 12.8868 42.8627C10.0472 44.9799 4.78825 45.6948 2.28783 42.7536C3.16348 45.913 8.19975 48.1066 10.8925 48.1721C14.9418 48.2703 20.0033 48.0412 23.8957 43.3975C24.583 42.522 25.34 41.7131 26.1582 40.9801C27.0219 40.3489 28.0047 39.9325 29.0359 39.7607C30.067 39.589 31.1207 39.6662 32.1207 39.987C34.3073 40.7455 37.7796 43.1028 37.6986 46.0822Z" fill="#E03838"/>
<g style="mix-blend-mode:multiply" opacity="0.3">
<path d="M36.5901 38.8303C35.3643 36.8626 33.5926 35.3633 31.5285 34.5468C29.7586 33.8005 27.7952 33.7869 26.0165 34.5086C24.3107 35.2671 23.0352 36.855 22.0229 38.4647C21.0106 40.0745 20.1501 41.7388 18.7835 42.9993C17.4457 44.1876 15.8446 44.9811 14.137 45.302C10.7154 46.066 5.90686 46.1697 2.78893 43.916C4.3732 46.4534 8.52369 48.1396 10.8874 48.1996C14.9367 48.2978 19.9983 48.0686 23.8906 43.4249C24.5779 42.5495 25.335 41.7406 26.1532 41.0076C27.0168 40.3764 27.9997 39.9599 29.0308 39.7882C30.062 39.6164 31.1156 39.6937 32.1157 40.0144C34.2972 40.7457 37.7695 43.103 37.6834 46.0824C37.7189 45.9623 37.7492 45.8423 37.7796 45.7168C37.7644 43.354 37.8808 40.893 36.5901 38.8303Z" fill="#E0554B"/>
</g>
<path d="M37.9821 62.4851C40.4369 67.2271 45.7212 69.0824 49.7856 66.6377C53.8501 64.1931 54.4878 59.3966 52.8226 53.3342C51.3952 48.1284 44.9518 47.0262 40.8874 49.4708C36.823 51.9154 35.5272 57.7432 37.9821 62.4851Z" fill="#FFB89E"/>
<path d="M46.9208 59.7951C48.1033 59.7951 49.0618 58.7617 49.0618 57.4869C49.0618 56.2121 48.1033 55.1787 46.9208 55.1787C45.7383 55.1787 44.7797 56.2121 44.7797 57.4869C44.7797 58.7617 45.7383 59.7951 46.9208 59.7951Z" fill="white"/>
<path d="M53.3338 55.9044C53.3338 56.3609 53.2082 56.8072 52.973 57.1868C52.7377 57.5664 52.4033 57.8622 52.0121 58.0369C51.6209 58.2116 51.1904 58.2573 50.7751 58.1683C50.3597 58.0792 49.9782 57.8594 49.6788 57.5366C49.3794 57.2138 49.1755 56.8025 49.0928 56.3547C49.0102 55.907 49.0526 55.4429 49.2147 55.0211C49.3767 54.5993 49.6512 54.2388 50.0033 53.9852C50.3553 53.7316 50.7693 53.5962 51.1928 53.5962C51.7606 53.5962 52.3052 53.8394 52.7067 54.2723C53.1082 54.7051 53.3338 55.2922 53.3338 55.9044Z" fill="white"/>
<path d="M53.3338 55.6971C53.3308 55.8885 53.2754 56.0747 53.1746 56.2323C53.0738 56.3898 52.9321 56.5117 52.7672 56.5828C52.6024 56.6538 52.4217 56.6707 52.248 56.6314C52.0742 56.5921 51.9151 56.4983 51.7906 56.3618C51.6661 56.2254 51.5818 56.0523 51.5482 55.8643C51.5147 55.6764 51.5334 55.4819 51.602 55.3054C51.6706 55.1289 51.7861 54.9781 51.9339 54.8721C52.0817 54.7661 52.2553 54.7095 52.4328 54.7095C52.6736 54.7124 52.9035 54.8179 53.0723 55.0029C53.2411 55.188 53.3352 55.4376 53.3338 55.6971Z" fill="#436060"/>
<path d="M48.9404 56.9955C48.9374 57.1871 48.8819 57.3735 48.7808 57.5312C48.6798 57.6888 48.5378 57.8108 48.3726 57.8816C48.2074 57.9525 48.0265 57.9691 47.8526 57.9293C47.6788 57.8895 47.5197 57.7952 47.3954 57.6582C47.2711 57.5212 47.1872 57.3476 47.1542 57.1593C47.1212 56.971 47.1407 56.7764 47.21 56.6C47.2794 56.4235 47.3957 56.2732 47.5442 56.1678C47.6926 56.0624 47.8667 56.0068 48.0445 56.0078C48.1634 56.0093 48.281 56.0359 48.3904 56.0863C48.4998 56.1368 48.599 56.2099 48.6822 56.3016C48.7654 56.3933 48.831 56.5018 48.8753 56.6209C48.9196 56.7399 48.9417 56.8672 48.9404 56.9955Z" fill="#436060"/>
<path d="M52.2911 62.6C52.2911 62.6 52.3164 63.2329 50.7018 67.2382C46.9765 69.9175 41.7833 69.2245 39.0602 68.3568C34.606 66.9381 32.1157 63.544 31.2198 61.023C30.3239 58.5019 30.0556 54.2948 31.0325 50.7097C32.0094 47.1246 34.1909 43.3049 41.1202 42.6555C43.4826 42.5388 45.817 43.2452 47.7779 44.6703C49.7388 46.0953 51.2219 48.1632 52.0077 50.5678L46.1666 53.5745L46.8398 54.1802L41.2721 59.566L52.2911 62.6Z" fill="#A9BEC4"/>
<path opacity="0.1" d="M32.227 54.7364C34.4268 54.7555 36.5991 54.2093 38.5641 53.1431C42.0516 51.195 43.8636 45.9947 41.2518 42.6606H41.1101C34.1808 43.31 31.9993 47.1297 31.0224 50.7148C30.6913 51.9597 30.4926 53.2412 30.4302 54.5345C31.0239 54.6483 31.6244 54.7158 32.227 54.7364Z" fill="white"/>
<g style="mix-blend-mode:multiply" opacity="0.3">
<path d="M52.2911 62.5943C52.2911 62.5943 52.3164 63.2327 50.7018 67.238C50.2439 67.5664 49.7594 67.8495 49.2542 68.0838C45.7111 69.7208 41.4442 69.1151 39.05 68.3566C34.5959 66.9379 32.1056 63.5438 31.2097 61.0227C31.1236 60.7717 31.0426 60.4771 30.9667 60.2206C34.6657 59.5618 38.1675 57.9687 41.186 55.5715C44.633 52.7067 47.3713 47.7683 45.0683 43.2446C50.3677 45.0781 52.0988 50.4857 52.0988 50.4857L51.9267 50.5785L46.1767 53.5743L46.8499 54.18L41.2822 59.5658L42.006 59.7622L42.2793 59.8386L52.2911 62.5943Z" fill="#BDD5DB"/>
</g>
<g style="mix-blend-mode:multiply" opacity="0.3">
<path d="M52.2911 62.5943C52.2911 62.5943 52.3164 63.2327 50.7018 67.238C50.2439 67.5664 49.7594 67.8495 49.2542 68.0838C45.4732 66.5886 39.2323 61.8031 39.2323 61.8031L39.3942 57.7869L50.393 49.1543C51.0043 49.4805 51.5273 49.971 51.9115 50.5785L46.1616 53.5743L46.8347 54.18L41.267 59.5658L41.9908 59.7622L42.2641 59.8386L52.2911 62.5943Z" fill="#BDD5DB"/>
</g>
<path d="M54.6245 56.3683C54.6245 56.3683 54.5182 65.23 51.0409 67.631C47.5687 66.9053 39.8548 60.9847 39.8548 60.9847L40.0168 56.9685L51.0105 48.3359C53.8096 49.7602 54.1032 55.0314 54.1032 55.0314L41.4037 59.3531L54.6245 56.3683Z" fill="#BDD5DB"/>
<path opacity="0.1" d="M46.1109 53.9018C48.2368 52.494 50.3981 51.1734 52.4784 49.6783C52.0986 49.1079 51.5945 48.6469 51.0105 48.3359L40.0168 56.9958L39.9713 58.0872C41.925 56.5483 44.0661 55.2605 46.1109 53.9018Z" fill="white"/>
<g style="mix-blend-mode:multiply" opacity="0.3">
<path d="M52.2506 60.4116C51.9298 60.9258 51.5144 61.3634 51.0304 61.6976C50.5463 62.0317 50.0038 62.2552 49.4364 62.3542C47.8229 62.549 46.1896 62.3932 44.633 61.8959C43.7725 61.6558 42.8968 61.4429 42.0566 61.1155C41.3227 60.8318 40.6293 60.4935 39.8801 60.2807V60.9846C39.8801 60.9846 47.594 66.9052 51.0662 67.6309C54.5435 65.2299 54.6498 56.3682 54.6498 56.3682H54.5739C53.9698 57.8214 53.1885 59.1813 52.2506 60.4116Z" fill="#BDD5DB"/>
</g>
<path d="M14.1876 70.1357C14.1876 70.1357 26.0975 75.0468 25.2775 76.5911C23.1567 80.5964 15.787 91.5263 14.714 91.9246C13.6409 92.3229 3.31027 94.0091 3.86704 91.9737C7.18743 79.9143 14.1876 70.1357 14.1876 70.1357Z" fill="#436060"/>
<g style="mix-blend-mode:multiply" opacity="0.3">
<path d="M14.1876 70.1357C14.1876 70.1357 13.2765 71.4126 11.9605 73.6008C14.1876 75.7289 16.5918 77.1313 17.3814 79.6796C18.3077 82.6699 15.4277 86.2823 13.1753 88.0994C10.5028 90.2548 7.23805 91.4662 4.06444 92.5139C5.48674 93.6489 13.7675 92.2847 14.7191 91.9246C15.7921 91.5263 23.1618 80.5964 25.2826 76.5911C26.0975 75.0468 14.1876 70.1357 14.1876 70.1357Z" fill="#436060"/>
</g>
<path d="M15.0784 91.5699L21.5421 105.321L17.8724 108.993C17.8724 108.993 0.885776 95.9462 3.96321 91.4444C7.04065 86.9425 15.0784 91.5699 15.0784 91.5699Z" fill="#A9BEC4"/>
<g style="mix-blend-mode:multiply" opacity="0.3">
<path d="M18.9151 106.407C17.7651 105.783 16.6676 105.053 15.6352 104.224C13.7371 102.68 12.1321 100.757 10.9077 98.5597C9.85489 96.7208 9.19688 94.1943 9.99661 92.1153C10.3096 91.3193 10.7794 90.6062 11.3734 90.0253C8.84257 89.2668 5.65378 88.9831 3.96321 91.4605C0.885776 95.9623 17.8724 109.009 17.8724 109.009L20.0185 106.865C19.6397 106.745 19.2707 106.592 18.9151 106.407Z" fill="#BDD5DB"/>
</g>
<path d="M19.1986 111.519C19.1986 111.519 20.9448 113.702 22.4531 112.496C23.3598 111.767 24.0138 110.732 24.3107 109.555L23.1668 107.541L20.4336 107.078L17.4675 108.54C17.7459 109.599 18.2166 110.303 19.1986 111.519Z" fill="#FFB89E"/>
<path d="M22.9644 110.892C22.79 110.845 22.6122 110.814 22.4329 110.8C22.0432 110.8 20.9144 110.592 20.6259 111.203C20.5597 111.329 20.5296 111.472 20.5396 111.616C20.5495 111.76 20.5989 111.897 20.6816 112.011C21.0308 112.437 21.7445 112.442 22.1697 112.513C22.6071 112.642 23.0686 112.642 23.5059 112.513C23.8451 112.393 24.3209 111.269 22.9644 110.892Z" fill="#FCA68B"/>
<path d="M23.9767 109.495C23.7925 109.446 23.6044 109.414 23.4148 109.403C23.0049 109.403 21.8306 109.201 21.5016 109.812C21.4326 109.936 21.4009 110.081 21.4109 110.225C21.4209 110.37 21.472 110.507 21.5572 110.619C21.9267 111.045 22.6809 111.05 23.1263 111.116C23.5913 111.244 24.0786 111.244 24.5436 111.116C24.8726 111.018 25.3787 109.861 23.9767 109.495Z" fill="#FCA68B"/>
<path d="M24.9029 108.126C24.7183 108.081 24.5302 108.056 24.3411 108.049C23.9362 108.049 22.772 107.875 22.4582 108.491C22.3916 108.618 22.3627 108.764 22.3753 108.91C22.388 109.055 22.4417 109.193 22.5291 109.304C22.8986 109.719 23.6477 109.708 24.0931 109.763C24.5512 109.891 25.032 109.891 25.4901 109.763C25.8242 109.604 26.305 108.469 24.9029 108.126Z" fill="#FCA68B"/>
<path d="M17.3966 108.644C18.4849 107.356 20.717 105.048 22.1343 105.059C23.1466 105.059 24.8422 106.625 25.3889 108.039C25.4921 108.206 25.5371 108.407 25.5158 108.607C25.4945 108.807 25.4083 108.992 25.2724 109.13C25.1392 109.251 24.9707 109.317 24.7967 109.317C24.6226 109.317 24.4541 109.251 24.3209 109.13C23.7788 108.498 23.1609 107.948 22.4835 107.493C22.4025 108.131 21.6484 109.719 21.0865 109.981C20.0084 110.489 19.0062 109.981 18.9303 108.813" fill="#FFB89E"/>
<path d="M13.403 71.1068C13.403 71.1068 18.085 59.2493 25.3433 61.9067C30.1467 63.6693 29.7165 73.1422 24.1386 78.7463C12.4464 73.1422 13.403 71.1068 13.403 71.1068Z" fill="#436060"/>
<path d="M29.8076 61.8414C29.8076 61.8414 28.7295 59.6587 27.0693 59.1622C23.5717 58.1254 15.6403 59.1622 14.1876 68.4386C17.67 71.2707 24.3107 73.3061 27.5097 70.7087C32.2321 66.818 29.8076 61.8414 29.8076 61.8414Z" fill="#BDD5DB"/>
<path opacity="0.1" d="M15.5542 65.2571C17.1373 65.6204 18.7687 65.6685 20.3678 65.399C21.9055 65.1201 23.3594 64.4504 24.6094 63.4454C25.375 62.9012 25.9184 62.0616 26.1278 61.099C26.2087 60.3587 26.1164 59.6084 25.8596 58.9163C22.5797 58.4961 17.3612 59.6639 15.0835 65.1589L15.5542 65.2571Z" fill="white"/>
<g style="mix-blend-mode:multiply" opacity="0.3">
<path d="M29.8076 61.8414C29.8076 61.8414 28.7953 59.7405 27.1604 59.1948C27.5755 60.8591 27.6666 62.649 26.877 64.215C25.4547 67.0962 21.9976 68.002 19.234 68.3021C17.5628 68.4823 15.8791 68.4823 14.2078 68.3021C14.2078 68.3403 14.2078 68.3785 14.2078 68.4167C17.6902 71.2488 24.331 73.2842 27.5299 70.6867C32.2321 66.8179 29.8076 61.8414 29.8076 61.8414Z" fill="#BDD5DB"/>
</g>
<path d="M42.7045 88.4378C36.2156 107.989 23.0099 125.718 7.94161 128.027C-1.83735 114.794 -1.50329 92.3176 5.24885 74.2284C20.1248 73.7209 31.7108 78.1573 42.7045 88.4378Z" fill="#BDD5DB"/>
<path d="M9.02985 125.107C5.27416 119.415 3.15336 111.76 2.87497 102.86C2.68588 93.9936 4.07593 85.1707 6.96979 76.8691H7.50631C20.0995 76.8691 30.1265 80.6889 39.789 89.2723C34.0391 105.403 22.6252 122.046 9.02985 125.107Z" fill="#8F5C49"/>
<path d="M25.0345 85.8237L20.8638 84.4541L17.2347 97.3048L19.6946 98.3197L25.0345 85.8237Z" fill="#E03838"/>
<path d="M11.3683 112.453L14.6229 113.79L18.7582 100.972L16.2932 99.9624L11.3683 112.453Z" fill="#E03838"/>
<path d="M5.64872 91.9956L4.3732 95.5971L16.2932 99.9625L17.2347 97.305L5.64872 91.9956Z" fill="#E03838"/>
<path d="M30.3441 106.281L31.5842 102.773L19.6946 98.3198L18.7582 100.972L30.3441 106.281Z" fill="#E03838"/>
<path d="M17.2366 97.3058L16.2963 99.9619L18.7601 100.976L19.7004 98.3195L17.2366 97.3058Z" fill="#E03838"/>
<g style="mix-blend-mode:multiply" opacity="0.2">
<path d="M22.8024 76.3838C46.4551 95.979 20.5804 122.39 7.96185 128.027C23.0302 125.718 36.2358 107.989 42.7247 88.4378C36.4383 82.5718 29.9645 78.6101 22.8024 76.3838Z" fill="#BDD5DB"/>
</g>
</svg>
