<svg width="462" height="350" viewBox="0 0 462 350" fill="none" xmlns="http://www.w3.org/2000/svg">
<g clip-path="url(#clip0_137_378)">
<path d="M449.565 137.597C453.169 136.429 464.791 143.693 461.416 142.677C457.543 141.777 453.557 141.461 449.59 141.737L449.793 141.585C450.044 141.31 450.237 140.988 450.361 140.637C450.485 140.286 450.538 139.914 450.517 139.543C450.496 139.172 450.401 138.808 450.237 138.474C450.074 138.14 449.845 137.842 449.565 137.597Z" fill="#290021"/>
<path d="M447.586 153.422C447.874 152.995 448.067 152.51 448.15 152.002C448.234 151.493 448.206 150.972 448.068 150.475C452.255 151.822 458.346 166.3 455.123 163.176C452.137 160.107 448.797 157.404 445.175 155.124C445.085 155.026 445.031 154.9 445.022 154.768C445.53 154.786 446.033 154.672 446.482 154.435C446.932 154.199 447.312 153.85 447.586 153.422Z" fill="#290021"/>
<path d="M433.602 164.319C434.057 163.823 434.357 163.205 434.465 162.541C437.003 165.36 436.851 179.61 435.633 176.46C433.755 171.66 429.643 166.63 428.704 163.049C431.065 164.878 432.511 165.538 433.602 164.319Z" fill="#290021"/>
<path d="M409.544 165.538C411.063 168.156 413.277 170.301 415.94 171.736C418.934 173.311 413.833 176.334 403.454 166.097C406.195 168.078 409.417 167.113 409.544 165.538Z" fill="#290021"/>
<path d="M11.2423 189.034C7.46103 188.602 -2.61395 197.95 0.558251 196.299C4.1955 194.68 8.05261 193.61 12.0036 193.124H11.7498C11.4342 192.899 11.1687 192.611 10.9702 192.278C10.7717 191.946 10.6446 191.575 10.5969 191.191C10.5491 190.806 10.5819 190.416 10.693 190.044C10.8041 189.673 10.9912 189.329 11.2423 189.034Z" fill="#290021"/>
<path d="M16.2418 204.275C15.8699 203.922 15.5829 203.49 15.4026 203.01C15.2224 202.531 15.1535 202.016 15.2013 201.506C11.3439 203.614 8.12088 218.982 10.6586 215.248C13.0119 211.673 15.7804 208.39 18.9064 205.468C18.9322 205.408 18.9456 205.343 18.9456 205.278C18.9456 205.212 18.9322 205.148 18.9064 205.087C18.4299 205.195 17.9338 205.176 17.4666 205.034C16.9995 204.891 16.5774 204.63 16.2418 204.275Z" fill="#290021"/>
<path d="M31.925 212.352C31.3777 211.949 30.9625 211.392 30.7323 210.752C28.7021 214.029 31.6205 227.999 32.2296 224.646C33.1432 219.566 36.2392 213.876 36.493 210.193C34.7419 212.378 33.3208 213.343 31.925 212.352Z" fill="#290021"/>
<path d="M55.8816 208.999C54.899 211.854 53.1415 214.378 50.8061 216.289C48.2683 218.423 53.7499 220.43 61.9976 208.39C59.6629 210.803 56.2877 210.473 55.8816 208.999Z" fill="#290021"/>
<path d="M11.2423 189.034C17.4091 180.601 26.6465 180.068 33.6761 176.334C40.7057 172.6 51.136 157.918 58.3686 147.961C74.1789 126.167 90.6743 110.24 116.737 108.081C118.479 105.425 119.574 102.398 119.935 99.2416C119.935 88.116 98.9981 77.8286 111.509 77.8286C115.494 77.8286 119.985 71.9864 119.656 67.2618C119.351 63.0707 113.463 40.8702 93.0598 40.8702C91.055 40.8702 86.893 40.7178 86.893 40.7178C84.3553 37.1363 104.404 25.1724 121.965 25.1724C130.663 25.4667 139.15 27.9287 146.657 32.3355C147.216 32.3355 147.952 32.3355 148.205 31.7513C158.61 9.37302 151.555 26.4679 162.341 25.0708C165.183 24.7152 168.609 23.877 170.462 23.877C176.445 25.4665 182.561 26.5038 188.734 26.9759C192.201 27.1575 195.647 26.3339 198.659 24.6037C201.67 22.8736 204.119 20.3105 205.711 17.2219C207.35 18.858 209.298 20.1501 211.442 21.0225C213.586 21.8949 215.883 22.3299 218.197 22.3021C225.328 22.3021 241.874 15.2915 242.483 15.2915C247.838 15.2915 247.99 29.5668 257.71 29.5668C263.42 29.5668 266.211 22.8609 266.694 17.1457C269.124 21.3653 271.285 25.7345 273.165 30.2272C273.165 30.2272 277.86 -0.101562 313.135 -0.101562C326.28 -0.101562 343.588 4.85166 340.796 4.85166C321.865 4.85166 308.897 21.9465 308.897 38.9651C308.897 53.7485 316.002 59.9209 327.905 59.9209C329.288 59.9164 330.67 59.8231 332.041 59.6415C330.233 60.6003 328.757 62.0835 327.806 63.8966C326.855 65.7096 326.474 67.7681 326.712 69.8019C326.712 79.7591 337.751 93.3232 337.751 94.8727C337.751 95.8633 335.721 96.0665 333.665 96.0665C332.244 96.0665 330.798 96.0665 329.96 96.0665C329.123 96.0665 329.25 96.0665 329.25 96.0665C330.163 99.0638 331.153 102.036 332.168 105.008C333.97 110.088 335.873 115.32 337.751 120.451C342.979 134.93 347.724 149.256 347.724 164.04C347.724 183.903 338.03 192.717 337.573 201.557C337.658 203.611 337.887 205.657 338.259 207.678C331.686 207.678 328.691 187.358 328.691 202.319C328.691 248.752 333.031 225.18 319.834 218.474C315.672 230.928 312.39 243.66 310.013 256.575C308.384 265.334 307.67 274.238 307.882 283.145C308.085 290.765 308.744 292.543 304.735 292.568C290.828 292.721 285.803 267.777 285.803 300.189C285.803 353.175 280.727 300.722 280.727 332.905C280.727 364.326 282.225 343.066 234.388 343.066C227.048 343.069 219.721 343.698 212.487 344.945C214.72 332.651 214.162 315.887 230.937 315.328C227.028 315.328 224.795 311.416 220.786 310.857C229.439 309.003 230.733 301.992 230.733 294.042C230.733 290.638 230.505 287.082 230.505 283.653C230.505 265.085 192.819 293.813 186.348 293.813C179.877 293.813 179.395 284.085 175.055 277.836C172.373 280.187 170.245 283.103 168.823 286.375C167.402 289.647 166.722 293.193 166.833 296.76C166.73 302.94 167.395 309.109 168.812 315.125C167.245 313.806 165.544 312.657 163.737 311.695C164.853 323.989 168.254 328.689 168.254 341.008C168.254 341.542 167.188 342.685 166.63 342.685C163.882 342.388 161.12 342.244 158.356 342.253C145.896 342.253 128.462 344.793 116.534 344.793C108.616 344.793 93.2121 344.056 93.2121 344.056C91.7655 342.862 91.1819 338.646 91.1819 336.436C91.1819 330.924 100.419 317.995 108.946 314.083L104.505 311.797C107.103 310.89 109.852 310.493 112.601 310.629C115.322 310.809 118.051 310.428 120.62 309.511C120.874 309.511 113.616 294.626 113.616 283.018C113.616 269.86 122.955 267.625 122.955 259.471C122.955 232.343 100.724 233.892 98.313 230.285C110.037 224.087 111.002 211.082 111.002 197.696C111.002 195.359 111.002 192.997 111.002 190.634C111.002 184.894 111.179 168.586 116.306 166.021C98.8713 166.021 120.112 151.517 120.112 139.629C120.112 139.096 119.985 138.74 119.681 138.613C116.474 137.718 113.525 136.072 111.078 133.812C99.7341 136.352 83.1625 139.655 74.2296 148.139C64.7384 157.156 55.2218 169.094 56.6175 177.934C56.7698 178.899 67.3776 184.564 63.9262 204.198C63.7185 205.8 63.0075 207.295 61.896 208.466C59.5867 210.879 56.2115 210.549 55.8054 209.076C55.7546 208.893 55.7546 208.699 55.8054 208.517C56.6683 204.605 52.5825 187.713 45.1722 197.95L42.6344 201.506C40.0967 205.062 38.0918 208.186 36.4169 210.269C34.7419 212.352 33.2447 213.419 31.8489 212.428C31.3016 212.025 30.8864 211.468 30.6562 210.828C29.4888 207.932 30.7831 202.852 31.9505 199.652C28.0423 201.1 22.4846 204.732 18.9063 205.164C18.4186 205.285 17.9072 205.274 17.4253 205.131C16.9434 204.988 16.5084 204.719 16.1656 204.351C15.7952 203.997 15.5092 203.565 15.3291 203.086C15.1489 202.606 15.0792 202.092 15.1251 201.582C15.3234 200.646 15.7507 199.773 16.3685 199.042L16.9269 198.28C17.8912 196.934 23.6266 191.727 22.4084 191.422C20.7589 191.015 13.9576 193.962 11.9782 193.073H11.7245C11.4184 192.846 11.1619 192.56 10.9706 192.23C10.7793 191.901 10.6573 191.536 10.6122 191.158C10.567 190.779 10.5996 190.396 10.708 190.031C10.8163 189.666 10.9982 189.326 11.2423 189.034Z" fill="#8B4361"/>
<path d="M234.87 61.1656C235.796 66.6161 235.1 72.219 232.867 77.2761C230.635 82.3331 226.965 86.6208 222.314 89.6048C217.664 92.5887 212.24 94.1371 206.716 94.0568C201.193 93.9765 195.816 92.2712 191.254 89.1534C186.692 86.0356 183.148 81.6431 181.063 76.5233C178.978 71.4035 178.444 65.7828 179.529 60.3615C180.613 54.9402 183.267 49.958 187.16 46.0358C191.053 42.1137 196.013 39.425 201.422 38.3047C205.118 37.6058 208.916 37.6428 212.598 38.4136C216.279 39.1844 219.773 40.6739 222.88 42.797C225.986 44.9201 228.644 47.6352 230.701 50.787C232.759 53.9388 234.175 57.4655 234.87 61.1656Z" fill="#FFF281"/>
<path d="M178.735 72.1642C176.07 86.7444 163.077 96.5745 149.703 94.136C136.329 91.6975 127.624 77.9302 130.263 63.3501C132.903 48.7699 145.896 38.9397 159.295 41.3782C172.695 43.8167 181.374 57.6094 178.735 72.1642Z" fill="#FFF281"/>
<path d="M180.714 72.596C180.714 78.5652 186.221 83.4168 193.022 83.4168C199.824 83.4168 205.33 78.5652 205.33 72.596C204.945 69.601 203.483 66.849 201.218 64.8547C198.953 62.8604 196.039 61.7604 193.022 61.7604C190.006 61.7604 187.092 62.8604 184.827 64.8547C182.561 66.849 181.099 69.601 180.714 72.596Z" fill="black"/>
<path d="M131.608 66.8553C131.994 69.8503 133.455 72.6023 135.721 74.5966C137.986 76.591 140.9 77.691 143.917 77.691C146.934 77.691 149.847 76.591 152.112 74.5966C154.378 72.6023 155.84 69.8503 156.225 66.8553C156.225 60.8861 150.718 56.0345 143.917 56.0345C137.115 56.0345 131.608 60.8861 131.608 66.8553Z" fill="black"/>
<path d="M149.068 113.136C150.312 112.958 153.078 115.041 153.966 116.032L154.905 116.997V117.276C154.905 132.517 170.132 158.68 171.528 155.962C173.243 149.175 175.8 142.63 179.141 136.479C182.288 130.866 190.586 151.237 193.86 151.237C197.134 151.237 198.935 136.987 198.935 133.025C198.935 127.005 217.715 152.761 217.715 152.761C224.973 152.761 225.176 127.589 225.176 123.195C225.176 118.115 224.998 112.882 224.821 107.726C227.245 106.11 229.989 105.036 232.865 104.576C243.321 104.576 277.86 196.553 277.86 210.117C277.86 224.875 266.567 227.745 247.28 229.574C246.826 210.583 240.217 192.254 228.45 177.35C220.836 197.086 222.384 204.478 221.141 205.291C219.897 206.103 215.837 198.966 209.772 193.352C207.665 197.569 204.544 215.908 204.544 215.908C187.718 215.908 189.317 162.211 174.598 224.519C148.18 218.245 149.728 186.418 149.728 220.125C149.761 229.606 151.233 239.027 154.093 248.066C149.411 249.456 144.561 250.199 139.679 250.276C123.234 250.276 119.148 240.725 119.148 221.801C119.148 217.026 141.455 114.381 149.068 113.136Z" fill="#070F1B"/>
<path d="M174.598 224.392C189.216 162.084 187.718 215.781 204.544 215.781C204.544 215.781 207.665 197.442 209.772 193.225C215.837 198.839 219.77 205.926 221.141 205.164C222.511 204.402 220.912 196.985 228.45 177.223C240.217 192.127 246.826 210.456 247.28 229.447C226.089 231.454 195.256 232.216 159.067 246.136C157.519 246.745 155.844 247.304 153.992 247.812C151.132 238.773 149.66 229.352 149.627 219.871C149.728 186.392 148.18 218.118 174.598 224.392Z" fill="white"/>
<path d="M217.74 152.838C217.74 152.838 198.961 127.081 198.961 133.101C198.961 137.064 197.235 151.314 193.885 151.314C190.535 151.314 182.313 130.993 179.166 136.556C175.826 142.706 173.268 149.251 171.553 156.038C170.182 158.756 154.931 132.542 154.931 117.353V117.048C162.112 124.516 169.37 126.141 178.278 126.141C197.032 126.141 214.289 113.873 224.871 107.802C225.049 112.882 225.227 118.115 225.227 123.271C225.201 127.615 224.998 152.838 217.74 152.838Z" fill="white"/>
<path d="M396.754 104.576C405.738 112.958 413.909 127.208 425.101 129.418C432.866 130.967 441.876 130.434 449.54 137.572C449.814 137.818 450.037 138.116 450.196 138.448C450.355 138.781 450.447 139.142 450.466 139.511C450.485 139.879 450.43 140.247 450.306 140.595C450.182 140.942 449.991 141.261 449.743 141.534L449.54 141.687C447.712 142.88 440.505 141.331 438.957 142.068C437.84 142.601 444.439 146.614 445.657 147.732L446.342 148.392C447.072 148.967 447.655 149.707 448.042 150.552C448.18 151.048 448.208 151.569 448.125 152.078C448.042 152.587 447.849 153.071 447.56 153.498C447.283 153.913 446.904 154.25 446.46 154.477C446.016 154.704 445.521 154.813 445.022 154.794C441.444 155.048 435.303 152.533 431.166 151.872C432.917 154.793 435.176 159.493 434.567 162.617C434.458 163.281 434.158 163.899 433.704 164.395C432.511 165.64 430.938 164.954 428.806 163.125C426.674 161.296 424.263 158.731 421.04 155.733C419.975 154.743 418.934 153.701 417.894 152.711C408.682 144.074 407.895 161.423 409.468 165.106C409.518 165.289 409.518 165.482 409.468 165.665C409.468 167.189 406.118 168.205 403.378 166.224C402.078 165.266 401.097 163.938 400.561 162.414C393.43 143.795 402.794 136.225 402.743 135.235C402.439 126.294 395.384 119.435 384.243 112.526C371.554 104.576 350.871 116.133 337.599 120.528C335.721 115.447 333.818 110.367 332.016 105.084C354.069 97.1841 378.888 87.7603 396.754 104.576Z" fill="#8B4361"/>
<path d="M309.861 256.575C312.842 259.896 316.452 262.592 320.481 264.506C324.511 266.42 328.88 267.515 333.335 267.726C364.144 268.641 363.433 217.509 363.433 254.035C363.433 263.561 380.487 241.005 380.487 223.681C380.487 201.227 356.48 185.402 356.48 164.294C356.48 154.514 361.555 141.255 373.813 141.255C375.411 141.255 377.061 141.255 374.98 141.255C368.407 141.255 367.062 147.656 367.062 154.26C367.062 174.454 386.552 188.501 392.288 207.399C399.013 229.472 391.602 215.68 398.607 201.684C400.342 211.047 401.124 220.561 400.941 230.082C400.941 260.335 389.318 285.659 356.759 291.451C347.014 293.178 362.951 295.642 364.144 301.611C350.491 297.293 324.555 293.153 307.729 283.068C307.523 274.187 308.237 265.309 309.861 256.575Z" fill="#A5587B"/>
<path d="M179.445 70.7672C178.295 63.5792 179.928 56.2227 184.013 50.1993C188.097 44.1759 194.324 39.9398 201.422 38.3555C205.933 37.4443 210.598 37.6632 215.004 38.9927C219.409 40.3222 223.418 42.721 226.673 45.9758C227.398 46.6926 228.084 47.4473 228.729 48.2365L179.445 70.7672Z" fill="#89536B"/>
<path d="M178.963 70.6147C180.74 56.6188 172.187 43.7151 159.295 41.3782C155.334 40.7101 151.267 41.0459 147.468 42.3548C143.669 43.6637 140.259 45.9041 137.547 48.8715C135.88 50.6266 134.447 52.5903 133.283 54.7137L178.963 70.6147Z" fill="#89536B"/>
</g>
<defs>
<clipPath id="clip0_137_378">
<rect width="462" height="350" fill="white"/>
</clipPath>
</defs>
</svg>
