<svg width="538" height="398" viewBox="0 0 538 398" fill="none" xmlns="http://www.w3.org/2000/svg">
<g clip-path="url(#clip0_79_297)">
<path d="M406.144 35.8546C405.435 35.8546 404.744 35.8546 404.062 35.8546C403.012 35.8546 401.998 35.9332 401.003 36.051C374.44 39.0865 368.756 74.3629 380.19 85.6207H379.655H378.808C364.987 85.886 358.151 104.59 356.409 114.571C356.299 115.226 356.207 115.835 356.133 116.398C356.078 116.84 356.032 117.262 356.004 117.646C345.795 110.916 318.228 116.015 301.883 125.111C298.546 126.861 295.474 129.136 292.771 131.86C292.115 132.006 291.437 132.006 290.781 131.86C290.391 131.755 290.024 131.568 289.703 131.31C288.091 130.004 288.155 127.332 288.155 127.332C288.155 127.332 316.284 102.144 311.41 61.5137C310.149 51.6989 307.346 42.1808 303.118 33.3594C302.685 32.377 302.197 31.4831 301.754 30.54C311.521 28.2118 322.568 26.0114 333.864 24.5673C337.033 24.1547 340.221 23.8109 343.4 23.5849H343.501C367.889 21.3845 392.167 23.4965 406.144 35.8546Z" fill="#8BA34A"/>
<g style="mix-blend-mode:multiply" opacity="0.3">
<path d="M314.478 38.6445C323.6 41.8469 355.672 53.4977 379.655 85.5814H378.808C361.127 69.2449 332.998 53.036 315.593 48.2519C344.293 68.96 353.682 101.437 356.409 114.502C356.299 115.157 356.207 115.766 356.133 116.329C345.915 86.7406 328.28 68.4393 319.38 62.2996C322.973 90.4736 310.553 113.078 301.874 125.062C299.496 128.361 296.923 131.494 294.171 134.444H292.172C291.519 134.218 290.939 133.798 290.501 133.235C290.062 132.672 289.782 131.987 289.694 131.261C289.6 130.819 289.554 130.368 289.555 129.915C289.555 129.915 313.336 108.608 313.373 73.636C313.178 69.5186 312.516 65.4416 311.401 61.4941C308.351 49.4897 302.869 35.4911 303.109 33.3397C303.11 33.2746 303.126 33.2107 303.155 33.1531C304.076 31.3554 316.819 26.8955 333.854 24.5476C336.913 24.1252 340.11 23.7716 343.39 23.5653H343.492C363.559 22.0132 387.081 24.0368 404.099 35.9037C403.049 35.9037 402.035 35.9823 401.04 36.1002C356.013 20.4119 320.522 33.2317 314.478 38.6445Z" fill="#96B33C"/>
</g>
<path d="M406.154 35.8545C358.086 16.5414 319.408 30.3337 313.096 36.0117C322.476 39.3026 356.059 51.5035 380.227 85.6108C362.84 68.4 332.565 50.6685 314.22 45.6584C350.245 71.6516 355.857 116.201 356.032 117.577C346.072 85.7287 327.285 66.1013 318.007 59.6767C323.277 101.329 293.646 130.799 292.771 131.782H290.781C288.063 131.015 288.155 127.253 288.155 127.253C288.155 127.253 311.935 105.955 311.972 70.9737C311.972 58.9792 300.833 32.2984 301.727 30.4909C303.8 26.2864 371.676 7.29746 406.154 35.8545Z" fill="#96B33C"/>
<path d="M328.621 176.842C328.621 176.842 364.738 180.389 365.356 184.22C365.973 188.051 350.365 203.494 346.33 208.405C336.425 197.953 328.621 176.842 328.621 176.842Z" fill="#314A20"/>
<path opacity="0.1" d="M349.72 185.241C354.428 185.949 359.072 186.754 362.96 189.279C364.545 187.059 365.522 185.232 365.356 184.22C364.738 180.389 328.621 176.842 328.621 176.842C328.621 176.842 330.012 180.585 332.353 185.683C337.798 183.395 344.035 184.387 349.72 185.241Z" fill="white"/>
<path d="M352.328 214.486C352.328 214.486 383.543 211.844 384.916 214.486C386.289 217.129 375.002 233.593 372.293 238.515C362.177 231.225 352.328 214.486 352.328 214.486Z" fill="#314A20"/>
<path opacity="0.1" d="M384.363 217.482C384.925 216.068 385.156 214.997 384.879 214.466C383.507 211.844 352.291 214.466 352.291 214.466C352.291 214.466 353.793 217.011 356.216 220.537C365.338 217.661 374.884 216.625 384.363 217.482Z" fill="white"/>
<path d="M378.706 246.845C378.706 246.845 404.09 246.147 405.914 248.289C407.738 250.431 396.875 263.791 394.425 267.769C386.298 261.256 378.706 246.845 378.706 246.845Z" fill="#314A20"/>
<path opacity="0.1" d="M401.252 252.248C402.45 252.248 403.657 252.346 404.854 252.405C405.914 250.44 406.43 248.908 405.914 248.289C404.071 246.147 378.706 246.845 378.706 246.845C378.706 246.845 380.309 249.89 382.834 253.81C388.804 252.14 395.116 252.012 401.252 252.248Z" fill="white"/>
<path d="M402.864 276.099C402.864 276.099 422.213 258.073 424.673 258.702C427.133 259.331 426.995 276.777 427.492 281.512C417.339 282.082 402.864 276.099 402.864 276.099Z" fill="#314A20"/>
<path opacity="0.1" d="M414.132 275.206C416.602 269.311 420.646 264.242 423.908 258.82C419.587 260.5 402.864 276.08 402.864 276.08C406.119 277.364 409.434 278.466 412.796 279.381C413.127 277.95 413.574 276.553 414.132 275.206Z" fill="white"/>
<path d="M440.889 273.241C440.889 273.241 443.92 244.949 446.362 244.752C448.803 244.556 459.362 256.629 462.679 259.812C455.409 267.465 440.889 273.241 440.889 273.241Z" fill="#314A20"/>
<path opacity="0.1" d="M447.67 261.256C446.039 255.922 446.067 250.755 445.827 245.293C443.542 248.947 440.889 273.241 440.889 273.241C444.096 271.906 447.236 270.395 450.296 268.712C449.338 266.286 448.444 263.791 447.67 261.256Z" fill="white"/>
<path d="M487.768 234.114C482.967 243.662 470.741 253.849 470.741 253.849C470.741 253.849 465.498 225.921 467.977 224.958C470.455 223.995 483.704 232.129 487.768 234.114Z" fill="#314A20"/>
<path opacity="0.1" d="M474.233 237.935C471.367 234.163 468.649 230.076 467.719 225.272C466.014 228.465 470.778 253.849 470.778 253.849C473.973 251.103 477.007 248.151 479.862 245.008C477.863 242.788 476.057 240.322 474.233 237.935Z" fill="white"/>
<path d="M486.625 216.323C486.625 216.323 465.498 211.578 465.59 209.113C465.683 206.647 475.725 198.985 478.416 196.411C483.511 203.287 486.625 216.323 486.625 216.323Z" fill="#314A20"/>
<path opacity="0.1" d="M483.732 209.044C477.725 209.918 471.662 209.044 465.618 209.26C466.281 211.755 486.625 216.323 486.625 216.323" fill="white"/>
<path d="M474.592 189.249C474.592 189.249 453.143 188.454 452.756 185.811C452.369 183.169 461.196 174.072 463.471 171.076C469.543 176.97 474.592 189.249 474.592 189.249Z" fill="#314A20"/>
<path opacity="0.1" d="M465.084 185.232C462.577 182.511 459.301 180.743 455.76 180.202C453.917 182.56 452.581 184.691 452.747 185.772C452.986 187.403 461.039 188.336 467.267 188.817C466.774 187.477 466.031 186.258 465.084 185.232Z" fill="white"/>
<path d="M461.61 161.989C461.61 161.989 449.632 166.96 442.262 167.078C442.262 167.078 445.523 154.209 446.454 150.879C453.447 153.61 461.61 161.989 461.61 161.989Z" fill="#314A20"/>
<path opacity="0.1" d="M451.245 164.573C450.168 163.519 448.919 162.687 447.559 162.117C446.233 161.791 444.85 161.831 443.542 162.235C442.842 164.956 442.308 167.068 442.308 167.068C445.604 166.874 448.869 166.278 452.037 165.29C451.779 165.054 451.521 164.808 451.245 164.573Z" fill="white"/>
<path d="M210.586 121.418C210.586 121.418 205.979 159.523 193.9 173.149C184.788 183.434 165.725 162.755 161.293 162.932C156.861 163.109 149.481 181.253 134.832 188.876C120.182 196.499 118.653 209.437 119.832 213.199C121.011 216.962 125.157 224.123 125.157 224.123C125.157 224.123 125.922 212.423 126.917 211.598C127.912 210.773 136.509 201.244 138.499 202.148C140.489 203.051 135.08 210.773 137.034 214.535C139.222 218.27 141.596 221.877 144.147 225.341L144.874 213.956C144.874 213.956 150.403 208.857 153.931 208.14C163.744 206.175 162.648 177.579 162.648 177.579C162.648 177.579 187.202 246.589 235.72 236.275C284.239 225.96 246.851 128.451 210.586 121.418Z" fill="#314A20"/>
<path d="M438.862 155.044C438.862 155.044 441.829 164.258 441.7 169.779C441.7 169.779 433.242 166.95 431.049 166.154C433.057 160.967 438.862 155.044 438.862 155.044Z" fill="#314A20"/>
<path d="M527.635 194.652C559.468 228.141 511.179 335.129 474.62 349.01C393.356 379.846 283.281 334.059 283.281 334.059L331.523 182.864C331.523 182.864 394.084 277.239 416.196 278.88C438.309 280.52 487.97 242.473 488.643 227.159" fill="#8BA34A"/>
<path d="M488.689 227.158C489.361 211.853 450.333 146.9 443.598 151.301C436.862 155.702 419.642 187.648 419.642 187.648C419.642 187.648 432.947 120.308 440.17 115.936C447.394 111.565 495.875 161.203 527.699 194.682" fill="#8BA34A"/>
<path opacity="0.05" d="M488.689 227.159C488.025 242.473 438.346 280.53 416.242 278.88C394.139 277.229 331.523 182.864 331.523 182.864L315.621 232.709C327.009 248.967 340.746 264.36 352.079 280.667C356.953 287.681 385.893 299.922 394.784 300.668C431.712 303.782 441.773 296.041 450.194 291.336C465.858 282.593 478.969 268.663 486.376 252.493" fill="white"/>
<g style="mix-blend-mode:multiply" opacity="0.3">
<path d="M523.848 235.774C518.172 284.803 488.689 325.247 457.98 330.895C388.03 343.774 303.118 296.277 298.714 294.008L283.281 334.009C283.281 334.009 393.356 379.797 474.62 348.961C511.179 335.129 559.468 228.052 527.635 194.652" fill="#8BA34A"/>
</g>
<g style="mix-blend-mode:multiply" opacity="0.3">
<path d="M527.635 194.652C495.802 161.174 447.329 111.496 440.106 115.907C437.231 117.665 433.389 129.414 429.805 142.902C429.98 142.529 430.155 142.145 430.339 141.772C432.615 137.273 435.867 132.833 440.52 131.094C445.578 129.208 454.405 137.548 458.192 141.36C469.451 152.696 527.754 202.482 523.857 235.823" fill="#8BA34A"/>
</g>
<path d="M209.618 223.858C209.618 223.858 166.941 236.805 166.149 240.99C165.356 245.175 150.55 269.596 155.857 295.344C157.101 301.454 174.874 331.18 196.996 337.359C224.729 327.202 238.918 318.223 241.58 323.793C244.243 329.363 235.066 341.721 225.106 347.369C215.147 353.018 198.719 343.44 198.719 343.44C198.719 343.44 181.554 334.294 173.75 338.96C163.91 344.854 159.414 355.71 163.753 366.368C163.753 366.368 180.854 357.527 192.546 358.234C198.617 358.588 239.848 362.665 239.848 362.665C239.848 362.665 270.437 317.162 270.087 308.89C269.737 300.619 245.938 312.142 244.464 311.69C242.99 311.238 234.2 298.733 241.599 290.078C248.997 281.424 267.922 269.645 267.12 262.425C266.319 255.205 248.564 214.702 209.618 223.858Z" fill="#314A20"/>
<path d="M168.461 62.7121C168.461 62.7121 187.451 24.8129 190.574 24.4887C193.697 24.1645 199.382 46.0121 203.068 51.6312C190.555 59.6767 168.461 62.7121 168.461 62.7121Z" fill="#314A20"/>
<path opacity="0.1" d="M185.009 41.3459C185.589 36.2671 186.373 30.7561 188.694 26.198C183 33.6148 168.424 62.7122 168.424 62.7122C174.298 61.8265 180.114 60.5502 185.838 58.8908C184.926 53.1146 184.309 47.3874 185.009 41.3459Z" fill="white"/>
<path d="M212.613 48.468C212.613 48.468 222.269 9.03622 226.249 8.10298C230.229 7.16974 242.529 29.7148 246.519 35.1178C234.486 43.9786 212.613 48.468 212.613 48.468Z" fill="#314A20"/>
<path opacity="0.1" d="M222.739 31.0509C222.048 23.6341 222.536 15.1171 225.844 8.30933C221.651 11.5413 212.613 48.468 212.613 48.468C212.613 48.468 218.353 47.2892 225.567 44.9512C224.163 40.4383 223.215 35.7784 222.739 31.0509Z" fill="white"/>
<path d="M249.78 35.5107C249.78 35.5107 287.132 39.4402 288.192 43.3696C289.251 47.299 272.418 63.4686 268.18 68.6063C257.852 57.5941 249.78 35.5107 249.78 35.5107Z" fill="#314A20"/>
<path opacity="0.1" d="M272.28 42.5837C276.246 42.6174 280.208 42.8798 284.147 43.3696C285.52 43.5877 286.875 43.9161 288.201 44.3519C288.282 44.0302 288.282 43.6913 288.201 43.3696C287.142 39.4401 249.79 35.4616 249.79 35.4616C249.79 35.4616 251.043 38.9097 253.199 43.7527C259.418 42.3086 265.932 42.3086 272.28 42.5837Z" fill="white"/>
<path d="M275.182 70.0504C275.182 70.0504 307.034 72.9974 308.084 77.5752C309.134 82.153 293.038 94.6092 289.307 98.9414C280.609 89.2849 275.182 70.0504 275.182 70.0504Z" fill="#314A20"/>
<path opacity="0.1" d="M307.992 78.8817C308.129 78.4622 308.16 78.0119 308.084 77.5752C307.034 73.0269 275.182 70.0504 275.182 70.0504C275.182 70.0504 276.104 73.2627 277.753 77.7127C287.833 75.5908 297.968 76.976 307.992 78.8817Z" fill="white"/>
<path d="M292.946 104.197C292.946 104.197 316.901 107.655 329.045 114.561C329.045 114.561 312.709 132.548 308.333 137.155C299.202 125.887 292.946 104.197 292.946 104.197Z" fill="#314A20"/>
<path opacity="0.1" d="M327.451 116.27L329.008 114.561C316.883 107.684 292.909 104.197 292.909 104.197C292.909 104.197 293.711 106.957 295.139 111.005C306.109 110.834 317.03 112.613 327.451 116.27Z" fill="white"/>
<path d="M348.642 294.538C333.108 331.318 286.054 333.076 256.156 330.276C252.468 330.849 248.744 331.115 245.017 331.072C196.729 330.601 163.292 285.029 164.859 229.89C165.946 191.892 185.064 158.806 211.48 142.371C211.59 139.375 211.627 136.34 211.719 133.314C212.115 119.483 214.76 100.425 208.679 87.7819C187.957 92.2615 171.52 96.682 150.108 97.8216C150.264 87.1827 153.867 71.5141 150.016 61.3467C179.278 62.3291 208.061 30.7856 247.302 34.4007C259.224 35.5009 274.814 68.6947 282.378 83.3318C289.749 97.6939 296.908 112.4 303.901 127.027C325.424 172.058 370.128 243.652 348.642 294.538Z" fill="#8BA34A"/>
<path opacity="0.05" d="M153.222 66.396C163.117 71.848 175.04 71.9365 185.866 70.8362C196.692 69.736 207.37 67.1229 217.92 64.2643C228.285 61.4547 240.576 60.0499 249.191 68.2624C258.506 77.1036 287.565 165.987 300.787 194.426C312.829 220.311 310.728 248.525 331.496 267.671C337.88 273.493 344.922 278.443 352.457 282.406C363.384 232.768 323.766 168.581 303.892 127.027C296.899 112.4 289.767 97.6938 282.369 83.3318C274.805 68.6947 259.224 35.3044 247.293 34.4006C207.518 31.3848 179.269 62.2995 150.006 61.3467C150.447 62.5483 150.792 63.7871 151.038 65.0501C151.748 65.5217 152.476 65.9637 153.222 66.396Z" fill="white"/>
<path d="M271.101 261.453C265.738 256.01 284.921 200.419 230.616 139.316C227.05 135.308 224.25 122.154 223.522 116.84C222.674 110.573 218.39 85.5126 208.614 83.8033C205.749 83.3023 188.676 84.2945 182.752 85.3653C176.827 86.436 171.096 87.1728 165.246 87.939C166.757 94.8843 167.872 102.34 173.206 106.437C173.556 105.631 173.731 105.17 173.731 105.17C173.731 105.17 198.608 97.5465 205.297 99.5014C211.387 112.144 212.106 119.453 211.747 133.285C211.655 136.31 211.627 139.336 211.507 142.342C185.092 158.777 165.974 191.872 164.886 229.86C163.311 285 190.436 326.19 238.402 332.251C313.806 341.77 331.947 334.068 347.481 297.279C336.057 292.75 279.937 270.412 271.101 261.453Z" fill="#E2C49E"/>
<g style="mix-blend-mode:multiply" opacity="0.3">
<path d="M317.086 327.712C301.275 331.115 284.986 331.115 269.175 327.712C262.928 326.396 256.589 324.687 250.868 321.622C246.556 319.313 242.124 315.796 241.396 310.393C224.259 315.197 199.382 304.676 199.898 283.064C194.279 281.466 189.379 277.785 186.078 272.681C182.746 267.542 180.889 261.48 180.734 255.234C180.785 252.607 181.511 250.045 182.834 247.827C183.433 246.766 185.009 245.145 184.493 244.035C183.977 242.925 183.028 242.159 182.54 241.088C180.181 235.793 182.936 230.499 185.939 226.255C187.616 223.897 189.284 221.608 190.786 219.123C191.781 217.299 193.044 215.657 194.527 214.26C190.27 211.922 187.911 205.665 188.998 200.782C190.141 195.743 194.748 192.737 197.742 188.994C193.642 187.334 192.546 183.345 193.697 178.876C195.033 174.308 197.245 170.086 200.193 166.478C201.492 164.808 203.307 163.531 204.45 161.763C205.878 159.592 205.491 156.35 206.523 153.904C207.91 150.655 209.977 147.788 212.567 145.525C213.331 144.837 216.611 142.696 216.593 141.595C216.593 140.947 214.529 138.855 214.151 138.078C211.516 132.636 214.419 126.664 217.229 121.987C215.064 120.809 213.184 119.04 212.705 116.378C212.226 113.716 213.212 111.201 214.465 108.991C213.101 108.743 211.836 108.069 210.831 107.055C209.826 106.041 209.125 104.732 208.817 103.293C208.41 101.336 207.646 99.4836 206.569 97.8412C204.781 95.5228 202.109 95.1594 199.456 95.3853C194.093 95.8372 188.796 96.8097 183.415 97.1437C178.072 97.4646 172.715 97.4417 167.374 97.0749C168.526 100.837 170.193 104.227 173.206 106.535C173.556 105.73 173.731 105.268 173.731 105.268C173.731 105.268 198.608 97.6447 205.297 99.5996C211.387 112.243 212.106 119.551 211.747 133.383C211.655 136.408 211.627 139.434 211.507 142.44C185.092 158.875 165.974 191.971 164.886 229.958C163.311 285.098 190.436 326.288 238.402 332.349C290.376 338.911 315.142 337.261 330.602 323.606C326.206 325.355 321.686 326.728 317.086 327.712Z" fill="#E2C49E"/>
</g>
<g style="mix-blend-mode:multiply">
<g style="mix-blend-mode:multiply">
<path d="M201.151 112.861C208.522 112.115 216.741 108.706 221.891 102.635C224.185 99.9336 225.963 94.9039 227.419 91.6327" stroke="#E2C49E" stroke-width="0.91" stroke-miterlimit="10"/>
</g>
<g style="mix-blend-mode:multiply">
<path d="M201.98 125.19C209.112 125.19 219.053 122.243 225.014 117.528C227.502 115.563 231.058 112.685 232.173 109.747" stroke="#E2C49E" stroke-width="0.91" stroke-miterlimit="10"/>
</g>
<g style="mix-blend-mode:multiply">
<path d="M202.607 143.57C218.869 144.906 237.453 127.636 240.548 122.459" stroke="#E2C49E" stroke-width="0.91" stroke-miterlimit="10"/>
</g>
<g style="mix-blend-mode:multiply">
<path d="M178.191 166.164C191.173 166.164 233.638 161.252 247.606 135.043" stroke="#E2C49E" stroke-width="0.91" stroke-miterlimit="10"/>
</g>
<g style="mix-blend-mode:multiply">
<path d="M159.036 187.54C186.677 198.346 228.976 178.984 239.784 171.046C245.462 166.778 250.869 162.114 255.972 157.087" stroke="#E2C49E" stroke-width="0.91" stroke-miterlimit="10"/>
</g>
<g style="mix-blend-mode:multiply">
<path d="M151.121 208.877C189.477 224.211 251.181 205.095 272.022 182.648" stroke="#E2C49E" stroke-width="0.91" stroke-miterlimit="10"/>
</g>
<g style="mix-blend-mode:multiply">
<path d="M157.58 238.436C162.353 240.106 167.07 241.894 172.055 242.729C177.73 243.711 219.283 249.772 263.094 225.646C270.511 221.569 277.716 216.962 284.718 212.119C286.718 210.733 288.026 208.739 289.952 207.325" stroke="#E2C49E" stroke-width="0.91" stroke-miterlimit="10"/>
</g>
<g style="mix-blend-mode:multiply">
<path d="M164.665 279.135C177.196 282.17 230.957 290.471 270.244 259.576C275.965 255.077 284.313 248.21 289.537 243.122" stroke="#E2C49E" stroke-width="0.91" stroke-miterlimit="10"/>
</g>
<g style="mix-blend-mode:multiply">
<path d="M195.936 328.253C206.993 326.563 217.127 322.172 227.308 317.231C239.047 311.513 250.674 306.179 261.196 298.075C269.344 291.579 276.493 283.771 282.387 274.93C285.649 270.186 287.519 264.567 290.551 259.792" stroke="#E2C49E" stroke-width="0.91" stroke-miterlimit="10"/>
</g>
<g style="mix-blend-mode:multiply">
<path d="M244.722 342.458C248.269 340.493 272.86 332.457 289.942 306.346C294.494 299.391 298.695 292.043 302.749 284.734C305.449 279.901 309.798 273.084 309.964 267.317" stroke="#E2C49E" stroke-width="0.91" stroke-miterlimit="10"/>
</g>
</g>
<path d="M304.417 363.323C304.417 363.323 263.02 364.03 256.939 363.883C246.665 363.708 236.707 367.676 229.059 374.993C223.752 364.845 230.579 353.843 236.43 346.662C242.281 339.481 261.694 348.499 261.694 348.499C261.694 348.499 270.585 352.517 279.08 352.301C279.282 352.301 279.503 352.301 279.715 352.301C280.974 352.247 282.226 352.072 283.456 351.78C283.944 351.662 284.424 351.525 284.884 351.368C286.099 350.965 287.253 350.38 288.312 349.629C297.7 342.949 303.551 333.135 300.381 327.87C297.415 322.958 287.482 328.764 264.227 340.237L259.409 342.615C236.826 338.793 217.754 310.384 214.585 305.128C214.539 305.06 214.499 304.987 214.465 304.912C211.397 299.018 210.66 264.694 219.818 249.9C230.81 232.218 261.482 228.288 261.482 228.288C261.823 228.16 262.163 228.052 262.504 227.944L263.426 227.669C263.831 227.532 264.227 227.414 264.624 227.316C265.278 227.139 265.923 226.962 266.558 226.815L266.78 226.756C289.602 221.412 305.873 234.919 314.69 246.678C314.976 247.061 315.261 247.434 315.529 247.817L316.312 248.937C316.527 249.239 316.729 249.543 316.92 249.851C317.205 250.273 317.482 250.696 317.74 251.108C318.366 252.091 318.919 253.073 319.417 253.947C319.457 254.014 319.494 254.083 319.527 254.154C319.684 254.419 319.813 254.674 319.942 254.92C320.209 255.421 320.449 255.902 320.661 256.354L320.9 256.835C321.324 257.769 321.665 258.594 321.904 259.291C321.96 259.429 321.997 259.547 322.043 259.674L322.125 259.95C322.125 260.048 322.126 260.126 322.199 260.215C322.273 260.303 322.282 260.549 322.319 260.686C323.775 267.779 306.039 281.502 299.469 290.884C292.9 300.265 302.814 311.798 304.316 312.083C305.817 312.368 324.705 307.564 325.82 315.757C326.935 323.95 304.417 363.323 304.417 363.323Z" fill="#8BA34A"/>
<path opacity="0.1" d="M268.733 337.978C267.296 338.705 265.812 339.452 264.255 340.218L259.436 342.595C236.854 338.774 217.782 310.364 214.612 305.108C214.567 305.04 214.527 304.968 214.492 304.892C211.424 298.998 210.687 264.675 219.846 249.88C230.837 232.198 261.509 228.269 261.509 228.269C261.85 228.141 262.191 228.033 262.532 227.925L263.453 227.65C263.859 227.512 264.255 227.394 264.651 227.296C265.305 227.119 265.95 226.942 266.586 226.795L266.807 226.736C259.049 233.239 252.443 241.118 245.828 248.878C242.52 252.808 238.623 256.393 235.803 260.667C233.548 264.307 232.197 268.498 231.878 272.848C230.791 284.125 233.224 294.902 237.941 304.981C242.548 314.804 248.583 324.628 257.05 331.052C260.7 333.802 264.617 336.124 268.733 337.978Z" fill="white"/>
<g style="mix-blend-mode:multiply" opacity="0.3">
<path d="M304.417 363.323C304.417 363.323 263.02 364.03 256.939 363.883C246.665 363.708 236.707 367.676 229.059 374.993C223.752 364.845 230.579 353.843 236.43 346.662C242.281 339.481 261.694 348.499 261.694 348.499C261.694 348.499 270.585 352.517 279.08 352.301C279.282 352.301 279.503 352.301 279.715 352.301C280.974 352.247 282.226 352.072 283.456 351.78C283.935 351.665 284.409 351.524 284.875 351.358C291.601 355.238 300.289 354.59 305.735 348.411C311.797 341.534 318.191 328.508 313.216 321.15C310.397 316.985 300.612 323.223 296.908 320.04C291.868 315.718 285.713 302.79 282.756 296.582C281.193 293.511 280.346 290.084 280.287 286.591C280.37 284.017 281.788 283.153 283.88 282.406C288.685 280.799 293.286 278.569 297.581 275.765C307.034 269.311 314.672 259.134 314.644 246.737C314.93 247.12 315.215 247.493 315.483 247.876L316.266 248.996C316.481 249.298 316.683 249.602 316.874 249.91C317.159 250.332 317.436 250.755 317.694 251.167C318.311 252.15 318.873 253.132 319.371 254.006C319.411 254.073 319.448 254.142 319.481 254.213C319.638 254.478 319.767 254.733 319.896 254.979C320.163 255.48 320.403 255.961 320.615 256.413L320.854 256.894C321.278 257.828 321.619 258.653 321.858 259.35C321.914 259.488 321.951 259.606 321.997 259.733L322.079 260.008C322.079 260.107 322.079 260.185 322.153 260.274C322.227 260.362 322.236 260.608 322.273 260.745C323.729 267.838 305.993 281.561 299.423 290.943C292.854 300.324 302.768 311.857 304.27 312.142C305.771 312.427 324.659 307.623 325.774 315.816C326.889 324.009 304.417 363.323 304.417 363.323Z" fill="#8BA34A"/>
</g>
<path d="M426.036 190.134C425.788 189.633 425.539 189.151 425.272 188.65C424.885 187.933 424.479 187.245 424.074 186.587C408.715 161.95 376.283 174.239 372.598 190.723C372.524 190.546 372.441 190.379 372.358 190.212C372.275 190.045 372.165 189.829 372.072 189.652C364.803 176.155 344.773 179.907 336.204 183.395C335.789 183.562 335.393 183.729 335.025 183.905L334.555 184.122C335.006 170.801 315.667 146.34 299.746 136.359C297.237 134.718 294.535 133.436 291.712 132.548C291.287 131.997 290.973 131.358 290.79 130.672C290.624 129.995 290.662 129.28 290.901 128.628C291.391 127.521 292.193 126.604 293.195 126.005C293.195 126.005 325.968 138.953 356.041 116.771C364.701 110.245 372.084 101.979 377.776 92.4382C378.117 91.8783 378.457 91.3184 378.789 90.7486C381.056 93.401 383.396 96.2007 385.709 99.1183C397.751 114.099 410.336 132.175 418.306 149.985C424.599 164.062 428.027 178.001 426.036 190.134Z" fill="#E2C49E"/>
<g style="mix-blend-mode:multiply" opacity="0.3">
<path d="M425.253 188.65C424.866 187.933 424.461 187.245 424.055 186.587C414.934 135.858 386.28 108.588 378.762 105.621C380.669 115.74 387.118 151.714 372.367 190.163C372.275 189.967 372.174 189.78 372.082 189.603C376.9 165.044 376.246 130.2 371.455 111.427C368.608 150.279 344.469 175.703 336.213 183.345C335.799 183.512 335.402 183.679 335.034 183.856C354.861 159.405 361.256 133.344 361.891 121.87C339.475 140.122 313.299 138.697 299.755 136.31C296.674 135.778 293.623 135.067 290.615 134.179L289.694 132.302C289.553 131.623 289.591 130.916 289.804 130.259C290.017 129.602 290.397 129.02 290.901 128.579C291.259 128.203 291.658 127.873 292.089 127.597C292.089 127.597 321.213 139.1 349.748 121.85C352.013 120.373 354.123 118.641 356.041 116.683C365.31 107.655 376.145 92.3891 377.684 92.34H377.776C378.817 92.4383 381.765 94.8548 385.709 99.02C394.922 108.745 409.599 128.029 418.306 149.886C423.272 162.451 426.294 175.781 425.253 188.65Z" fill="#E2C49E"/>
</g>
<path d="M426.036 190.133C418.021 136.045 387.643 107.016 379.895 103.942C381.839 114.256 388.491 151.419 372.644 190.664C378.08 166.056 377.564 129.227 372.588 109.747C369.198 155.987 335.651 183.208 334.61 184.053C355.654 159.081 362.371 131.988 363.015 120.2C331.689 145.741 293.057 132.793 291.748 132.509L290.827 130.642C290.118 127.695 293.232 125.966 293.232 125.966C293.232 125.966 322.347 137.469 350.881 120.219C360.666 114.325 376.91 90.7486 378.826 90.7486C383.212 90.5226 432.228 144.022 426.036 190.133Z" fill="#96B33C"/>
<path d="M83.5489 163.119C82.2664 165.685 81.6314 168.562 81.7061 171.469C82.047 178.689 86.7091 187.727 97.1297 185.605C110.406 176.322 103.736 175.781 103.736 175.781L91.4265 160.692L83.5489 163.119Z" fill="#E2C49E"/>
<path d="M93.4258 180.045C93.4258 180.045 84.2767 178.178 84.8203 169.003C85.3271 160.447 95.204 144.778 103.846 138.491C121.739 125.475 167.568 119.915 167.568 119.915L169.023 134.817L126.088 157.519L109.301 177.216C109.301 177.216 94.2643 184.082 93.4258 180.045Z" fill="#E0554B"/>
<path d="M106.445 171.233C106.445 171.233 101.009 160.722 102.105 159.543C103.201 158.364 112.572 164.111 112.572 164.111C112.572 164.111 110.618 173.149 106.445 171.233Z" fill="#F9DEE8"/>
<path d="M113.456 155.279C113.456 155.279 110.793 145.584 112.148 144.621C113.502 143.658 120.182 150.751 120.182 150.751C120.182 150.751 117.114 158.148 113.456 155.279Z" fill="#F9DEE8"/>
<path d="M128.355 148.599C128.355 148.599 128.355 139.454 129.792 138.992C131.229 138.53 135.32 146.517 135.32 146.517C135.32 146.517 130.833 152.087 128.355 148.599Z" fill="#F9DEE8"/>
<path d="M144.257 143.03C144.257 143.03 144.257 133.884 145.695 133.432C147.132 132.98 151.223 140.957 151.223 140.957C151.223 140.957 146.736 146.517 144.257 143.03Z" fill="#F9DEE8"/>
<path d="M93.4258 180.045C93.4258 180.045 92.5044 168.993 94.0063 168.257C95.5081 167.52 101.736 177.196 101.736 177.196C101.736 177.196 96.1899 183.846 93.4258 180.045Z" fill="#F9DEE8"/>
<path d="M171.631 81.2099C167.678 84.3141 163.726 87.4086 159.856 90.6307C160.252 91.613 148.468 99.7568 150.642 108.431C151.481 111.81 165.964 114.512 166.84 118.038C155.341 146.527 125.121 145.947 117.777 150.888C109.172 156.684 107.854 179.897 93.4627 180.045C93.4627 180.045 88.3952 188.886 99.8385 184.907C111.282 180.929 120.228 161.989 126.217 159.69C132.206 157.392 157.092 151.94 174.266 135.033C188.013 119.974 187.497 98.7351 187.091 93.175C180.54 92.3989 176.145 86.4852 171.631 81.2099Z" fill="#E2C49E"/>
<g style="mix-blend-mode:multiply" opacity="0.3">
<path d="M186.529 107.144C185.322 115.72 182.125 126.388 174.247 135.033C157.073 151.94 132.058 157.441 126.199 159.68C120.938 161.704 113.41 176.577 103.902 182.844C107.433 178.85 110.511 174.425 113.069 169.661C114.253 167.491 115.332 165.258 116.303 162.971C117.335 160.515 118.385 157.922 120.283 156.095C123.858 152.598 129.202 151.763 133.754 150.604C137.903 149.473 141.958 147.982 145.879 146.144C153.683 142.646 161.542 138.187 167.254 131.408C172.654 125.003 175.897 116.034 173.326 107.527C173.123 106.869 172.893 106.221 172.644 105.562C170.018 99.187 164.647 94.678 158.557 92.3203C159.404 91.446 159.948 90.8566 159.856 90.6307C163.053 87.9783 166.305 85.3947 169.567 82.8308L171.631 81.2099C172.036 81.6814 172.442 82.1922 172.838 82.6441C176.947 87.5559 181.13 92.4677 187.073 93.175C187.37 97.8386 187.188 102.523 186.529 107.144Z" fill="#E2C49E"/>
</g>
<path d="M161.671 132.941C153.24 137.646 138.029 140.092 129.469 137.951L129.092 137.843C128.52 137.686 127.949 137.528 127.387 137.352C122.071 136.792 110.941 141.919 110.093 148.423C109.365 153.708 102.474 162.716 96.8625 166.105C81.1994 175.526 66.4576 167.844 61.169 155.014C57.3546 145.819 59.3263 141.546 63.3434 138.049C61.6758 134.65 61.5007 127.243 66.2273 124.63L66.3931 124.542C67.1311 124.149 67.9614 123.999 68.7794 124.109C69.4427 123.265 70.1535 122.465 70.9078 121.712C72.9987 119.649 75.2624 117.795 77.6706 116.172C80.6614 114.195 84.0938 113.106 87.612 113.019C88.6255 108.5 92.6887 105.327 96.9454 103.765C96.0014 100.928 95.6767 97.8987 95.9961 94.9077C96.3154 91.9168 97.2703 89.043 98.7881 86.5048C99.774 84.9723 101.875 81.7404 104.602 81.4162C105.31 79.7234 106.123 78.0825 107.034 76.5044C107.751 75.2586 108.538 74.0611 109.393 72.9188C112.492 68.8193 116.374 65.4705 120.781 63.0953C129.669 58.1116 140.049 57.095 149.64 60.2689C159.231 63.4429 167.247 70.5477 171.926 80.0212C176.947 90.2574 161.293 95.6702 159.506 105.435C176.284 111.692 170.608 127.95 161.671 132.941Z" fill="#8BA34A"/>
<path opacity="0.1" d="M61.0493 140.446C62.7919 143.385 65.0544 145.934 67.7107 147.951C72.4096 151.478 78.767 152.863 84.1017 149.994C88.8927 147.372 92.2281 141.792 95.0566 137.096C96.4018 134.856 97.6917 132.626 98.9356 130.318C99.8569 128.618 100.889 126.605 102.547 125.593C103.788 124.967 105.158 124.69 106.528 124.787C107.436 124.892 108.356 124.764 109.209 124.414C110.36 123.726 110.222 122.184 110.066 120.976C110.05 120.91 110.049 120.841 110.062 120.774C110.076 120.708 110.103 120.645 110.142 120.591C110.181 120.538 110.23 120.494 110.287 120.463C110.344 120.433 110.407 120.417 110.471 120.416C113.124 120.337 115.594 121.211 118.174 121.771C120.235 122.168 122.326 122.368 124.42 122.371C128.646 122.627 132.884 122.156 136.969 120.976C141.622 119.433 144.34 116.123 144.34 110.769C144.34 106.113 143.52 101.751 144.147 97.075C144.782 92.2516 146.579 87.4577 146.321 82.5361C146.183 79.8444 145.197 77.2903 142.636 76.3473C140.424 75.5221 137.955 76.0034 135.744 76.5437C132.289 77.3787 123.066 81.0626 122.108 74.6674C121.748 72.2705 122.633 69.677 123.305 67.4373C124.036 65.3057 124.652 63.1311 125.148 60.9243C123.638 61.5202 122.164 62.2157 120.735 63.0069C116.328 65.3821 112.446 68.7309 109.347 72.8304C108.492 73.9727 107.704 75.1702 106.988 76.416C106.076 77.9941 105.264 79.635 104.556 81.3278C101.792 81.652 99.7279 84.8839 98.7421 86.4164C97.2242 88.9546 96.2693 91.8284 95.95 94.8194C95.6307 97.8103 95.9554 100.839 96.8993 103.676C92.6427 105.238 88.6071 108.411 87.566 112.93C84.0478 113.017 80.6154 114.106 77.6245 116.084C75.2163 117.706 72.9526 119.561 70.8618 121.624C70.1074 122.376 69.3967 123.177 68.7334 124.021C67.9154 123.911 67.085 124.061 66.3471 124.453L66.1812 124.542C61.4915 127.155 61.6297 134.562 63.2974 137.961C62.4597 138.693 61.7052 139.527 61.0493 140.446Z" fill="white"/>
<g style="mix-blend-mode:multiply" opacity="0.2">
<path d="M159.506 105.356C160.805 98.2341 169.484 93.4206 172.138 87.3594C169.502 88.8723 166.775 90.1591 164.103 91.5934C160.611 93.4599 155.811 95.8273 154.65 100.179C152.872 107.056 157.783 113.844 156.696 120.809C155.277 129.807 144.045 129.198 137.66 128.736C133.422 128.422 129.175 127.705 124.918 127.675C118.468 127.675 111.936 130.622 106.786 134.601C100.815 139.208 96.9638 145.22 93.3613 151.92C90.4682 157.284 86.9118 162.068 80.7755 162.942C70.0049 164.474 60.2016 154.101 59.6949 142.99C58.6629 145.849 58.8841 149.562 61.1506 155.044C66.4668 167.814 81.2178 175.555 96.844 166.125C102.455 162.745 109.347 153.747 110.075 148.442C110.922 141.939 122.052 136.811 127.369 137.371C127.931 137.548 128.502 137.715 129.073 137.862L129.46 137.97C138.02 140.112 153.231 137.666 161.662 132.96C170.608 127.96 176.284 111.692 159.506 105.356Z" fill="#8BA34A"/>
</g>
<g style="mix-blend-mode:multiply" opacity="0.3">
<path d="M186.529 107.144C183.722 107.426 180.897 107.426 178.09 107.144C176.217 106.861 174.386 106.319 172.644 105.533C165.789 102.684 156.309 96.3873 154.88 89.1277C157.396 85.8859 163.597 83.3613 167.595 82.9782L169.567 82.8013C170.691 82.7129 171.778 82.654 172.838 82.6147C176.947 87.5265 181.13 92.4382 187.073 93.1455C187.372 97.8189 187.19 102.513 186.529 107.144Z" fill="#8BA34A"/>
</g>
<path d="M156.511 87.7131C159.027 84.4713 165.227 81.9368 169.226 81.5537C194.785 79.1273 206.025 87.1728 212.401 89.4126C208.522 95.179 200.423 107.635 179.73 105.71C174.367 105.258 158.409 97.3205 156.511 87.7131Z" fill="#8BA34A"/>
<g style="mix-blend-mode:multiply" opacity="0.3">
<path d="M163.744 92.3007C166.613 93.8174 169.668 94.8955 172.819 95.5032C177.847 96.8341 183.053 97.2263 188.206 96.6624C195.89 95.6309 202.883 92.3891 209.397 88.165C202.588 85.1099 191.2 79.4711 169.244 81.5537C165.467 81.9172 159.754 84.1864 157 87.163C159.107 89.0757 161.364 90.7944 163.744 92.3007Z" fill="#8BA34A"/>
</g>
<path d="M111.217 88.833C113.189 92.4972 109.375 100.454 105.91 102.586C102.446 104.718 100.124 104.698 98.1524 101.034C96.1807 97.3697 98.005 88.1355 101.442 86.0431C103.086 85.0345 105.038 84.7618 106.87 85.2847C108.702 85.8076 110.266 87.0836 111.217 88.833Z" fill="white"/>
<path d="M79.0434 142.155C77.9562 138.167 77.8825 133.864 79.2276 130.446C79.6699 129.316 80.8677 126.261 83.2632 125.278C85.2533 124.787 88.4689 126.575 90.155 129.09C91.0763 130.455 91.6291 132.037 90.7723 133.294C89.2613 135.573 86.7552 136.556 84.8295 138.324C83.8453 139.133 83.0479 140.171 82.4985 141.36C82.1808 142.036 81.9336 142.748 81.7614 143.481C81.7274 143.983 81.625 144.476 81.4573 144.945C80.8769 145.79 79.9832 144.945 79.6146 144.071C79.3751 143.383 79.2092 142.666 79.0434 142.155Z" fill="#314A20"/>
<g style="mix-blend-mode:multiply" opacity="0.3">
<path d="M82.7196 136.35C83.387 135.697 84.1616 135.18 85.0046 134.827C85.7785 134.449 86.4148 133.811 86.8159 133.011C87.217 132.211 87.3607 131.292 87.2251 130.396C86.9763 128.098 85.5205 125.485 83.2079 125.308C80.8492 126.29 79.6699 129.326 79.2276 130.446C77.8825 133.864 77.9562 138.167 79.0434 142.155C79.2092 142.666 79.3751 143.383 79.6423 144.071C79.9095 144.759 80.7018 145.613 81.2731 145.132C80.9782 142.175 80.7663 138.658 82.7196 136.35Z" fill="#314A20"/>
</g>
<path d="M67.5725 140.731C65.725 138.494 64.7061 135.616 64.707 132.636C64.707 131.654 64.7992 129.031 66.2365 127.282C67.5172 126.054 70.2352 125.828 72.0687 126.801C73.073 127.322 73.8561 128.117 73.5797 129.394C73.1006 131.634 71.5804 133.432 70.6774 135.505C70.1932 136.473 69.8985 137.535 69.8114 138.629C69.7514 139.223 69.7514 139.822 69.8114 140.416C69.9241 140.784 69.9801 141.169 69.9772 141.556C69.7837 142.401 68.9453 142.234 68.4754 141.772C68.0055 141.31 67.8212 141.006 67.5725 140.731Z" fill="#314A20"/>
<g style="mix-blend-mode:multiply" opacity="0.3">
<path d="M68.2082 134.562C69.2033 131.693 71.9674 129.65 70.8065 126.359C70.022 126.144 69.2028 126.115 68.4067 126.274C67.6107 126.434 66.8572 126.778 66.1997 127.282C64.7624 129.031 64.6979 131.664 64.6702 132.636C64.6693 135.616 65.6881 138.495 67.5356 140.731C67.7844 141.006 68.0792 141.418 68.457 141.772C67.812 139.464 67.3974 136.909 68.2082 134.562Z" fill="#314A20"/>
</g>
<path d="M106.583 96.682C107.019 97.5683 107.198 98.5725 107.099 99.5676C107 100.563 106.626 101.504 106.025 102.273C105.423 103.041 104.622 103.602 103.722 103.885C102.821 104.168 101.863 104.16 100.967 103.861C100.071 103.563 99.2778 102.988 98.6883 102.209C98.0988 101.431 97.7392 100.483 97.655 99.4863C97.5707 98.4896 97.7656 97.4886 98.2149 96.61C98.6643 95.7314 99.3479 95.0146 100.179 94.5503C101.294 93.9308 102.594 93.8072 103.794 94.2067C104.994 94.6062 105.997 95.4962 106.583 96.682Z" fill="#314A20"/>
<path d="M134.15 94.4521C136.545 100.533 128.714 110.651 123.011 113.205C117.307 115.759 114.322 114.777 111.954 108.706C109.586 102.635 113.797 90.6209 119.509 88.0766C122.244 86.8583 125.321 86.8452 128.065 88.0401C130.809 89.2351 132.997 91.5407 134.15 94.4521Z" fill="white"/>
<path d="M123.084 104.472C123.782 105.46 124.189 106.645 124.254 107.879C124.319 109.113 124.039 110.34 123.45 111.405C122.861 112.47 121.989 113.324 120.944 113.86C119.9 114.396 118.73 114.59 117.582 114.416C116.434 114.243 115.36 113.711 114.496 112.887C113.632 112.062 113.017 110.984 112.728 109.787C112.439 108.589 112.49 107.328 112.874 106.162C113.258 104.995 113.957 103.977 114.884 103.234C115.499 102.741 116.198 102.381 116.943 102.176C117.688 101.971 118.463 101.925 119.225 102.04C119.987 102.155 120.72 102.429 121.382 102.846C122.044 103.264 122.623 103.816 123.084 104.472Z" fill="#314A20"/>
<path d="M116.764 110.288C116.94 110.508 117.051 110.779 117.081 111.067C117.111 111.355 117.059 111.645 116.932 111.901C116.805 112.157 116.609 112.367 116.369 112.502C116.129 112.638 115.856 112.693 115.586 112.662C115.316 112.63 115.062 112.513 114.855 112.325C114.649 112.137 114.5 111.887 114.428 111.608C114.356 111.328 114.365 111.033 114.453 110.759C114.541 110.485 114.704 110.245 114.921 110.072C115.194 109.844 115.539 109.739 115.884 109.78C116.228 109.82 116.544 110.002 116.764 110.288Z" fill="white"/>
<path d="M125.996 78.2432C125.996 78.2432 129.847 52.5153 136.002 37.1906C136.002 37.1906 149.877 57.4664 155.185 62.3094C144.101 74.4415 125.996 78.2432 125.996 78.2432Z" fill="#314A20"/>
<path opacity="0.1" d="M134.887 56.5724C135.094 50.6856 135.926 44.8427 137.365 39.1553L136.011 37.1906C129.856 52.5153 126.005 78.2432 126.005 78.2432C130.014 77.3081 133.936 75.9931 137.725 74.3138C136.039 68.508 134.647 62.663 134.887 56.5724Z" fill="white"/>
<path d="M101.865 101.869C101.842 102.242 101.682 102.589 101.42 102.837C101.158 103.085 100.815 103.214 100.465 103.195C100.217 103.17 99.9805 103.068 99.7856 102.902C99.5907 102.736 99.4455 102.513 99.368 102.26C99.2904 102.007 99.2838 101.736 99.3489 101.479C99.4141 101.222 99.5482 100.991 99.7347 100.815C99.9213 100.638 100.152 100.523 100.399 100.485C100.646 100.446 100.898 100.485 101.124 100.597C101.351 100.709 101.541 100.889 101.673 101.115C101.805 101.341 101.872 101.603 101.865 101.869Z" fill="white"/>
<path d="M119.113 84.6285C119.113 84.6285 128.161 77.752 136.343 83.3416C135.808 87.2121 135.32 87.9783 135.32 87.9783C135.32 87.9783 131.561 83.0666 124.07 84.6088C120.514 85.1 119.528 86.0136 119.528 86.0136L119.113 84.6285Z" fill="#314A20"/>
<path d="M111.42 84.2258C111.42 84.2258 109.577 76.2982 102.907 75.3846C102.289 76.2772 101.816 77.2732 101.506 78.3317C101.506 78.3317 105.523 77.5654 108.822 81.9173C110.489 83.882 110.664 84.8643 110.664 84.8643L111.42 84.2258Z" fill="#314A20"/>
<path d="M245.561 119.708C245.561 119.708 240.337 134.955 229.243 142.715C218.15 150.476 207.813 122.675 203.003 119.689C198.194 116.702 185.396 131.605 169.125 132.459C164.421 132.688 159.832 134.081 155.721 136.528C151.609 138.974 148.088 142.408 145.437 146.556C144.515 151.468 145.344 156.193 147.279 160.859C147.279 160.859 152.282 150.417 153.498 150.053C154.715 149.69 167.079 145.289 168.581 146.949C170.083 148.609 161.321 152.706 161.735 156.989C162.369 161.344 163.224 165.66 164.297 169.917L169.152 159.749C169.152 159.749 176.422 156.478 179.619 158.187C188.252 162.804 198.875 133.707 198.875 133.707C198.875 133.707 196.111 207.462 244.52 218.258C292.928 229.054 276.325 141.34 245.561 119.708Z" fill="#8BA34A"/>
<g style="mix-blend-mode:multiply" opacity="0.3">
<path d="M274.648 194.426C272.326 198.7 269.12 202.462 264.771 204.368C260.506 206.066 255.829 206.183 251.494 204.702C242.281 201.902 234.191 194.878 228.064 187.177C223.045 180.72 218.718 173.685 215.165 166.203C213.249 162.274 211.48 158.345 209.803 154.297C208.311 151.046 206.986 147.711 205.832 144.307C204.91 141.232 203.63 129.974 198.931 131.399C195.844 132.381 193.799 136.31 191.891 138.815C189.601 141.584 186.833 143.859 183.737 145.515C179.131 148.079 173.87 148.619 170.35 143.894C168.1 140.66 166.964 136.698 167.135 132.676C162.786 133.192 158.592 134.702 154.841 137.105C151.09 139.507 147.87 142.744 145.4 146.596C144.478 151.507 145.308 156.232 147.242 160.899C147.242 160.899 152.245 150.456 153.462 150.093C154.678 149.729 167.042 145.328 168.544 146.988C170.046 148.649 161.284 152.745 161.699 157.028C162.332 161.384 163.187 165.699 164.26 169.956L169.115 159.789C169.115 159.789 176.385 156.517 179.582 158.227C188.215 162.844 198.839 133.746 198.839 133.746C198.839 133.746 196.074 207.502 244.483 218.298C263.877 222.64 272.851 211.146 274.648 194.426Z" fill="#8BA34A"/>
</g>
<g style="mix-blend-mode:multiply" opacity="0.3">
<path d="M216.731 61.5726C215.34 65.7673 214.64 71.1506 216.05 75.4435C216.602 77.1331 217.496 79.6185 219.256 80.1981C221.522 80.7677 223.881 80.7677 226.148 80.1981C230.754 79.2157 237.056 77.3493 237.766 71.4748C238.162 68.2232 235.066 65.836 232.671 64.3723C229.123 62.2932 225.179 61.1007 221.135 60.885C219.127 60.7474 217.339 60.4233 216.731 61.5726Z" fill="#8BA34A"/>
</g>
<g style="mix-blend-mode:multiply" opacity="0.3">
<path d="M408.531 283.388C407.13 287.593 406.439 292.966 407.84 297.269C408.392 298.949 409.295 301.434 411.055 302.014C413.319 302.579 415.674 302.579 417.938 302.014C422.545 301.032 428.847 299.155 429.565 293.291C429.952 290.039 426.856 287.652 424.47 286.188C420.924 284.104 416.979 282.908 412.935 282.691C410.917 282.563 409.12 282.239 408.531 283.388Z" fill="#8BA34A"/>
</g>
<g style="mix-blend-mode:multiply" opacity="0.3">
<path d="M227.576 274.94C226.175 279.145 225.484 284.518 226.885 288.821C227.437 290.501 228.34 292.986 230.1 293.566C232.359 294.157 234.717 294.173 236.983 293.615C241.59 292.633 247.892 290.756 248.601 284.892C248.997 281.64 245.902 279.253 243.506 277.789C239.964 275.703 236.021 274.507 231.98 274.292C229.971 274.115 228.175 273.791 227.576 274.94Z" fill="#8BA34A"/>
</g>
<g style="mix-blend-mode:multiply" opacity="0.3">
<path d="M273.496 131.359C272.4 134.64 271.856 138.845 272.962 142.165C273.386 143.481 274.095 145.427 275.468 145.878C277.238 146.32 279.079 146.32 280.849 145.878C284.433 145.083 289.371 143.639 289.924 139.061C290.237 136.517 287.814 134.65 285.944 133.511C283.174 131.881 280.092 130.947 276.933 130.78C275.367 130.711 274.012 130.455 273.496 131.359Z" fill="#8BA34A"/>
</g>
<g style="mix-blend-mode:multiply" opacity="0.3">
<path d="M224.028 181.243C226.616 181.329 229.161 180.527 231.289 178.954C232.044 178.306 233.131 177.304 233.131 176.164C232.995 174.732 232.547 173.353 231.823 172.137C230.413 169.651 228.248 166.321 225.097 167.038C223.347 167.431 222.72 169.71 222.435 171.39C222.052 173.862 222.2 176.395 222.868 178.797C223.144 179.996 223.337 181.106 224.028 181.243Z" fill="#8BA34A"/>
</g>
<path d="M222.048 50.5703C222.969 52.2894 224.812 53.2717 226.442 54.1067C228.207 55.1189 230.25 55.4321 232.21 54.9909C234.467 54.5488 236.006 51.641 235.896 49.3423C235.711 46.5229 232.311 44.7743 229.98 44.794C228.122 44.7748 226.311 45.4217 224.839 46.631C224.056 47.299 222.103 48.8904 222.048 50.5703Z" fill="#96B33C"/>
<path opacity="0.1" d="M238.153 63.7731C237.232 64.1071 235.205 62.9185 234.606 61.9754C234.07 61.0614 233.804 59.9972 233.841 58.9203C233.841 57.2797 234.32 55.541 235.969 54.9908C237.904 54.4014 239.157 55.4918 239.996 57.211C240.697 58.4768 240.939 59.9722 240.677 61.4154C240.346 62.722 239.305 63.999 238.153 63.7731Z" fill="white"/>
<path opacity="0.1" d="M345.924 221.805C345.003 222.139 342.976 220.95 342.377 220.007C341.841 219.094 341.577 218.028 341.622 216.952C341.622 215.311 342.101 213.573 343.75 213.072C345.676 212.482 346.929 213.573 347.767 215.292C348.466 216.558 348.712 218.052 348.458 219.496C348.117 220.754 347.076 221.982 345.924 221.805Z" fill="white"/>
<path opacity="0.1" d="M257.538 283.595C256.617 283.929 254.59 282.74 253.991 281.797C253.456 280.883 253.189 279.819 253.226 278.742C253.226 277.092 253.715 275.363 255.355 274.813C257.29 274.223 258.543 275.314 259.381 277.033C260.081 278.299 260.327 279.793 260.072 281.237C259.731 282.534 258.69 283.772 257.538 283.595Z" fill="white"/>
<path opacity="0.1" d="M443.902 288.035C442.98 288.369 440.953 287.18 440.354 286.237C439.819 285.327 439.556 284.265 439.599 283.192C439.599 281.542 440.078 279.803 441.727 279.263C443.653 278.683 444.906 279.764 445.744 281.483C446.444 282.749 446.689 284.243 446.435 285.687C446.094 286.994 445.053 288.212 443.902 288.035Z" fill="white"/>
<path d="M242.686 51.6115C241.82 52.8689 242.686 60.6492 243.377 61.9754C244.007 63.158 244.939 64.1255 246.064 64.7655C247.19 65.4055 248.462 65.6916 249.734 65.5904C251.108 65.4002 252.414 64.8426 253.53 63.9696C254.041 63.5752 254.444 63.044 254.7 62.4298C254.955 61.8157 255.054 61.1404 254.986 60.4724C254.986 57.8888 252.968 55.6195 251.135 54.1067C249.307 52.607 247.178 51.5782 244.916 51.1007C244.16 50.9435 243.211 50.7176 242.686 51.6115Z" fill="#96B33C"/>
<path d="M389.864 272.985C388.943 274.243 389.864 282.023 390.555 283.349C391.181 284.534 392.11 285.503 393.235 286.143C394.359 286.783 395.632 287.068 396.903 286.964C398.277 286.777 399.584 286.22 400.699 285.343C401.211 284.951 401.616 284.42 401.872 283.806C402.128 283.191 402.226 282.515 402.155 281.846C402.155 279.263 400.137 276.993 398.313 275.481C396.482 273.979 394.35 272.95 392.084 272.475C391.338 272.317 390.38 272.092 389.864 272.985Z" fill="#96B33C"/>
<path d="M325.028 198.965C324.162 200.222 325.028 208.003 325.719 209.339C326.35 210.52 327.283 211.486 328.408 212.126C329.533 212.765 330.805 213.052 332.076 212.954C333.451 212.761 334.757 212.2 335.872 211.323C336.384 210.93 336.788 210.399 337.044 209.785C337.3 209.17 337.398 208.494 337.328 207.826C337.328 205.242 335.31 202.983 333.486 201.46C331.649 199.97 329.52 198.942 327.258 198.454C326.53 198.307 325.553 198.081 325.028 198.965Z" fill="#96B33C"/>
<path d="M252.904 287.868C251.982 289.135 252.904 296.916 253.595 298.242C254.222 299.424 255.152 300.392 256.276 301.032C257.401 301.672 258.672 301.958 259.943 301.857C261.317 301.67 262.624 301.112 263.739 300.236C264.249 299.842 264.653 299.31 264.908 298.696C265.164 298.082 265.263 297.407 265.195 296.739C265.195 294.155 263.177 291.886 261.353 290.373C259.522 288.872 257.39 287.843 255.124 287.367C254.378 287.21 253.42 286.994 252.904 287.868Z" fill="#96B33C"/>
<g style="mix-blend-mode:multiply" opacity="0.3">
<path d="M340.157 233.632C340.783 232.218 338.47 224.791 337.586 223.602C336.755 222.572 335.668 221.815 334.449 221.419C333.231 221.022 331.932 221.003 330.703 221.363C329.389 221.839 328.207 222.66 327.267 223.75C326.839 224.243 326.542 224.848 326.404 225.504C326.267 226.159 326.294 226.842 326.484 227.483C326.935 230.017 329.34 231.825 331.413 232.925C333.48 234.022 335.757 234.593 338.065 234.595C338.83 234.585 339.806 234.615 340.157 233.632Z" fill="#8BA34A"/>
</g>
<g style="mix-blend-mode:multiply" opacity="0.3">
<path d="M485.381 186.253C484.067 186.721 482.887 187.539 481.954 188.631C481.523 189.122 481.223 189.727 481.083 190.383C480.944 191.039 480.971 191.722 481.161 192.363C481.613 194.898 484.027 196.705 486.091 197.816" fill="#8BA34A"/>
</g>
<g style="mix-blend-mode:multiply" opacity="0.3">
<path d="M248.435 268.329C249.062 266.914 246.749 259.488 245.865 258.309C245.032 257.279 243.943 256.522 242.723 256.126C241.503 255.729 240.203 255.71 238.973 256.069C237.661 256.547 236.483 257.368 235.545 258.456C235.115 258.948 234.814 259.552 234.675 260.208C234.536 260.864 234.563 261.548 234.753 262.189C235.204 264.724 237.618 266.531 239.692 267.632C241.767 268.733 244.053 269.308 246.371 269.311C247.108 269.311 248.085 269.311 248.435 268.329Z" fill="#8BA34A"/>
</g>
<path opacity="0.1" d="M244.004 67.2998C243.221 67.3327 242.469 67.6304 241.856 68.1497C241.243 68.669 240.801 69.3829 240.595 70.1879C240.481 70.639 240.449 71.1093 240.502 71.573C240.543 72.2377 240.8 72.8665 241.229 73.3508C241.658 73.835 242.232 74.1444 242.852 74.2254C243.645 74.3626 244.456 74.3178 245.231 74.0942C246.007 73.8706 246.728 73.4733 247.348 72.9287C248.417 71.8383 248.067 69.8146 247.072 68.8028C246.687 68.3425 246.218 67.9709 245.693 67.7108C245.169 67.4507 244.6 67.3075 244.022 67.29L244.004 67.2998Z" fill="white"/>
<g style="mix-blend-mode:multiply" opacity="0.3">
<path d="M242.732 77.3787C240.622 78.42 240.115 82.4575 241.534 84.2552C242.953 86.0529 246.51 86.2887 248.279 84.7857C249.55 83.7149 250.167 80.8562 249.126 79.3434C248.303 78.2935 247.202 77.5333 245.966 77.1626C244.824 76.8679 244.215 77.1331 242.732 77.3787Z" fill="#8BA34A"/>
</g>
<g style="mix-blend-mode:multiply" opacity="0.3">
<path d="M429.934 281.856C427.824 282.897 427.308 286.945 428.736 288.782C430.164 290.619 433.711 290.815 435.48 289.312C436.752 288.232 437.323 285.334 436.328 283.86C435.503 282.809 434.398 282.052 433.159 281.689C432.025 281.355 431.417 281.62 429.934 281.856Z" fill="#8BA34A"/>
</g>
<g style="mix-blend-mode:multiply" opacity="0.3">
<path d="M238.466 43.9492C237.084 44.6368 236.752 47.2892 237.683 48.4975C238.275 49.0844 239.036 49.4384 239.842 49.5009C240.648 49.5634 241.45 49.3307 242.115 48.8413C242.567 48.3961 242.867 47.8025 242.968 47.1547C243.068 46.5069 242.962 45.842 242.668 45.2655C242.126 44.5803 241.404 44.0841 240.595 43.8411C239.888 43.6896 239.156 43.7267 238.466 43.9492Z" fill="#8BA34A"/>
</g>
<g style="mix-blend-mode:multiply" opacity="0.3">
<path d="M282.175 94.2359C280.499 95.0611 280.093 98.2734 281.254 99.7273C282.415 101.181 285.197 101.338 286.607 100.15C287.611 99.2951 288.1 96.9964 287.271 95.8274C286.619 94.9935 285.745 94.3906 284.764 94.0984C283.903 93.9248 283.016 93.972 282.175 94.2359Z" fill="#8BA34A"/>
</g>
<g style="mix-blend-mode:multiply" opacity="0.3">
<path d="M295.719 149.582C294.052 150.407 293.646 153.619 294.798 155.073C295.95 156.527 298.751 156.684 300.151 155.496C301.155 154.641 301.644 152.332 300.824 151.173C300.169 150.339 299.292 149.736 298.308 149.444C297.448 149.265 296.559 149.312 295.719 149.582Z" fill="#8BA34A"/>
</g>
<path d="M237.158 185.811C235.49 186.636 235.085 189.849 236.236 191.303C237.388 192.756 240.18 192.914 241.58 191.725C242.585 190.87 243.073 188.562 242.253 187.403C241.601 186.569 240.727 185.966 239.747 185.674C238.886 185.496 237.998 185.543 237.158 185.811Z" fill="#96B33C"/>
<path opacity="0.1" d="M236.522 172.471C234.845 173.296 234.44 176.508 235.601 177.962C236.762 179.416 239.544 179.583 240.945 178.385C241.958 177.53 242.446 175.231 241.617 174.062C240.968 173.228 240.093 172.627 239.111 172.343C238.251 172.16 237.362 172.204 236.522 172.471Z" fill="white"/>
<path d="M14.9445 231.392C19.9751 229.663 24.0659 224.329 29.4927 223.386C34.2745 222.561 39.6276 223.622 44.3542 224.31C48.0397 224.86 53.3467 226.274 57.0505 225.292C59.4737 224.644 62.0443 222.011 63.7396 220.105C63.7396 224.919 59.5659 229.005 55.5395 232.08C60.3582 232.434 68.8716 226.53 71.2026 222.325C74.0089 217.101 75.6189 211.245 75.9016 205.232C75.9753 203.051 76.0951 201.136 77.2191 199.26C78.3432 197.383 79.9832 197.373 81.1441 195.89C83.4107 193.002 82.867 187.687 82.867 184.102C82.867 178.051 82.867 173.158 88.6992 170.427C87.5752 169.082 86.4603 168.374 84.8387 168.62C78.4445 169.602 77.9746 173.846 76.4544 176.921C74.2431 181.42 72.7689 184.78 68.0239 185.693C64.4122 186.371 59.5659 183.837 58.4418 180.035C57.4099 176.538 49.2282 176.105 46.5931 180.261C44.8518 179.534 45.0452 179.092 43.525 177.893C41.0005 175.929 36.5595 176.351 33.6112 177.107C27.7421 178.61 21.2281 189.524 16.2989 192.825" fill="#E0554B"/>
<path d="M16.262 192.864C20.3436 191.794 24.4897 186.116 28.8846 184.623C32.8004 183.287 33.1781 184.013 36.2555 185.094C26.8668 188.768 29.0597 200.753 27.9633 209.653C26.8023 219.476 22.2416 226.265 14.8984 231.363" fill="#E0554B"/>
<path d="M85.9352 170.093C81.3284 169.818 78.509 177.373 76.9519 181.135C75.6436 184.269 74.8236 188.297 71.7555 190.202C69.7536 191.345 67.4869 191.853 65.223 191.666C62.1457 191.293 59.529 187.56 57.5204 185.006C54.351 180.968 51.5408 183.041 48.8412 186.273C44.8241 191.096 39.0011 190.703 33.3901 191.725C34.7445 192.079 38.393 191.253 39.1301 192.707C40.0976 194.672 36.3016 197.884 35.4447 199.152C31.7593 204.417 34.9656 211.775 30.2667 216.706C33.0247 214.582 36.3761 213.515 39.7751 213.681C44.3819 213.681 48.7307 216.323 53.3743 215.37C60.4227 213.926 60.3767 207.109 64.6518 202.383C64.2832 205.105 63.8594 206.706 64.2003 209.329C64.4306 211.097 64.9742 212.914 64.8084 214.771C65.7298 211.284 65.3704 207.138 66.9644 203.818C67.9687 201.706 70.1707 199.81 71.7462 198.189C74.197 195.654 76.1688 193.002 76.9888 189.299C77.8088 185.595 77.8272 183.581 79.4119 180.241C80.5268 177.825 83.77 170.938 85.9352 170.093Z" fill="#EFD225"/>
<path d="M80.3701 199.564C79.5153 201.332 78.9749 203.254 78.7762 205.232C78.638 207.128 79.2 208.582 79.6976 210.36C80.1132 211.797 80.1436 213.33 79.7855 214.785C79.4273 216.239 78.6947 217.558 77.6706 218.592C82.7749 217.836 83.6686 212.502 82.1576 208.219C81.2086 205.566 79.6515 202.442 80.3701 199.564Z" fill="#E0554B"/>
</g>
<defs>
<clipPath id="clip0_79_297">
<rect width="538" height="412" fill="white" transform="translate(0 -14)"/>
</clipPath>
</defs>
</svg>
