<svg width="295" height="368" viewBox="0 0 295 368" fill="none" xmlns="http://www.w3.org/2000/svg">
<g clip-path="url(#clip0_185_2178)">
<path d="M16.1534 197.821C15.4402 188.551 14.2234 179.323 12.7549 170.137C11.9997 165.522 11.1187 160.95 10.1956 156.378C9.73409 154.071 9.18867 151.806 8.64323 149.499C8.09779 147.192 7.67818 145.304 7.30057 142.913C6.09698 133.932 5.8578 124.847 6.58724 115.815C6.96486 111.327 7.42637 106.797 8.13964 102.308C8.51725 100.085 8.9369 97.8621 9.39842 95.6808C9.83212 93.5983 10.4211 91.5512 11.1605 89.5566C14.5591 81.1672 18.4612 72.7778 22.6569 64.5982C26.7153 56.4845 31.5339 48.7738 37.0481 41.5694C38.4727 39.8565 39.9999 38.2315 41.6214 36.7035C43.2997 35.0676 44.978 33.4317 46.6143 31.7538C49.887 28.398 53.0757 25.0003 56.1805 21.5188C62.3482 14.5556 68.348 7.46654 73.9703 0C67.2571 6.45982 60.586 12.9196 53.7889 19.2117C50.4324 22.3996 47.0338 25.5037 43.5514 28.5658L38.3068 32.9702C36.4473 34.5283 34.6952 36.21 33.0621 38.0039C26.8491 45.1883 21.4722 53.0548 17.0346 61.4522C12.5382 69.7011 8.49038 78.1867 4.90899 86.872C4.0372 89.2308 3.36351 91.6581 2.895 94.1288C2.39152 96.4778 1.972 98.8269 1.63634 101.176C0.91194 105.859 0.435777 110.578 0.209819 115.312C-0.300751 124.821 0.347313 134.357 2.13981 143.71C2.64329 146.059 3.27262 148.492 3.94393 150.673L5.91592 157.301C7.21659 161.495 8.39145 166.194 9.52429 170.682C11.8739 179.784 13.9717 188.803 16.1534 197.821Z" fill="#261705"/>
<path d="M127.885 92.9961C126.027 94.1389 124.563 95.822 123.689 97.82C122.724 99.9593 120.836 100.84 121.34 102.686C121.843 104.532 120.375 106.461 118.151 107.803C115.927 109.146 114.543 110.404 116.221 111.704C117.899 113.005 117.606 112.753 117.354 113.214C117.102 113.676 116.011 114.179 116.85 115.438C116.85 115.438 115.676 116.151 116.179 117.199C116.683 118.248 116.976 118.668 116.179 119.339C115.382 120.01 113.62 122.317 115.634 124.079C117.648 125.841 122.85 126.302 123.228 127.225C123.606 128.148 122.095 130.035 123.647 133.643C125.2 137.25 124.738 138.467 124.738 138.467C124.738 138.467 139.214 144.087 147.102 138.467C147.102 138.467 143.157 129.154 144.248 127.77C144.248 127.77 141.311 127.77 141.983 126.344C141.983 126.344 141.102 124.247 141.773 123.366C141.773 123.366 141.773 120.681 143.074 119.842C143.065 119.507 143.133 119.175 143.271 118.87C143.409 118.565 143.614 118.295 143.871 118.08C144.844 117.472 145.606 116.579 146.053 115.522C146.598 114.179 141.647 107.132 141.563 106.671C141.479 106.209 140.64 104.49 141.311 103.86C141.983 103.231 141.941 102.686 141.563 102.182C141.186 101.679 127.885 92.9961 127.885 92.9961Z" fill="#FDB171"/>
<path d="M144.038 128.945C144.332 123.492 148.234 120.891 151.759 116.948C154.07 114.158 155.771 110.914 156.751 107.426C157.085 104.899 156.667 102.329 155.547 100.038C154.428 97.7477 152.657 95.8381 150.458 94.5482C141.731 89.5566 130.654 88.8435 131.242 84.0615C131.242 84.0615 125.409 89.4307 127.046 93.7512C129.938 96.0044 132.124 99.0394 133.343 102.497C134.563 105.954 134.765 109.688 133.927 113.257L136.067 114.389C136.067 114.389 137.577 108.768 140.556 110.194C143.535 111.621 140.556 114.095 140.556 115.648C140.556 117.2 141.479 120.388 138.332 119.381C138.332 119.381 136.78 121.52 140.766 126.092C141.745 127.164 142.843 128.121 144.038 128.945Z" fill="#261705"/>
<path d="M118.738 125.589C121.883 126.212 125.118 126.212 128.263 125.589C131.116 124.894 133.674 123.307 135.563 121.059C134.148 123.197 132.293 125.01 130.123 126.377C127.953 127.743 125.517 128.633 122.976 128.987C122.976 128.273 123.27 127.728 122.976 127.393C122.682 127.057 120.794 126.218 118.738 125.589Z" fill="#F09F5B"/>
<path d="M147.101 134.608C152.304 136.537 157.591 136.369 161.241 144.801C163.883 144.267 166.619 144.422 169.184 145.253C171.748 146.083 174.056 147.56 175.884 149.541C181.674 156.336 183.646 153.358 192.037 156.504C196.735 158.072 200.865 160.99 203.911 164.893C200.593 160.427 198.34 155.262 197.324 149.792C195.932 143.76 193.965 137.874 191.45 132.217C188.494 133.254 185.299 133.399 182.261 132.636C175.968 131.588 176.219 126.302 181.464 122.821C183.604 120.956 186.346 119.929 189.184 119.929C192.023 119.929 194.765 120.956 196.904 122.821C202.485 127.015 201.1 130.245 204.918 136.663C209.144 143.66 214.034 150.234 219.519 156.294C223.044 159.818 225.057 178.946 217.002 182.092C208.946 185.238 187.338 180.791 183.814 180.791C180.289 180.791 166.024 182.217 157.968 172.402C157.968 172.402 156.038 185.825 131.829 200.464C131.213 205.946 132.22 211.489 134.724 216.404C134.724 216.404 105.648 224.793 93.0607 216.404C92.6477 208.355 91.8215 200.333 90.5853 192.369C89.1587 186.79 83.2008 174.877 86.3896 161.202C89.5783 147.527 88.1097 143.291 90.2495 140.48C90.2495 140.48 67.8025 139.474 60.8796 120.22C60.8796 120.22 40.9081 116.738 32.8523 107.258C24.7966 97.7783 24.4609 97.9461 19.1743 95.0937C13.8877 92.2413 5.87395 87.0399 11.4962 87.8788C17.1184 88.7178 16.4891 89.2631 16.4891 89.2631C16.4891 89.2631 11.8737 86.2429 9.56608 85.0684C7.25844 83.8939 5.37042 84.2714 6.33543 82.2999C13.2164 69.7159 18.9225 81.8385 22.1952 84.2714C24.6447 86.9911 27.8891 88.8698 31.4677 89.6406C37.7612 91.3604 54.2085 93.1222 60.544 98.7011C66.8795 104.28 73.1311 108.685 78.7533 109.104C84.3756 109.523 99.7318 110.278 105.018 116.235C109.5 121.218 114.739 125.465 120.543 128.819C122.556 129.532 122.053 131.252 124.738 130.035L147.101 134.608Z" fill="#FDB171"/>
<path d="M18.8388 90.8152L16.4892 89.2632C17.3683 89.6183 18.1672 90.146 18.8388 90.8152Z" fill="#FDB171"/>
<path d="M142.318 138.299C138.653 139.444 134.888 140.244 131.074 140.69C134.665 139.512 138.146 138.024 141.479 136.243C142.654 135.572 143.829 134.859 144.962 134.104L147.311 134.607L149.493 135.279L147.815 136.201C146.032 137.024 144.196 137.724 142.318 138.299Z" fill="#F09F5B"/>
<path d="M125.913 138.257C124.099 136.601 122.48 134.744 121.088 132.72C119.818 130.889 118.682 128.968 117.69 126.973C118.586 127.62 119.541 128.182 120.543 128.651C121.759 129.07 122.053 129.867 122.682 130.161C123.312 130.455 122.934 131.21 123.102 131.713C123.801 133.989 124.743 136.183 125.913 138.257Z" fill="#F09F5B"/>
<path d="M120.417 148.786C117.729 151.234 115.232 153.884 112.948 156.714C110.871 159.726 109.006 162.88 107.368 166.152C105.717 169.473 104.423 172.96 103.508 176.554C103.068 178.36 102.774 180.197 102.627 182.05C102.627 183.937 102.627 185.741 102.627 187.587C102.627 194.843 103.256 202.1 104.011 209.315C104.431 212.922 104.893 216.53 105.354 220.137C105.816 223.745 107.116 227.184 108.291 230.666C107.997 227.017 107.788 223.409 107.62 219.802C107.452 216.194 106.655 212.671 106.235 209.063C105.48 201.932 104.934 194.717 104.893 187.545C104.747 184.022 105.072 180.495 105.858 177.058C106.738 173.638 107.975 170.32 109.55 167.158C111.141 163.976 112.95 160.906 114.962 157.972C116.623 154.819 118.444 151.753 120.417 148.786Z" fill="#F09F5B"/>
<path d="M105.228 176.68C107.614 176.91 110.017 176.91 112.403 176.68C113.466 176.678 114.519 176.877 115.508 177.268C115.956 177.459 116.356 177.745 116.683 178.106C117.082 178.52 117.46 178.954 117.815 179.407C119.242 181.211 120.543 183.14 122.011 184.944C123.37 186.877 125.13 188.494 127.172 189.684C125.275 188.343 123.687 186.613 122.515 184.608C121.214 182.679 120.081 180.665 118.78 178.694L117.732 177.226C117.294 176.705 116.768 176.265 116.179 175.925C115.036 175.372 113.796 175.044 112.529 174.96C110.269 174.971 108.011 174.816 105.774 174.499L105.228 176.68Z" fill="#F09F5B"/>
<path d="M105.774 175.967C104.346 174.845 102.725 173.992 100.991 173.45C99.2164 172.799 97.2684 172.799 95.4942 173.45C92.4311 174.928 89.448 176.566 86.5574 178.358C89.6396 176.969 92.7905 175.737 95.9977 174.667C97.5237 174.38 99.098 174.492 100.568 174.992C102.038 175.491 103.354 176.362 104.389 177.519L105.774 175.967Z" fill="#F09F5B"/>
<path d="M103.214 195.137C105.438 195.682 107.62 196.144 109.885 196.521C110.472 196.565 111.061 196.565 111.648 196.521C112.16 196.416 112.688 196.416 113.2 196.521C114.233 196.936 115.207 197.486 116.095 198.157C115.305 197.322 114.401 196.602 113.41 196.018C112.895 195.719 112.323 195.533 111.732 195.473C111.19 195.372 110.658 195.232 110.137 195.053C108.039 194.34 105.942 193.501 103.886 192.662L103.214 195.137Z" fill="#F09F5B"/>
<path d="M105.186 208.434C106.99 208.937 108.753 209.357 110.599 209.692C111.073 209.736 111.551 209.736 112.025 209.692H112.655H113.242C114.047 210.077 114.795 210.571 115.466 211.16C114.916 210.416 114.25 209.764 113.494 209.231C113.318 209.171 113.134 209.143 112.948 209.147C112.697 209.12 112.444 209.12 112.193 209.147L110.976 208.769C109.34 208.098 107.704 207.301 106.109 206.462L105.186 208.434Z" fill="#F09F5B"/>
<path d="M103.172 193.082C101.788 193.92 100.319 194.759 98.9767 195.473L97.9278 195.892C97.4329 195.969 96.9763 196.204 96.627 196.563C96.0162 197.152 95.4808 197.814 95.0328 198.535C95.6168 197.948 96.264 197.427 96.9628 196.983C97.2552 196.812 97.5891 196.725 97.9278 196.731C98.3879 196.782 98.8522 196.782 99.3123 196.731C101.033 196.311 102.627 195.808 104.263 195.263L103.172 193.082Z" fill="#F09F5B"/>
<path d="M103.802 206.337C102.291 207.134 100.781 207.931 99.3124 208.77L97.0886 210.07C96.3473 210.497 95.6453 210.988 94.9908 211.538C95.7443 211.149 96.5305 210.826 97.3404 210.574L99.732 209.819L104.641 208.434L103.802 206.337Z" fill="#F09F5B"/>
<path d="M158.052 172.402C158.052 172.402 156.835 180.791 144.5 191.445C152.891 183.056 125.787 168.542 137.577 169.591C149.367 170.64 152.808 155.036 156.122 148.618C156.122 148.618 158.22 162.712 165.143 167.2C168.793 169.549 172.989 167.2 178.989 171.898C182.44 174.518 185.505 177.61 188.093 181.085C186.121 180.833 184.611 180.623 183.898 180.623C180.373 180.791 166.108 182.217 158.052 172.402Z" fill="#F09F5B"/>
<path d="M143.493 192.368L141.815 193.752C142.324 193.233 142.887 192.769 143.493 192.368Z" fill="#F09F5B"/>
<path d="M95.8299 134.104C92.3749 137.098 89.9522 141.105 88.9069 145.556C88.894 143.75 89.3883 141.977 90.3334 140.438C90.3334 140.438 67.8864 139.431 60.9635 120.178C60.8796 120.22 81.9421 137.208 95.8299 134.104Z" fill="#F09F5B"/>
<path d="M249.728 227.855C252.078 241.656 252.791 249.248 265.882 252.604C278.972 255.96 285.979 281.589 276.707 288.343C275.511 289.257 274.141 289.918 272.681 290.283C271.22 290.649 269.7 290.712 268.215 290.468C266.729 290.225 265.309 289.68 264.042 288.867C262.775 288.054 261.688 286.991 260.847 285.742C260.847 285.742 258.288 295.516 271.336 296.984C292.776 299.459 297.601 273.913 293.867 250.549C290.133 227.184 278.007 215.187 265.294 213.887C254.679 212.838 248.092 216.781 238.862 223.157C237.561 224.038 238.358 229.198 242.344 225.674C244.064 224.206 249.057 223.787 249.728 227.855Z" fill="#59350B"/>
<path d="M117.144 262.21C124.015 276.828 130.08 291.812 135.311 307.093C136.276 311.288 138.626 347.194 137.2 350.55C135.773 353.906 133.004 358.94 133.004 358.94L143.997 366.826C143.997 366.826 152.01 350.844 150.919 344.132C148.245 327.862 146.564 311.445 145.885 294.971C146.388 289.224 154.528 257.512 154.024 257.596C153.521 257.68 117.144 262.21 117.144 262.21Z" fill="#59350B"/>
<path d="M174.583 264.559C189.898 285.533 207.1 302.311 208.526 309.442C209.953 316.573 194.597 347.194 194.597 347.194L209.072 339.644C211.254 331.335 213.944 323.168 217.128 315.189C220.946 306.59 226.19 302.311 217.128 295.6C208.065 288.888 211.841 270.432 217.128 257.848C222.414 245.264 174.583 264.559 174.583 264.559Z" fill="#59350B"/>
<path d="M144.039 366.993C144.039 366.993 137.829 359.359 133.046 359.107C128.263 358.856 125.158 365.819 124.948 366.993C124.738 368.168 139.717 368.545 144.039 366.993Z" fill="#261705"/>
<path d="M209.072 339.644C209.072 339.644 197.576 341.154 195.142 345.391C192.709 349.627 199.338 356.381 200.387 357.262C201.436 358.143 208.736 344.426 209.072 339.644Z" fill="#261705"/>
<path d="M95.4522 315.734C95.4522 315.734 87.2706 325.172 88.4034 330.332C89.5363 335.491 99.522 336.288 100.991 336.121C102.459 335.953 98.6409 319.803 95.4522 315.734Z" fill="#261705"/>
<path d="M250.064 293.041C243.687 289.224 254.512 254.198 247.505 230.624C240.498 207.05 203.576 213.468 188.765 214.726C185.744 214.978 182.933 215.313 180.373 215.439C171.781 218.482 162.47 218.86 153.659 216.525C144.848 214.19 136.947 209.25 130.99 202.352C133.088 217.914 111.983 217.369 100.193 214.474C97.2979 213.658 94.675 212.079 92.5992 209.902C86.7672 216.404 85.8862 232.176 89.5364 240.355C93.7322 249.877 101.494 266.53 99.1027 266.908C91.2789 268.539 83.6028 270.812 76.1521 273.703C69.9425 276.556 78.0821 290.482 79.0052 294.257C79.9282 298.032 88.1098 328.654 88.1098 328.654L98.6411 322.823C95.9 317.037 94.5768 310.681 94.7811 304.283C94.3196 295.683 85.2567 283.309 88.1098 282.806C90.9629 282.302 122.011 280.205 134.64 275.549C136.738 274.752 137.032 268.502 139.381 269.257C143.308 271.931 147.532 274.141 151.968 275.843C166.81 278.434 181.976 278.576 196.863 276.262C200.889 275.18 205.176 275.66 208.864 277.605C212.552 279.549 215.369 282.815 216.75 286.749C219.603 293.418 247.631 310.323 249.561 312.84C251.491 315.356 249.561 341.657 248.763 349.292C247.351 353.366 245.251 357.168 242.554 360.533L251.658 367.203C254.566 362.073 256.875 356.626 258.539 350.969C259.588 346.523 257.197 325.801 260.386 310.323C263.574 294.844 256.442 296.732 250.064 293.041Z" fill="#884E2D"/>
<path d="M253.169 366.993C253.169 366.993 246.959 359.359 242.176 359.107C237.393 358.856 234.288 365.819 234.078 366.993C233.869 368.168 248.889 368.545 253.169 366.993Z" fill="#261705"/>
<path d="M153.269 113.676C152.209 116.111 151.732 118.759 151.878 121.41C152.024 124.061 152.788 126.641 154.108 128.945C159.814 140.942 162.709 165.229 148.024 175.758C149.294 173.218 149.873 170.388 149.704 167.554C149.535 164.719 148.623 161.979 147.059 159.608C138.416 148.786 131.032 133.853 138.332 119.171C138.332 119.171 138.878 120.933 139.801 120.178C143.421 116.544 148.171 114.25 153.269 113.676Z" fill="#261705"/>
<path d="M70.4503 4.02945L68.1726 6.2002L180.384 123.882L182.662 121.711L70.4503 4.02945Z" fill="#884E2D"/>
<path d="M178.145 129.448L14.7035 190.802L15.8096 193.747L179.251 132.393L178.145 129.448Z" fill="#884E2D"/>
<path d="M9.23649 82.6974L8.75067 84.5215L197.485 134.763L197.971 132.939L9.23649 82.6974Z" fill="#59350B"/>
<path d="M200.051 135.489C200.55 135.683 201.104 135.683 201.604 135.489L213.645 129.826C214.275 129.532 214.191 128.903 213.435 128.441C213.088 128.192 212.687 128.028 212.264 127.962C211.841 127.897 211.409 127.932 211.002 128.064L198.96 133.643C198.373 133.895 198.457 134.524 199.17 135.027C199.434 135.232 199.732 135.388 200.051 135.489Z" fill="#59350B"/>
<path d="M195.1 134.188C195.614 134.381 196.181 134.381 196.695 134.188L208.736 128.567C209.366 128.274 209.282 127.644 208.736 127.141C208.374 126.907 207.964 126.755 207.536 126.697C207.108 126.639 206.673 126.676 206.261 126.805L194.219 132.426C193.59 132.72 193.674 133.349 194.429 133.853C194.638 133.992 194.863 134.105 195.1 134.188Z" fill="#59350B"/>
<path d="M190.191 132.887C190.698 133.038 191.237 133.038 191.744 132.887L203.827 127.267C204.415 126.973 204.373 126.344 203.618 125.84C203.263 125.607 202.86 125.455 202.439 125.397C202.018 125.339 201.589 125.376 201.184 125.505L189.1 131.126C188.513 131.419 188.555 132.049 189.31 132.51C189.581 132.685 189.878 132.812 190.191 132.887Z" fill="#59350B"/>
<path d="M185.282 131.545C185.786 131.715 186.331 131.715 186.835 131.545L198.876 125.882C199.506 125.589 199.422 124.96 198.876 124.498C198.52 124.251 198.111 124.089 197.682 124.023C197.253 123.958 196.815 123.991 196.401 124.121L184.275 129.783C183.646 130.035 183.73 130.706 184.275 131.168C184.584 131.357 184.925 131.485 185.282 131.545Z" fill="#59350B"/>
<path d="M207.729 146.227C208.05 146.27 208.374 146.27 208.694 146.227C209.534 146.227 209.953 145.682 209.533 145.094L201.897 134.482C201.605 134.166 201.247 133.92 200.848 133.76C200.448 133.601 200.019 133.532 199.59 133.559C198.709 133.559 198.331 134.146 198.709 134.692L206.387 145.556C206.751 145.918 207.221 146.153 207.729 146.227Z" fill="#59350B"/>
<path d="M202.778 145.052H203.743C204.625 145.052 205.002 144.465 204.625 143.92L196.862 133.182C196.581 132.853 196.224 132.598 195.822 132.437C195.42 132.276 194.985 132.215 194.555 132.259C193.674 132.259 193.296 132.804 193.716 133.391L201.352 144.255C201.712 144.689 202.22 144.973 202.778 145.052Z" fill="#59350B"/>
<path d="M197.869 143.752C198.174 143.814 198.488 143.814 198.792 143.752C199.674 143.752 200.093 143.207 199.674 142.661L192.037 131.755C191.739 131.449 191.379 131.208 190.981 131.049C190.584 130.89 190.157 130.816 189.73 130.832C188.849 130.832 188.471 131.419 188.849 131.965L196.527 142.871C196.857 143.313 197.332 143.625 197.869 143.752Z" fill="#59350B"/>
<path d="M192.918 142.451C193.237 142.512 193.565 142.512 193.883 142.451C194.765 142.451 195.142 141.906 194.765 141.319L187.086 130.455C186.798 130.134 186.44 129.884 186.04 129.724C185.64 129.564 185.208 129.499 184.779 129.532C183.94 129.532 183.52 130.119 183.94 130.664L191.576 141.529C191.911 141.974 192.382 142.298 192.918 142.451Z" fill="#59350B"/>
<path d="M0 81.2513L18.7968 86.201L26.2651 79.6992L0 81.2513Z" fill="#884E2D"/>
<path d="M0 81.251L18.7968 86.2007L22.0275 95.6807L0 81.251Z" fill="#884E2D"/>
<path d="M202.695 163.006C200.062 158.971 198.264 154.449 197.408 149.709C196.016 143.676 194.049 137.791 191.534 132.133C188.578 133.17 185.383 133.316 182.345 132.552C176.052 131.504 176.304 126.218 181.548 122.737C183.688 120.872 186.43 119.845 189.268 119.845C192.107 119.845 194.849 120.872 196.988 122.737C202.569 126.931 201.184 130.161 205.002 136.579C209.228 143.576 214.118 150.15 219.603 156.21C222.54 159.147 224.386 172.989 220.274 179.197C214.317 173.996 208.359 168.711 202.695 163.006Z" fill="#FDB171"/>
<path d="M6.33552 82.09C13.2165 69.5059 18.9226 81.6285 22.1953 84.0615C24.6447 86.7812 27.8892 88.6599 31.4678 89.4307C37.7613 91.1505 54.2086 92.9123 60.5441 98.4912C62.4359 100.225 64.425 101.85 66.5019 103.357C64.6034 109.056 62.4188 114.656 59.9566 120.136C55.7609 119.297 39.8592 115.606 32.8524 107.342C24.7967 97.9039 24.461 98.0298 19.1744 95.1774C13.8878 92.325 5.87404 87.1236 11.4963 87.9625C12.9122 88.1473 14.3139 88.4276 15.692 88.8015C14.2235 87.8786 11.4962 85.9491 9.60816 84.9423C7.7201 83.9356 5.28659 84.0615 6.33552 82.09Z" fill="#FDB171"/>
</g>
<defs>
<clipPath id="clip0_185_2178">
<rect width="295" height="368" fill="white"/>
</clipPath>
</defs>
</svg>
