<svg width="181" height="271" viewBox="0 0 181 271" fill="none" xmlns="http://www.w3.org/2000/svg">
<g clip-path="url(#clip0_157_1642)">
<path d="M135.794 75.2611C132.345 66.5786 101.174 71.4022 92.7954 72.8681C87.7781 70.9637 79.211 70.4625 65.0245 71.4147C64.8168 71.3011 64.584 71.2408 64.3472 71.2393C64.3472 71.2393 49.2952 68.7335 46.7866 72.4922C44.2779 76.2509 38.0062 86.274 40.5149 87.5269C43.0236 88.7798 48.0409 78.7566 50.5495 80.0095C53.0582 81.2624 51.8039 83.7682 50.5495 86.274C49.2952 88.7798 54.3125 90.0326 56.8212 86.274C59.3299 82.5153 67.7464 85.0211 67.7464 85.0211V84.9585C73.0397 86.0986 82.5225 87.8777 89.6847 87.6898C137.926 98.7152 139.733 85.1589 135.794 75.2611Z" fill="#C7BFD8"/>
<path opacity="0.17" d="M135.794 75.261C133.524 69.5478 119.287 69.6856 107.408 70.8508C96.4483 77.0396 84.876 82.078 72.8766 85.8854C78.4107 86.9982 84.0397 87.573 89.6847 87.6019C137.926 98.7151 139.733 85.1588 135.794 75.261Z" fill="#1E0336"/>
<path d="M150.545 76.3261L154.897 69.0343C154.17 65.0376 130.062 57.0942 130.062 57.0942L123.614 70.876C120.328 70.2746 113.856 69.3851 112.012 71.2268C109.503 73.7326 90.6881 100.043 89.4338 113.825L74.3818 135.124L99.2051 155.684C99.2051 155.684 118.986 145.661 139.607 148.919L134.59 123.861C134.59 123.861 157.168 100.056 159.676 90.0327C161.395 83.1418 154.822 78.03 150.545 76.3261Z" fill="#C7BFD8"/>
<path d="M121.419 229.73C121.419 229.73 150.269 228.477 155.286 235.994C160.304 243.512 155.286 247.27 165.321 248.523L159.049 249.776L162.812 254.788C162.812 254.788 152.778 254.788 151.523 249.776C150.269 244.765 147.76 238.5 145.252 238.5C142.743 238.5 135.217 234.741 123.928 237.247C123.928 237.247 117.656 233.489 121.419 229.73Z" fill="#C7BFD8"/>
<path d="M32.0858 186.919C32.0858 186.919 46.3225 211.976 55.3662 212.277C64.4099 212.578 64.9367 206.288 71.3213 214.119L69.0635 208.143L75.3352 208.669C75.3352 208.669 70.0042 200.174 65.0872 201.778C60.1703 203.382 53.5223 204.572 52.1927 202.442C50.8631 200.312 43.6758 195.939 39.8125 185.052C39.7874 185.052 33.2774 181.744 32.0858 186.919Z" fill="#C7BFD8"/>
<path d="M108.487 144.107C108.487 144.107 39.9379 206.251 35.7359 207.579C31.5339 208.907 8.89323 199.711 0.0125612 182.872C0.0125612 182.872 -1.40483 175.918 25.0992 186.48L76.3261 132.343C76.3261 132.343 104.599 120.54 108.487 144.107Z" fill="#C7BFD8"/>
<path opacity="0.17" d="M95.8685 148.229C94.9278 148.881 93.9745 149.482 93.0588 150.184C80.6033 158.891 69.6405 169.541 57.6741 178.9C46.9872 187.257 35.2341 197.631 20.6839 195.864C14.792 195.108 9.18484 192.885 4.37759 189.399C14.7509 202.041 32.0481 208.719 35.7359 207.579C38.8842 206.589 77.5804 171.984 97.1981 154.293C96.6964 152.301 96.3326 150.284 95.8685 148.229Z" fill="#1E0336"/>
<path d="M134.59 123.861C132.144 125.953 130.827 133.545 130.438 142.754C113.743 137.454 99.4684 151.424 99.4684 151.424L112.789 246.644C87.1007 259.661 93.2595 264.071 93.2595 264.071C111.799 270.336 133.862 259.423 135.706 254.925C136.96 251.956 138.215 206.313 138.98 175.542C143.872 145.911 134.59 123.861 134.59 123.861Z" fill="#C7BFD8"/>
<path d="M179.746 29.2674C179.746 13.694 166.55 1.07739 150.269 1.07739C134.339 1.07739 121.419 13.1678 120.817 28.2776C120.346 28.7731 119.926 29.3146 119.563 29.8939C119.563 29.8939 101.049 58.3971 132.884 69.8235C132.884 69.8235 167.804 84.8581 177.551 42.949C177.551 42.949 177.162 42.6859 176.459 42.2473C178.623 38.2627 179.753 33.8003 179.746 29.2674Z" fill="#1E0336"/>
<path opacity="0.17" d="M154.96 99.1536C149.04 105.055 141.263 108.763 135.217 114.539C126.512 122.858 132.357 133.796 133.687 144.258C135.731 160.42 135.317 176.657 134.941 192.907C134.59 208.656 135.681 224.831 131.793 240.267C129.133 250.803 122.385 258.045 111.924 261.077C106.505 262.643 98.8538 264.836 92.7703 263.407C92.872 263.651 93.0312 263.866 93.2344 264.034C111.773 270.298 133.837 259.386 135.681 254.888C136.935 251.918 138.19 206.276 138.955 175.505C143.847 145.924 134.565 123.861 134.565 123.861C134.565 123.861 147.597 110.141 154.96 99.1536Z" fill="#1E0336"/>
<path opacity="0.17" d="M130.062 57.0942L123.79 70.6004C123.991 70.9679 124.179 71.3438 124.354 71.728C127.961 72.0904 131.596 72.0442 135.192 71.5902C135.509 71.5655 135.828 71.5655 136.145 71.5902C137.261 67.9192 138.453 64.2608 139.908 60.665C134.615 58.5977 130.062 57.0942 130.062 57.0942Z" fill="#1E0336"/>
<path d="M125.203 43.432C126.859 47.6166 132.114 49.4584 136.943 47.5665C141.773 45.6747 142.713 36.5411 142.713 36.5411C142.713 36.5411 135.802 30.5022 130.973 32.4066C126.144 34.311 123.56 39.2473 125.203 43.432Z" fill="#DFB53D"/>
<path opacity="0.18" d="M151.511 38.4261L146.167 37.7871C143.481 37.7034 140.822 38.3393 138.466 39.6288C137.786 39.8664 137.124 40.1511 136.484 40.4808C136.934 39.0525 137.705 37.7457 138.737 36.66C139.77 35.5744 141.037 34.7386 142.442 34.2164C147.271 32.312 154.182 38.3509 154.182 38.3509C154.182 38.3509 154.182 38.7017 154.057 39.278C153.229 38.9361 152.378 38.6515 151.511 38.4261Z" fill="#1E0336"/>
<path d="M125.93 37.9821C124.889 40.9138 125.102 43.6576 126.407 44.1337C127.712 44.6098 129.618 42.5927 130.659 39.6609C131.7 36.7292 131.5 33.9728 130.195 33.5092C128.891 33.0457 126.984 35.1004 125.93 37.9821Z" fill="#1E0336"/>
<path d="M123.89 31.1468C122.962 34.1161 121.131 36.1583 119.814 35.7825C118.497 35.4066 118.171 32.6252 119.099 29.6558C120.027 26.6865 121.871 24.6443 123.188 25.0201C124.505 25.396 124.831 28.1398 123.89 31.1468Z" fill="#1E0336"/>
<path d="M173.411 51.3059C174.44 51.2433 175.481 51.1932 176.51 51.1055C177.378 48.6864 178.103 46.218 178.679 43.7134C178.679 43.7134 178.278 43.4378 177.538 42.9868C179.816 38.8174 181.006 34.1425 181 29.3929C181 13.1053 167.202 -0.0374893 150.219 -0.0374893C144.166 -0.103209 138.229 1.61484 133.149 4.90179C128.069 8.18873 124.072 12.8987 121.658 18.4426C133.963 34.9682 153.292 45.3672 173.411 51.3059Z" fill="#C7BFD8"/>
<path d="M147.898 48.7626C139.118 49.7774 130.438 49.176 121.557 49.2888C119.149 49.2888 116.665 49.3765 114.194 49.2888C114.759 56.8813 119.136 64.9374 132.809 69.8487C132.809 69.8487 167.729 84.8834 177.475 42.9742L176.71 42.4856C167.327 45.4846 157.68 47.5864 147.898 48.7626Z" fill="#C7BFD8"/>
<g opacity="0.17">
<path opacity="0.17" d="M181 29.3928C180.935 23.5693 179.143 17.8957 175.85 13.0897C172.556 8.28368 167.91 4.5612 162.499 2.39307C163.302 2.8786 164.077 3.40987 164.819 3.98424C178.416 14.5962 179.658 36.0958 170.677 50.4163L173.411 51.2683C174.44 51.2057 175.481 51.1555 176.509 51.0678C177.378 48.6487 178.103 46.1804 178.679 43.6758C178.679 43.6758 178.278 43.4002 177.538 42.9491C179.81 38.7909 181 34.1298 181 29.3928Z" fill="#1E0336"/>
</g>
<path opacity="0.17" d="M176.76 42.4604L174.139 43.2498C171.733 50.4915 166.847 56.6538 160.341 60.6524C148.914 67.3804 130.613 67.9066 118.572 60.5146C121.444 64.1104 125.96 67.3679 132.821 69.8236C132.821 69.8236 167.742 84.8582 177.488 42.9491L176.76 42.4604Z" fill="#1E0336"/>
<path d="M161.57 58.0213C161.57 58.0213 169.096 80.6359 167.842 98.1764C167.842 98.1764 170.351 96.9235 171.605 91.912L172.859 98.1764C172.859 98.1764 174.114 90.6591 174.114 89.4062C174.114 88.1533 175.368 94.4177 175.368 94.4177C175.368 94.4177 173.286 63.4087 166.174 55.7285L161.57 58.0213Z" fill="#C7BFD8"/>
<g opacity="0.56">
<path opacity="0.56" d="M174.967 50.8422C171.003 51.3935 159.839 46.6576 159.727 46.6074C159.689 46.5908 159.648 46.5819 159.606 46.5811C159.565 46.5803 159.524 46.5877 159.486 46.6028C159.447 46.618 159.412 46.6406 159.382 46.6693C159.353 46.6981 159.329 46.7324 159.313 46.7703C159.285 46.8473 159.287 46.9315 159.317 47.0075C159.347 47.0835 159.403 47.1461 159.476 47.1838C159.701 47.2715 162.273 48.4366 165.358 49.439C148.525 60.4519 115.725 54.8264 115.398 54.7763C115.358 54.7672 115.316 54.7666 115.275 54.7745C115.235 54.7824 115.196 54.7986 115.162 54.8222C115.128 54.8457 115.099 54.876 115.077 54.9113C115.055 54.9465 115.041 54.9858 115.035 55.0269C115.02 55.1082 115.038 55.1921 115.085 55.2601C115.132 55.3282 115.204 55.375 115.286 55.3902C121.668 56.3799 128.118 56.8784 134.577 56.8811C145.063 56.8811 157.569 55.4528 166.011 49.7772C166.011 49.7772 166.011 49.7021 166.073 49.677C167.328 50.103 168.733 50.529 170.037 50.8547C169.965 50.8652 169.898 50.9006 169.849 50.955C156.051 67.4806 119.375 60.74 119.011 60.6649C118.928 60.6499 118.842 60.6677 118.772 60.7144C118.702 60.7611 118.653 60.8332 118.635 60.9154C118.62 60.9968 118.638 61.0807 118.685 61.1487C118.732 61.2168 118.804 61.2635 118.885 61.2788C124.605 62.2364 130.396 62.7141 136.195 62.7071C140.861 62.7342 145.52 62.3485 150.118 61.5544C150.093 61.6275 150.093 61.7068 150.118 61.7799C150.118 61.8426 153.455 68.0444 151.749 71.6527C151.715 71.7275 151.711 71.8129 151.739 71.8903C151.768 71.9676 151.825 72.0308 151.899 72.0661C151.945 72.0778 151.992 72.0778 152.037 72.0661C152.097 72.0647 152.155 72.0477 152.205 72.0169C152.256 71.9862 152.297 71.9426 152.326 71.8907C154.157 67.9441 150.821 61.7173 150.67 61.4542C154.325 60.8031 157.882 59.6917 161.257 58.1465L162.913 67.5933C162.927 67.6651 162.967 67.7296 163.024 67.7753C163.081 67.8211 163.153 67.8454 163.226 67.8439C163.267 67.838 163.307 67.8237 163.342 67.8018C163.377 67.78 163.407 67.7511 163.431 67.717C163.455 67.6829 163.471 67.6443 163.479 67.6036C163.487 67.5629 163.486 67.521 163.477 67.4806L161.922 58.0338C161.912 57.9744 161.881 57.9207 161.834 57.8834C165.117 56.3272 168.036 54.099 170.401 51.3434C170.429 51.3154 170.451 51.2822 170.466 51.2457C170.482 51.2091 170.489 51.1699 170.489 51.1304C170.489 51.0908 170.482 51.0516 170.466 51.0151C170.451 50.9785 170.429 50.9453 170.401 50.9174C171.692 51.2573 173.017 51.4547 174.352 51.5062C174.619 51.5265 174.888 51.5265 175.155 51.5062C175.2 51.5062 175.244 51.4966 175.285 51.4779C175.326 51.4593 175.362 51.4321 175.392 51.3982C175.421 51.3643 175.443 51.3245 175.456 51.2815C175.468 51.2384 175.472 51.1931 175.465 51.1487C175.459 51.1043 175.443 51.0617 175.419 51.024C175.395 50.9862 175.362 50.954 175.325 50.9297C175.287 50.9054 175.244 50.8895 175.2 50.883C175.155 50.8766 175.11 50.8798 175.067 50.8923L174.967 50.8422Z" fill="#1E0336"/>
<path opacity="0.56" d="M180.473 32.1867C169.949 36.434 149.027 26.3483 147.685 25.6842C147.76 24.7822 147.823 23.8801 147.861 23.0031C152.493 24.2796 157.214 25.2135 161.984 25.797C162.037 25.8641 162.113 25.9089 162.198 25.9223C162.267 25.9187 162.333 25.8923 162.386 25.8471C164.551 26.1 166.728 26.2339 168.908 26.2481C173.186 26.2481 177.237 25.6341 180.072 23.9051C180.143 23.8619 180.195 23.7921 180.215 23.7111C180.235 23.63 180.222 23.5443 180.178 23.4729C180.135 23.4015 180.065 23.3501 179.984 23.3301C179.903 23.3102 179.817 23.3232 179.746 23.3664C176.855 24.8688 173.634 25.6268 170.376 25.5715C170.376 25.4211 169.523 16.0996 176.058 14.1201C176.139 14.0941 176.206 14.0377 176.246 13.9628C176.286 13.888 176.295 13.8006 176.271 13.7192C176.245 13.6417 176.19 13.5774 176.118 13.54C176.045 13.5025 175.961 13.4949 175.882 13.5187C168.996 15.5985 169.711 25.0578 169.749 25.584C167.347 25.6141 164.946 25.4885 162.561 25.2082C162.825 23.0156 164.468 12.7795 172.483 9.52198C172.561 9.49041 172.624 9.42912 172.657 9.35158C172.69 9.27405 172.69 9.18661 172.659 9.10852C172.627 9.03044 172.566 8.9681 172.488 8.9352C172.41 8.90231 172.323 8.90155 172.245 8.93312C163.929 12.3285 162.21 22.8527 161.934 25.133C160.291 24.9451 158.698 24.6945 157.205 24.4314C157.238 24.3968 157.26 24.3532 157.268 24.3061C157.497 21.4261 158.113 18.59 159.099 15.8741C161.207 10.1985 164.593 6.96608 169.134 6.26446C169.178 6.26255 169.222 6.25129 169.261 6.23142C169.301 6.21155 169.336 6.18352 169.364 6.14918C169.392 6.11484 169.412 6.07499 169.423 6.03222C169.435 5.98945 169.437 5.94475 169.43 5.90107C169.423 5.85739 169.406 5.81572 169.382 5.7788C169.358 5.74187 169.326 5.71055 169.288 5.68688C169.251 5.66321 169.209 5.64772 169.165 5.64145C169.121 5.63519 169.076 5.6383 169.034 5.65055C164.317 6.37723 160.667 9.84773 158.51 15.6737C157.5 18.445 156.871 21.3406 156.641 24.281C156.641 24.281 156.641 24.281 156.641 24.3437C151.699 23.4541 148.024 22.4142 147.861 22.3641C148.171 15.0018 147.256 7.63903 145.151 0.576348C145.125 0.496599 145.067 0.430681 144.992 0.393087C144.917 0.355493 144.83 0.349299 144.75 0.375881C144.67 0.402464 144.604 0.459637 144.566 0.534825C144.529 0.610013 144.523 0.697066 144.549 0.776815C147.186 9.53213 147.976 18.7384 146.87 27.8142C144.9 26.4861 142.981 25.158 141.162 23.8676C141.214 23.8218 141.25 23.7601 141.263 23.6922C143.107 13.1052 138.089 1.69142 138.014 1.57866C137.978 1.50116 137.914 1.44069 137.834 1.41024C137.754 1.37979 137.666 1.38178 137.588 1.41578C137.513 1.45111 137.456 1.51429 137.427 1.59166C137.399 1.66904 137.403 1.75439 137.437 1.82924C137.437 1.942 142.454 13.1052 140.623 23.5042C132.119 17.4402 125.847 12.3786 125.697 12.2282C125.667 12.1925 125.63 12.1638 125.588 12.1441C125.546 12.1245 125.5 12.1143 125.454 12.1145C125.407 12.1146 125.362 12.125 125.32 12.1449C125.278 12.1649 125.241 12.1938 125.212 12.2297C125.182 12.2656 125.161 12.3075 125.15 12.3525C125.139 12.3974 125.138 12.4443 125.147 12.4897C125.157 12.5351 125.176 12.5779 125.203 12.615C125.231 12.6521 125.267 12.6826 125.308 12.7043C125.671 13.005 161.683 42.0846 179.068 44.5778C179.152 44.5778 179.231 44.5448 179.29 44.4861C179.349 44.4274 179.382 44.3477 179.382 44.2646C179.382 44.1815 179.349 44.1019 179.29 44.0431C179.231 43.9844 179.152 43.9514 179.068 43.9514C170.752 42.7737 158.134 35.4317 147.233 28.1023C147.304 28.0558 147.353 27.984 147.371 27.9019C147.371 27.3631 147.472 26.8369 147.534 26.3107C151.474 28.1908 155.534 29.8065 159.689 31.1468C164.331 32.7586 169.19 33.6625 174.101 33.828C176.321 33.8814 178.53 33.5115 180.611 32.738C180.65 32.7229 180.686 32.7001 180.716 32.6709C180.746 32.6418 180.77 32.6069 180.786 32.5684C180.803 32.5298 180.811 32.4884 180.811 32.4465C180.811 32.4046 180.803 32.3632 180.787 32.3246C180.754 32.2737 180.706 32.2336 180.65 32.2091C180.595 32.1846 180.533 32.1769 180.473 32.1867Z" fill="#1E0336"/>
<path opacity="0.56" d="M143.006 62.7071C142.976 62.7352 142.952 62.7691 142.936 62.8068C142.92 62.8446 142.911 62.8852 142.911 62.9263C142.911 62.9674 142.92 63.0081 142.936 63.0458C142.952 63.0835 142.976 63.1174 143.006 63.1456C143.006 63.1456 147.321 68.1571 145.578 72.3167C145.548 72.395 145.55 72.4816 145.583 72.5585C145.615 72.6355 145.676 72.6969 145.753 72.7302H145.866C145.929 72.7294 145.99 72.7098 146.041 72.6741C146.093 72.6384 146.132 72.5881 146.155 72.5297C148.049 67.9567 143.646 62.92 143.483 62.7071C143.453 62.6727 143.417 62.6451 143.376 62.6261C143.335 62.6072 143.29 62.5974 143.245 62.5974C143.199 62.5974 143.155 62.6072 143.113 62.6261C143.072 62.6451 143.036 62.6727 143.006 62.7071Z" fill="#1E0336"/>
<path opacity="0.56" d="M166.851 55.4404C166.814 55.3682 166.749 55.3135 166.672 55.2878C166.595 55.2621 166.511 55.2674 166.437 55.3026C166.399 55.3187 166.365 55.3425 166.336 55.3724C166.308 55.4024 166.286 55.4378 166.272 55.4766C166.258 55.5154 166.252 55.5567 166.254 55.5979C166.257 55.6391 166.268 55.6793 166.287 55.716L169.159 61.4418C169.183 61.4944 169.222 61.539 169.271 61.5701C169.32 61.6013 169.377 61.6176 169.435 61.6172C169.48 61.63 169.528 61.63 169.573 61.6172C169.611 61.601 169.645 61.5773 169.674 61.5473C169.702 61.5174 169.724 61.4819 169.738 61.4431C169.752 61.4043 169.758 61.3631 169.756 61.3219C169.753 61.2807 169.742 61.2405 169.724 61.2037L166.851 55.4404Z" fill="#1E0336"/>
</g>
<g opacity="0.56">
<path opacity="0.56" d="M132.407 87.1885C132.194 87.1885 132.081 87.3138 132.081 87.4892C132.079 87.5304 132.086 87.5714 132.1 87.6101C132.114 87.6487 132.136 87.6842 132.164 87.7144C132.192 87.7447 132.226 87.7691 132.263 87.7864C132.3 87.8036 132.341 87.8134 132.382 87.815C132.495 87.815 133.034 87.815 133.887 87.815C138.202 87.815 150.457 87.3264 156.741 82.1018C156.799 82.0432 156.831 81.9645 156.831 81.8825C156.831 81.8006 156.799 81.7218 156.741 81.6633C156.713 81.6333 156.679 81.6094 156.641 81.5931C156.604 81.5768 156.563 81.5684 156.522 81.5684C156.481 81.5684 156.44 81.5768 156.402 81.5931C156.364 81.6094 156.33 81.6333 156.302 81.6633C148.989 87.7649 132.558 87.1885 132.407 87.1885Z" fill="#1E0336"/>
<path opacity="0.56" d="M160.504 90.4211C160.446 90.3637 160.367 90.3315 160.285 90.3315C160.203 90.3315 160.124 90.3637 160.065 90.4211C153.969 97.7254 133.611 95.37 133.411 95.3449C133.364 95.3409 133.317 95.3479 133.273 95.3653C133.23 95.3827 133.191 95.4101 133.16 95.4452C131.504 86.0986 129.848 75.4741 129.497 73.1437C134.703 75.1107 142.342 77.604 147.321 77.604C148.362 77.6364 149.4 77.4749 150.382 77.1279C150.42 77.1141 150.456 77.0926 150.486 77.0646C150.516 77.0366 150.54 77.0028 150.556 76.9653C150.573 76.9277 150.581 76.8872 150.581 76.8463C150.582 76.8053 150.573 76.7647 150.557 76.727C150.527 76.6512 150.467 76.5904 150.392 76.5577C150.317 76.5249 150.233 76.5227 150.156 76.5516C144.073 78.9822 124.254 70.3748 124.053 70.2871C124.016 70.2705 123.975 70.2616 123.933 70.2608C123.892 70.26 123.851 70.2674 123.812 70.2826C123.774 70.2977 123.739 70.3203 123.709 70.349C123.68 70.3777 123.656 70.4121 123.639 70.45C123.621 70.4875 123.611 70.5285 123.609 70.5703C123.607 70.6121 123.614 70.6538 123.63 70.6927C123.645 70.7316 123.668 70.7669 123.698 70.7963C123.728 70.8257 123.763 70.8486 123.803 70.8635C124.053 70.9762 126.023 71.8282 128.82 72.8931C129.171 75.2235 133.837 105.143 135.581 110.192C127.327 97.8758 119.663 71.0013 119.575 70.6755C119.564 70.636 119.545 70.5992 119.519 70.5671C119.493 70.535 119.461 70.5084 119.425 70.4886C119.352 70.4486 119.266 70.4393 119.187 70.4625C119.107 70.4858 119.039 70.5398 118.999 70.6126C118.959 70.6855 118.95 70.7712 118.973 70.8509C119.425 72.4296 130.049 109.69 140.071 115.955C140.124 115.973 140.181 115.973 140.234 115.955C140.301 115.953 140.366 115.931 140.419 115.889C140.472 115.848 140.511 115.791 140.529 115.727C140.547 115.662 140.544 115.594 140.521 115.531C140.497 115.468 140.454 115.415 140.397 115.379C138.615 114.101 137.095 112.493 135.919 110.643H135.995H136.12C136.158 110.626 136.192 110.603 136.221 110.573C136.25 110.543 136.273 110.508 136.288 110.47C136.303 110.431 136.31 110.39 136.309 110.349C136.309 110.308 136.3 110.267 136.283 110.229C135.618 108.688 134.439 102.712 133.235 95.8711C133.235 95.8711 133.298 95.8711 133.335 95.8711C135.909 96.1577 138.497 96.2957 141.087 96.2846C147.685 96.2846 156.679 95.3575 160.542 90.7343C160.564 90.6834 160.572 90.6276 160.565 90.5726C160.559 90.5176 160.538 90.4653 160.504 90.4211Z" fill="#1E0336"/>
<path opacity="0.56" d="M107.985 124.136C110.87 126.341 113.605 128.271 116.214 129.95C116.489 130.31 116.791 130.65 117.117 130.965C117.177 131.013 117.253 131.04 117.33 131.04C117.372 131.042 117.413 131.035 117.452 131.02C117.491 131.005 117.526 130.982 117.556 130.952C117.566 130.911 117.566 130.868 117.556 130.827C125.245 135.588 131.667 138.006 136.722 138.006C137.25 138.009 137.778 137.979 138.303 137.918C138.384 137.909 138.458 137.868 138.509 137.805C138.561 137.742 138.586 137.661 138.579 137.58C138.574 137.539 138.561 137.499 138.541 137.462C138.521 137.426 138.493 137.394 138.461 137.369C138.428 137.343 138.391 137.324 138.35 137.313C138.31 137.302 138.269 137.299 138.227 137.304C137.736 137.355 137.242 137.38 136.747 137.379C132.508 137.379 127.54 135.588 122.46 132.894C120.805 130.651 118.81 124.024 117.443 118.787C119.325 120.039 130.137 126.98 135.004 127.168C135.084 127.166 135.16 127.133 135.218 127.078C135.276 127.022 135.311 126.948 135.317 126.868C135.319 126.827 135.312 126.785 135.298 126.747C135.284 126.708 135.262 126.673 135.234 126.642C135.206 126.612 135.173 126.588 135.135 126.57C135.098 126.553 135.057 126.544 135.016 126.542C129.936 126.354 117.594 118.16 117.456 118.072C117.414 118.054 117.369 118.045 117.324 118.045C117.279 118.045 117.234 118.054 117.192 118.072C116.452 115.253 115.938 112.948 115.7 112.096C120.991 116.702 127.161 120.193 133.837 122.357H133.937C134.022 122.373 134.109 122.355 134.181 122.309C134.254 122.262 134.305 122.19 134.326 122.107C134.34 122.066 134.345 122.024 134.341 121.982C134.338 121.939 134.326 121.898 134.306 121.861C134.286 121.823 134.259 121.79 134.225 121.763C134.192 121.737 134.154 121.717 134.113 121.706C121.495 117.734 112.501 109.001 106.869 101.76L121.683 99.254C121.745 99.254 121.783 99.1913 121.833 99.1538C126.612 110.104 131.492 117.433 136.346 120.954C136.399 120.996 136.466 121.019 136.534 121.017C136.583 121.019 136.632 121.008 136.676 120.987C136.72 120.965 136.757 120.932 136.785 120.891C136.809 120.858 136.826 120.82 136.835 120.779C136.845 120.739 136.846 120.697 136.839 120.656C136.832 120.616 136.817 120.577 136.795 120.542C136.772 120.507 136.743 120.477 136.71 120.453C130.187 115.704 124.467 104.316 120.278 93.7413C120.285 93.7125 120.285 93.6823 120.278 93.6536C120.273 93.6115 120.257 93.5714 120.233 93.5365C120.209 93.5016 120.177 93.473 120.14 93.4531C117.376 86.3644 114.994 79.1333 113.003 71.7907C112.974 71.7211 112.921 71.6641 112.854 71.6301C112.787 71.5962 112.71 71.5875 112.637 71.6058C112.563 71.624 112.499 71.668 112.456 71.7295C112.413 71.7911 112.393 71.8661 112.401 71.941C114.294 78.9552 116.546 85.8678 119.149 92.6513L119.475 93.4782L102.905 95.7083C102.826 95.7178 102.754 95.7584 102.705 95.8211C101.571 94.0484 100.541 92.2119 99.619 90.3209C99.6026 90.283 99.5789 90.2486 99.5492 90.2199C99.5195 90.1912 99.4844 90.1686 99.446 90.1534C99.4075 90.1383 99.3664 90.1309 99.3251 90.1317C99.2837 90.1325 99.2429 90.1414 99.2051 90.158C99.1297 90.1958 99.0719 90.2613 99.0439 90.3407C99.0158 90.4201 99.0196 90.5073 99.0546 90.584C100.924 94.3767 103.168 97.9736 105.753 101.321C105.695 101.348 105.647 101.393 105.618 101.45C105.588 101.507 105.578 101.572 105.59 101.634C105.601 101.706 105.638 101.772 105.693 101.82C105.748 101.868 105.818 101.896 105.891 101.898H106.116C107.032 103.088 108.048 104.316 109.152 105.569C109.152 105.919 109.691 109.803 110.67 114.489C105.339 111.82 95.3919 97.6378 95.2916 97.4874C95.2677 97.4537 95.2374 97.425 95.2024 97.403C95.1674 97.3809 95.1284 97.366 95.0876 97.359C95.0469 97.352 95.0051 97.3531 94.9648 97.3623C94.9244 97.3714 94.8863 97.3884 94.8525 97.4122C94.8188 97.4361 94.79 97.4664 94.768 97.5013C94.7459 97.5363 94.731 97.5752 94.724 97.6159C94.717 97.6567 94.7181 97.6983 94.7272 97.7386C94.7364 97.7789 94.7534 97.817 94.7773 97.8508C95.2163 98.4772 105.439 113.048 110.833 115.253C111.836 119.902 113.341 125.176 115.298 128.572C106.63 122.61 98.5001 115.902 91.0017 108.525C90.9396 108.47 90.8593 108.439 90.776 108.439C90.6927 108.439 90.6123 108.47 90.5502 108.525C90.5198 108.555 90.4957 108.59 90.4792 108.628C90.4627 108.667 90.4542 108.709 90.4542 108.751C90.4542 108.793 90.4627 108.835 90.4792 108.873C90.4957 108.912 90.5198 108.947 90.5502 108.976C96.0504 114.376 101.873 119.439 107.985 124.136ZM119.676 94.067C120.303 95.6582 120.93 97.1867 121.57 98.6526L106.417 101.158C105.088 99.4169 103.909 97.7756 103.018 96.3097L119.676 94.067ZM109.892 106.345C111.551 108.162 113.31 109.885 115.16 111.507C115.12 111.543 115.09 111.588 115.073 111.638C115.055 111.689 115.051 111.743 115.06 111.795C115.21 112.459 118.559 127.131 121.419 132.28C119.814 131.391 118.196 130.426 116.59 129.399C112.576 123.974 110.381 109.979 109.867 106.358L109.892 106.345Z" fill="#1E0336"/>
<path opacity="0.56" d="M84.3287 120.315C84.2673 120.362 84.2247 120.43 84.2086 120.506C84.1925 120.581 84.204 120.66 84.2409 120.729C84.3538 120.942 95.3668 141.714 96.4205 154.907C96.4233 154.977 96.4516 155.044 96.5001 155.095C96.5485 155.146 96.6139 155.177 96.6839 155.183C96.7593 155.171 96.8272 155.13 96.8737 155.07C96.9203 155.009 96.9421 154.933 96.9348 154.857C95.8686 141.514 84.7928 120.628 84.6799 120.415C84.6642 120.385 84.6425 120.358 84.616 120.336C84.5895 120.315 84.5589 120.299 84.526 120.289C84.4931 120.28 84.4586 120.277 84.4247 120.282C84.3908 120.286 84.3581 120.298 84.3287 120.315Z" fill="#1E0336"/>
<path opacity="0.56" d="M102.291 153.329C102.297 153.407 102.333 153.481 102.391 153.534C102.449 153.588 102.525 153.617 102.604 153.617C102.689 153.611 102.767 153.572 102.823 153.509C102.879 153.445 102.909 153.363 102.905 153.279C102.805 151.863 102.629 150.435 102.416 149.019C102.458 149.026 102.5 149.026 102.542 149.019H102.642C102.93 148.919 131.492 139.221 139.406 145.047C139.44 145.071 139.478 145.088 139.519 145.098C139.559 145.107 139.601 145.108 139.642 145.101C139.682 145.094 139.721 145.079 139.756 145.057C139.791 145.035 139.822 145.006 139.845 144.972C139.869 144.938 139.887 144.9 139.896 144.86C139.905 144.82 139.906 144.778 139.899 144.737C139.892 144.696 139.877 144.657 139.855 144.622C139.833 144.587 139.804 144.557 139.77 144.533C138.316 143.581 136.657 142.989 134.928 142.804C136.19 142.798 137.448 142.689 138.691 142.479C138.733 142.473 138.773 142.458 138.808 142.437C138.844 142.415 138.875 142.386 138.9 142.353C138.924 142.319 138.942 142.28 138.951 142.24C138.961 142.199 138.962 142.157 138.955 142.115C138.94 142.034 138.893 141.962 138.825 141.915C138.756 141.868 138.673 141.85 138.591 141.865C116.101 145.699 90.5878 114.564 90.3244 114.239C90.2712 114.174 90.1944 114.133 90.1109 114.125C90.0273 114.116 89.944 114.142 89.8791 114.195C89.8142 114.248 89.7732 114.325 89.7649 114.408C89.7567 114.491 89.782 114.575 89.8352 114.64C90.0735 114.915 110.431 139.773 131.002 142.554C119.613 142.554 103.407 148.117 102.479 148.43C102.435 148.445 102.399 148.476 102.379 148.518C99.5437 131.616 88.5809 116.281 88.4053 116.118C88.3815 116.084 88.3513 116.055 88.3163 116.033C88.2813 116.011 88.2423 115.996 88.2015 115.989C88.1606 115.982 88.1188 115.983 88.0785 115.992C88.0381 116.002 88 116.019 87.9663 116.043C87.9323 116.067 87.9035 116.097 87.8813 116.132C87.8592 116.167 87.8441 116.206 87.8371 116.246C87.8302 116.287 87.8313 116.329 87.8406 116.369C87.8498 116.41 87.8669 116.448 87.891 116.481C88.0039 116.682 101.061 134.836 102.291 153.329Z" fill="#1E0336"/>
<path opacity="0.56" d="M100.121 155.008C100.046 155.043 99.9887 155.106 99.9605 155.183C99.9324 155.261 99.9358 155.346 99.9702 155.421C99.9932 155.478 100.033 155.527 100.085 155.56C100.136 155.594 100.197 155.611 100.259 155.609H100.384C100.648 155.484 126.587 143.719 140.096 149.858C140.173 149.893 140.26 149.896 140.339 149.867C140.418 149.837 140.481 149.778 140.516 149.701C140.551 149.625 140.554 149.538 140.525 149.459C140.496 149.38 140.436 149.317 140.36 149.282C126.6 143.005 101.199 154.519 100.121 155.008Z" fill="#1E0336"/>
</g>
<g opacity="0.56">
<path opacity="0.56" d="M117.844 182.621C113.203 182.948 108.591 183.613 104.047 184.613C104.001 184.616 103.956 184.628 103.916 184.65C103.876 184.671 103.84 184.701 103.813 184.737C103.785 184.774 103.766 184.816 103.756 184.861C103.747 184.905 103.747 184.952 103.757 184.996C103.767 185.041 103.787 185.083 103.815 185.119C103.844 185.155 103.879 185.184 103.92 185.205C103.961 185.226 104.006 185.238 104.051 185.239C104.097 185.241 104.143 185.233 104.185 185.215C104.436 185.215 129.359 179.427 138.353 187.069C138.41 187.115 138.48 187.142 138.553 187.144C138.599 187.144 138.644 187.134 138.685 187.114C138.726 187.095 138.763 187.067 138.792 187.032C138.822 187.003 138.846 186.969 138.862 186.932C138.878 186.894 138.887 186.853 138.887 186.812C138.887 186.771 138.878 186.731 138.862 186.693C138.846 186.655 138.822 186.621 138.792 186.593C134.866 183.285 127.829 181.945 117.844 182.621Z" fill="#1E0336"/>
<path opacity="0.56" d="M128.619 167.875C129.784 166.194 130.848 164.445 131.805 162.638C131.827 162.699 131.868 162.752 131.922 162.788C131.976 162.824 132.041 162.842 132.106 162.838C133.825 162.688 138.541 162.65 139.732 164.229C139.76 164.269 139.798 164.302 139.842 164.324C139.886 164.346 139.934 164.356 139.983 164.354C140.051 164.35 140.116 164.329 140.172 164.291C140.229 164.233 140.261 164.154 140.261 164.072C140.261 163.99 140.229 163.912 140.172 163.853C138.528 161.685 132.257 162.187 131.993 162.212C134.076 158.267 135.58 154.043 136.459 149.67C136.473 149.589 136.455 149.505 136.408 149.437C136.361 149.369 136.289 149.322 136.208 149.307C136.167 149.298 136.125 149.297 136.085 149.305C136.044 149.313 136.005 149.329 135.971 149.353C135.937 149.376 135.908 149.407 135.886 149.442C135.864 149.477 135.85 149.516 135.844 149.558C133.752 159.462 128.736 168.513 121.444 175.542C121.414 175.571 121.39 175.604 121.374 175.642C121.358 175.68 121.349 175.721 121.349 175.762C121.349 175.803 121.358 175.843 121.374 175.881C121.39 175.919 121.414 175.953 121.444 175.981C119.663 175.981 117.945 176.169 116.427 176.344C114.232 176.582 112.162 176.908 110.344 177.246C112.062 175.467 116.477 170.832 120.78 165.469C120.85 165.478 120.922 165.462 120.982 165.423C121.041 165.384 121.085 165.325 121.106 165.256C121.118 165.198 121.118 165.139 121.106 165.081C125.508 159.556 129.723 153.329 130.751 148.706C130.761 148.665 130.762 148.623 130.755 148.583C130.748 148.542 130.733 148.503 130.711 148.468C130.689 148.433 130.66 148.403 130.626 148.379C130.592 148.355 130.554 148.339 130.513 148.33C130.432 148.314 130.348 148.33 130.278 148.375C130.208 148.419 130.158 148.488 130.137 148.568C129.372 152.026 126.7 156.486 123.514 160.859C120.065 158.353 101.952 163.126 101.187 163.364C101.107 163.385 101.039 163.436 100.997 163.506C100.955 163.577 100.942 163.661 100.961 163.74C100.976 163.809 101.014 163.87 101.069 163.913C101.124 163.957 101.192 163.98 101.262 163.978H101.35C107.76 162.274 120.579 159.556 123.15 161.397C122.297 162.562 121.407 163.703 120.516 164.818C115.762 163.928 102.266 166.948 101.701 167.073C101.66 167.078 101.62 167.091 101.584 167.111C101.548 167.131 101.516 167.159 101.49 167.191C101.465 167.224 101.446 167.261 101.435 167.301C101.424 167.341 101.42 167.383 101.425 167.424C101.43 167.465 101.443 167.505 101.463 167.541C101.484 167.577 101.511 167.609 101.544 167.634C101.576 167.66 101.614 167.679 101.654 167.69C101.694 167.701 101.735 167.704 101.776 167.699H101.839C101.977 167.699 115.198 164.717 120.09 165.394C115.072 171.558 110.055 176.67 109.302 177.509C105.615 178.236 103.156 178.95 103.119 178.963C103.079 178.974 103.042 178.994 103.01 179.019C102.978 179.045 102.951 179.077 102.931 179.113C102.912 179.149 102.899 179.189 102.895 179.229C102.89 179.27 102.894 179.312 102.905 179.351C102.915 179.392 102.934 179.43 102.959 179.463C102.984 179.496 103.016 179.523 103.053 179.543C103.089 179.563 103.13 179.575 103.171 179.579C103.213 179.583 103.255 179.578 103.294 179.564C103.369 179.564 105.803 178.85 109.403 178.136H109.478C117.28 176.62 130.614 175.066 138.415 180.04C138.469 180.052 138.525 180.052 138.579 180.04C138.63 180.041 138.682 180.029 138.728 180.005C138.774 179.981 138.813 179.945 138.842 179.902C138.886 179.832 138.902 179.747 138.885 179.666C138.869 179.584 138.822 179.512 138.754 179.464C134.151 176.532 127.716 175.843 121.921 175.993C124.249 173.697 126.373 171.203 128.268 168.539H128.356C128.443 168.539 137.023 168.539 139.845 170.393C139.896 170.432 139.957 170.454 140.021 170.456C140.071 170.455 140.12 170.443 140.164 170.418C140.208 170.394 140.245 170.36 140.272 170.318C140.296 170.284 140.313 170.246 140.322 170.206C140.332 170.165 140.333 170.124 140.326 170.083C140.319 170.042 140.304 170.003 140.282 169.968C140.259 169.933 140.23 169.903 140.197 169.879C137.45 168 130.2 167.887 128.619 167.875Z" fill="#1E0336"/>
<path opacity="0.56" d="M109.629 184.751C109.58 184.683 109.508 184.636 109.426 184.62C109.345 184.604 109.26 184.619 109.189 184.663C109.155 184.685 109.125 184.713 109.102 184.747C109.079 184.78 109.063 184.818 109.054 184.858C109.046 184.897 109.046 184.938 109.054 184.978C109.062 185.018 109.079 185.056 109.102 185.089C109.265 185.352 126.073 211.4 137.424 218.166C137.478 218.176 137.534 218.176 137.588 218.166C137.659 218.169 137.729 218.148 137.786 218.106C137.844 218.065 137.886 218.005 137.905 217.936C137.923 217.868 137.919 217.795 137.891 217.73C137.863 217.664 137.813 217.61 137.751 217.577C126.512 210.899 109.792 185.002 109.629 184.751Z" fill="#1E0336"/>
<path opacity="0.56" d="M136.986 226.297H137.111C137.182 226.295 137.251 226.268 137.305 226.222C137.36 226.175 137.396 226.112 137.41 226.042C137.423 225.972 137.411 225.899 137.378 225.836C137.344 225.773 137.29 225.724 137.224 225.696C127.904 221.862 119.864 213.167 114.759 206.514C111.428 202.204 108.438 197.642 105.815 192.87C105.775 192.797 105.709 192.742 105.63 192.716C105.55 192.691 105.464 192.696 105.389 192.732C105.353 192.752 105.321 192.778 105.295 192.811C105.269 192.843 105.249 192.88 105.238 192.919C105.226 192.959 105.222 193 105.227 193.041C105.231 193.082 105.244 193.122 105.263 193.158C107.902 197.964 110.909 202.559 114.257 206.902C119.412 213.568 127.54 222.401 136.986 226.297Z" fill="#1E0336"/>
<path opacity="0.56" d="M137.036 228.089C126.637 230.469 110.168 221.06 109.992 220.96C109.922 220.928 109.841 220.923 109.768 220.947C109.694 220.97 109.631 221.021 109.592 221.088C109.553 221.155 109.54 221.234 109.556 221.31C109.572 221.386 109.616 221.453 109.679 221.498C110.293 221.849 123 229.103 133.298 229.103C134.601 229.112 135.9 228.978 137.174 228.703C137.214 228.694 137.252 228.677 137.286 228.653C137.32 228.629 137.349 228.599 137.371 228.564C137.393 228.529 137.408 228.49 137.415 228.45C137.422 228.409 137.421 228.367 137.412 228.327C137.403 228.286 137.386 228.248 137.363 228.214C137.339 228.18 137.309 228.151 137.274 228.129C137.239 228.107 137.2 228.092 137.159 228.085C137.118 228.078 137.076 228.079 137.036 228.089Z" fill="#1E0336"/>
<path opacity="0.56" d="M135.117 236.947C127.791 239.39 110.632 231.07 110.456 230.983C110.383 230.948 110.299 230.942 110.222 230.968C110.144 230.994 110.08 231.048 110.042 231.121C110.007 231.196 110.001 231.282 110.027 231.361C110.052 231.44 110.107 231.507 110.18 231.547C110.795 231.847 123.552 238.024 131.855 238.024C133.027 238.051 134.196 237.89 135.317 237.548C135.357 237.535 135.393 237.514 135.425 237.487C135.456 237.459 135.482 237.426 135.501 237.389C135.519 237.352 135.53 237.311 135.533 237.27C135.536 237.228 135.531 237.186 135.518 237.147C135.505 237.108 135.484 237.071 135.457 237.04C135.429 237.008 135.396 236.982 135.359 236.964C135.322 236.945 135.281 236.934 135.239 236.931C135.198 236.928 135.156 236.933 135.117 236.947Z" fill="#1E0336"/>
<path opacity="0.56" d="M121.946 247.396C118.676 246.724 115.35 246.355 112.012 246.293C111.929 246.293 111.849 246.326 111.79 246.385C111.731 246.444 111.698 246.523 111.698 246.606C111.698 246.69 111.731 246.769 111.79 246.828C111.849 246.887 111.929 246.92 112.012 246.92C112.2 246.92 130.664 247.02 134.301 255.502C134.326 255.558 134.366 255.606 134.417 255.639C134.469 255.672 134.529 255.69 134.59 255.69H134.715C134.79 255.654 134.848 255.592 134.878 255.515C134.909 255.438 134.909 255.353 134.878 255.276C133.273 251.555 128.92 248.912 121.946 247.396Z" fill="#1E0336"/>
<path opacity="0.56" d="M120.165 251.756C120.165 251.756 120.165 251.681 120.165 251.643C120.119 251.573 120.047 251.524 119.966 251.505C119.884 251.486 119.798 251.5 119.726 251.543C118.526 251.076 117.299 250.682 116.051 250.365C113.094 249.648 110.073 249.228 107.032 249.112C106.951 249.112 106.873 249.143 106.815 249.199C106.756 249.255 106.722 249.332 106.718 249.413C106.718 249.497 106.751 249.578 106.81 249.639C106.868 249.7 106.948 249.735 107.032 249.739C108.679 249.802 110.321 249.965 111.949 250.227C110.306 251.255 98.5905 258.759 98.5905 264.811C98.5905 264.894 98.6235 264.973 98.6823 265.032C98.7411 265.091 98.8209 265.124 98.904 265.124C98.9872 265.124 99.0669 265.091 99.1257 265.032C99.1846 264.973 99.2176 264.894 99.2176 264.811C99.2176 258.797 112.325 250.728 112.463 250.641C112.514 250.608 112.552 250.559 112.572 250.503C112.593 250.446 112.594 250.385 112.576 250.327C114.802 250.677 116.99 251.235 119.111 251.994C116.603 253.685 108.437 259.812 109.077 265.7C109.083 265.778 109.119 265.85 109.178 265.901C109.236 265.953 109.312 265.979 109.39 265.976C109.471 265.966 109.545 265.926 109.597 265.863C109.648 265.8 109.673 265.719 109.666 265.638C108.989 259.812 118.058 253.409 119.701 252.269C123.012 253.597 125.972 255.615 127.34 258.672C127.364 258.728 127.405 258.775 127.456 258.809C127.507 258.842 127.567 258.86 127.628 258.86H127.754C127.828 258.824 127.886 258.762 127.917 258.685C127.947 258.608 127.947 258.523 127.917 258.446C126.8 255.64 124.116 253.372 120.165 251.756Z" fill="#1E0336"/>
</g>
<g opacity="0.56">
<path opacity="0.56" d="M25.6385 186.255L25.2748 186.756C25.4002 186.843 37.3289 195.689 34.4189 207.804L35.0335 207.955C35.6023 205.25 35.5784 202.454 34.9635 199.76C34.3486 197.065 33.1572 194.535 31.4712 192.344C29.845 190.032 27.8786 187.979 25.6385 186.255Z" fill="#1E0336"/>
<path opacity="0.56" d="M21.3236 189.45L21.2484 189.362C20.9277 187.549 20.4492 185.767 19.8185 184.037L19.2289 184.263C19.7243 185.64 20.1183 187.051 20.408 188.485C15.3906 184.037 1.21671 181.582 0.56446 181.469L0.464111 182.083C0.627174 182.083 16.645 184.877 20.6212 189.6C20.9606 191.467 21.0742 193.369 20.9599 195.263C17.6108 191.605 4.05149 188.034 3.39924 187.884L3.23619 188.485C3.38671 188.485 18.3509 192.457 20.7968 196.077L20.8846 196.015C20.7083 197.978 20.0677 199.872 19.0157 201.54L19.5299 201.878C22.0386 198.12 21.9006 193.221 21.2609 189.487L21.3236 189.45Z" fill="#1E0336"/>
<path opacity="0.56" d="M27.7082 184.1L27.4448 184.676C28.1472 185.002 42.9107 191.817 52.0673 191.817C53.2977 191.842 54.5246 191.677 55.7049 191.329L55.5042 190.74C47.6395 193.308 27.934 184.2 27.7082 184.1Z" fill="#1E0336"/>
<path opacity="0.56" d="M56.4449 185.215C56.7711 183.31 59.6059 165.97 56.884 153.717L56.2693 153.855C59.0163 166.208 56.0435 183.836 55.8052 185.177C45.3943 184.851 30.2419 180.805 30.0538 180.754L29.8907 181.356C30.7061 181.581 46.6988 185.841 57.0847 185.841C59.0316 185.899 60.9763 185.667 62.8546 185.152L62.6539 184.551C60.6312 185.092 58.5365 185.316 56.4449 185.215Z" fill="#1E0336"/>
<path opacity="0.56" d="M50.2862 184.751C50.2862 184.601 53.9238 169.641 51.4778 158.979L50.8757 159.117C53.2715 169.629 49.7092 184.451 49.6841 184.601L50.2862 184.751Z" fill="#1E0336"/>
<path opacity="0.56" d="M61.2741 148.305L60.8978 148.818C61.0357 148.919 74.4195 159.08 74.5575 174.189H75.1846C75.0466 158.754 61.4121 148.417 61.2741 148.305Z" fill="#1E0336"/>
<path opacity="0.56" d="M86.0597 141.514L85.5203 141.84C85.583 141.94 91.3655 151.738 91.1774 159.944H91.8045C91.9927 151.575 86.1224 141.627 86.0597 141.514Z" fill="#1E0336"/>
<path opacity="0.56" d="M82.3719 146.325C85.6457 140.75 89.208 135.475 91.1522 134.861L90.9641 134.26C86.9628 135.513 77.5553 153.767 76.5895 155.647C75.3699 153.605 73.9269 151.706 72.2871 149.983L72.5756 150.134C75.7992 143.869 84.7175 127.519 87.1635 126.329L86.875 125.765C83.8144 127.294 72.9519 148.079 72.0613 149.77C70.0634 147.658 67.7992 145.813 65.3255 144.283L65.012 144.822C65.1625 144.909 79.8884 153.391 79.8131 169.466H80.4403C80.4433 164.686 79.1424 159.995 76.6773 155.897L77.041 156.085C78.2953 153.579 80.1517 150.146 82.0583 146.814C82.9614 148.067 88.8192 156.674 88.0415 162.788L88.6687 162.863C89.5342 156.022 82.7231 146.663 82.397 146.262L82.3719 146.325Z" fill="#1E0336"/>
</g>
<path d="M61.2113 76.8774C61.2113 76.8774 64.9743 84.3947 56.194 93.1649C47.4137 101.935 36.1247 119.476 38.6334 132.005L41.1421 124.487L43.6507 132.005C43.6507 132.005 43.6507 123.234 48.6681 118.223C53.6854 113.211 71.246 94.4178 68.7373 80.636C68.7373 80.636 63.72 73.1187 61.2113 76.8774Z" fill="#C7BFD8"/>
<path d="M157.519 82.6281C151.824 75.2235 123.15 88.3663 115.499 92.0623C110.18 91.5862 101.776 93.453 88.3927 98.2391C88.162 98.1828 87.9211 98.1828 87.6903 98.2391C87.6903 98.2391 72.5254 99.943 71.1331 104.24C69.7408 108.538 66.4545 119.889 69.214 120.415C71.9735 120.941 74.0557 109.929 76.8152 110.392C79.5748 110.856 79.048 113.675 78.5211 116.418C77.9943 119.162 83.1747 119.012 84.5545 114.715C85.9342 110.417 94.7146 110.48 94.7146 110.48V110.417C100.133 110.066 109.767 109.164 116.565 107.059C165.986 104.566 164.004 91.0725 157.519 82.6281Z" fill="#C7BFD8"/>
<path opacity="0.41" d="M115.511 92.0372C110.193 91.5611 101.789 93.4279 88.4053 98.214C88.1746 98.1577 87.9336 98.1577 87.7028 98.214C87.7028 98.214 72.538 99.9179 71.1457 104.215C70.052 107.56 69.1722 110.97 68.5116 114.426C70.5529 110.817 73.3193 107.669 76.637 105.178C79.9547 102.688 83.7521 100.91 87.7907 99.9555C89.9171 99.1834 92.0866 98.535 94.2881 98.0135C105.276 95.3449 116.603 94.2548 127.528 91.3106C135.154 89.2433 140.824 86.4368 145.239 81.0369C134.54 83.1668 120.529 89.6442 115.511 92.0372Z" fill="white"/>
<path opacity="0.17" d="M157.682 82.8535C147.647 100.106 129.146 102.962 110.532 106.27C108.174 106.696 105.514 107.047 102.73 107.523C102.236 108.144 101.614 108.653 100.906 109.014C100.199 109.374 99.4218 109.58 98.6281 109.615C96.1693 109.773 93.7346 110.193 91.3655 110.868C92.4738 110.695 93.5929 110.598 94.7146 110.58V110.517C100.133 110.167 109.767 109.264 116.565 107.16C165.547 104.629 164.041 91.3105 157.682 82.8535Z" fill="#1E0336"/>
<g opacity="0.56">
<path opacity="0.56" d="M104.222 109.728C120.88 108.175 146.957 105.118 152.928 100.895L152.564 100.382C146.769 104.479 120.679 107.536 104.072 109.152L88.9572 97.9761L88.5809 98.4772L103.131 109.24C95.6051 109.941 90.1864 110.33 90.0108 110.342V110.969C90.7007 110.969 96.2825 110.517 103.808 109.816L103.997 109.954L104.222 109.728Z" fill="#1E0336"/>
<path opacity="0.56" d="M114.445 107.473L113.053 106.734C119.514 101.765 124.21 94.8575 126.449 87.0257L138.077 83.5678C139.624 85.3459 140.893 87.3483 141.84 89.5065C143.972 94.4053 143.759 98.9532 141.225 103.013L141.752 103.338C144.374 99.1537 144.599 94.28 142.404 89.2434C141.47 87.1201 140.237 85.1413 138.742 83.3673L141.94 82.4151L141.765 81.8137L138.277 82.8536L96.2449 95.3825L96.4204 95.9839L118.66 89.3686C116.214 95.3073 107.07 103.15 106.969 103.263L107.371 103.727L94.978 97.1366L94.6895 97.6878L114.157 108.037L114.445 107.473ZM119.35 89.3561L119.036 89.2434L125.722 87.2513C123.461 94.8955 118.799 101.611 112.426 106.408L107.408 103.714C107.785 103.376 116.979 95.4577 119.35 89.3561Z" fill="#1E0336"/>
<path opacity="0.56" d="M134.038 105.08C140.197 95.4201 131.241 85.8104 131.153 85.7102L130.701 86.1362C130.789 86.2364 139.394 95.4953 133.511 104.742L134.038 105.08Z" fill="#1E0336"/>
</g>
<path d="M98.8413 90.6592C100.51 88.0031 102.379 85.4848 104.235 82.9539C106.091 80.4231 107.998 77.9424 110.13 75.6245C108.449 78.2932 106.581 80.799 104.737 83.3298C102.893 85.8606 100.923 88.2787 98.8413 90.6592Z" fill="#1E0336"/>
<g opacity="0.35">
<path opacity="0.35" d="M64.9744 70.2996C64.8912 70.2996 64.8115 70.3326 64.7526 70.3913C64.6938 70.4501 64.6608 70.5297 64.6608 70.6128C64.6608 70.7256 64.6608 81.751 61.0358 84.1315C61.0009 84.1543 60.9709 84.1838 60.9475 84.2182C60.9241 84.2527 60.9079 84.2915 60.8997 84.3324C60.8915 84.3732 60.8916 84.4152 60.8999 84.456C60.9082 84.4968 60.9245 84.5356 60.948 84.57C60.9778 84.6122 61.0172 84.6467 61.063 84.6707C61.1088 84.6946 61.1597 84.7074 61.2114 84.7078C61.2687 84.7245 61.3296 84.7245 61.387 84.7078C65.2378 82.1394 65.2879 71.1265 65.2879 70.6629C65.2953 70.6178 65.2926 70.5716 65.2802 70.5276C65.2677 70.4836 65.2458 70.4429 65.2159 70.4083C65.1861 70.3736 65.1489 70.346 65.1072 70.3272C65.0655 70.3084 65.0201 70.299 64.9744 70.2996Z" fill="#1E0336"/>
<path opacity="0.35" d="M71.6098 80.5483C72.3248 80.3604 88.9697 75.9001 92.7327 73.3943C92.8026 73.3478 92.8511 73.2755 92.8676 73.1932C92.884 73.111 92.8671 73.0256 92.8205 72.9558C92.774 72.886 92.7016 72.8376 92.6192 72.8211C92.5369 72.8047 92.4514 72.8216 92.3815 72.8681C88.8192 75.2486 72.6885 79.6086 71.522 79.9219C71.7456 77.0919 71.3607 74.2468 70.3931 71.5776C70.3598 71.5012 70.2975 71.4411 70.2199 71.4105C70.1423 71.38 70.0557 71.3815 69.9792 71.4147C69.9027 71.448 69.8425 71.5102 69.8119 71.5877C69.7813 71.6653 69.7828 71.7518 69.8161 71.8282C71.4653 76.3712 71.2991 81.3741 69.352 85.7979C69.333 85.8356 69.3218 85.8767 69.3192 85.9188C69.3165 85.9609 69.3224 86.0031 69.3364 86.0429C69.3505 86.0827 69.3724 86.1193 69.401 86.1503C69.4295 86.1814 69.4641 86.2065 69.5025 86.2239H69.628C69.6881 86.2268 69.7477 86.2117 69.7992 86.1804C69.8506 86.1491 69.8914 86.1032 69.9164 86.0485C70.7343 84.3007 71.2557 82.4293 71.4593 80.5107L71.6098 80.5483Z" fill="#1E0336"/>
<path opacity="0.35" d="M92.1181 80.4356C92.0824 80.4139 92.0424 80.4 92.001 80.3946C91.9595 80.3892 91.9174 80.3925 91.8772 80.4043C91.8371 80.4161 91.7999 80.4361 91.7679 80.4631C91.736 80.49 91.71 80.5233 91.6917 80.5609C91.6721 80.5961 91.6597 80.6349 91.6554 80.675C91.6512 80.715 91.655 80.7556 91.6667 80.7941C91.6784 80.8327 91.6977 80.8685 91.7235 80.8995C91.7494 80.9304 91.7812 80.9559 91.8171 80.9743L102.278 86.675C102.328 86.6877 102.379 86.6877 102.429 86.675C102.485 86.6727 102.539 86.6566 102.587 86.6282C102.635 86.5998 102.676 86.5599 102.705 86.5121C102.742 86.4384 102.749 86.3535 102.726 86.2745C102.703 86.1954 102.65 86.1281 102.579 86.0861L92.1181 80.4356Z" fill="#1E0336"/>
<path opacity="0.35" d="M104.95 82.3274L95.6428 77.2156C97.6108 75.6983 99.3401 73.895 100.773 71.8657C100.799 71.8338 100.817 71.7967 100.827 71.7571C100.837 71.7174 100.839 71.6761 100.832 71.6358C100.825 71.5955 100.809 71.5571 100.786 71.5233C100.763 71.4895 100.733 71.4611 100.698 71.4398C100.666 71.4142 100.629 71.3958 100.589 71.3857C100.549 71.3755 100.508 71.374 100.467 71.3811C100.427 71.3882 100.389 71.4038 100.355 71.4269C100.321 71.45 100.293 71.48 100.271 71.5149C90.8763 84.8081 71.2837 83.7306 71.0955 83.7181C71.0537 83.7107 71.0107 83.7126 70.9697 83.7238C70.9286 83.7349 70.8906 83.755 70.8582 83.7825C70.8259 83.81 70.8 83.8444 70.7825 83.883C70.7649 83.9217 70.7562 83.9638 70.7569 84.0062C70.7531 84.0886 70.7808 84.1694 70.8344 84.2322C70.8879 84.2949 70.9633 84.3351 71.0453 84.3445C71.0453 84.3445 71.522 84.3445 72.2997 84.3445C75.9121 84.3445 86.737 83.7682 95.1285 77.5789L104.636 82.8035C104.686 82.8148 104.737 82.8148 104.787 82.8035C104.843 82.8024 104.898 82.7868 104.946 82.7582C104.995 82.7297 105.035 82.6892 105.063 82.6406C105.075 82.5831 105.071 82.5232 105.051 82.4678C105.031 82.4124 104.996 82.3637 104.95 82.3274Z" fill="#1E0336"/>
</g>
</g>
<defs>
<clipPath id="clip0_157_1642">
<rect width="181" height="271" fill="white"/>
</clipPath>
</defs>
</svg>
