<svg width="472" height="300" viewBox="0 0 472 300" fill="none" xmlns="http://www.w3.org/2000/svg">
<g clip-path="url(#clip0_193_2785)">
<path d="M130.739 176.854C129.597 177.05 115.888 187.902 116.452 187.902C117.016 187.902 137.88 186.965 137.692 186.403C137.504 185.841 130.739 176.854 130.739 176.854Z" fill="#498A91"/>
<path d="M194.267 96.4865C194.267 96.3312 189.786 79.6729 189.786 79.6729L184.603 96.4865H194.267Z" fill="#498A91"/>
<path d="M126.946 167.456C127.96 166.199 129.423 165.391 130.909 164.76C132.101 164.225 133.365 163.867 134.661 163.696C136.48 163.545 138.311 163.79 140.027 164.413C142.609 165.276 145.159 166.848 146.205 169.356C146.541 170.239 146.764 171.16 146.87 172.098C147.121 173.455 147.155 174.842 146.971 176.21C146.777 177.589 146.045 178.836 144.934 179.682C143.494 180.683 141.54 180.646 139.889 180.102C138.238 179.559 136.748 178.567 135.202 177.736C131.693 175.844 122.373 173.135 126.946 167.456Z" fill="#498A91"/>
<path d="M177.907 95.4538C175.939 96.5093 174.738 98.6018 174.073 100.731C172.942 104.404 173.12 108.354 174.577 111.911C175.165 113.443 176.108 114.814 177.329 115.913C178.758 117.091 180.523 117.791 182.374 117.915C183.264 118.008 184.164 117.923 185.021 117.663C187.401 116.882 188.846 114.429 189.428 112.002C190.113 108.975 189.811 105.809 188.566 102.965C187.254 99.9222 185.085 97.9393 182.503 95.993C181.122 94.9467 179.498 94.5994 177.907 95.4538Z" fill="#498A91"/>
<path d="M84.3005 85.6489C83.8084 87.4765 82.7985 89.1244 81.3914 90.3956C79.9844 91.6668 78.2397 92.5076 76.3658 92.8176C78.8655 89.3269 79.6773 84.7854 79.0077 80.55C78.338 76.3146 76.2558 72.3762 73.5313 69.0683C72.3434 67.6337 70.9262 65.8198 71.6967 64.111C72.4031 62.5073 74.5586 62.2149 76.3061 62.4068C80.8609 62.928 85.062 65.1066 88.1028 68.5246C90.9832 71.7868 93.5378 77.137 92.359 81.5643C91.4417 85.0641 88.8412 91.3281 85.7361 93.247C85.9562 90.5879 85.6627 88.0248 84.3005 85.6489Z" fill="#6D462C"/>
<path d="M225.855 35.7063C224.552 36.7503 223.195 37.7263 221.791 38.6304C219.076 40.458 216.287 42.2855 213.159 43.1993C210.031 44.1131 206.421 44.0309 203.72 42.1896C202.344 41.2758 201.211 39.7498 201.28 38.0775C201.375 36.9443 201.862 35.8788 202.656 35.0621C204.578 32.9329 207.463 31.978 210.251 31.2836C214.498 30.2281 218.92 29.5748 223.304 29.9586C224.589 30.0682 226.905 30.0408 227.652 31.3293C228.588 32.9695 226.997 34.7605 225.855 35.7063Z" fill="#563823"/>
<path d="M35.2292 153.36C28.5175 155.797 21.8823 158.415 15.3235 161.214C13.5944 161.954 11.6544 162.996 11.3516 164.847C11.1177 166.35 12.1818 167.816 13.5348 168.502C14.8879 169.187 16.461 169.301 17.9883 169.324C22.9503 169.4 27.9011 168.832 32.7157 167.634C33.6331 167.405 34.7659 166.373 34.0228 165.779L35.2292 153.36Z" fill="#6D462C"/>
<path d="M180.998 16.4207C179.966 12.7309 178.596 9.14298 176.907 5.70197C176.558 4.85019 176.019 4.08911 175.329 3.4769C174.605 2.91492 173.518 2.71389 172.77 3.24845C172.246 3.71461 171.892 4.34163 171.766 5.03033C170.449 9.52118 169.812 14.1825 169.876 18.8605C169.838 18.8814 169.794 18.891 169.75 18.8881C169.707 18.8851 169.665 18.8698 169.629 18.8438C169.594 18.8179 169.567 18.7824 169.551 18.7416C169.536 18.7008 169.532 18.6565 169.541 18.6137L180.998 16.4207Z" fill="#6D462C"/>
<path d="M190.483 284.411C190.442 284.867 191.254 295.463 189.749 296.546C188.245 297.628 166.436 298.044 163.698 296.546C160.96 295.047 161.088 290.172 163.547 287.125C169.72 279.462 177.49 278.731 177.49 278.731L190.492 284.411H190.483Z" fill="#895836"/>
<path d="M220.777 283.173C220.736 283.63 221.548 294.225 220.044 295.308C218.539 296.391 196.73 296.807 193.992 295.308C191.254 293.809 191.382 288.939 193.841 285.887C200.014 278.238 207.775 277.494 207.775 277.494L220.777 283.173Z" fill="#6D462C"/>
<path d="M352.906 105.898C391.566 116.731 432.308 122.424 472 116.343C459.801 127.146 445.015 134.636 429.065 138.091C434.26 138.306 439.429 138.937 444.522 139.978C431.432 145.05 416.838 143.67 402.872 142.212C409.194 147.543 416.132 152.103 423.539 155.796C409.32 157.568 395.35 151.684 382.306 145.744C383.034 147.749 384.059 149.634 385.347 151.336C379.764 149.378 374.471 146.681 369.61 143.318C357.185 134.71 347.833 121.903 334.427 114.922C328.877 112.03 322.841 110.262 316.787 108.772C313.366 107.927 304.725 106.808 306.665 101.119C308.875 94.6315 327.524 99.406 331.748 100.288C338.899 101.796 345.884 103.929 352.906 105.898Z" fill="#895836"/>
<path d="M343.476 138.164C356.589 155.91 361.148 179.659 355.525 200.973C354.209 205.999 352.677 212.172 356.534 215.635C358.57 217.463 361.735 218.006 363.175 220.327C364.689 222.767 363.574 225.901 362.575 228.592C357.556 242.14 356.213 256.767 358.681 270.997C359.474 275.515 360.648 280.135 359.685 284.63C358.722 289.126 354.741 293.394 350.173 292.813C346.018 276.349 343.809 259.457 343.591 242.482C343.536 238.274 343.591 233.966 342.215 229.981C340.839 225.997 338.087 222.507 335.11 219.409C324.717 208.512 311.439 200.718 300.762 190.095C290.084 179.472 281.911 164.248 285.81 149.728C289.245 136.935 301.711 127.583 313.453 122.557C325.313 117.476 336.716 129.017 343.476 138.164Z" fill="#6D462C"/>
<path d="M351.938 152.031C355.915 173.715 328.341 198.533 313.911 215.237C310.522 219.162 306.422 224.055 308.362 228.853C309.389 231.389 311.994 233.253 312.265 235.971C312.554 238.822 310.173 241.157 308.091 243.135C297.619 253.121 289.976 265.681 285.934 279.55C284.654 283.959 283.672 288.628 280.833 292.242C277.994 295.856 272.536 297.958 268.684 295.44C272.196 278.827 277.643 262.679 284.915 247.325C286.718 243.519 288.663 239.672 289.185 235.496C289.708 231.32 288.727 226.966 287.456 222.89C282.911 208.558 279.384 198.748 279.618 183.716C279.925 163.947 279.866 147.384 289.763 136.035C298.478 126.034 297.845 125.773 310.609 126.381C323.497 126.998 349.888 140.864 351.938 152.031Z" fill="#895836"/>
<path d="M139.999 176.388L178.843 161.342C178.843 161.342 191.648 216.412 191.946 244.382C192.245 272.353 189.566 293.626 189.566 293.626H177.641C177.641 293.626 178.1 243.711 171.087 224.371C163.331 202.901 139.999 176.388 139.999 176.388Z" fill="#895836"/>
<path d="M175.082 181.254C175.141 182.825 193.795 200.69 201.537 219.751C209.279 238.813 208.086 289.007 208.086 289.007H220.011C220.011 289.007 222.69 267.721 222.392 239.763C222.094 211.806 209.293 156.723 209.293 156.723L175.095 181.254H175.082Z" fill="#6D462C"/>
<path d="M79.9386 4.69701C79.7827 4.199 79.4158 3.5822 78.9067 3.7284C78.6826 3.82248 78.499 3.99239 78.3883 4.20814C73.8743 11.0153 70.6474 18.587 68.8667 26.5502C72.857 28.6839 81.443 33.5772 83.2593 26.3766C84.8416 20.0486 81.8604 10.7189 79.9386 4.69701Z" fill="#6D462C"/>
<path d="M63.1108 0.99148C62.9549 0.488898 62.5879 -0.123339 62.0788 0.0182972C61.8555 0.1158 61.6724 0.286777 61.5605 0.502605C57.0456 7.30928 53.8186 14.8812 52.0388 22.8446C56.0337 24.9783 64.6152 29.8716 66.4314 22.671C68.023 16.3431 65.0326 7.00875 63.1108 0.99148Z" fill="#6D462C"/>
<path d="M81.6311 24.9372C80.778 24.5169 77.0905 60.6525 70.0272 68.1501C88.2941 81.8513 102.041 100.671 109.508 122.2C110.806 125.965 111.939 129.872 114.205 133.166C116.296 136.195 119.25 138.544 122.525 140.28C132.831 145.762 146.255 144.885 155.727 138.059C164.189 131.964 168.569 121.986 168.775 111.765C168.995 101.165 159.51 93.4117 152.511 86.275C136.023 69.4523 102.793 35.3178 81.6311 24.9372Z" fill="#6D462C"/>
<path d="M161.895 98.1177C161.895 98.1177 181.572 105.844 224.08 106.031C266.588 106.218 306.555 88.1209 321.773 101.284C336.991 114.447 361.107 144.744 348.421 168.447C335.734 192.151 310.99 175.735 283.076 177C255.162 178.266 266.565 193.869 220.268 193.019C173.972 192.169 154.254 192.8 140.004 176.37C125.753 159.94 119.401 150.203 119.401 150.203L161.895 98.1177Z" fill="#895836"/>
<path d="M173.949 89.1077C172.114 78.7728 174.082 67.7846 180.714 58.9528L156.763 49.751C155.607 49.2941 154.383 48.8373 153.126 48.9652C151.649 49.0977 150.434 49.9749 149.402 50.8704C141.439 57.7786 138.394 67.6749 136.894 77.2103C135.413 86.5072 135.079 95.9496 135.899 105.327C136.523 112.45 137.857 119.651 141.563 126.075C145.269 132.499 151.626 138.109 159.74 140.239C167.537 142.263 176.623 140.695 182.599 135.994C189.937 130.233 203.61 118.856 196.973 113.533C186.997 105.506 175.595 98.4695 173.949 89.1077Z" fill="#895836"/>
<path d="M136.894 77.2056C136.894 77.2056 144.329 19.9844 162.12 15.6439C179.911 11.3034 184.012 15.7581 192.442 18.6137C203.959 22.5156 218.287 16.5805 225.089 18.3853C228.95 19.4133 230.629 30.3284 227.918 32.6951C225.208 35.0618 207.38 38.5571 207.38 38.5571L227.102 40.7456C227.102 40.7456 229.038 44.8576 224.396 48.9422C219.754 53.0268 165.987 64.4217 165.987 64.4217L136.894 77.2056Z" fill="#895836"/>
<path d="M88.2769 134.705C88.2769 134.705 89.153 112.811 73.1643 116.43C45.4158 122.675 28.6749 151.871 26.6522 160.264C22.4188 178.014 26.9137 182.067 29.8354 190.446C33.8302 201.891 27.9686 216.206 29.8354 222.968C30.8948 226.81 40.953 227.994 43.3059 225.252C45.6588 222.511 49.9656 205.149 49.9656 205.149L52.291 224.795C52.291 224.795 56.4188 226.696 60.5054 222.054C64.592 217.412 75.641 163.764 75.641 163.764L88.2769 134.705Z" fill="#895836"/>
<path d="M94.8953 78.1376C94.8953 78.1376 116.888 77.9228 112.489 62.192C104.853 34.8973 74.7513 19.6599 66.2433 18.0837C48.232 14.7483 44.3931 19.4178 36.1373 22.7394C24.8545 27.2809 10.2188 22.1546 3.52705 24.3385C-0.270599 25.5767 -0.958511 35.6466 1.88055 37.8534C4.71961 40.0602 22.3456 43.4869 22.3456 43.4869L2.77031 46.7719C2.77031 46.7719 1.06866 50.9708 5.93497 54.8087C10.8013 58.6466 65.1196 67.0077 65.1196 67.0077L94.8953 78.1376Z" fill="#6D462C"/>
<path d="M167.495 18.1201C165.994 14.5945 164.171 11.2131 162.051 8.01822C161.599 7.2218 160.972 6.53765 160.217 6.01703C159.423 5.56013 158.322 5.4916 157.648 6.11754C157.19 6.64785 156.92 7.31465 156.882 8.01365C156.157 12.6364 156.131 17.3412 156.804 21.9717C156.769 21.9964 156.727 22.0106 156.683 22.0129C156.64 22.0151 156.596 22.0052 156.558 21.9843C156.52 21.9635 156.489 21.9324 156.467 21.8946C156.446 21.8569 156.436 21.814 156.437 21.7707L167.495 18.1201Z" fill="#895836"/>
<path d="M148.374 112.989C148.374 112.989 139.752 101.604 93.3909 109.983C47.0302 118.363 36.7931 157.929 36.7931 157.929L58.891 178.49C58.891 178.49 71.559 156.7 98.2435 156.664C124.928 156.627 148.374 183.712 148.374 183.712V112.989Z" fill="#895836"/>
<path d="M42.1869 136.04C35.4753 138.476 28.8386 141.096 22.2768 143.898C20.5477 144.638 18.6075 145.675 18.3094 147.53C18.0755 149.029 19.1395 150.496 20.488 151.186C21.8364 151.875 23.4188 151.985 24.9415 152.008C29.9034 152.082 34.8539 151.514 39.6689 150.317C40.5862 150.089 41.7191 149.056 40.9807 148.458L42.1869 136.04Z" fill="#895836"/>
<path d="M175.082 297.514C175.082 297.514 171.458 295.116 171.458 292.598C171.458 289.368 175.082 286.005 175.082 286.005C175.082 286.005 167.624 287.751 166.826 291.762C166.023 295.902 168.202 297.295 168.202 297.295L175.082 297.514Z" fill="#6D462C"/>
<path d="M282.98 285.292C282.943 285.749 283.75 296.345 282.246 297.423C280.742 298.501 258.933 298.926 256.199 297.423C253.466 295.92 253.585 291.054 256.048 288.006C262.221 280.358 272.642 279.613 272.642 279.613L282.98 285.292Z" fill="#895836"/>
<path d="M359.185 273.779C359.437 274.149 365.606 279.677 363.914 283.419C362.753 286.005 349.017 299.41 345.939 299.95C342.862 300.489 339.899 296.61 339.899 292.699C339.899 282.885 347.554 275.794 347.554 275.794L359.185 273.77V273.779Z" fill="#6D462C"/>
<path d="M267.597 298.396C267.597 298.396 263.969 295.998 263.969 293.48C263.969 290.245 267.597 286.887 267.597 286.887C267.597 286.887 260.134 288.633 259.341 292.644C258.534 296.783 260.717 298.177 260.717 298.177L267.597 298.396Z" fill="#6D462C"/>
<path d="M227.483 18.1203C227.954 18.3469 228.367 18.6783 228.689 19.0889C229.212 19.7971 229.299 20.7292 229.336 21.6064C229.405 23.3655 229.336 25.1291 229.253 26.8881C229.226 27.4318 229.065 28.1354 228.519 28.1902C228.365 28.189 228.213 28.149 228.079 28.0739C227.944 27.9989 227.831 27.8911 227.749 27.7608C226.877 26.6185 227.235 24.7087 226.056 23.8817C225.729 23.6964 225.366 23.5826 224.991 23.5479C224.616 23.5133 224.238 23.5585 223.882 23.6807C223.175 23.93 222.45 24.124 221.713 24.261C220.988 24.3141 220.266 24.1377 219.648 23.757C219.03 23.3762 218.549 22.8106 218.273 22.141C216.31 17.0421 224.69 16.6674 227.483 18.1203Z" fill="#281A10"/>
<path d="M164.73 18.8924C164.73 18.8924 160.868 9.3616 159.905 9.46668C158.942 9.57177 158.529 20.7885 158.529 20.7885L164.73 18.8924Z" fill="#6D462C"/>
<path d="M28.3723 216.539C27.9641 218.052 28.2531 219.66 28.565 221.2C28.7269 222.356 29.1233 223.468 29.73 224.466C30.5629 225.552 31.7477 226.315 33.0826 226.628C34.4088 226.935 35.7664 227.088 37.128 227.084C37.7701 227.084 38.5269 227.084 38.8984 226.554C39.3571 225.924 38.8617 224.987 38.16 224.649C37.4582 224.311 36.6464 224.357 35.8667 224.307C35.087 224.256 34.2339 224.051 33.8165 223.393C33.6554 223.107 33.5709 222.784 33.5709 222.456C33.5709 222.128 33.6554 221.806 33.8165 221.52C34.1499 220.954 34.604 220.469 35.1466 220.099C35.674 219.697 36.2841 219.244 36.3391 218.582C36.3457 218.28 36.2747 217.981 36.1327 217.714C34.9999 215.278 29.3996 212.756 28.3723 216.539Z" fill="#281A10"/>
<path d="M7.62732 23.0454C6.01759 23.1175 4.41386 23.2884 2.82525 23.5571C2.5125 23.5822 2.21493 23.7017 1.97222 23.8998C1.83744 24.0587 1.7374 24.2439 1.67862 24.4435C0.932199 26.4629 0.392825 28.5524 0.0687456 30.6801C-0.0596771 31.5345 -0.0734367 32.5762 0.64206 33.0605C1.4447 33.6042 2.57758 32.9874 3.05917 32.1467C3.54075 31.306 3.64172 30.3191 4.04074 29.4328C4.29759 28.8708 4.76538 28.3179 5.38456 28.3134C6.15969 28.3134 6.62746 29.1312 7.16867 29.684C7.6842 30.185 8.35196 30.5015 9.06733 30.5842C9.78269 30.6669 10.5053 30.511 11.1223 30.1409C12.379 29.3368 13.067 27.0935 12.7368 25.6543C12.2001 23.3332 9.59494 22.954 7.62732 23.0454Z" fill="#281A10"/>
<path d="M39.0589 140.705C39.0589 140.705 24.1068 145.173 24.1068 146.589C24.1068 148.006 32.8533 149.121 32.8533 149.121L39.0589 140.705Z" fill="#6D462C"/>
<path d="M39.9991 167.62C38.4407 168.867 37.1994 170.462 36.3758 172.276C35.619 174.103 35.5318 176.287 36.4812 178.032C37.4765 179.86 39.4487 181.011 40.444 182.839C40.6641 183.241 40.9348 183.753 41.3934 183.721C41.3705 182.78 42.2878 182.135 43.0033 181.519C45.558 179.307 46.3056 175.625 46.09 172.257C46.0806 171.385 45.8736 170.526 45.4846 169.744C44.9984 168.904 44.1361 168.26 43.893 167.318C43.7463 166.729 43.8656 166.098 43.7326 165.491C43.5124 164.49 42.6822 164.207 42.1823 165.034C41.6078 166.014 40.8694 166.888 39.9991 167.62Z" fill="#281A10"/>
<path d="M41.4577 170.265C41.7058 170.313 41.9408 170.412 42.1465 170.558C42.3523 170.704 42.5241 170.893 42.6502 171.111C42.7679 171.334 42.7969 171.593 42.7315 171.837C42.6661 172.081 42.511 172.291 42.297 172.426C42.0631 172.522 41.8111 172.566 41.5586 172.554C40.9749 172.515 40.3953 172.676 39.9166 173.011C39.5864 173.299 39.4029 173.733 39.0543 174.003C37.9673 174.853 37.9765 172.175 38.3251 171.59C38.6551 171.083 39.1297 170.687 39.6879 170.45C40.2461 170.214 40.8624 170.15 41.4577 170.265Z" fill="white"/>
<path d="M34.4494 174.332C34.2765 175.487 34.3891 176.667 34.7776 177.769C35.166 178.871 35.8185 179.862 36.6785 180.655C35.559 180.118 34.5545 179.37 33.7202 178.453C33.1791 177.929 32.7405 177.309 32.4268 176.626C31.7663 174.995 32.3442 173.071 33.4358 171.691C33.8926 171.131 34.4111 170.624 34.9815 170.179C35.3851 169.854 36.0501 169.078 36.1373 169.896C36.1969 170.485 35.4126 171.33 35.1741 171.851C34.8138 172.639 34.5697 173.475 34.4494 174.332Z" fill="#6D462C"/>
<path d="M47.778 171.545C48.2304 173.154 48.094 174.87 47.3928 176.388C46.7023 177.904 45.7008 179.26 44.4528 180.367C45.7846 179.882 47.0022 179.129 48.0303 178.156C49.1136 177.235 49.9505 176.061 50.4657 174.738C50.9244 173.368 50.851 171.782 50.0071 170.832C49.5872 170.406 49.0889 170.065 48.5394 169.827C47.8973 169.498 47.1083 168.881 46.402 168.785C46.1589 169.352 47.5578 170.942 47.778 171.545Z" fill="#6D462C"/>
<path d="M179.191 26.5456C177.471 25.5285 175.536 24.9276 173.54 24.7912C171.555 24.7318 169.477 25.4125 168.17 26.9066C166.794 28.4783 166.409 30.7171 165.037 32.2888C164.739 32.6314 164.363 33.0609 164.542 33.4858C165.418 33.134 166.344 33.7645 167.174 34.2123C170.147 35.8251 173.875 35.2311 176.962 33.8513C177.779 33.5381 178.515 33.0445 179.113 32.4076C179.737 31.6583 180.031 30.6257 180.838 30.0728C181.342 29.7256 181.975 29.6159 182.489 29.287C183.351 28.7296 183.328 27.8569 182.383 27.6787C181.263 27.483 180.183 27.0999 179.191 26.5456Z" fill="#281A10"/>
<path d="M177.201 28.8346C177.243 29.0831 177.232 29.3377 177.167 29.5813C177.102 29.8248 176.985 30.0517 176.825 30.2464C176.654 30.4369 176.418 30.5564 176.163 30.5809C175.908 30.6055 175.653 30.5334 175.449 30.3789C175.278 30.192 175.15 29.9708 175.073 29.7302C174.899 29.169 174.536 28.6849 174.045 28.3595C173.655 28.1539 173.188 28.131 172.811 27.9026C171.633 27.1853 174.187 26.2486 174.82 26.3766C175.42 26.4991 175.968 26.7995 176.393 27.2382C176.818 27.6769 177.099 28.2335 177.201 28.8346Z" fill="white"/>
<path d="M170.935 23.717C168.642 24.2379 166.578 25.8233 165.771 28.0118C165.884 26.7794 166.234 25.5803 166.803 24.4801C167.113 23.7882 167.548 23.1593 168.087 22.6251C169.385 21.4372 171.399 21.3047 173.077 21.8438C173.765 22.0722 174.423 22.3788 175.04 22.7576C175.499 23.018 176.448 23.3698 175.71 23.7353C175.178 24.0003 174.109 23.5617 173.536 23.5252C172.664 23.4609 171.788 23.5255 170.935 23.717Z" fill="#6D462C"/>
<path d="M178.223 35.176C176.872 36.1628 175.212 36.6374 173.541 36.5147C171.872 36.4011 170.246 35.942 168.766 35.1668C169.69 36.2391 170.825 37.1114 172.1 37.73C173.345 38.4178 174.741 38.7868 176.164 38.8037C177.604 38.7671 179.081 38.1275 179.682 37.0172C179.934 36.4771 180.08 35.8941 180.113 35.2993C180.2 34.582 180.503 33.6317 180.342 32.9372C179.723 32.8961 178.714 34.7602 178.223 35.176Z" fill="#6D462C"/>
<path d="M66.8991 32.8642C65.8438 31.1738 64.4028 29.7555 62.6933 28.7248C60.955 27.7562 58.7993 27.409 56.9463 28.1354C55.0062 28.8984 53.6257 30.7123 51.681 31.4799C51.2544 31.6443 50.727 31.8591 50.6903 32.3114C51.6306 32.4028 52.1626 33.3851 52.69 34.1664C54.5842 36.9626 58.1664 38.1414 61.5466 38.3332C62.4173 38.4308 63.299 38.3292 64.1243 38.0363C65.0416 37.657 65.7663 36.8803 66.734 36.757C67.3395 36.6793 67.9541 36.8712 68.5687 36.8118C69.596 36.7158 69.9767 35.93 69.2199 35.336C68.3108 34.6496 67.5259 33.8137 66.8991 32.8642Z" fill="#281A10"/>
<path d="M64.0738 33.9881C63.9973 34.2286 63.8695 34.4499 63.6994 34.6367C63.5292 34.8236 63.3206 34.9717 63.0878 35.071C62.8512 35.1585 62.5904 35.1551 62.3563 35.0613C62.1222 34.9675 61.9317 34.7901 61.8219 34.5638C61.7545 34.3198 61.742 34.0639 61.7851 33.8145C61.8865 33.2381 61.7862 32.6446 61.5008 32.1331C61.2532 31.7722 60.8449 31.5392 60.6202 31.1645C59.9001 29.9857 62.5833 30.3147 63.1061 30.7076C63.5813 31.093 63.9281 31.6127 64.1009 32.1983C64.2737 32.7839 64.2642 33.4079 64.0738 33.9881Z" fill="white"/>
<path d="M60.877 26.5728C59.747 26.2624 58.5579 26.2317 57.4133 26.4833C56.2686 26.7349 55.203 27.2613 54.3091 28.0166C54.9791 26.9747 55.845 26.0717 56.8592 25.3575C57.4496 24.8821 58.1251 24.5225 58.8498 24.2975C60.556 23.8406 62.3998 24.6447 63.6473 25.892C64.1508 26.4086 64.5939 26.9803 64.9682 27.5962C65.2388 28.0531 65.9359 28.7887 65.1104 28.775C64.5141 28.775 63.7665 27.8841 63.2758 27.5917C62.5314 27.1353 61.723 26.7919 60.877 26.5728Z" fill="#563823"/>
<path d="M62.0512 40.0877C60.3958 40.3436 58.7029 40.0034 57.2766 39.1282C55.8486 38.2623 54.6177 37.1093 53.6624 35.7427C53.9849 37.1181 54.5892 38.4122 55.4373 39.544C56.2252 40.726 57.2953 41.6946 58.5516 42.363C59.845 42.989 61.4504 43.0986 62.4961 42.3905C62.9708 42.0264 63.3709 41.5751 63.6749 41.0609C64.0831 40.4669 64.7893 39.7588 64.9682 39.0689C64.4407 38.7536 62.6796 39.9415 62.0512 40.0877Z" fill="#563823"/>
<path d="M177.49 81.3725C175.421 79.5988 173.842 77.3277 172.903 74.775C172.431 76.5525 172.211 78.3874 172.252 80.2257C169.389 77.3936 167.322 73.8632 166.257 69.9867C164.302 74.864 163.216 80.0435 163.047 85.2926C159.932 79.7871 157.977 73.707 157.3 67.4236C156.492 69.2055 155.682 70.9873 154.869 72.7692C153.663 69.5971 152.642 66.3585 151.81 63.0694C150.24 65.9899 149.063 69.1038 148.31 72.3306C145.434 66.2221 144.532 59.3753 145.728 52.7345C144.585 56.8376 142.135 60.4598 138.747 63.0557L140.995 55.7728C139.31 57.7711 137.104 59.2668 134.619 60.095C139.613 54.6557 143.126 48.0339 144.824 40.8599C144.861 42.4955 144.893 44.1358 144.93 45.776L146.191 44.3505L147.971 51.2907L149.503 50.0114C150.42 53.4655 151.337 56.9196 152.254 60.3737L158.919 50.249L161.795 65.0295L164.161 62.1922C164.467 63.4715 164.773 64.7492 165.078 66.0255L166.844 63.6908L166.913 67.1175C167.78 65.58 168.824 64.148 170.023 62.8501L170.807 68.8354L173.559 64.9746C173.334 66.3453 173.045 67.716 172.935 69.0547C176.467 66.423 175.527 70.6767 175.554 72.7098C175.582 74.743 175.747 79.8967 177.49 81.3725Z" fill="#6D462C"/>
<path d="M86.8322 100.996C85.7247 106.045 83.7876 110.877 81.099 115.297C86.0327 115.27 90.9314 114.47 95.6153 112.926C93.1378 114.32 90.8952 116.093 88.9695 118.18C94.406 118.765 99.8059 119.59 105.169 120.656C100.941 121.405 97.0747 123.512 94.1614 126.655C100.859 128.751 107.163 131.934 112.819 136.076L104.729 135.724C107.196 137.342 109.609 139.04 111.966 140.819C109.216 140.237 106.405 139.993 103.596 140.092C109.907 142.81 114.975 147.772 117.814 154.009C112.226 150.993 105.773 149.961 99.5185 151.085C103.394 153.342 106.667 156.494 109.062 160.276C111.457 164.059 112.903 168.359 113.278 172.815C107.125 165.931 98.6733 161.506 89.4923 160.36C90.0554 160.591 90.5647 160.935 90.9885 161.37C91.4123 161.806 91.7414 162.323 91.9553 162.891C89.3411 160.435 85.9392 158.978 82.3511 158.779L92.6387 154.667C89.5861 154.063 86.4764 153.791 83.3647 153.859C85.2851 152.473 87.0354 150.867 88.5796 149.075C87.0844 149.363 85.5572 149.449 84.039 149.331C85.1565 148.133 86.3549 147.012 87.6256 145.977L78.136 146.667C82.9601 142.355 87.356 137.591 91.2627 132.439C84.2798 130.873 77.0218 130.995 70.096 132.796L76.3336 126.897C73.3959 126.757 70.4528 127.02 67.587 127.679L76.8014 119.788C72.4717 120.048 68.087 120.556 63.7298 120.551C65.4956 118.952 67.7109 118.404 69.8253 117.376C72.2754 116.184 74.5897 114.734 76.7281 113.049C78.8303 111.399 80.7547 109.535 82.4704 107.489C83.5757 106.164 86.8322 102.796 86.8322 100.996Z" fill="#6D462C"/>
<path d="M180.388 95.0107C180.388 95.0107 191.969 104.24 170.876 140.938C144.733 186.421 126.414 172.431 126.414 172.431L139.348 191.196C139.348 191.196 157.634 192.411 183.071 159.757C209.215 126.194 198.744 96.7606 198.744 96.7606L180.388 95.0107Z" fill="#68A8C1"/>
<path d="M194.267 105.702L215.883 112.629L191.263 121.31C191.263 121.31 186.75 118.874 187.502 113.501C188.254 108.128 194.267 105.702 194.267 105.702Z" fill="#498A91"/>
<path d="M185.998 136.04L204.041 154.946L178.292 152.031C178.292 152.031 175.284 147.27 178.292 142.212C179.988 139.261 182.74 137.056 185.998 136.04Z" fill="#498A91"/>
<path d="M162.478 169.16C162.657 170.042 168.775 196.057 168.775 196.057L149.053 177.612C149.053 177.612 148.512 174.387 153.878 170.873C159.244 167.36 162.478 169.16 162.478 169.16Z" fill="#498A91"/>
</g>
<defs>
<clipPath id="clip0_193_2785">
<rect width="472" height="300" fill="white" transform="matrix(-1 0 0 1 472 0)"/>
</clipPath>
</defs>
</svg>
